<mxfile host="65bd71144e">
    <diagram id="M4SzCRgcgUdA_YAwatwr" name="Page-1">
        <mxGraphModel dx="551" dy="519" grid="1" gridSize="10" guides="1" tooltips="1" connect="1" arrows="1" fold="1" page="1" pageScale="1" pageWidth="827" pageHeight="1169" background="#ffffff" math="0" shadow="0">
            <root>
                <mxCell id="0"/>
                <mxCell id="1" parent="0"/>
                <mxCell id="21" value="" style="endArrow=none;html=1;strokeColor=#000000;" parent="1" edge="1">
                    <mxGeometry width="50" height="50" relative="1" as="geometry">
                        <mxPoint x="600" y="470" as="sourcePoint"/>
                        <mxPoint x="40" y="470" as="targetPoint"/>
                    </mxGeometry>
                </mxCell>
                <mxCell id="22" value="" style="endArrow=none;html=1;strokeColor=#000000;" parent="1" edge="1">
                    <mxGeometry width="50" height="50" relative="1" as="geometry">
                        <mxPoint x="600" y="40" as="sourcePoint"/>
                        <mxPoint x="40" y="40" as="targetPoint"/>
                    </mxGeometry>
                </mxCell>
                <mxCell id="23" value="" style="endArrow=none;html=1;strokeColor=#000000;" parent="1" edge="1">
                    <mxGeometry width="50" height="50" relative="1" as="geometry">
                        <mxPoint x="40" y="40" as="sourcePoint"/>
                        <mxPoint x="40" y="470" as="targetPoint"/>
                        <Array as="points"/>
                    </mxGeometry>
                </mxCell>
                <mxCell id="24" value="" style="endArrow=none;html=1;strokeColor=#000000;" parent="1" edge="1">
                    <mxGeometry width="50" height="50" relative="1" as="geometry">
                        <mxPoint x="600" y="440" as="sourcePoint"/>
                        <mxPoint x="600" y="40" as="targetPoint"/>
                    </mxGeometry>
                </mxCell>
                <mxCell id="25" value="Bracelet Store Prices" style="rounded=0;whiteSpace=wrap;html=1;fillColor=#b0e3e6;strokeColor=#0e8088;fontColor=#000000;fontSize=21;" parent="1" vertex="1">
                    <mxGeometry x="40" y="40" width="560" height="40" as="geometry"/>
                </mxCell>
                <mxCell id="27" value="Enter desired length and number of colours:" style="text;html=1;align=center;verticalAlign=middle;resizable=0;points=[];autosize=1;strokeColor=none;fillColor=none;fontSize=14;fontColor=#000000;" parent="1" vertex="1">
                    <mxGeometry x="40" y="90" width="300" height="30" as="geometry"/>
                </mxCell>
                <mxCell id="28" value="" style="shape=image;verticalLabelPosition=bottom;labelBackgroundColor=default;verticalAlign=top;aspect=fixed;imageAspect=0;image=data:image/webp,UklGRloiAgBXRUJQVlA4IE4iAgCQ3wSdASo6An0CPjkWiEMiISEaXJ30IAOEtQBarx6rn6j9zXrf83+4f97/eL5VOK+pXy99y/yP+o/vX7nfWF+x/8H+U/KDyE8+/2v/l/0X5d+/p5f+4f8j/A/6H9qvnV/xf2097X9L/3//o/Pj6C/1R/63+G/1H7i/VP/1etT97PUV/iv+5+9Huj/9b9xPeb/Tv+N+5X/B+Qv+Xf53/7/7D/dfGl6wPoTf5//2f//2av+z+4//J+XP+n/679of9////k8/y3/u7PnjT3yvDT8z+P/mP+S/Ov4b+4f5f/b/3r9zfr4+iP8D/Id8r0z+C/33+R/03sF/IvuL+R/uH+P/6f+D/ef7s/zf/N/0P5L+jPyO/z/8n/pP2i+QX8s/pn+m/vf+Z/8n+L/fP61Pwv21/4PfX7r/tf259gj3C+4f+D/I/6/yr/9b/K/7P/3fv/8n/of96/6X+L/zH7efYD/Lf6b/v/7x/lv/v/of/////sn/f/uH5Wv3L/e/uN8Af9J/xf/x/1P+1/db6cv8b/4f7T/c/uJ7j/1z/Y/+v/V/7f9v/sL/o3+D/7P+Y/1n7Vf///3fX//5/h5++n///7PxC/u7////yuCszNrvFCuk+Vj675oIwNx6H4FNgbHt92XSNUq+Yep2xEW8Bs+fQSpevJJ2r0EvJ2+0FpKQdC7Ws4xis6cqsJAjgsrwF/4eUq8KOOu5ZsMojGCkIrJlWHjhBmYuJ6R0qmreor5c7KKiA9jbRsLL4COtmaCWLVYBHNe52vqZnYjh+EkZFYuMvM1VtOCyEt17x/zMK96S4/vEoxaqhE3H39XMZOE8IKIiwak//Rq1N6F8P4CxsXrC4fs7EDSfkJscpOiRvEb1UlaqxZzLf2cFIkegK+I+XYUWWm6KqDUQJ6LQzMmxQdSFwSEu7WKoovIchmqOqWo8RwpKdmiYxqzWZz3ni7gUf4VLvqAaAV+AJPO7XNBzMHziMKWo2BmvME7fjb3Hp1RvyoRj5pFu9UlnVlGias1FkIwBnfP92/9vsPQzrTJlQGg9jq6QgcXrTCaRkwzfzvm6ekYhJDR4BcrafRzaQFvQxGvpo0g6V8aMJIXK9wEXGKAB1YfELCgjHydPaOaWuJ24O7OLvoA+R11Cx7IBi1JWqrwRFWVzqMg5zr/sz8+Jz54pnGDeDJ6FMqt+GRRGKNz2a5Fp4o2SdtipUXlHymSfSJ828NUc2IjCUYZ/5AYEf8PZwkwDLhKgBrqyzDNLTzrEh/v5gzNrn1zCLeT1QTwRw79dFL325vYmOIotzX1IGQrRd9qK+IVYG7RdlS1jYAEi5k2G71agmd/ekShBs/32TVEy220lRYvtcCsfq6sJ/d4sNo0K0rW2E8aCYuc6L+PCYIlOPow5yAfU48x87LGVokZwOWwNo18Zhg/Pic2oNAz1BLwv9Ji/dfWLbDTvvkr0Q5DTNhD1R2gaAwj/WR5zfUZy1Mx4sRXQY7U94arPAIz8Lbr6Fad9W+luVUoqhJ8Noh/gEawgB/7tLy/JXZNsRADspBpGYAY0L39l7HOB3HdfffcglL/hzbHVy/AQ+VvmQ1lNKlmQj7B5pTuuFsFBK7F3Qo+YxiP6vWq1frkFZ/mvZC7djcpoqIrjUdLbyhJWbSaHTt1N6zUq2NHtlQKFjXaJybqeoPmbywKro9da0O0B/7OiB0hq+V9txdqFxlML4wuaWMOVisgQu9glVIXMmkH8A6M6Oaa0w2vpkWOHBGmcnuJvwr7AxQl7YWj9+Wpnsm8F/Kpn2UVE+HSxed8mcn6TSn16Qihd/VHAzcixM0bX7TkIHzETQEShIYGynIs9jJVsdJgNUFQ3S99asQZPhpnmGAoM8Prz3A1EipL8ZxzVJmyEHZuRM05PtDqCu2JRakiekQwHfXXteNA2UwHtg7S9CNXgl+FOBKG1iheo7xoRjwTn9TAmvJDqeR5hWjjcPYOuty3zPvAt0JJ3M4eyUZBq4uj6PAEFSr/uD41eXLRF5Quyy3E27x7GU4zHE5uDxjg0MTFEgVwbXCCOD0HA2t9p/L/4VBdUAdNY/daY7bDUeKxHAkns+TUpl+PEcR3Ww5qzF64OwoO0ZXbUQDcbCFSz8TkQPkd9rI/ifR2le7XKl/uXSjKj1i9O5+yeJ0fXkT0GO5lM+UnE234CBYmrct49+PJHCn+1W3Ff4mkUhK3LUp9Cwds3CggIQUc0ygwtaUuhzgL6yCVSEQF7t0X3hMc/cRXPC/ndwfZdwRYjl9+A+NV5qA2VjhyvUgLXFqqAWATtaKuHElCW0nOu0Dt0/7rH69qGq03VJCkXkxQ23iP+58CqUz5OxnT7dqKNOVg8/KpY5AkWy16cKq8F82ajeRsYeYTVjd9MKbzGPZ9DyFI0RjCDl4J9X84ANkf54GZA3SxIW+205Q2OY5Rvx0zX3r5hIZ7HJIq2tB1X26BiAwfZPi6bF3DCq2ZwdvHKvpZOJW5oHAAsRI54SRQC9H2NXQc5hzrPDTU7V7WrZbXeCIfpcMeynxzyoyx88Apa9ApQrdhM8CxgtNVf1jWBZfl5G1/jt4zBCwKx0xWtZ5bKtP/iaE7VBjEFCyT89EpG3YoOowHYewvRzsYZNZ4tykCVzkGs58u1aaIvhuOXfN+9/+gMAnKpO1RJohd3dnbGNTys0qfuCBKCz2+y5D9wDn2mS16bK/gm4vXYsEf8wTI+JqWAU50i5R4z99ctuB/87E3CKNIdQx7FYfv15iXkgJIPB93jZ3FbNd3pNSn1+5SPf2Y6J5bS1bHva+O3hEc8b+J/N1ZUrIgk24Ddv3qAYjQmBIoDnmPrhcgHNR/N+qqPV0XMbeBjP+b8id1gXO2rbIrc55SuNbOytig797Ct3hgbnWHeP3zSmViurf1wnE9cd8V3A5rOTV1Lp1J5nWVS8Z3vpmVMyo3iRpbfeWqN1ilgSxD6GD9gc608JM0mGlmgfSVdWRlYGBEA03cz+otqAk9HwiJZC6AQio/ogMYRvW5+51L59mG5vmvfVuG3CY21YaUarVdCCPUQrmtOj3Axp7qtQgP8Kbkj+CrZBtVRlLw2gjmBaQzzcqRSj36FuTkfg9exuvoxw4K9zJ18WuH8AU0AlcV45TZZPq9qWaYPCj7BiOvCxPz03GXr2bAnuiG4WcJZL2f658kctcaiUi8ZJSL/qskn8VpnYlOqMWcvnTVCVp0eMCub+LnYrlroxuuB2DMzihEkfwP/qG5A0AUe2k5ojtNstz0ZTsJ13WVMuStgg59r2uMrVXw1HpsQhcRRqu8yYSC1fZ2fS245vovGfJy4p4Sm/0mlHyVOmIpadb7BKv7usDEW+uXvji9ehmr3sVqvKLiF9HGQr+S23ly9YSt6Ro8ZJBhNDwzt2rvmFyWqwnPpM+hJWe/PT+5QMnFzrmlsmfSWIOB/nHkXEKayQHzFibbmHgfPbSCQ5RRgnYhwZWeUh40S3BO4gzwBONs9doPJcSf7q7A/HbOcFRCEDqHVAPiZf4k8X9TeY1acXBBl3TDGJH4swV+L90Hiq2Hq3/5AXB5W+ij6fF6bZ6Z3cGj9sjCaaYuol1rXhoTidvPzyPKa/TPlpm0JRWVBVhA54AVm+HKNtBdPTP0zLM9xSkV2X3ctQRjn76d1qEaY4Z4DUSilBrN5mPkszPm97zuR+Jxm89tBX4CBXtgUHtS/c+S73UpSrj+n2YjPFRb/RnhV8Nrc3k2bGk2+9ercat0f/e0AaPQv2kFUCXhwco/gojJ4RDO8V3iaJPxkEF9O+BGDHogAlyiPdMO9CnFPtCm0JxTQ0PEfoUBkxvDzI/ksLpFM7yikYgzW6vYGLJdpefCJGDg3F+AkrukiUmpqhPkxLsJoYrg98u7uFgdaP0157bQ4UtuIo3l+hbRkvv73nZhOv+Uj4n6MSU/GKfr4GRl3GgX3HXbKdInLe2+E630TJ2ftMHVrLW/wGuyiRzTb/MI4OsSxCituP2pg6VwZoidChf9381ENmIzvbl6Rdmu72CsMtCp7/380Fv5fterEiwAxz5RxyBefYXeYd0y3RqCHb0+ZVBXqJRXacBWbbC18o1ln2dEjZJq9K/LN4XNLv/3lVB5LFL1y5BW4Uv92IIDavl0gJeoK5dPnGu8m2VFPUFW/mHhp/87n7ZgO24aCE3jFOD+1ASrbTAIvpfjBAoBML8RXhEJTnaxvO1O6/Sa+oPRQXYC5s6Zkf/pfLKvBuX1ObyCZfyXE9Kd7Vqjuj+nAF0cS1EgFkJYLZ5id/ziWevHfyz2/ED8eD2F0k6XvFpA6qXkGoVDXwxDZqx46yqC16mc+4/PVk8J/oRaBVpp+y0N+w4JAQcCqK6T3Is6oprpfe1WF/bud35seG9yWWxZyOxk9qgmwYv+qk7ram2d0TmWR1gRpAHG4f+xE1dgUeU8MfNBuD6aiEWNp8/qYV3Ve8Uwqgic7bKOZ2/MRPJF3umI6ef8xnSmNpnn8mubAWn/aVx1DIgFbRib2xwJnMXP7dsbkJrCFieFDyGP5KenEUaumcMrgfYsIrMJSObqAovIRDF/iVIe5ie6NfRxTIzhl1GmpzKyECbBUB0RlB2iwxTqG4r/76UpyJm2YoVt5Qx/VWtoiUx239hWCE/xDBmOz0BodEFv5plWPDnr6Y29hpBxbr8j917wFuf+qHrFqhgpu70zvdo2gdgv00v7kcWBXsQndbmgzztksavCJQL+RRdUTJbb1i/gEFSCaK5XLBCXQM2pVeuHEMWGlUAO5Jb0ILYVJQIgOLyE96mKYkSUMeCXFj1WPOmFmDeMxIBtJTnMf7edkRsDzAx2ox0bHNahp9gl/jdQqg1BE0Hq2v9LjxQcAj0hcNCJrHfbgQsQXrZ9jUVHXhj7jY+ZbzgHd4xj1Qm1JFi8fPHKYhRb5xojp905U4ONJ5Ff1Ce7sN1nnqdWyQfy0HibHSJ8Y89ZIKn+odoKB6Bx11Q9HYHKgQIXkJp6Fz7H0nztrvAAYMhAU59NTo8mV3lUDr4AUcKbQqcLbT4avvVA6OUpaYmpN6QgKO3wA5FdT1AkI4hhBkfOpfhKrxViulvBjj844L8v4iPvAy0vhAYK8bkWAb8+mGmYRiiQiF3mKDLVSyWHd96ceJdr8Q+7c83v28ec7tWO+Vh46ErRpH+NqCg3QGp0fhIsib1PO7y8Nb/tVc2Il8h1MpiRMi+2Str8f91PHKUdG80or/kTr8nZPGQRNss+WDoyZCBWYSm/++kEQbnLZ/yYzmEW7ov+9BadsXxAoKF2lpBazhV3zu0jMtznBk63936b74l+qBOCmeyHdIKpKivtffI2Dn+aM4F5AYpYrgf/VC78SC+8Yzn5KTbryQ3+uGD6flsJcPQRJb5Y4YG7YtxBf+5i+o2OwbEwj0HSCa/gDO0umBeDUmhRapLw0aW+6D5lJmTfoURYK1vvJz7Fn0dgcQWuaFR5gDlT6pCmqiYLIrnC2hyFOE10CILxE0DdgVy5GNU7ycVsTL215Ao/DkMRFUM3QjEfszzTTZ8dJdE9vb/msLZlIYUuT2Obh4ndoaD4msxEQ8c/6mH2LJhEIgSdpnxw7VseGRG67LJZWyb/yZ/Z/B8jjrqWy3tEaybXnxvzW0mWsEgDYAU9hSG1KL+FXJD+dS7/SfvtZsLokPQMUZJiXF8UPlLP++u19BP5FCAvAkdV2s+VU4FwGs1m7PFwn9BuJmLRlyuL0krx5YVfu1h2koe92AQ4zUoJe+dA7hZd+q+9rQHcJSh0moVYCF1mS+GsdHghiAfV0V88XstgRzxbIg4AjtCS77PcU6lhWNACQdRjxWqziUBeUPGqoxJ639La9AIH0EJWJInjNzTL7Rh8ecrh/fWSY2zbmcuT/p0NOUqmFut35BnfevJzqK4kP3lT2QaB9T3mnmcvkuTnP4wzBSvowwGOSD03HQdULFcBeohO4p7t5v1csp4WFDH2DrO3KZsoukrThBEpKZUFKs/81qU7rDeeBNV5pa1nnzx1MZAahPijPcPDXQYgC7+EENflCsVnrPZPPNvKOYxhhu88s94StQF49zSu5o0Hj41JE+bc50OE0SYWLmtc3b5SoF3si9nHKRb6MfskQ4J7wbGZIPtXqv125hLZRti3dARMYOC5ROHnt/E9tlpQX/16FYuzmeduktNMuqjQYwE2k+P3qmVZwZQ8Y4i79qBgaI1VfYLMWlXIORhAu2/osM2ceUsX7E80HYCazDrfJJ7smhq8GI09WxKykDYPH0/6mX4loG9foCpRXEwE8L5wtXwUkvNnEUrdaXXA75riUxnGBcsmhMG2qX5ZQXkviEVg5egyRZB5KPw9XygCN5UjovD5B6jYc6/3t0tyZ8RwWP3XIxU2RqCTaUnt/5bMIpOr6QIkzB5X5vLiUQJVx0iYtEMNj7u5qoR9wLt9ayp3z30rTrP2qTQCU3AkDwBKUIBHG7/r8ONnZ8vGZ7EhW3QxhDhWTkd1Y0heXVHEoqTlDDZPeAzGUu1twFgld/6icKDx6HFBTCwcrWjMotE2VGHpCyAf1rxOd2HxSnJf8GF1+2wFSEmvCb19OShY/nlCjKtwkYzPuK23W1nbpofiK6vDDEEj8xH0JbEcvfsglquAfpiwOsXXw2sne0DNw+VoksgMFVT+0SwXVt3gUb3oiu0L5s5bADrUeEcGJhVtAwgOhZCQg92SmmjRlUa8jHGofZs3tP6XgRqsy7pDCIVcAyNPHDVIBashii07fcBC86ujEAHIj7qdhaOrntb8DFEOyiIoTfy4zhgNW5QJSLr3dXr7gZw7LJMo7jcuXJMUC2kwSV7j1cXooncjFPibduKYsWtI2wPc/tUWFPhPYmoWuVBjjpSc5P+Rh3vsHlWgOjr/wyTVL1lWANOUrICIHk6reo9/5+7Nsekfd5AqXtFXBHnUc5Ixco7ajSlrd121EopFTKd1MJ1PM0TX0pL/fb8YfGrAjRPTQ4zHdrODvfUQoUcDiczOR8lMtMq6FqB38PoPSEG5nUatLg76dPHZJe0SsPs7/sgF83IhMNT256xQTGS0mXFXhccB+19sh/3amIEaiAjAVoBHy7kDUZOugB731e+x/AZveR5e532me1pNCwgiuVqscM4+WkyRJMD5HPXoPZ6nINzVvyoLtLvPwd33p0uTfokw5oo2CKz9Bw5+Ljtf1glkF/F4Wvt+HKHuHFiV34JEiNhGmMnhFU61FPHs27Oa837It20inSUB5Fi+8Vu3gj6S4APBL38yKlyKnD3pmIlHblTlnQW7MvIr82O2stL98ZmwBeiv0E72VLlB7QCHrFCDVaWl9YZnFY2psHa7GNh3z6qvqqBYSYpkGo+UInVQzosdakaBhkD9QXyjaLEQGxsOsg+M4RuAw9qxnYOT73cnNTT09dtuKoWbVVRnEtATR4eWYscSWOWbVr443SA0l205Y9w1p3uy97gAPQNeTbxV48UvJx/A6+GZYrwaHpnLXD4Ds4VGL76OHa8jE/E3cNCsav7HiiUFKlM/WKpK2Ddl++aG8wiV/j0t+cIRqmCvoUourpLbo5Zp5a3YyES1HIEWwijMXuBsiAX73pS6pyt4L+f61e+nVnIlRvpFr2HxvDMtvGDWjDihbwSqZ/pcBOE9jcvUYvNH72i4lVuK+gQjcX2On594wbbmlVi2E5fan1uUzfYZl9sWo75GOpegiA+ADqs3xqXRwhbovS5EJeI2N4Yoq1DzLk1KmmCvUOdqZQp37myb/ComfPoPxAH1bK/xdztV/niSMo2SVc75fq8AZ43viT6F8GX2L34uLACa3ZNxN5P7ANiU5ZhBHC3t7Mr2JaLNwkNE/noclrZJLyvKOooTwZVClqM781/yfao3N5bDHmRP782wAYCRlJZYCaqof4c2j+WKlFk0PEhLu2341hNlQAvIVuyHYZiijjlgby6lhNBahW2WpqZYismpci137sbavyGXRLDFLc9HPsNTtM+j5BCkpONxZKlqy+CqCEyhNakERp8xTiTiqrTSX1IFOmIug00yYDH7gdSfGjTWl4BTXx1X6+cEa9ToHwGJ0/JaVjrRu+PeE+RlobLCN7s/HXSZWN/2eoB68ojObd2LLzXwBELusktfgcW+ZN2fV351Ga0MiTmgQ+DaKT3KcDJfml1FoQRtijyJmKd6U1hJ52dZPT2KXZSyGLM+64tdbAVs2CSs5w5tdQdfdFMImU617aRz9hKjWP7Jcfvc1lmHRFtvkpW8t2IXggNvGsrZI7joO6rJL0E6Rf9L4qAOcHy/etp6MTPxVcJC7UjW5EyuxHqjcgGSioQyYsF3IkLfqXpKY4MzMupbv2eTl+tUoNR1Ta+FYgZzpslMBlszXptkeRJffCG99XTpRg9TsW4HXw/BJgmJNksFppaKZPZErJBDpkIK0GlFdVu7e8L8lvUXiYc9nXWQRxje1T7NfKFKOas4QajHB7SHSGWC9Ya8CrfZbhZjR6UbgmYzat/0cag5S9wkRmh5DpAsNyfbVZFsB5v1fG043hP2qwrvlNGCxdKcDNeWDOpLKkckxcpK8opTD5M4YTeG7HGqH5goSRx4ST0WfEfvyum14IfOF3Q9Ho8I535x71dqL3ZUhPcFN8JvTI5l5zoaJlh3zHKIN8ctURSqhrSOJUAtNlUQcAPVuZyHnOxWRgAi/UQYFjqPg6WglUVWP6DohI1L7yuBO1KCBo9sPJBVpHzyY9ODRkb/dm4n4tYZxM8Mxk8s90FuTtI2yTq+V+E931AQkMMwyGYq1UOS02LilPnOPzOGihScMlWZwGnu0mGfj9gTtWIFlCfcOjaa+817lGG/4XFXvfzHMYaPzYuuEDPYyR4A7JzxxaXuSUxvQ3CuUKWt47Me+RiVRDUu7THxR5laXMwYMIyC1TF4+bAFvpH1+m8enpdptZBPWV/1ZnPWIPJ5xERS2gCNslToy7q4LxBy7g70izaOZ5v/E63Ye1KwHiT7ts0mpEwcONN67k74tUq8Cyv6VO5i5do7ZSCdcQtTpC9SR6AeNwf3f3aL5nZIm5qnl0eQvBKOKuok9DdNoZjtbSoumTnUq44ERyx46RaPz5DXHaJ2GHxqUxJuH+zi76cOY8l+iC5MeCWoVSkhubZnPu4D5HLTeg/E5SRH4bwG/eBjtjbXtgJpsIeDS5WDxbv+rABHnMawtyjGSkROwVOzIEAStekj5MMfMJdiI9KP0J0DAl4QRu5ABjAJZwmxBLwaNlYdWLvfyko+sUErCDZBgnb0YwAhJ6CXOkBkdEk46bWTFlcmIQjNLAPeyRSApNa8eCmvr7ztTw8lS+3UhZp6ZwLt9WWsek+Zp5yWxM5yvZtMsW2GQnJbdQMQ3KB4yR4du4Hvtacno5e23UJcxvBO7oGZt2E3qa2zMIFyBzAXAQSn9Y0O/6luESUcSips/Ff+EuE4qSLKv9NnawkqBm1+kXLlm2ijCcFDNJzHTSjlqelu7VilkYcQmQjNZHdg1Utnysvzm0W/ORiObL/QnkT80CkhGQNEE6uvu3AslBEG8turDiiOH+PNMfGA/CqpUTCXeJWqEYH64PqLznNkk/HryxesGwxa0RJj/xeeklyO4v9kMW8AD5nwt7+NsTWWC74fsvGpDdqMgK86CIpUBhuoiiANoWi0V3MdfRmoCpMUdCtyF0HfvvO0GD7H/JnrMLPp8rla+AmOY3M84Btqd8j9DSUqUN1/G8sk/7dZTF8ciK9t6Uojp1coX+wKtyM/Jxan7TzHTKt8/htmtDukS07vt7g+eAbbHO0UirtYQ2Hl4c0I+pIq9FTQcZsXeriz+/eESl57fDyo2Jcoiv/fA1P2UEUzqNgD8Rv8JPLCRqTH+J510EclOQQWXvL2wMAMYlYfR98ZpfUQtoMq5NBRVtwQxUzr1lTHOJu3MUFW/tzSaaK4J/Ojykb+u79R7K1NA4dUas7hCj6fIsK/sCNBvDH/AsQ9ul/S1yZ+U2Za9k+UpCk2R6a4y0ov01qrLJcrPrA5zzMYf0clOhLKT5yPr7UYFr1QenWOmQFMzjWhy2RuRZwMO3tLL+N2LNNJ2+vHC0RRPzxnkPKnj+T+LtVyXR5wVLSYpbjPW9+/uA0oAvWPF4jJB2MdLb+7dqFkVKyH/c3H1/8aD+rKnEdz9qNyHEgboBOyRpnIIXwEX6s7qM3yqRCd2Xdqhw4n+9N69EWVyt9In7g0IxT9pOl+hObuLAFrUFj2ddx5mzn6PGxILIVFI+m/5F4JSYqTsjOx9Qz5SlYO92/0+/+wCQwFoeXbD/kLoOHuJxrp36Qx3FHG+VVK+bgBNEn9mfCEPtvqEtqOtWXQ9s4NAvDZZO5PLgEIKqndewU8NDxGgN2/UvT8qqiWs1e7m61RpiB7AZEYuwo+njdd4FPtMlAZigtZDKQ0y3ymNGRzBdh5xaLRgWmCxRy2Fe20XpDb0815usMWRgAdXMGwG4GD9ynjeGZIo10lK6Vvg4wWudkOQzZXGon5sJO4omyGEmoLc7gjFVscgIeZmSK5QqzMLe6ea8+FuB5Xz6r4Ihwvw0ZbjkFI8Zj4BxC8m5tSAKGc3PQYG5qO3BB6uMvHImVZkXUJPHan1lTZI/hdgRXPO6mmWP3SrSlf+KfqQ65vr3x/FpQP1foCOnvJqKVTwH27KWDfvMZDxDOvcsDGbOVFpsDNeHH6l0xpmjUIUrhNz0OwWClZKZFf79LAnts3c2Mn0lYvK0GQSxWSG8XqEHgGRm4SWuQFZCFhJZ5CBtx5Di9zrZsyQrm6bQOvbT5tZgKOi3nWgVxFuZ9eBKA60hsWB73q+eu1aDEbNKw4FRmKd5/fd5/QbuBnvtaV84MF+L+ic0W9A5uN/YDQf3kp/2ALW7pKDRyB/CCErDmYLkcXHwVVH3rTwhunhJ73Bkg2NC+XrBtzwuKWAbWN79Sb3OF80tl366wQf4YeOQ17IYzkBIOYZG7FeJaQ1wt4tG5bjCa4mB64w3aGINeDkqVuBh4ldWwBnOLqyT+v2FOOTus0VrLb/AQdatrEtEcia4eBMYq6eBn4JyUggJyjGXoFg7+mn3gupTCJraqx4GZA/W+0neDMSP0MpaahaobieEU6Ek2LYDBP8b1rPYJ4tohTAqOxve8IEI9E1g9TE5lvMgLDR70AnM9GHesF+RQeaHa1MoWgqwvelG3cFFOQ6V3YS61CAfB3HiFNAdFumIETq4iHeegYrNey+3vm5clWfTj3yBvn6BUG0dRxwy6AghQXiSaVbHll8s/+DCbTmg0Ra7C2SL9riurqc43umILnb8SJnCkrC6xH9IAjCqwvTp6aUTFFJeI+PgXxEtaPqUSYp46AzDhZcPkyZUsMow/gDbWln9tV/wNXawrU/vdrvVhJnxuWLxkLRoc8qiPdO0YyYbKTEsotFGlttIIGXX9uhVlQ+6aolMpcExX3/PPARwmR7QZy6zyc01kLMnywLQmOX/pqPj+OAEMkDKS2GpG06oVKwrXQwMdi8+n6M+8HCui936lHb1UszCcxtZF2deHSyqW4uhnkUnX81MDqBHSFagPB70zbtZnzKr88ce0XyrAekiEB7IUES6dWUUlY4WLKRhG0Vlxk8zo1abzo+nlUD3Oc3hSXtxijEPqrmLR96OA0ojbe0my7H1QbigyKIbCHSFucp+PZjLEyrIC8/OyEUN5HxauGBvIVRucsWECdYOiYo8Epf/aAWPHP9XeNSlFhSkQPDIaBpDj3GDbMi680Uguh5gaJGIVOvcDFMkFV+eJGDypqd2Bqt096hk9s32gub0l/UyUurLOGZMdEwqMghTm+gDVkoSpuimru4IH/sTbHOW7xFkaIq6ZIiNml0emR+of99T93RsEX/2kMEfAiTeAq6xfh2vbTGkwHSNHtexbmO0Vzv5Fqgoe7G+OHgj3YMiD8K4OaKAEDFqYwG+vgZfNvamfp/mZjTGJA8/BRmx7PccI4ttkUft/4mfFMixMejB2Qg1UtDqRO8We3RL7s5UDx7o0nTEXw4h7iQ8xRC4gHanmgYzuNjp2Os8kuGtfStN4ES7cb4DGfAg+TKXdRZpM5xeTe6Qg5qUtgVSIUMzFEDRTjyqHS9Dw93pX7RvV+ob8utxgyG840uX0a9r0X5oZvlb1v+t8aR0vjZpOjj10h5SWz3qBS/pTFr1vnu/mWzZe/W5xHqNr0t+JAJqFN1yTTQNgWbDEdPd4WPAHjK77Z8oTmTz7AXfdXJoT8Ekpn6D1Sqvy5Y/66wO3UVAVtoZHxRgfXqH2XT0QlwA4PbadnwepjZ2CWw6uVUql+jcJ1vmUGZ0zQazRw+1USd1FK1deIMLiymYBrgT0jWBD4XfVPgRxItkipfvZSDISLyh2p3vrQYEPI98Jsrv/R2kYFcX9wQIXb7d3e+qxiUkfee7qcjUVqYZwtY/BDsq5Bx2ebv/GggejsiR/hN9FRtp0KaGbt4SxhWECGus6lsF3t9Ynu6mDQckZKAzs3vHmvtrfTKLNTadYRjZ5zE1+Cb+wdQYL2vz4O6VfmagdaNCdYLjh60ky8QGCEwx6L7IZU3Y8z3n2Ja4Q7lsZ1kThCgBf0PbZqV89iHcR9v3zEM9DvG/oeTLg5tOOfCxKI+VWP9ctRORKYS5Jpmzepbk1RLRuiId4DQYwo+qRavIW/gnCYcVduxAFs/bO+f5x8YirGQaiKDdeDwn/lHHJGPN+uiPnOzhZj1zY1QSpE9UnzkgQCEkykMDA6VgQHwPJmCCUcHvCPEI7gEOcoh9XGEj0Tb3s4z4drsOBhvYzy6LkX6hSjkpDwQa2Ryyj/83VERESGdgpvzBPUo//FN/kywNe4Usz7LhfckpvzIplPSiXJumJRnxQ6RQNbzc3/mCq3Rsb+xQQtFSu8RA1Uk+UOm8/CKzS8T6Zc/6a5n+ALO2FzTK2A2YARwJBmncR2B8Hi2kF2SGl4w+paLDBMX1dHEybi6zZA8oGV29U4SZQppY9waOrU+kWEOU4P8LfBsFhTTp9HrVuc+JN9E82ioBurztr5nizvEUMcQ0zvvAfxWyzSX/xXCA+0wei/CTSh1FuaJ6NFZiou6+q6V0WReqHPAvInuDoMp6lsgvPCgO4UeZppkSs2rJVhbo4ZVyP9m44NFvvuhCEnSErc+XRmpmSAyhiP1NLqiYYhQBB57cnbiqY/ppqOO2Of5fv2sU84veZGJDg8z8dWyjdjdjKkPWqZU827T8Iyb5sImv+XJHMsZfnGYF2sK3X8UOh6Y6X/+tT1idB2atw6OcVv8VyJtySFg1G1OHh/L4Sa4G6P0HTMa+XMwa1URVxZ1jrFyY66SRtM2wZ+wRp0cLz3RKBYhZfs48MgFwZYdwj9oO/+swo0n3VVk4E+Q2wxkSXnmAAD++4cA2auIqVNDDoSt5WhD78zifEY18wZDBcu+LPWsBIDK4QvP4AdcTa2sp5W/86B1Rasla/83lzkXZdgaq/1RC9LKedYHUkA7hW+GNhGblwV7qxrn/hxwodtgbXKA6zSOgBvjQCm7lA+4AW4oJYxqxVUtAWjC3UorAuxHwvmfmH5T9G+7Qn+mjWbTWpLRofGYN2gWKKErdyIPMTVIZ/Ck9itFoO1glAHQ2YvEUONv/qsXqktATAJOoPUxL38PAfC+GzCiujIJfYgsk1zqJkVAE1CbMMcLnSnTztglOcusLC/2dDBZCF1Gx6UoEfAaEmtnIlQaSCoXtLPwlviJAu4GiW6wSk743FsWOrQtjjo/UwG2nJ1wg/4yHpQO1NE91GqVD/2T187TTFaXuKAbAO9mLCsNzP1RjyRFjs60/tegExs+z5OTyFGb+3Xdgqvvxg2vajwXrz2rJe55mDMvV1Ykbq5Hb1zACtr1kdJJDjbgHjkf93sA9Ns45dEBakeeCxw2GJZAkDcIvFfhK/XdzJzwdaLwN8Ns2+pfKrYOwsoJ+k3rGDkOa8QNdWeYXEIsV8t9k0dlpStdGMam3dz5yh/015DySzQU0AQcJJHfrqt6jajNW4+H8SRSly5M8xWB4xcDY+tpjVC/8pikU+ZJS2YRkPH2uNPqsIOba7V2zXWK7kdWjdlcTWdZ0WylBV5A+WL8BMGn7v0aypwO4QOu6mSxJRxkYxVctMhrS0+PrwM9ehl1IGujK+tifWBV/GIOHBf9Ufedzjf/hDQhlQkqiOR5mCx6pagd4kdY4m4cOWV3yX9GCUvw/0Y8NQEV73K4nQs7H/b1jFgzkpzDch9dxslLUSOPOZoVGZXtFb1incl6s31Nw6pyGwJTWTmGJOl9HgzlBHot493D9YYN9jA//JpWJAKsa8ewsvMTzQwgNNozkRZD62pAqz9ZhDf0fHKQSgoTa/hsWGvMiDB8/7YvFBVdASIdPEYtsVWCIRZPxc7LvLbdrwU857wKCnGw3do1yRFQXSLGvP9cwmpdrTYMXVa20bZ3iBPKVD0kICShNvEfgLUI2yXFolYub3ybgNqDUpKavSAIVQXDZk0n0g2y+olTWWccvAzf/kL7F3MzLLfs/UKPmy4lOmssu0cNzqdi2/VK7fxrAzApe/6f6ns3xDKrvnpzXtVRksC9FmXQQUXR/g1HJEaPDhbQPgsudUeJlWdB7YwSJWOdcxZxA8Yx4rM/wgJaZt5Tk+QJHcDtMvB6zRTmmZFe8dzVNJ5XzEwYw4MYR8cShfILTLMjujJ1DjbGJQ83AV1OGg9z05WKNv7BdQxXesf6rMeqe9WvXbsDVJY8HJ8Ua7NWZRvzxcMBL5luRtP7TW/ltXaYIFJb2d43NoVjP0qFpPqujOo7Nglj/B08AqHflmTpzm9Y55/74jGYSGWOTrNHryqpukE95LS/03IeZS5l2pH5BE1NPN9hO1VsFshQOFOCdM+hbYWUO6ev2Gu/3BuivDcRoB/C3w7sgOwLeeA6HeGiS8cDQ2LvTsd3xHUX0v7ReDEjXQegjTPuu9lDgSDGQPgRJocWmtnI2AIDTSySuZ/GqGVKUbcheQZ1HkGz6CZexMjx+Pw11DM5wprfq4XBaEcoJFuT8d37VBmovTPuvfZtAHroHZFUYII8618d7P0NlB2K7B3HwSoKxRMJpiYGgYq5+aYRZMUg1xr00FFJdGtCOlpcwQ9JGXF4cBAjhrwo/364b2zAwIcGJK2DlWFsOb8KUn5hdYUhuYb2S/FPpliwav2/gf9I/WSiGzenbDclfcAT/+o9Ulr9rNWmCAETXfr/gg/hn0Xf7Ms64zO1Cy0e0W4JNnDKN11GrsoDzs0wg3dbXddSrktCggvrjNhMN7/rGNTCcxyeWJc1NutK4dzZLTCz9K4KqxeTCA/tVrVyqJDUgVFif2z2il6cjsJl5IF492dslPeCGeM/p2wBmTy4U9J8ROySp7GOyLerJYOgvD2vJXr9eLCpGYa3By8ihF30pUdjpO82sqWb2MW5imUcQEeGOWhU5wu7vvLgqKVbEWPtmmsExHAYxz1Ic4JZ6fg1hEjxF74NkOLnpdHnoFFGJbIX6ethAXJlt7p2WPd48kw4wnJy/4Axfm5PW8W09gf53QvC7EIN2/bSWobx7/szKYMupi7KG7P6i3yeNzolSHDzzMsPgua6iRZtZvIkp+lKzsF3R6IPMBrz5C5bOCX1ZdMVkFUFIpAshqjOAWh76jYgmSIZl0Iy8k0QC5EaQ64/rLzxhBQBo5Ccai0MX8t+uSJdFBbXIBeNa6++16F2rHrSYSLbEZk7elfhYuNQn/thyRfQk8QnBym2Decfv7N943fOAGUZFBHoW7Hh6tcJZL3vvNq1fvvwpHkTE7JudriUIYPF3FwtI/WJxx1jOMDYBYZutDvj0mtD0fHA4DjLP79wUxJcIpMES7Eirja8gkZnUHLiJZul+iRHHmd+Wa+DmdGIf68HHfVwGwrhdv4XJ3EghHwMi/7MawYDg3HSRVaDi3hj03yhgLWw3FuZFGkLfFyYW9UJvJfkxLvnc/giuZbhP0+NJOqKiw4ls3o8LEsLKPV4TcaWS8D3L25ZwqXJv3Kav+9CC6nyDo/nuNrl5KmcS96L7xeigPPnAnyYm601Eb++p7SE3Kp3ASVqBWwC3R5juLpmf/do1OTQXmrNOyu7PaHR2cJeJQZ2nLqb/8vJsrjDl3FelON55W+INn4sYYENPAL77BNh3IUIYtwERif+aQlhy/jHZqVhBwRYHKWoCF99mwmFDWbrTv0rF9jGWmkejeWOsd9vnu9nZ95Wf/fuQbtHfYAPjnpZ9qxwoz3yvRXSj7hYlVG+qWsHvGajpjTGpp67I+uL2Q9XWxYXGEKxZbvFmI5BIUQ1RIg0bUyO4zqw84++2IOHokAa9Ft00uvz0H9shfR+mDbWXNWLan9C/+7tLK0dUI199LrR2Vi6pATBrETXN83YAIMhKe8G+B7wowj8WUyB5znkmHW9ySQmWIVGO4rtvkDhDMesFnuAhSg4SaNTnPOacbUFX1WsCEGphaHFYjFPryMGxKjwFdtZ8TwNJ9gw0SQthhl2WPjdUtmongCHv99J3r9GwQ+pMQkz8yvqNx/oh3mHbKWBz3d4X4/RfSqmH71KahxWpl4fq7sB7Hb1rpnfk7++XDoCZ3/ozV4Cx+s8BmyGmBgVm3adz8VbQQsE6VTJfcJod6iiUip9duxcAZiOZTTMj5g1CeKzOIndfsn+zKfNX/Fuo70adlSHSM88GMnG1NnRBuYDnB1dQwxk7KI5xxyxMuSHHvzxkdM8StfVoHxCRrt1iD7KUEdLKwJQhme3Fu+jf2es5mYm1LEX2CoKmsbeihifh20LAWZJorDVfqkvHQjtDdZ9luf876OeXVS+pLPRRBOpeNVbg1qIFFIZ8pN1kHezSUSzzYHbTT5UOuZavCHE+Ofo8okBOJddtwmEfRYXXCuRAYuPFR88d+VN9lG4k7qIS7HDArUU4cyjQUYqr/gKuHFWDfz9/qanify/WHwsR3UUYCBIXybBCozduz9MnB9MIHQjubs/c0yX2zI5S+hnNp2SsQFS6eYXxKLpk07uMGYA5Erl/PmRl0G83L50Lns2ScbQVR+x/+BxWRSnBorwGQmrMHWthzuy2yQTWe6wA6/RvDJYILV8TElGcAaPWXwB73gzzpHN7OB3bWlvQNQbbz8li9wb+mZquSmiA9FwiSC+l9ge8Oej2uT/ZuBXtFj4wwda6QtUTYdTUvwk4pMrxBsxdY0/dWQnAGhaXayNN0cE15AUZarYwnzYrfCaSEofSIoLfCVmVfF9UY4S71oOTnzRe/Fci43/nOUfAW7dVJCVzkemPUxgXEmJnYdYL4Eo/0e2LWmvKyyyx94R+RWLbCdE93/6Jwt3hXdG9Egs67TIbwf0tgtKWK9mrg9HHfboKNZwKboM/rsOAgietSN+LcktbkcLoGVmJZXqikmcNd0NSAxpiEUVmDkvKPoZ84l6GgvKBCOnD2OJ9SMtbGdngJ92+hx3TPVrdlq/NRULHGBn0CKKhU1jcWDnHFHuL9mYLuZlpkF+vb2arDfQx1CQEW/nXxPVku/30Oqz4LG0JTaIjEZxE0zZLVIx2QxNp9qdNEOnZbEkSPk/k0PQhcCxkMGFQCdnDWqFUaLKGZQnnGkNHP2jx+0x64qH0hgefjSds2UUqV7jZQ/Cz/OjRTaEQ1AMfr7wrvncUaNSoEaz2A6YI+6RX51TQviEyD3kvacxnp89Ol3oGfH3NgXuLb8iPxn2xUx8m2GCv29sCx3bu4aq8rxwbtnWvJWn5KZ5HZG7o4y1L6fpoXJoVxV6nmKSi2OrLVeOdI6RvtGIAcnU7LZSLrKUXWQJv+5T5UrInelKqOdo+Cwm24nq1ZSyCcn8w9ZFcFYCSaeFOwPjqq5z3RB6W9w6gHYj1pLKO2IotbZf88hstzrV+voKi721hZMrjJsFXCZh04NCSjikAiN8LZKB7Rw44/3owokIjuunoW41+qYsWC+vf45u8I4trY3QaRCBPPhKOSzaKDedWucEanDVsYgeHFH/YJmsNDTN0o2L8l08/x8LF+jxvfEiojMRH1CEE9ublMMCFiua74CUwxxzQgh/P/X27I1JJr19vmTQTEmm1PnEbviiO4cvb6/CJzmiFJSJsSK0tol3msYkLSNQE5rER1ghMhFqkdW28U0sUIXorIweoVo8DZ+yz9t5GM7EtYb3lI/zDDpckDPRX95upjO+EE1EMb5AjSCiN9Q9WKZ2xvcfTqphTeo+sGRMvMVs7Rr1uYQ7Y9EhA15FkB0fd/f/IXqIYlJ981gd1N8lw6xVXTdRaMCWT6JmdOhDiCJvEpy5dqdK2iT8i6a54G53nahR+ZljSvb5HQQYwreGwlSonLE5IBNIt2FWdMLxx/MaFghLt38ZT/qMs5IkAc7++tvFXViBm8I3qxzVAjcXzf/XDITwe8EqM/9MH4TXnyigiI4Fgd+EJsn+iUQ2vSAj1B/N1JK0Eh7yS41aS2MU8jg6285aRbeqs0eR9Jg3A6eGTIw6GLrdKQWs1tZcjvmmUiQcTf3rhOD1Qj1E05FzVYRx0bGQbpLu0fYCCr/SMyNjXzHSbUrKarelGjd1ZdAsSRBfceIyUjZ6AgSazJ7UQq8SCfvBsPNZsusPDzzLlTU5jc6P+M62ZJj7tNvvO3FGu977OQI3T+cVeeBl67D0I9SUTOKP1V615D5G4UbKV92mlIhtTP4ZwZNwGs6Bc1qZzNNa5OU8MCpFQrJ+Xub+yL9DEfJgTJhpQ6AhzTLid710MCj7+faMnqLFB1nOuaSZNYN9nnUMSreSxoSWFmVkYUBMZ68KSJbJs7jF+gcEWDm/0KJwsYOGdeCVtPyjm1WWN6+rlM50pb5CBEL0efI6BD6jVfJWOE6xdWgmOdI95dh/gmK6+Zvs4enyYzF6E/aEzgqXFxYaBJ0ljcDvANNaNa2A4SYlrWqMhv/F0a0D3LYnIAfEA7V6xQriCzcbeya4DnqmK3TWtAqKmw4Hz9N4W3cc0hOa0zgPjysQ4dC69v993XGd17Zc/nsebg5EM4C0kvw66srxvJxmkSnLzsbSg0PtPDKOF3MrR/nMVYpRvmM9UV7g0fe5bcDWdAGM1Xtc6UeLdugtK5zwI+ryoUB72fDn/EfV1BagyFv7lhkFlCFlymjUIMf9O1cegItFXbYKLsOY+pxHUGV6Z8XIgAW4SNUw0FOXn5MRtJvd0WpPHekVJ+grQTMlQKQ+rIcrrUP4oZjpQjHFR8aTz3eEdU6FOzmAa+Y9yxrYBYFx4xjOSbD0FWvhSwkiOc0G/38quqLBSSLxOFoSoPcaqh0Hs0dZoTBs1VJCDES/0uhsbEt8KuCYJ4rxwuWYHgSpVAkap08SxeqP7LYM9p3sPfopN+zQsZzNOoYrU7oj5CsvCL5n4l5vWnyi8a8kOH3RXVxD1en4dKENKAwrQMxnq42U1kJx/6f45Ky21UvsjjnYZkKQq0bkU9IOdRxpm4z9kcLlReD6UOz8bw6yPNKK2l3YAqVKT3VxAAZ5x8cb6neM3igOXknqVJJkP7ki+0ch98ud31y19lLnN7oWN0NldlFK6F78l7+CFyT2/CQ7jzD0fiA0O5xFKXPDDSGzF8JEDOv8CtIPlY71ro+KVgMNrQQ36UBntkpi09R0iJO4AhVoB3DR8S32JhBm9gGNS2x/r+ESRFCgc0bSgMsnWwnXbn0orOiylxXF7KL1W/wS5K2LxACN8yyT99qvCLgn87dp1xBSf5Yxct8SNidBIP8Bi2JrCe1MQ0Nlm6O0M84oKmQef6TZb16nOvxluSYcbiQhNGpFgda/A8P2hmaipIT4pwjZ8F6L2PpYqIJ6AJZ9IQnbdS/lqgWEhf8eDBihWDZtNvCL4CVIL/SvQLKAvgKFZmf8Luv3+r8dmDvB4/o3KTjFr/sVxJJrSY0Q9+t8/PIcu/rQ0kNp0gSpe8vhcNM5Xdr/bfV/aUn4UGB2gARcOUNPVGUTZMVZDCVIGC7VcEApAnghlSKZ2n2HihEqXc1GlLtUA3XSy69l3QPhk5j2nVKomP4UqD8HZ4AoKL6p6ngSPekTDrgxAkO3OiPkkMx4MKW/+pzvfuwwrDwIN7drjMa3jWRx8pcX35JSVgDgnR91btmkfrax46RliOK33oYv/Dk9zu6DTCjoonHfE6HVpioP4eu9k+Cgyy6RBqskiEBKZm/FgiXhSA33x+WKTgM+riip4JCoc66z+CROuonBXQ5wRIKTY29ZF/cz1TFdW7+7psly/T2G8Ul1SUel94VSX6praQd2EQ2JWIDSpFw+c34GZA7nIkvWmTQt6Nlln+zoJWO4piGKkF+uBGlzbm4iZ387ML6OAwtHLrqkiVv5p+x+PZ3RfqImjjXJ7fegXkT6LQfuCmX6kDoM5RiJ8/+LwLVvogwtW9GV4v6MmM9qB1JgeszS+cpZqZFIetat1oBciNRiAYbfomiFu15sO4uAXZGu13wssC8NYIrZC7zpmjjg8S7foYfSfRc8Dvfzcd161+BBoXbj0wu5mTYtNUQ3aUPJSH28VbvQ5Sv+ZdWIUDPpUPJqJ0T/5MIZIikuokIcTudc2vmKNedUJmXq98hQETflHKO8Irebmx+/g+clldKIPTwsKFPcuG5Jkv3BjaFF6GPuTYHYkaHGSYbI8Dg9GcaO/JjGZks/GBIbZl1hgqoV0KTXXwoyH8ATn6dGpJl2qNJ96tpoJj+okEHK44L0FF3f8ZJwfpoaCsNqhzMSDTMomfI/kLBSwiGfUaNGN5OHDNaaF4c3onAX26Xtbzw9ct334hjD5HPyabuzTtdsTlqzhREMK7BOwnMdjDJRa9afksnd4mBQiLsDZKVMjUrzCzjd/ixBeaz083z/LptOCVlgxSHZLUewW/6McE+7ClCsk1jpXWcb/IkhPjrgMNXPwpmLQpM5RW90ZuwTzBEvI/cYBxp1f2hEF+g7CS6CdCzkGykCSXl4Df4oflswZ2jQyeu6eEA3A6GJX8sHl2WkXw6cOHtD1LO8zHY7saSRD+m1tmRUbXVV4OeohHxhtzeCfHvxcoZOX7el0N6xmHvvjHgt+ALRIvLADxWz9j0waQio6LoQYtSUKIk8DlZigsnSBu8s4Yykh10hzUZU70N2VA5FBnCJOkdKxH0/qFZIy596ODSUoudAY1QMfo0O83XFJcC0t8DGYNZSiDiK98I9V6HrR5NDp827MuVqPO5eBRg+/VDNbOnbxDxaWasV9wgEqF8aGHOLo+W8WBq2wWlrXCVRAV4PY1nIFn07SmFrTAT+GRYaQDJ8sXAJWS1yERicG0YF2gqU/aalRTCYpXlpX+F/uCZmw/VGQ2MHgVNzxuREZBHasZJMPLYrVnfo5YOcXjtNB9jVACbiIdEW2sBS4S937kHhQE8dnOgWbmHT4/E/16/hdZfMVhpbCYg6623XQLVHhJD1IzoJDIVqvlq8glX7K8nIKi/1F1HC6BN/+GtD8ce51TsIQF9SFAFiRp7dFeS7or2W3Kz9V5k6C82wqVC43FX1nyUSEBrSTakATs6VcS+SUmJaE3wnpDaZhxwf2wLiXcDLc+XkSFvErym8CfScCTrm/B1qv5dAr22zkzCXKT/CA1cfMi/TTr7mW7+jAWeHHUFmS32VcD2fSuwVUiKDFrgcLIkoN/kfzbaq/qD5NHPuZFu2Cara1U6atgwEH6qxy6tuB2nimf5s3hVS9uWbhPNhjZwUJK1rPgIs6oVq8uZn4ZPIoV7gUSXhk5TjXwTbLUBL9PPAJbvKCfhuV8sEznhD2omfLawPTfMBoSEj5TQzHZKScDaM9n6u/pZpEAvTrVg6ZA+LiH+zgG6Bolo8mzv61EADZ6VuozVWIX2z+2JU8vhFe2yJOyrjQyf3VvKZsxG2bjjWGUqy7FKjmdfm7U1HLVYJWR3GGJW9PcFsubEwpSnKdxGcsr5OpUrOOBAB/MHp0ZWKp3F48a+vCGSdVOmXX8i2Gh2+UrFF342j5WfnywYLQNHmcG875oHsxz1kx067yAh/3lLUnvvpFfQ6nwWRXUrCB7kSqUdpmR4NLqEUitkMxQ5u/Sd4tRkMB+usXtyD8C2eeNLx7hcoaYrWpiy2U5/rszlPPUO0qUHrc7uCPkO6NKjIDbK9zMUsGM3oPgGPMcasyQlHu6Rw2jG81gAyFAmL1XwCLTLelT0nDKxHwuXCCI//1ZpPb9W0MlaWhSMqwpwI2c4Juw9OnBbpmeaW34RuiTA7LB2kwGhgzpdfs3KURChdrE+sdG3N585xBWAZHaFMkf74Kn5qmr0MZLwcuZOMgKncYJ7/ygCMSPoROXZDsX0Fx5UnSk86iKFdoq+ihIZDEPtuD3DylzQUrwWoJuCVgGuHNigofUy4fffM+sgEwlWRrZMxWowwMFYWWchiuuUOQ4mNZ49EE8uWkzDbcOMZBqRxY/jmgq/XvGTCX31ADdM8DptSoqTaCtkotfalHWX5qBIQey573qwJdX4klkNgTLsrl9oM4pw5YaWwbPVSYwG9WZJPy2kTtmESrSu+vwaSma4D+lAQIGUsM5YapPWThx82AuLTrLZ1pTWlNSpAXwR/wiUTrccKFsIjT1cZPgbsjB0aniSZSntkuJ6nJO07KB0S/DIlj2379uqtuLByrOgmXBi6mVfQNC0D0MzdKkZ2PfKlhs58gv7Q9XMLqjtIKNdRDDYFz+76faXRWqnf3s/Vnw9i9q0LiUPKdzBK1K44p42ots+S23SJ6P5sDtNaViThMEoMqUJ9cXT/1IsT0Tfb7zoO+DFJSC9YHudwlFXRGXKoxArCtPzggO4BP2ArCoNJKFTJhFJdj8weWmtrU71pd0Avq4iiw5YnG9r9gMASw0cgSjqI6AO/1MXqVybjc3QubeY56nwiX05z1cl41A7w9qw/Mt4+Tw6+jv5jIWoSLRs0jconrf8XJaxZK7WWHK4xScV+mvzeG4Ye7gWY27JjyXx6bl7aGlGBVNaoYvwQffk6tEOeVWOTSYu8jTAqNhzrlNHWJtetMTR/ag/alIc0xHfIPVjmSdJA73N8ohioMo5kDDbn2uSKm6lXzVZi3OH2c6ypH6HmmivXwhWtrqYg03jeRaGrq0tMnCC1ejsICVgeAIU5/rmVPv4HNkU7ycUDX0Hgf8UPLHSHLBTiQNyP+yVjDUqOHP+7a0kcbgcasKBIbkrdtofvlZjOimcNHFQFHkVXvorU3RaW73qmhjYS/hWl5WTzs5jYHDL3YVzZhmnoaJw6W7gPGInIYmJqMTv1wZQOLrVX1+HTMG1cv/FJny4EN0DhSlzspo4HgaaIIfgdKDkJnd59DJkA/iszPWLSCxyzV1sjFKZh93vJw1CvjDPiVUR3ox2Xw6vIemWfhBu402qabySkA7cGkKTqYKn7HSczSVaaTUjVs/Uc0g+ryLL+JkJ0zd6sKL/7PR9LbDJtMEJL5s6agKd096XikqQUBoTM9bGJ4IlTj5ZVjPVG+Hcsx9Z/Vu8MdvS1fmRpuGLCVOkzg9I7WfkqDMNw9oUohcC9eO+Gk0D80sl7KlNamihthYZ5oOknCMrBshX2hIYuFoaPmytN+RcnyW5z3pf8TjfIqbqB4xKEigwPVaBY4gqASsk9MTUJA76SNxAJQNRcEIdqwYF/uk158E8Nhlgfe2oEInX8LIqksdH1MKFK2VjZG+igkQ4eotx7KP/tR4WvVNL2EvXsW02MsoczIGz+rqrEpz3fUViNXK97jyD9OsyFgylXTv5AZr1ej4zB/4fb7s0sJsWGlfqCw71Fi7Ymh71W0Y5PKLQf9KmFd1GfOM8MopP8Lc/ygL9kjgfvzqNbXA6TL/y1K00BxRRr/pra5Xhz+tkY0YmBI2xaE+D9vsZvUKTP94VEf67RRJYHS++G7i0L7iJzXprhBuIQYu4wwhcXxTjDnTofheNnGrQOzY9oV0Z9nZRsIStWiYG/J0VTk4CY5znata2dgHen1TprnrQv4pJs/dEJyc5CRaJnt76jIqOg3CA6sPXL+6lMxfJkHtsjLVZjDnWFZZF+XNZFTSjWc8JelLqjoZfm5aTeJHVNAYTW2P/pmTKyhOQgzu3MnTBV/lACvSNVNOCaixthWAtvEoIlXwdKQ2CKTDdpkFE2XZEkhJOZ5UFsOwW0jLevatBtPxFkaY4RRwRU3cOIe39xsXXDmASIpxvyLpR7m9/cC5n93Vnm9fursOY689znPv33PiQJT6nC2a5iErOx09dOqz1lK+pkLy23rfxFtSrAeRVh/xvvcp0Kd4Fc/vSSFfEq/E0ttBaI0XlDegHCKtvMr874uXmwjckdRaaYv9V6069WwbtoL2la0ohpZ846ypOZp7D9n/isGWXqzDQnNWOPU5EBsdHVaxMWxUidzIeRw5R5naHjvfDsMZT5L2txhJ+VS74NJvwoqiE8gKWzbq0frHnW6k5v8DIMYLs5RtM0FaIWrUtbSDcv19sEAB2/dDhJuROS5aey0W5892Q3Mv/Em6deeDlMX+LeHIJjzoZz24KFQ1AEQUwv7FeR0QYpMNrghumEYIWSi7ttQxYFo4qL1zi9lLvWA4d+EzxbUXpiFPofCy0NE8AL86+nlCy6D8F+gMjJCGXnmVurN01ykq295/3HvCLBlwhalRJFZA5FzM0/ZS3C01PGSJMJc1uZPdhhUUmlwCVSOzvME9zZ6YEAWjEhj5twNmnkMd48qm0CVzoPbXv3/ydzbYzRx3UOz+wSaMnMHbFrRXIPJmqQyJtiOoAiyWqqzMHUIi1/YwPTr9KQe3gIaZnNmYwuB7PRE7WvLvHq/H6NT4jycVGoXzPxsSGLeFVvmt5NHYfl6cgR9SbyXItZhlOgeGePKapvgq0YkIF/tKrWciMci6Lv7xAsO15XNoAp9fHLchdFeLvU35UmJuUg7/Z/H7HIiuQj7GmFU2b5ds7jYXcgtsxWNwOmue2R+AmaUZYVNq2dG1OudF6FqUElxcgK6T2VjaOTlN5weV40t6b8lp+tIvBvs86/ZNdLHiyR5Nlt1s5GpABvsWDLwahi6RTQ2U+LkAuMtumj/3eEJZcDksNys43+cjJavEouLIORqy6AZKNiQvAFdev/oIEwQ6EOf6Mzd/NsdWvTQKnhqnFs95/W2i5nUlSj0flC//w1KIuLdofcfucze8Zsiwe3aVNzSEPT1Q5jgRLsnWpsvebVFOCEpgGEF29aFryrgntB5tCMzMmS5dNDcq8klenLsMBp8ili8fiVvU9vvNmp4Oniwlt4VuV60DzA/+ljaX8LC9MMFgMtnaqa3IqAiZJhspxojYMKd1gWjngoVEKyG01qZUxmXXMVx77DNafr1KRGjnrtzyUbFE5xR/1Dwx47oQcTYKxqiwvsJK/x47QfM0T6MWpokiR51+ng1CwaCfUIRuDre9VXf9gsSRLSwNqdZX6TS4OjEeYR2OpVKTfejn1pWBd1rwYx8KIbyHnkz+WmnSnOL4L4y9jpRoaAH1xg2rCTBsU/JpQvNUeDxDTfNRpN2wV9pScppxdvI2gVfm1DZwXPVERVSHrNUAV/H6ZbiqHDsMF7t3Lg16StFqtKTKVsGnS6ZbvHKB89MiGnbxV0hg/ru+PYQLXEgkz55fJY7GWIcmUrpAFLQ5SPrBsbAwoVN8qg1/ktU0akDTbh13rW2Ngkwoht7R9v0/fB2hM3n5M0BcAzbtLW3bJHzS+uNMlfxrl9jZo2W1MmAhwRIHqI1Lf9a8XHZQctgFyhpiKmoeWBq9wrcMf+Fpdjen6v1kDrHmM6WcG4gUvc3kvzzLXVJTtk3WzSh8HInKJt4QTn3gUCs9C1AQMmkg/7UJTg1dM/MuuNMbad2a+7p+73ffgqyXnq9/KEZyMu5J+5CDMqjPvCe05zWJA1OUmPuBV2t9rswPSBrsrbpSHGZS2lo3ur9BqrEtv+X9vCbPzlMo3ngSCFVcYTEbhlMKO4wLSF78mgj+AB4MYjFidhWorS+QgNE2TacsQ/RqP60GHjAo9dSW0/BqrlT1vVVhavREaeYoxOpafYxvTfNrE9RSO56HwJKLt3fP/2FUo/6rWMK2Isc18ccEfxG9qBQS7VeokQbCWKGIFgudEEPGOkeDrRy5T1NZVbPWnbC7fRfSGvAEym5Rhi1873SXcVXue0zz6XNzL5kmwOjX1YWW/Vhyj1xr4zXpi6In0j1D6YhlW4NKY7A2Yz/31CkrsnHSFqHyZWRl84E3Pp831x2o/6roAAiEpBMjpw7KqxsFT4K3vX2xmMTwJ6gvF6RKYj/i++/dN/tnasIwtZJypivI/cs06Z1z01cYZwj2fWUdBCCRP9EUvRlBbeZaKW2RZeNMKC18R6VBgy5Y1BZHaf1FxtJ10TkbivsQ+C0PJBJgGPa23YhB9KdAIRZvYxP3KGs6dX+baYO35/ye0YBiabFPZcyUD3gBaeYvjC3n1e2IVl8r51tCUbMgjx67mWJqOIKqk814ovOEcrL1RBEPfiF1xNxeh4ZEiq8iNq3MnoPo/q7IG/GKa7/I17yYpZQKVmAM55euKR5ykRDdIFSfVAco3upQX9pk41Y9tMdraYssVHZlgGvkcstF2Fff3RD4L+fN7LSrFavSiNfcjnpNOIHoFmVGr9ATdawxzHDrZDH2tUOEc3St2W5gxiwHZ1WrjOL0ws5NRzm+RW5E3dOVt0w2jYyWt/dKWT8ivzdDdW0VPHZV2c3SxxuLM6BR0gMY59nD6cy8ez5LPLqMq0v8nRuppZn5x61inSRhIB6i5HfiO3Juq09xricrm9OsOMgufC4DOZr2JR2hLVDo3oKtNbIfCZKbt0HneGQOSGUOmhiX4l01iJIUim+OKco1f4SoZFnIiK1HqETdUjtd3IOgMKucBV8C9+41gwm7cwkHJEbQn5w466972UZseaKKBGbXmCi4Ilr1DpSl5S50SLtT2iwN64jwqiaI8AqKQLg0SEKwvXRiXooCOQCKI2VOCyqk/YDDUokocuAHuL9N6xNxLiDKEP59RnZAXzJLZrHS6w0mP4RZYtGE0PIqmhV1p7ufX1Fa9UAuricbc2ind5lqYzbNCwPBK24zgc8BJeNXI3m20d8GD3pJPwUtIAkuUNMQxDpclaeIqjmakeELzR+GbJdT0u0gUlVSmb/n2eHBU2hWPPYv/73N9PEQBFPnkT/+fxyGXr1jA3KIBhoxpclSSTtBWZ3dC9X45WDb25IH/qtDd2ddDyWsj4MLj3gvov+Ndbgemlfe2Oi5Yh5hpj1hPPzsyGLdhUvr+tdlc0mfGFsD6YE+Xn9mkeh3eKex4VODOO25msbMZYLfdln5nJUs1REjPIcdMw0J54469O4NWDecJnS/udHkuZ4G/VMZHE0NFOX4cFwYZgCn4yJWcELgw5auDvX6cUXXb2TQlAYSt9pESbyrXcyTnQogCMjWZcum0wHZoHWxZ3bJVjx8BakZUdhixr6kqgC6ZdDJHrfWHv88DbkOQ06ujYVhnFtyaYf4f/WOVsflweJTvLKxKhqkluWCOkB7wfkTdD81Z/edaMXukehqjmSaAj4fLtpRnfoen3E8ST+/peRBzgsqLoNNuAoUmxqH5N0TTmc2ci488q75u7u71yOX2LBdGgkVoSU0L5CSUOpMxkXLf1rp1dOjYxncPCZkrQ/aJCBVHLd1BzuN2cDZXtFe1FViSXeaz6zlqWwcLAnxMOG1XvoNZjN9NE10dJer9pGpkMqaX3BYpOfl2LLlgwRQxexHgZ5asEkzC71/hk41YwMk0vobUKAGtDgMBvBWoJIKwT0LrIgZ+BxnFsc9Pim7vhAF+j7YNF9LTYvTKWy73OYs+nTX4mXq9CbgZG3jfl8Omm9Xm2OoyUu1kwvA/EBLdCbOYU1Zjjet1TkIGpTYA4xmzr7hPD2q5b5B51heaJ0ojDAxYsUoNyVwJbmNQ4GKCNAXQeZKzVYdKYCTSfW7PDlxw35ARdBnU7/DxrrEUIwTcP+sgLEu22dNQza3Al+2YL1+IQWolmlr/FBk3VAjkO4W5dnWoYDlq8Oyg6rswWlxZHHczG5fAVR1T3PuxL8deiMFee9UvygCAe8u0N6vYb4QIxs59SKcmqwMGR//Gh0fWAnQptT7CEDReW39hnVVniFXt4L6Zf/w+f8FMI0xLwFGS7ecyjiosDzjQMZT38yOjQVdcl66lzvg2LKoFhWT9YAVaj1qS6kkvC31n0bvpC93LOZhYvFXjD838wm/ngdaOEM51do3Q360qkxPrc8nyR84O13Sv4wZj4ysPk+OWACpgsoqQl8p5JMEiNBpSu0FMSPInnbpbFFUE9s8O2VhdeY5Yq3d+9w1r4y1yLgigZomJORKBtkhf1hQUn12/gLoWnMla/j+hpAiHM5pWqjjipeq7Yp0lG8lJYXQSybZuuLH6ph/uh4tfQOm7mGmUmypDcbmzS8KJ772N0/cUYQKBuH1JlUHxXBqWjLd2JA0khocr/yTy35sM/PIMF6fz/AY7VIEMtAhXYtgpn/K4vVlhl2POn7uGrVRxVono/FwSHDv62a8rjiXZ80OcOLb0iwCxCvw8h6weUTy8tiorN3+G9W/wq58+1O6gFAn7umQ55777r71qhxiCjYA90WVG2XuxIPr0/fbT/fJRrbtBbU/713e/kXRsJebxjwEw74XOjy1xfsUNrjUyZrh8uQ4KKGGDQ/KDLG2la5HL/bUOQIzZIUd5YjrpYJIEX71ImG+dx/vEDEWpsNnGx2+0aKxlMmXPyHeX5foGF65ooQlKzwimTRyhJSYeX/+oK05pccSUNtP12Z/vMk/UojgaTt8jmp9zMm/SnTw9KkxpFCrcOPGFNe6C+NYfK6XfzlTI6dgkj3xKunUzLqkRMCECHVZIRVcQm8rQwGuGCq4dtNkyz9rvnqvURRjCPlCTa4SN///0z4gF5OUqqUbW+U3qj4XhEf9CS7ujeeChGwIcZoRQIDBRmm7yWs96RpBoaygfKsB2wAIMDOfA83QcSqazq6xAIEI4c7FwpHeAYOejqRdbg1OcrRpveSOG6CQzZScnwOao5fVmEAr9SSsg/Lg3Gj7ySKq28YSk6T97Zb6mS8s8eyRyAKoPdwzve+6d/hqbDNte+zF6wg6fijBxGN6NO5GOfhM63PKyk4Sy+RypFNqCgtYojCRDBxGl+dCgGk6k3SSpD+Vm0Ipx8W/pZB2Yjs9u4OQLQUXAnpr9wwKaxPpcxj24aoaasJQf0q/UAUd0e0rYYeTgfiGdoXzTuEwOVQcum47rDZW6BBu67NTYamJxkRgClmpAfDOBt4nLigPOIW0cgK9RtWMioBMAA0s16qjc4MU9rxIg6E3x2UedsxfqOXH5l5QD1QI+3a6/POX9ROEoQXTm+UeMQF37MTlqCOlqVpKYIW+CkXJSDrXX6fnE1JVFuInx/+jlgjl/kLim20zkq8A8kNVsosbnaNsy9rDWWNJxA7Csy4mbsuNSLNH6g9N+1O9sZi+Lp1IMgUA/1uecKho2QheQFXQgOiCvRs4WzkKm1WSbcx0lP4gNrAHcZhufx4QMA+F0O7UlmC63RRgqkUSgwv9wXUVPjJWpCtwomcyxm1kcJMd4ekPwRIu1tUqYlSRaQQr4Zztrawkjzm+BISji5e2wVRUdQVmNfekz9v5QyFvALMMstUSdqWgfsguhWf6AlW7ATkJjSdujlASX+QDzczQafmxkY2coSPS6VWIkOgu61WzVUDvwk/UVz2owIA+6BJ7kJAFf7sx1vvsqwU7zvmlAj3bFiGtsBUKdu9xTNweJD56F8eqFUcMAjEe6ktA35aoEEkrO4vxyVOu6fFeiceQhqVip2g96o7/vED6fuIKjkrLekA0s1sl7vIbc2dBEwDXtevxq3zU+nD0tK0NmaXgXO/oyvVrwiPRH8WX6V7PJqryz+fz6rPqgHr+7iVQ+46ntyRQKXnfMPp2R77je1vymemx3IFR7lF18q0IbwyHOEEGJqBGKg6K+JBzq/MUj/MlCE2/SXfCy96p60vOGAcqPV3TTKl/JFliapPoFIlCGNyS+LGiX5Yc8YMJxltugeW7bXMLJejdkKFqMytx9okjBlZZCpZiQVbj1BPaCzs5CREi9VBM2msexENKXtc3SYzR2IW/seTyJBLb6lTTyMAXta0gJdGIAHVCTi1Hk+0AjaPZHS9rE0lP5UScz4WRHseMHQu4V7XTfb853/9u9GC+ypW8eMfLrLsQCrzTDwn6JYrTP6E2WVOJ1uN5KbqUCoYobB/G3dCEjHIXXcEnMPm7gGAs94ktIVEuweOlaDqMyAHgvnxWBk+E3UJAgrdDM30ZGL0CoPKeWm8ZyZOwR7DSViXEEaet2038aZ3jB13gKlBMxpcEvCMUteswikVf1d4aQ1Oq2riCBxe+czxhoig0+Ujb+Z0Jc20WF7lyZTE70qT0+RJ9WteHdGPSSympOZaLlPqfPzdDY780170gA703EgbT0x00038rGAS9n59b1Yz9MdtLG4o5jT0SSA8dFkhPxhsdp5F9eczZsrrm2XL8tarZ784Xt1pnsTgx84layDg3l8o6+akAFyAksUOBiSn19mENIvHHjU1QvwArDfQSnJiTU4aYX8BNjRFhW5xhjS/7MXrTRjxHUO93RAdj6dpi/yBuqN0Ynr0HUf3Nt7Me6c8jxHBbo9ewf65iL4mNL95uYIFEIceExscSFSRtX3FpohweRdwOn7YEFC2xhwD2Z8QJdohVqEFxLn0kGRjKGb5DLr7XMAdxpADdR9vXz5r3eo1/tu4UlkPFmdA72bfex3omEMDsphO1x5pED6UueCGLeM/FMtYGfOjZiJPjifRAsVn/flrzrOSO85v62FRaryLjjIuX3dWrNnJEHiXsRcFdnHnJbUZBKJzrIpn6YuR7rNzEg9lR5vNVJ0LohNopzvJYs3dK3TgXTi8WSvkb2rziNXnlzWxvefm3yyRNEPp0qGwX2Ty3oO/XdirVJdOXRefLumMWvYw+vIaFO1xKiy+NYFX3gPWcJRnyfE1BLxtuxFsqHRUevecIActdXxL1rzsA/b1hB6e0FHcLwABtUeR7V1uIqDz4lTapnFcScPDgaJwNmAPkoUHlX+ZWAa/AopSD4oGUtc4KlIXozN5CfEzt9YcsEMp+bzonborBA9puXBhTIyGzYvkVK0IPZuI4XVPoDMjac0trUb7I546+b8orloK+VEr1fl6Rd0NtW5jWhwG5ePPDTBkfgO/Qgf2+TsH7Dd+eRf93IrAWrlcX0j9OVmmdeMUKOmsIjkbgsZ3/0f6Wi0hYazuNVaSkFUQsX5N33UyK9vWqJYJxYnHan/0zy+zaZvX5XU+u5P70JkIaD0VXp8Rmy36QhrDjxk6dXMsFZ41LoGWSz8ojwJaqqesmw2U6D+Y8KP5Abd0twHpVGIPLhImPYdbMgEREYEMLnDrKxQ9mKfrevMtOy4nSu5mUQ6N+zDIVs2r+gUBp6TXeObl9/9WanMS4Sj60Pe0AcwndE/QrRnfbNYOMTWyn/xNoEnrC4Q0U2WaGy+/Vuk7tjBVZJCyTQQgwXXd0USSAOBcaCUKB93qEcgq73DDs/e1vPWvxkiXxkgyTzgjYTtQJIU/EAgeMouvLng0ui72x0pN9x82ggVbYyhhuvv3IQc9UVlOktuSBAIsJBffVx/ZElQbjEgZuKIqgdfscUhazwvxf1PwA9pRE8VyS/L6S1PBj/uNYz2rM8EpmJwOM6E8KhBL7PnR28P8acwZbVzIig9u8ZoNbfEqizFsDntDYMuAk+xTWyUGhGFmu1BUHgtwHDh919/KhbjbRJrtyy0cjkqstC8t08nKr2OJPuvFrivHp9g2VrfDRnzaEIAxr5LX22eLOyVQYhiV20GnljRKOVsXRuumqibcgEd0eWsulo+vxKleRn5bDvVv5ZLQuL9ady0Xd3LWS9Wl9WzLHhTOt6WKoPxwAn+Fyb9EYdHhEk571KWqM0h5n/fxhzaE9ObxjrUuYNSLE+yQa8xM333HPRDqlHYi7xdxvqD+u3wEhYCUEo1yammT2rqTj35zG5jLO70ROd9WFYwEUUG9ydewZVeyqDXkOBsOTcAVJHyMrKWmbavh/Kd7Q2zJDYAAYvj8uaFJKaqyS7E9xIOZfv0nZE3saVd9bW5xCjDUT+Y56iZ6BO2jb05Rh5JBxNLKQmngepfw13d82ySRIpgsHbUd/G5l+lV1j0HK1V/ea+Lw5mWq+f2vn3VS+4582VbBr0Fq8UQ1GKMYd+PHn/j07+bAOLQDiSVSjQxNZqHYfqaIb6X3BJ+Nv5X4875J+g9mOb5OyVkswZBf3fKjf1RA01mTID7qC0/hIQIi1O/Jfu6YTBbzD43buKpoaoj/LV8IBsvD4e9eZ0cVxetf6qFWv0f+GYmDsuLapkvFw0KiH9YwPHdah1EbvoH9/N4qx9qeaxUYiSvoI2tbHPKFynK6qw0fP+9Ouqqkmb8EfXzNkRIycOyiZXjE93FObIwZG8V664tPFdX2BvMfxRoLgPqgQzm9ExYA0y1PvtOeDyVanM7FR0+JSekRHwR7qQ16rDY5flsAOJqCaPVW0qblfApFt/NXzm6Zq/M+VpDQphL4v/tZRH/ZbadQq4xwnig5IXIPrVG3LA20sIsSCnj2NkJ7v/9nqVR2i5tb/s1HmWSFd/C/f63Fb2Si+skuPAT+O+ZDWrUyHqIkmU6/lmSfI1GBO+pOz2wtafY1ZogqvqLXmwCGhPjeWQD2mFJFt0ruqOR60iVnVh67qE5lpm7pk6kqLE3RQYhXvwSVT3hGg5HCmTe/k20dozXjvt1sV3hhHba5ev1HcXeRhOkP5oGLczexkeIqBZ4NYsXAFOoYk+nwQmrJWx1yU0gqrzGNtie/H8M7aP76D6Y8mU9p5o3QXAQM34u2PJ6vnwEXdS+SGhNEiocMz958reruR7KWivkr7uxEw6rQZ9PKjkIypnD+aUC2K2MGKDAzRosTAPQpg/Nr0xk/UGtPYMTym2JOJbQaQmSdvAoN7hwSjRfZfGrHBeriThOa3xwmGZG1a8puNkt8fVfsGxxN608rbg36RyeyYKDMHH9VhTtoC75rk6z3DC0joLJ4L4elXAfnUqqOiDTM26WR9puW4va03kcEJMtvI7D04ZJ21gbpbauPfdk9HjNpYKt2fwmgguWZKTfWpHIgIGm2cUJ50h0eK2yVlWruNgZ4Lbl05KdhbVr6xl0IGe0cSVgd6gZVzQzjkGatwSbu5cykseXWOa3/9FH0ybbALmnObYRPueDyBSHwgDQR7TNZkNs5T4e4MkMg9woB/XANHvi/68SzQEObsG+OUG9OIMD2XzICnKj1lTnVex8ib3p6WS5E4/A0osSxn+9lu+fdwKSv1WyKrNTU3+QdlUUaTabhLIPKMd1CIykCMqrIPRG6ees4Nc8MIEOoV2UOJXwVEaPSgajeyJ7pzVC+IbTL5HFkX7/NsdtYxt5SoFefWuh8ObPY9oUIVP7z4mud+VeU4CGbY1lq30luznBBoBHeb1OrkAmJeK01DRtDsCXVYbZ/0u+wzqhMtSXHesna9z+zYEEnia4rgjW0H0kss6g2WSCCAB69wo8Kd2klnfxc4M9J8uw7z/v45RHd8KNYDxwS1QNwtQbVmGCKdrwCA8sYkhHGnlJPfOWJpdPJe+2KIKJuEf+G2joqt1vM/qoWBuDW4WXb8CDK8rmYUFWGrrjyXsXsrSzsXbwlQ9MB7+T64sRuB5TaNURlEXSmYDaoUGLENKcgYbOhMZZAeJZxj5C5mj6lYKCwywS+RUDLp1jiNV/udriclxWN6XjGnLeCYvSBzfozh8sIHpLSxRYgfUyF/lcwmTn/+WLN+NV28SfxSVTihj2UgZQ34HiDXjioLXyFCV8qcrCKtZMMIqeIv/ZhumYdOeSzpIT22TCv0SiuYYlpBmjdo1mfwkfX9Jdiwvi6wQNWVhkGehe9I4WlmY6EFgX5bxFJsajClEzUmrJL11DPvmP78Iv7S9McSgb57OO/pNUN/nEU4snsPRCtXN4i/AK7gQw97SldFm61Yluj92ykrNQAhMuxoqBjsHQlQVotoVE0+reSpboa3v1lI5beKhEYDGtCQ39ib9M0bfcEcjAPnKK8eBL1a9QFEcncsr6mKOBDe0KGZKW7EOT4HkwLpUPdOAOUggQPJ8+A57+6Ryt1uwoA4kgxUxiJSUiUvxgVzvQw2xOb24F5eq5f3fL+vSCkfm8uQV1lZ+C3o/k7lOREEZ8svwZTDd5yiCbflLdSMhTAsOsET6sJvqzXWcSZEoDxvU9x87+SGYVN5pvj4kZsDIK4y5OQsR28jC+yHOynN1XeNBGpzXS08Rj3N5kvZEP41O+czCm5E2BEXwkoVbKZHQdFRlpNTzWgjPHK7OJCoNj2s8UOAFqyySFrhxllVyXdG1pbDhdYPK8KJ8XRBQDALGZCuKJ6LdvQmdDLYTbvNyCyxVHU5AFUkgQRO9cM3GmcqlNmhqh3mHypnUO5uSz5KsYanTbb9XAl4e5hMETb5rI/mo+6/rlLP7z3j3D0KWxTrh+NX+sClw4Oz4FKGW+mMbjmRHNSo7txUXgyxokFiCN3uetkb8Pqb92AcWXoJEXuoh6/+GcMTccNcfcwG3l4EoJDDWKzdcs+SvXNZfp0Wbr9OQ69ysTcWXdPcKH9mWyllGIDto8pjVuAFyg5I3btDwswOjD3JxLmCP55sH4DLZ0o5PLPUHke3wGvIVIpjoPdJc/fiTtVNcYizUbuDWyUNLvIQ0ONJ+YikrDCg05lT43wGPIn3mncchy8O1SWbHoHZHubSAoEH2gvFmv8gJNUuGFQDiGnJOTxqqAhF2rDWVBWA959ZZOoiw6CudczmDuHuzEFv0IiZvxIghbVKuXV8oAbJaYsVQ0GSKbSRR/SEqKCBzPhr4wKRaEyglMiwCg+dwyQfFdk1rpz+m7W/nzxQcr72djyeCH1uU26jVewpiQw5hIwq3VPDfMv6KH1RJf+PdxfQ4G/7vMVeOL9bUvXR47v/kMALxlNBduFv7XdxZWACNaYWdW1T8eljul6NB6cDcGX7Sa4GsVq3DxwkWkJs5Ydi9lEoWAkR4h8YrxJgM6Ai2KzLlgLJEQ9r1pFFDNBMUOIrgfKMggPgqDDieY6Msyzb2Y0C/4m0NtFjU65KaDiqRmTDFwjOrAdCMicoPxT2KLTeGOcH+YrQx48AvNdetOCKTaW3eMzwbdTw9JWAcHxps18C3e5kgAPeUP2sSZNhT94lz8dAS7FG0YstVfP74bKeTIaYCHFACcnd4rMkc4a/EOXxKHAr0U++dMls89Q/+Oynw333SG4SstNW8exks/NWNxDFaf2BInY2GqmazLDaWnL4u2XjMJIOpA5/bDcn/iZzBYPIwDYyucBo4oUx0xuBkkbkHiKAAca9pNi2K3gUsry9k4+5pH+y3gRnxJgXqG9hYrOLfS0xuVzo2YkA9vzlD0sPLQ/9+fP4oE2VoCCC7ZPuwYpa2PX3dcXF+v8zxSrin3dq4n50xOfM0XnFI0RzgkMFfty9i9JMstxkDDJbw0wI9OxWv4gROucVqoUN98Btdv/3Q6IddS/vsK5zTp5QkQPSVdfhe7hXxAhsQ9/ZnCOsjafq19AT1K2FnhQqpqFnQtvBoqDZLE1ynYMl2xl0GCdJ9enTDgvUEU5BJooH7bNm29DX0utEb7eihrjQDX/0S9as0/ke6DhGQUdUqRjdyXcvMzkTiZlSRaCnY+08c7S855nHYXtXwXnK7Q4PfNtCdAkUzil2q+rDJtp/FqqynASe/yJd3tfvK6TwcKSjvXaSPpIi3pxe9zEme24KGh1Zp5/41b49PO6EariNAExHWm6DW2o8u1H71tDvYTjHqK9KoBTZAK4i0cWtMZt32xuB6SuFrs/AjWd+palunwzgHGixIaDXfhC/S6PP8Na6UyGtRzHX/3Tedcf2jkDqOSlhXfWygwQDaGS9HXvT2l0D4nUPVmeWEcBdCfRZl0OpwWt6sioPwgfuGRUwRes8OiUiNlt/pW/+aQlPxNvfFwmppSBZwl0oKFP3DJRCq5z3cqfIEI9nfv5UUgiRoPK6DzugS2zArtdDJVUiliWnUYl1Q3TGGmOwl3y35shRdUUJgVMFETM1Hyky8AQHvqrkSQDEh0RSFREvSQYMPItf+E58CZPGXi0fyUcRRwMiITJj0R+bnGqgsAI0/GKwo8oI4KSv2U+ODMTPJvQvMEbGMK9aBHYjoB3r5D2lDEJ1oa2uZsCK6WWPsGzDZhfiDo4u5dsmhrcx4h0ZSr+/sEzxCjCqd7gcIAHI0KFRnkN+X3WRR31d2kLXi3tj87g9uHlqtjLnCfmvxUa+Sh4/UhUgIzrydACIP8IgyVEDoCPBU7gypLtQuLJS4CRDRSVeRunjQTFwgRmDtoKRkkRo7IZUzYhROnp8N69Z2FCknpaGB7hUGRRMDMQti99p7PyjjGpKvjCRsNTCQPGXySXBSN9YTpxSbMvp0hE5uLvlbnOJ4qH8gnPENdGzwNMNr+IUHCLas+Ci9GGMQSK5TfHyRPQxp4anb/2dvmriyw0oEoSW7ywvax7HUZF7Lkj/1kof23388Xag40ZwOOu/T8jkA/fawEsZOg+R+YFaKidQ8cd5jsmtXxjfxZACOq93OWi2V+aATxTRqQomMIjDk7ePbqlxgv7VyVnAaZSTjhH7zQNfz+Vkjuuq+zPKHN3LXgs/enF/050ISlpEwqQx0JPr56qmnPzcs/Tv3FC4t1QnT7cKmpeFmVU9nC14g/iCUZbnW7wqAwPj3NzSYVEumdkV7L3eN7x3DGt9fuiJbgf9KSpMgINQkBFbtoIOmXRX3X/sLTRG90sFlIeJBV8eZnNeS8HHyXRVIBj1vxih6w8UrHSzHuT8HQ49wcUKOdVnGS597Pqdwr49jtNa56OmfetgJxb7AvfcvPDLTcVaui6KIKsLYNvXy08ITniK1RlqLc1KlN7SzDyyHbCXL5lyZol+KqmvWVckyvZNVFY9BmwHG4nDoq/6UT7viBW6MR/3Z0wAy4QH9VaQUqsQYbPjORj8JEQjtsfBt9u6Q+SkDLDou+3jKsIZGXoN0AJK3PkMI8PES0DbgQdr3WqGQYEkDXyOhIpZyQlOWJlQF+lBsOb6NvAVUijL9zZ7pkQD5nZLNT06XCrawF2i5TIl9Oz8Mhgf4fbdD7tVxQ8eHl9Kc9Xo+foIh1qXOsXf41ifLfMZjG/a8f8xL91z4yQWF0WT2X5dt3Nqy4LHMD/EBkbOyZPyiWHFRnI0MI/Y4j320gt6XZuRVx4A8UjrBbS9SFjQqTiuaUnvz4U7MMgK5Hxxdu1wGNAcuqY/8a+4QbMV1CNlLz1CR9bEN3+ngXlvFaUBk6aY0NN2D7+gAc7K1W2XB122bHYWt4e1ehwBY99O9xuLnjf+K+0kkwwzV3/gP1Le951rHLElND16EZSwHE6iSOc/K88sfye1q4NIOgSJHVWwGGDvkQzkv7xM5FjDALJhFWeU9E6JLdMlHmoL3ff7OqynGEy+6jsjJW45EI4YFqoldOkg5nWo8oHZ6TdihV0AsTyOLdrgm8ya5hcCPtnKovwjzWJ7kcQ1kdgjGkapYMlhyzet4yqCZsJpTuAHZn8IpU0ApwxpOn3qM3eZf7JM15abYSe9Jug2Q8Mt0SQA1v524T2yVovnSMD43/33Zx4Ksx3dGAcMwOIfZ86haKamu2MHdXP3d7txy8m5rwUV8pLsICf1iuzQTEMh+IoBjdOh82UDFJ/aBIbUahgPAiWD5QkzXXuuCpS1c3F9vFMXO42JtQLBYfoJN6i7On64y32xGa1GA4vadVzCmX6t2h6+/subaOX9AWGlfiML2Z4rXa9mxZ8CWQmhHerA+neI2j2N5sboMKMTIw8K/WDmcCCMiPaAtxuH9gU66q/HFs0CjapITNgZZI7C1y22CFxVKM4BLOI6YVEqKT2rj1tK+k0xd7xmEK3vjtevHC1/jT9wClIZMidUsZm8+HqHvzmufJBK7TsB+uw94Nl9zUwOFizcQMHibwfzHNKSaUQML9N6TwamCQeBq4VDkUhmiHxKf8TQN6Rm7LGshquv1JosbAHVb1JodCvWVmWX7cOLpflYZnclh3EnxCtqNxtzdBF5nc6g3wqMa+lzn+50K7HmR7RUkPHVMScA57DdlOc6BuEPOF2Kb6efSqLMAhPvQL5Jq2HhdaAnmrALEap5ihDvK1vc6+rydGK8XxfonmYU3tLnmRVViHkgYjTIKaNbuUsIH/573f48YVzd7fxB2e+DRuRmDmCaLkx4xxCLenp2BzN/2Ac0EuuCy59xNGUWNurcQAi+Trg0vjPunRb1aYEkj/oIPmX1f6RXSrKM29bVxqj7wxAE5sVyG+SzvufZga1yU6YN9VTGO8eA2NY17wdUDN9aJMlyy8TZ3Z12pdebfpXXQi6EuWF9BvQkPD//Bvyj8lRcjY5d+0pWYn1VDYJUGPoPe3vfPbdtO1reiJr6qMRzzmLx7cjS4+A0VYsuRv7LvAjnkOhiVz6pwz2KFnv8NThmwD7pmYwis9Qgs6Jk5w3FOyKUVANIDmmNuE7pZPlYRMVP1XZqphGe2EZch9KC3MGMkcTacGV6Xjq2vFx0RjSiU3lv4HNoWtFiUWelK0ACzkU50EkkAt5KU4kzU5aVYpF/5Xbw4SdxjgJO8pu7d2jMZf/D7nkn+9x2V3iYQw0sRXxi5tj+IUKTkLqjZFzXzni6ijiyjMMWzhzeufUy7QzrwplGxPL4ZELescsNwa8JzNa8/tew/xlgtVXABIEWxzn+RXtxQBXhWuc77rFZmnB1ISl47OCIeO/2boi4aZZlgPBgO4rVF/cXO58DawudoKu0EHS/6sDxrPUK2GJHAw+LaZ8yFUxoHHJLFXY97xWZU6hzO3MpaNlCIgwmjnX0oMuSWxCF4jewjXHznuOGKjdVUE+nl5VzKP4UB9sOcTt7GP7iqBu7BEK5ej6yMdWZVoRsH+vzGW4MFbABZwn7dGXYURaeQo4HyLopsQZ7js7e3Ipxz52MiMQ6OcfqPIguFWb+Dh7aajEknfUgBy5wCg2UEhlD3vyKYSDOfpofozJvMqyBLP2pgu9+VC8tnw4v2+U7Xmx6Rb9v3q5k2U4FynJM5dC0HGPBUm3QWZgGxL+lQQL0Yhf4Go37d0HQ5tgZaf+BUa0qwxf+mYQoKE8Izh2kORWrxUeejSn0a895TFoXzpkILv06H9gX8RHK0/N+h9kTD/hY1zlFGuY+X2zg3tz98gbyd/X0q89esGNrLWC//BuJEI01XXozBKIn4+bnOlxPvI7a4MQMoGbZkxuwYerv9rTXYRgAI610IVui0tbkv49rdtrgk/V8rVfIdRc0xGLtNbc8womlpINxyfaE9V3fDs4RnWq4i164IT28Ym/Ubbx8cO7wJYNNgcNvYyCQHi6uscNxcJ89Bz2S7+MM4vKwlKctMPEucyCCye8o99S6UJU/vWRgAWvoa/L7+c8nBFdNSQphlHsnxSogyqNTHv2woDElC3wYZyIepkW+0OFk5xSnk/S6zqN89scs+0Qg0MFlfKQ/7CXaPVABjcIeo0WRVEc9C5kQCjL6qTnZl0ocvqYjSQ2xkFE/xRZFHkweZkFANZnCU1of7yqewngadD+NGZ8+EsjCloUExw8nJyez5V+l/xDTln+0b23RB6qS+bp6hvEtEV7kKLB5fFmt2hfJUqL0Ej+zqP/ieWR+aKZEghLLsKQuRZ2qrj+K4TCjnJ6yuNFn0iaXthM/FyesCWJu2tQD+8t1hhpmsQCsRZJYZux5CUhUKpi3o4DN4pgmBdeHrCFOqUDEm2f+he1c38c/vm2ViM/4Yk1+EOzLMn8NtYzsv8odvnqW6SI1xbzHn4n+fq0Lisf2tEqdzWJzuHnIJcVdZ3CzMTN7t0xvzCT/YxTbswoavIPeAJYFQIlgnKdRJ+DAt0dZoI2D9h37Sh0MWqlcRF03ePzxYu/cvtwTPEElmg97WH0CAZ1EbsO/9EW8jDu+6DBvUg2PX1hbFl0YgcGWinCDJUQlELKEolZGjE+jwKpIgPUiX4el3nCvxXEJqjnpE7psjOshjryIEQfnvBgWoWy/F5Rl7vIEVtEcCbpbd4cAbj86a4luusFVNrX+LYm4BtLnK7KEVH63+pqiL+/6BSaz/KbHUohXikE3PaWqJMx3zRXznsBsnGCNnohQ/MUdA2o/H3bAi+P8FUFkf6RBAUL6AIB5Bl9PdSrE6dHTrRWPBvDSq4+SJ6XCKTXml/NYLMpUxvLk9+Datuv/IT/Oo5L9BzSrTJybteO/5R0nuGuWVNseTjB6nqEa8hcr+Arjgzilun+D+Fzs35cOpVuDEimvv5w7cPGT+2qZCp5hNTZOppf2IrM6blJXYHpqlEFbihhDPvmXQDRqRHXwzrPZdXcM1oHPomtG7lrWdDaqitr40cNLVFnDJLU4doJorzeLrPSmqMdRy1QHv8PaEZ1pS1SVTu0CtiN9xqnHEF7LGkywqdGSjlE1lsYWtRR6uV5PIzPymeu0kCbjOu074m0qSxO4++p5/P0jW/fCsxmYkH9NPS/YIGKQ+ewHkc01Z3x1hL/Ai6KEI8iYgcYy5ATL84FIHK0KatWYwgmooKabsv9rkC/fI6eJyP+Ihj3e1NG/vroJQFdOjxzgGdoZfzsmHAf+x/kIt8qYeBdFLKN+92l1iYF0+pPLWPaX9URLhvub/eMvAM+QRoGr4Hon9Wq2Srbe1gfDmpWzcyScsfcLJ6jCwU/q/qzshYUYa4fVurcv41raPQOPffiPa9iFS13evJhQRz6WNpttlK6QDncrgm1NUc3OKdaHVgzbA8V9XIqex6UUsvCu/HWG9Dklj9r6Vsx7s2wNbNKkMuQw4X/yInd/GaKAU6xtvjrorKimS5HwzYti9uaVsykIfLNfrrgNJrRD2bQIEBTucaCjO/lyXhLu9yKF4tIu4pqvo0h0NSKBCedIttr6P1eo/nS6lc1Cs92DiO4VbCvWlQJskDAJF/etkbMp1rcPHRx31N+ZcuVZua20XR7U601dE38wRLDGETtWcTM2UYNsUMfpVy7fSmHiZ3G+6KRNY2Xa+4TiR/kH1BR/v08i6Jxaw3RmDYbwhdWBa5W+Fs4syp75JahjNdYlzRRXD5MioWPz2wEhXoOwQYpdBsPDS7gyYAGOpDeU9D2uDxAk3wiMnfJiMsMwWN2JG2NSCjrUkG7Yo7uFMRKLQs8LdQWlgr3FHmJo73KDx0pZi5TDNGDfO6mTFPg3ieTrdSocN4HvtZA/cOBP4bESTfbRjU05V6jx/YxEqxLaq2jFRMBLw6diXOTj71hnjJszrhAytFTSnmNypJCFuskatbHWu7sFWgUhsTXX/MrRcU3JpnsvXxsKNMK/krxv5kjCfWTUqrFVrfc/DBUQfb8YBi/NDFY+epYV9sJUyF6/rTp5exSiA9V1VFn3Tzx+T+QWGt1vmmtx1VwHs1LgEUViyzvAVkrp56+Gc6BWNX3Js2nlvN0HqkethugWDDWsYQm5qujlpNyYSFzc7PrI/N3Nr1FmqnI0G7V7Nhp0SyoxrLXR2CoTYWcAKg+wI4276wWz9+/1ljnrrWIMR1/zBOFt8oXRFEV+Cbz2h7OJ98SdwlnpmGUa6mQiVE1bk4Dk0HagYfH6Wt070+pAwgCikb4xc25lLIRqIM8ntFEaydojLGdvrE8RcOGjD0jU0TscGjvothHZZQ/0QpXEBiqzkjclFJ21bYB7nVBe/ZikpnldsPS+SPcvyNGks/U7sqS3gv/KnI8CxnoLYQ90i9xOhTxCEwl6U25dV63TCRif13PACLVGIAb7tqhIKjMC2a7Cdbo6IvTd7gB8Ee9uOvtbz+Ct6e+HGK7ko2BGU9EbQ5W0D4OMzjenKTkZFjXeOY+msP5o47sOTe5EBzeXLPyoiaBBEatSNoJivNSCkHw8CXgUGnB7dYu40V95kVUDXncXmvusujJIXPVDf1wYyXIC27+axYRiTIrf65jN+FINy6HqgC6O6Vo+c4nZJtZ5ythkuNumq1GVnY+o8N2ZtSXTOYA7PnL4Dzw1AvaE9UrujVu5WODCfmRhMEsxh/mvanTUFNRGqOAsm8gr3Wc1Do1U1EkmJhVtRcsC+McRryLWiwqzrEgTY5nl7l1EOt93SxXSlhzZvDA1X3GT3QMoycBfAMmGNCLMrB6EhP8XVSAOEtfPXK4Ib/F7k/UBJoT+Foxh4ILr3BIijMTYOn9A6QT2JbA6utN40tqwDYRBkk8jXGFr9IA4ZF751aqNJiMSQ46IzGEVwe6LJ89lLkUSjhgXbJtgbdfcSOO06Z5Tevv7IKcBz0kkJlViP2IbtfGV8r4GcisNuUMVacPhMP3PlsEee+lnSRSJEVW978/wTNBLEnxnXVZnH+4zgvIDonhppBqgJ6FpqqrJA31rBExEwROkZA3ZE72Z+rjZci6kDsZba8O2Tr/2gLZWR1M5nnpXgv+CQn3iKu/HZk/q1/qy1NI5rMJqTf8zAvHVP76Z159w+ezfY/yuKJ0c/fsghoxyvBboUT5swYHxjpac9obSdfr5Br3nKFW5+vSU6lqvDojMUJq17EveGLSx3w8wmNaFazOVTsi+UTEij6tS2jfyuXZYoUrgT1stk/mLIWWtZcj9CQrzzZ+2Rr1Ih0SgTcnUypeVzy7yodM2F7kOwy5WwyLpAUpAg14058OJv7ZCjuYjxNNbaR6lX726r1rDEAKg8YFqMsDwFK33synF3cYWtEfVVPLe8b/x8U40ZulocV7CQMoLfNph1M3kjegzJ3+n76nvVyIv7mOQYtoYFvd+dgwPOJeYBrovvvK5pO3/ixXSRXg9k6rjtAU3xJMMvcDG/cMyC2RUarFhhjg4Zzv842TDKXIJCqxvIk0Su65zWDAnjSGn4G2DCSHSIlnaW2nLR+AdtFNWmd1zLxj7FUooHLiDnkIK1XZ5g7Yfq+gBAHq3R1EyYcfKYjYtgzmX+Xbo9wd/YI8VdSvfgvK8RoJkeX2phXzHI4VMQ/ILNtNB/IyKwUv2LZVDQrVc9D+cUj7qe7OKDrsrc4ZfPmfVAq5a9v5Q/1kBXwwoK5a4PJ1H8Z/Ib8fGQhr5GXuiDXHkKh1O1aqQrQmFYONe8ZngzIV5t8la8inR+r4Z4RZsobyKyNTuF7QEXnnzjNTkguDgwfibsmKCCVI17BKmRuli2SvXZjGV6uVFfVCNkEfIrFexfdK5DzdLjWZPsEujwS4Psv4GtFkrnFybXH5X2keDXQKmPpinYOzTF3Jizq1GGS7+Mek12oqjXXmjnFBmDRNCWTVJFAbHCMLB4RfVgAoCFKRauk4RUn/094l4EeJPAg50Z/knwfvawbhc2QjbQL9rPF4ZjuTHWOyZm0Gnj+KTFP2BU5fm3e20uAbxuhXXJR5sE5yTjDw20FLqGTSYcjfdCY3wkoXlE3E7S+aKKJIhq/tIUkpX5TovOqFkZG02a/lJye0CxANKKxqpj7jGqEI6DGCoOala4uJ5GDtdLf0ilqC9fOmgcnCLPr9aJ+szOTuLDCGZ1ywH9CKG8N7x2aRX0CUW6TmaJKVLmEuLqxQFz7+MtNU/1vpdONQXUWmEJUdnSOIO645l0VV7u68MFIlPYpQVDhBvb9+mjVgoOnSzmIsfSQcFSStNJD5YguL0s/SZq6bjmbdUoZDkMnqyJItCud7wBQ0DMs0gbJcrWDv14zFtTbYTQ/sS9iwvO1KDBeakzM/oM23KGxYl+gL0+lhz1s9UhECyPBJ9LEQB9B7FkOavIuans/KiZzdsAWahjcOmkE7cWw/Y4DWKslCGNemIQM9LbeZZLvBhYv1eDrLshL0DR1ZNclNe/vWdNIq7l3vyLatZ/+dTbzzn/CfwOS8WzpzIlmJD1mBZ8UlQUPuR/tBY2+paE6kA2rIJF9TS+7UYiBqMla/FoicfMWfb8H1aI0t2HIaupdZQiIvlbeI/RBbcPy69lbkYeHahdUUfbbZCSAsdMZTjvQABzjpGbu1e6Pav868L3CmJfMfYPittuNnk8pF0HOJwBZRiKBxITsUNC+EC/+mIyODXfCDgAGqXno1Hyyzh3U6/toUpZtzHiGcG/HsJ9yUbNJIIqFA/sh1RtW3ffEVATnomgaW7i5YfP8FflX7O7WmqggKejbk9/AnaAtfNOigSNLMTeugVuxY2WXOeT8F+k7bYvyyaZKK3pGP10JgtPJJcYsnhE2+XrChrbK8a+qe/ZtervvTOXBmHIhPX3DNwOhdFr0L6Z9CuZjzxbuy07/dQ/Npud8DcBYPJLMaguq2oivfetnQe+sxVRRzqKdg04OQwqT+yUrIuWxGiac5bL6sSMqdYoxa5FI3D/d7c0WP+e1LjqDm2vmUwFBFyKTsXllCrofVS8F8e228TA3BI7Lh0LDogjpL68yWYht5O8gCqPf+8zKa5GWURk7I6HTh4dUVW/evS0m4+56FIOeb7o/9ikEVPmV2kCk8Sg7VYk4MVWCKJG2aMWxrotVy/FQa4kULdhR14fHQu+AifAVGb0RqKbfQhI8FuNo/yBssoUawp79xwqIqkZaBhmJpxJTVMsaxqvR1jH1t8QYm5JbNhFMlWStWBjImnrawLbU/62q2KkFaMBJ1y7l9Np4IwI8Gaon+HDp32GuzCzXvKViBjV4fypQlZ3cLG3XPHTzCmP2vVZKfqSZ2d3SO08h9HSZoL8GdRNUu8y6ZYPJ2lhXTuLwKn9meaEPvFuoW7y3xSQw3LQKo6qvVKYKuJlp+D/PERbFF1hW55cyaPKEQEvB2vt+t/Aw4RfCabPtVbe2jaJm3Li01NZpKOYDPQAwxG7erlAcF0PdGtUt6ro9bY83IFFFcgE6f7KZX0a2aW5NA6lEqhvhpK0Bu50RYJfmxnvKNf8Nbd1oGRljPq9+d5rLNPhIUycOBKXV8mG3zBgR/BC7D7hRMdosEOWKf/KmR6nNmv8aItMkVfeq9AuYiE93A8Par7DG5c5oHUS6+dQjf9VwqrzQs7xEYaAIGC0I5GeRIruwqrTbKTlV4MEQWO0tnpYPrid+F4ugqT2PE+pJGudrzlPlbmAbDjGanZ4acb2sYL5aH4A4ZayXSXwCLW3yig/G62MCsI0j0eDEtY41XtbvqvChKxdFaXGIpbOBhVKzR3Un80lKkEF6Cr0Ihj5A0t89hZnIy1hqHL9uCgebCdXLfyW97qQ7O51mbIXzTHoGFNL8z4mvFthTECySr42zB7ZAFEErjvXzVR24RV77dOrV3DBilcSd4siNESiuIKMA75Oh6tOmFab1YtOk/w7Rp4YDo9fsdKQrwjyYeTzXvKVCZxXbChOOubPnaquMqeeeFkwJNE2OBfSDW/bJzuveEWXHxUrUt+Jra/bC9DBiHJmbETU2Q+Vpuwjvwz5hqaD/NGvKxmJmuvds4A21o19M3xdk8b+Qqzbgsodw88uvRJiCcLa484ZTUeSkCqhHWwo7caO9a+oHwqE7N2PS6f12I7sSvzHdQwNUXkLHybN4rfsmIbdn8g+7Gcd8DGrTdk1fw+Dwjn+jfyUue9tcP/ejOKufXc/CfPogmjRqGt3rnIAYOmLKf/F/5yakWENCDhhsmkhlRX7xAbD9GEHgNd72iPVm5o8G5aGJ41KWdZFP7Y/MzmBh+1YWxaeWrXhtd5iKDjc0534+dO8mn0sB1Yc3BxpnvT3I/fwLWcgwwLDSHs717ncti0FWjDFdgNiICbM/ZollFsgnPqaJ/C/yOCsdyszSCeQdGPyFYGL6DNOnc5Mbkhe5PgupxwKDGpXTv4E8sr746MRpUSp4RPuINo7caIlA4Wx9TCa/O2U8B39URopLXWGzYDHQ6e1QguN8zF2t6exHU2oK4ZxvnLes5MkVkcGDAk7/4vr7QDmEvQ+N9DRM+rB5+A59kTwZdRdrZtKMneBZ+AQcVmVbxV6gFv80zPBR+G+k1I5n9ll4WhiKwbbsEFTQhGsWC2HDdrI2Gx5+wsmUjP6hF/a7yVmL8xhnVsAkh2XFSHXgogRj8Br5Kw2LXeJ9SGQLJIV9GtmHEu6+VKjXqN4Z6vzlbO7nxgEuDJvZ0PVkmtw2CEaWn2pDsIQjkyxjNb4ZPcuvek3fVsJOt/zVhFOp5iN+IEPVBdWgyy/wNiktMoeibNkiMZGob2TqD26Lus2H5aAfdos/tSqJMthbiYk+Z9f+iB32ICqUfFjKz3Z86kg6e3UNCH4HvyubDUGtwELuApAOL3TKzbCpbL3R62YlYOwLFUseq6tGhvIsFScQC7WezACHudX8piju++ZmKn9gj2gk3adTl60rCb58ztD400DpM3DbU3eWaBDtN+ng8TLJ6GaPJx9LOAEv4TRnygoLhYV634m5YjbTJ6VEMFYPZnvfPOmCJ4S7QDRaHaStKYtV+tHA+pCQ3F24hO6jtEPHB83d03Q3x7Aopi2ZL1zwjFNnyYDphEpp4B/gnSHWEeGoea0XlyEo0DXjDdbJ3xiS54JX2iGDndrA/24iuiLv6BTRmE9Jru+mTChC4NYzXIfS+FpspCbDMhCwismSD2mEjoZoojNyGqCYAEG6/cgBPo5jlgeCqskY3ch+RjUuY9A0L9FJaa7uBxhZxb7O1tVjuH/4/2wfLiuXzFnfmYS4qtjCNWFIi0+bY5IdtKPVtB+91TNlAvmwQAD8nuBxNsCI9LBxBrFGT+buQmZbnHTPX87ghIizn3QrgpntdRjG0+g9GSLUnGjdUJXzXn0ehiLWT11HEdVMD61uPoTMVEeWZ+STxRAwX6pJm7y4kH/1Tz/tLpvdogChml7j3aREj43HgjRJJuWRnmnC+QtwuXf5lgxPycuvgl4B9FFtrt//hrReUYWywupK/+HYu/Yui2xsXFv9R0gF+2LNkjojYFhiyZdiSzihRs8IJpgZxUcM0GPHPNumsULHW2FE8c/pFfaoYpIkbCs/WnHKkV2+hvGxH8pjBZdV2ZaVy0pDxk3PAF675QxwvYOIm1u4mn5vwwTEz67JcR/rZsWWUZEpR9dAq2Co4tiXIgMTNQdZr4WzR9rf9x8HcuMDnen67yVOEGYfwLhfD8N/zy97OqvMt9+fkmliZZzfN9RNv8+otrTqYCjykMjRYlvMlmWI1N3W8WoWWFJws/tKAM0if5RUc6qMQQGKifchaNUrvqjjuzGlwyQBKDICx84HdIZwPHMOHhplx+gesnCsR3vRrmqroLQ9mWsX8r3ZxDp3mS6+2c5HkWvKepF60UeaK1173crJQBFo/TjeOis/rNs8S8mv6t/OOafBh1qtZQ5UCWKjHjI4ddlBy55eMXLjb9/DcVWbNflkMhDFzUHmxKyXNejTYzAHvDI9pT+/Tl6n+3E220z61Y7/yhfKc20ksZSxhF2Dxt4hBDBMs54zo6Lrjrzqt/sQo6CTalOG/usa8vQbgjez4KnTPLUzAGWm84ks1m3ZyCovQi1Pug+OOIpbI9LDNSYoJxRIHQcW+ibcQJZ50sUNvX2B+AphyhpaxEhs+dIEUHHBFMvMrfgyBF/9DXeN3yt8W3e79VLO6mUfa7vs0PKMakIGYDIKIMgfUbjk5hcacSavHZl8FaBdIfDJUJgwu1DachIb9Uf7CeVkAgE63fgaf41cZTGawkq1Zl+etpfEtH8C2teKckNuEc0M0PB18hqlf8K04Ci24hcu2Kk3bp4Fw8KHQEDnd10s+non+GjlwonpYqLytNaqwnJEPWDVs99rUaDdoWzxNrOZ3Sd64lW+56/xun+Vs3rYK9p7nxr7LsRnge+KXcoBp5Kgo38up7JCt7cZ5tlUInkRFT4DVvxwIGCb4P6GV8lIXMtRMfEay8nFiLRDqqEzovN6MMxIwUNx39CWZjl+M4DA1is8wfVFhM//U+UAcw6erraJizfO/0Al9Sf7U4xyaj/mVy+dKEfs8XD5uVkWtK72IMVxLfO6TXhXZOlEYZvZam19eQPbyUG94sdzwLXrOeZTLu/foIqt7IeC5Gf0yzLB+07ortV6Vv+vCnaMssOLIgD6Ly+qOcZKUr2tzJND+qyS8Pfj7sIgposrL92E14Ck/BVXebZ8QDOqs+7DHXmjUm5q2xAk8Qa7OvIyXufI4WvlEUalxaJFtDqa35UNkaFNlSSWo+HWC1+imt2wGGWBFH+FGBXQ177CPjELpZN5q6xnayl5mrGwNU3p5L5cBs2spToGt/D8Dd/2i5iySOGq2vz/YHZl4524ZgPoXP+67kDSIfS79zRe35ifuOo1Ya+KewyLTywotVGTq7elzY8TxlP6ywDl7TnbDxORDn5jat0uGwWx0pbnCflY0EtTrxTziZTGCANQT8rQApYEyFbEEKdVc32P8uSluVulgbRUTPdDF5m+pxAyofJxOYZSRN8+NlET9gvDNhDaFp8lqfazNGnk+LSyVCkJP7SIhqcdP9b56dmWWtll+OZGFsGU4HNe9NjKRmUaVMaqYbOOsE+QEnmScCA3bR0g0gFc/tu3M48j8jLGxQySBl5/VZO9N1qpjmn4GGR3NhdQMuFTwS9nOjAainlhaB36jBm7XWQ77w22RRSVtV/IDRIx+PQFBSJkGTSuNhGuBhWHPZ2mtlnjr19/Gl7qwIv8JOp/6al42z8LyMtdowwQSfHZKrqFNR9VOWdEqVple/yMe5ImUgJHh/Gu45+eSGTU3QQdspmAVP0D/chj1HBBGXeTIxw4HJEWzHfZQDnusFOssdNO/vyaFKMLyraho92N9kf1zyX1sYigu1jnLxylNYj9qYPuzBAq3aCpJhZQ6pYFX32AA6LmAKfTSDkdt8w3m65LggIOXWDRC8AGZMWDZrx9GU0AhW3IeFI7DI+LG/KEQ0MIxWxJ4xB1/CDPxOndg67PndOLGDMkp1hFp18YhhGqN+Y7rMr42p/kSYF+CXfrJG2Ks2wrxB1HGCNVcq1DsC1HGmAS9clIav35m2PIWIAHHwPwky1UeIpeJRjFtJLp7ghvJ7VrHXtxP2Tyby47mAY3d7UHMsEIpDLXOX5HBbyWxJcP01rSrd3Q57yaxxRIMGiSpSoQSl+9m640HcEOBLsRuqC99KIqsivv/5Hirmr69dwez1L+Qs5f68cGOj5hn4FdkryHprOGg/NSjVF+7HVIEEpPa/E3kaAQNmARUNl3nvp00Dgu4dEnZG0XxJzQSJyfQnXDD/edIjXi/9Ol75KylHkkVB4VWWPl3JOEb82ZexoPz0lI0P1DQd+MXJwFCsrf8LsHOUL0P4TounwMu3NmYXpxVQzmanc1erASm5tNCWSjs8kAX1LEej3srFjQ2LNzrCVRP6riC0qeCDAzmXTDa454QpfLTySFma/7MiXsmRFeRnlTs7QZ9jIT5lx5RtXxwYBO/2m1R+QDRGvhZxEyQ6KoiNrcpUQlPDX1H2RwEz60tEJJDSV/PLql1yEWsxyQUZnLR62+OnBuP27pSTxWv+p3d7HhocM+LRzAO5vb6BM1hWXrxa2vPOlsmfd8JYw3sEJwV+hkf/emqPkG2pDH1zQWniDideRKfrEo8OVQfSJLzmpU99xQbVXBugaw36x4g2/NfiV8ejffb3tX9ev6TEF45xiOVF2oTaffWzpzVXq48Som0MACwxQAgtm4ybMBXAlDYY6UzlxcvwDBx043R6zJ7zQ2xGWZV3ZvEQLM7dd1ZnwCIIcMPJ5Sq0fQm28ksFKuvAogaGvT+zZdxAmt0Fq4uNU9Zooibrt7kiAIZHmJhSozmAns80vgvZRtb7qTQwfYjOZyUeCUWjpEEdoAw7jURWQ8L55WE1FOxMDA9P3HsTIsBOp133EoOVrDg5W1vGlpb2HFW2UrouDfcBHKZvsbbiyBZYYZUew988mzaLgAANrX55hqbY+y9sea/98UTT3kzV/2iaGcEqOK9XAuz1ylWzkyRvIIGKlSDq/kbQq3/3iDRx1gipcwoK9yfICsXaTXoxt/oph+pTU9rq+LpSfeXXzrFTkaDk700hMH9jZ8WilQ/0nCxYBYskqMZOJantzLxvRx3KDKLghtytlIdMjib4Y8oURfQa/x50+zbk/vzD03XbRj7KGs0mHcaIcDH/in9B0K/mO+IRusHOB7I1TL8DE8f20ThKuI0Zyop1BKe9sCw4Sf/ldfEy1KDZCeswtwT/q+lk6JagrruQVKMd0mj7qLRMkaA7alBIezDpDtDlNe8Jc4Loo8XG8D9hiNjneNolfIPLDUncwvwDwHmFSExyNzUXXlNJdKt8qaiQnvv0B7LGuhfHQSFG7EqZ9h8NmcpXpPyQXghFmJHtoxpPZ5RN6+kBpMz4RJGCx7HvDX4aiChO8hru7HTbcbdkxiwMCC2wnyDmSpVJ5rwPy3MKShqZjYeQTK4FDy8gw45A0Uu2a436wRvrrY3ExQNVmP8oxwiqGH4KHWarHybkQ8n/ljd1HHkW9JLfizY7R08iFUMosuWy3BaW+PGsJj078W32lj746IH0N1lNyBeBY5oHNH7TylYjsFiWuZVeYQnmG8iUCPTfRXw7hU9A5zY/4VkZ4pP/7r0J4q3QCIXSiC6GW7P1kIBind+rxWXqNCn7qrdOgBmBcJJ9oSzS5m1tqm47RDs+Jwt0gZH9742lphlUnPEW6LLLC77aUtLI3/ODc728Qqze4Cq1F9AajVl9E5bXKsuavxetSeHn3dM1DAnBOglq+ZTe+fLbRra2nUCWCwp/o8b9Z2ADTkFGPCgBbNFkv/ws7Zyhs8/BTgbmbcihkWJakEgHV5XeCUTveOia4LTErC1zlRE9YY02yZFTmwmLQ+DYKDm3w+FsgLGJShYV80CXKPAOItwP2S+osykpW/RCQp7Bh1O6JrEjISHsDOOjbRyf0Ksp1ixFj5cL/7aYq8XuND8rP1W4V9NEAXLh3mvCFppoh0Nfs49Lr4yqPwDRD57YyGSItDaIkLugTXAt+j5I8+If67WVhfqhar5GrvVY72YP70Nps5v5ey5EPwfeJZLk7SV8NSgrqWbuR5maUH7bb8rq9tjzTUTas95PVVz1UHNlr2wZPZbGvO5nR0i63C+8886cgjMDApPcZUv8nxv4NopM6VThYjVFWXYe0l1EF/MUQTITHun9Nt14M3LBp/9xVuXQjfNrvsIvKLtzbGfp8zGe8dEbHF1EX/PGWbkpYlPzz1C3Yi2icapR9YyTEvuVZGO4WxRsG2xOeBw2RciYLSdZgKQiSrQ5HENBNIpnxqyszYKb6J8TnG5H6OWO/AJG3lOcFrwdSPqRJMN4e09HiOyBwjEwhcRnnAu9WUCA8jf0MTy+CYSJJg7MqPA/yYS+o3CfcEuYVhfx6Y4QpI+Rn7ez4RknR95OaYE5xEftVIJkV651DuACFAJy6J1dvOz3oCsPVU7E5kv4W8s5+ybrQoQbUUSN59D5jxUuPeMiKz0HHZCXLJdcwbecGhudX72NVUO/DjmgZadj9wPhSL05NulYBgYDVtgkgtY4N9OBY1+Pby6+XZyn84TUsGb/mEFIFprDEIY3B6lTOn+yJ82WHGARFmUTKXbS2ZXn3DVitF+trWsnW2TtUq4hdYbaN2zpM0mvgHWemcapMKnchCbBSrdJSEJKw5R2anMUnktpRl4iebwZhjl3kLyO9HJ39ynjTTLuDyZiD2FMLj6FGWiWvPB4ki3xQhAMbuRmnu3pPB/0Gxcz1U9RWFn8CmR79ytCqF5aMPUwUjojQbW9JdArs/FOMvScp1qywqRrvqdDXLJG2KhUwIQu7FutnCWVq2zytLreJVeqwQP7/BcAn/p+PdeEawGT+uLaZaLQu2Y6lZ1OlmjlY5taSc/HM98fBBz8yBbCqAwADsjd6PxOgfIx7Jg8T1JDy3Cz2+w7pCQcXyI5GfqKGiYkEmkS9GpR4s/v4MN1u/W1RllovLWqW56wBg5/JHXntWUGd39pAxPGGCKjO/8goXVJ/dbJnJkwA7dtGgp0NvMkLfOiveHpJd9TeC/Qoz96Xoimk8ugmq+OWAbRMdQ3NcRKa6X03sRlKg03noz8E2SkTymEok4qXy96kI5Lx6+RGp9FLIipfisaKuS7jJ1c+OCr4+fUY+KlxTNWbeVrD/uifVoklgBTcl9te4FJCT007fGgb6I/hIuIPC8jRiAyHo0mjREz9mZu/NVuK9hSGabD8pGG9rB52grxnii5y+LlcBiPCJWBSj4AuGrG0MNel6QqymwOPBcloRwHUrKaLCVccyIsqb9+2V9ZdHMovGMbQ5d8aCHJjRVZydxZFptkIY8IJVlM4vwetOQt8rJRdmsYJkomXapwT0/VxS7O/SIDAIYDF8yFmPD8JH94Pl2Z/AItT2QIKxvibY2/uLrrnJLrN92znEy7S5CKhxsIKdOJ06cp5DASMTm3x/2IVusyApVjten9LKIuDkEMobDKW0DO2J5ZHBh9OQw5P6y8n+WryznzKttlXHa55553zyFEr2jTQ3y3ptp9mnYCz+Rqz7ZrcKtHnnSRavDe4RSCYC7kWKPaUqmYadGHmw1D/h6Yx5bfaQ0QAAsnja+vDvCoXbOVYGkuHI0gb/qNJPGo5Mzjoz4Z1l/zhy+v1HTE3lGOiuMoNZ/wUjCMr5N0XsFL12EQYt2qdCdvWKPUEfII4aeZk9CLCE1DfjPPXvcx/UoXDJJHXCf+Fo0xw6DeKhOGxemJ1pwiIWTSBMiwahJ0QdjHXiSW1+2uHe/x+tXjmwSx1vTAxGufBrUTdkkNQWa9HXDFbs0oUFSL4pVMMWcsuCba7Ozgab/XL9yRfgXr9/D+iqCxW44Wrp/fyXJeG6QS4xAysiwV3nKqnEl6eWOPA2i0NoVsCY2x8SeNPtmumNPa5TWB8OF+0wQFbUq5mevfWv9cE+UFcP83Ppu3tM/G/H/IuBDJtH/fCYMZbHLLmPRvX/g4o1qfeI1zWwktIXDtCGGYmhoQKN+AI6ZzXnjE9E1Holq+LV/AX+deQ0AidKeQteW3ngqJlrPlKWzORBEu+LlK8rm0UGaX+w6007BCeOtBb9a+8L+Vm2z142Iqwuq6OnkGQoBauMYWPbLZThnEi8//UJULBeITx5mB1nmZ0SCyq7hw/Jt3f9jE/a/IIAal1ZotgJK+349zlktpvvg87+5UpaXRzcojLaxxRDLqm76S9iLDJ/qPVLmZsbb2xY//pwlZmIF17YX7Zyb9xadqwN+0Xlo5qVR1xlFshgwqkKGjvGHs/ysTMXodB7HrXWdyuXOeaG4xhAxMNd1KTwak8dykjSw1f5lxKSg7Dg0p7wKWmFaOaE15AgdsAhu4ePDtT90/UfpPf8uYFhrKnh7MG7dBLsa8auNx3Y2lFW6MCa3dBwW780zeC3zy+qbERwNC+OGlPzsumbUmq1EO/p6xGpypJKavL5CdYfTcaNo+btgfUniB+RfoGrEeWjE32xfsxPnUofllyyuFPBSpRoG7z1bCSCMYYJa4Z/o/ldDxCoIkxrSSTHHkZ33df+yY03qua/VH7tifRjN9Bwekm6knWQ/2mWDYjLeYfv43FrxdMbS+wz9o2CZMV2zS7yf3qd83y5g08927/ngVCJ11f2jrb619MrODmwgW6LEtwSvIhAlD3hxnmIDgyYdSwkjmloasjRCRNh3zzvZodYqrgIQEWAd+WXiTWxaHPtUaSD+vL1HXburv5FCzotcDp9O3v70wSpzutY6cAPQrJ1tl84/ogX9cBU3Sranleq93v+t0bdaY38fnGkPWOSyPqWvIHJVr8HNYTnBhsxMmG/7Iu+qEd52txSBE97vgUiKCO+Vmhf3+hX0A2SvNcuv50i/4OE3QLeHrt3ObQiSamOymMIeUQiP4JMzxr/r6OcwbnWw6MJmxLB0icuErMPO+eL1C30FVtgBx1tcRTK8i4XbqdmUPyYD3px/9amWF39EF/IyLPIpai8w5rzq0yVuACUVnrLSqUlr81cUvqpeoBCU/KJhrfqfv9mlOL9y0AgU3/gtiSMXVFMEbciwd4FFxCs8lCMXdoHByudJuIV7LqaIvnZO/bMoUuIUIklUOQ0LbNMDjpKsPLABAC5klv1tlJjXZ3O2megsneGRLI/DnPqZ7Gv99bsLw90hPPQCvigGzJWkrFRvrFm726b2+SkcRxxy5wWys7g80tOqJePzLeVrS1E2XW8/p2L07BpmLprJoaQKwuXOOJ5NFvg4uHB6V8bjjmgfg+IoEALy36qUMY5BcmczdnnWJn7CLvoiBq8IAwmRHodDjxP4l+87juUozdSlaDcDexIVgB4sqACBXghC0c2ef0c2JrZgzMearLk4yzXS6VFUms4VTF72VkMcfgCrkzyl8eFbC5MANc1dVy9vmXPeyTkT1j58jpfdft6ysUwHM9WEMiWehD6H+hNE3mDyEtob/1gVuux89gsJT599/3fCma2HyQSMZczhvVw/Y/LPE1pqV4Q039TTj2EuS5MqdtS++lMAR02Sqcgq9IlNcy7C1EC9GfpevV0LuO/FaW4zphcA4Rne9I16R1nuFuMA6xxbuQvwB1m2ADcTDWbp/rmA3Xs2QJUGRtp+1w8elOydS02EQKtwkUZxfq7cgfuaS+w8wInm0l6Xj+Gw2Iw3cARUPJ4hokEkSAOx6mUsJhWW28wFzwWnKt0eZSGOXLlCswMtCh2R8sYCvhWgwG4F4IdllEkBpcTCjKuBZw5+jaApuN+83MIyBZ3fUQ9zJHG/ABYGf2s18dgvtTBmd24r5pJ/sbTy9zEvTLS+4Axpy/dcIUQnGP5DRLZj4/n8BhalYz2MLpH0uYTbmaE+RMifjB0BzGkYxWnl3UpIv5e/+LLGSWKIa5uqu9LrB6RIk9y37ZfPlUvETGEp5lb88/Sr3uERKPgQyh2iqApo+dgt4e3Id/Eemhn5MQ5vaRsQ0zoZYjwO4sH6uxMpWo8UtsDzYubwyxeYYuDZU4qa8SyABq14LL3Dzw/G6N5cQh+52NVC3Ot5LPImaueU6M7Ajsz6c6tQ83/De6KumMJw21dyQPkw2e22woZXwT8BJ+2JbmgtT7l06mGjgI758H9+1hgaXZSXB8rpl7Vj6juWSXafOGiDRxne3q7caoc8zoyMXjdIvT1j8Wgl4qDunoQRk2ll/vb/nlIGvTrVhWMkstHHQy7H6L4EYe6fdAAk9cXwT6GegKFu56TfHbyAjLhUXZmgQ5UmfBE00PxhgwGQAgv1XRYmi9F3ZcOiyaoIFe+KQcafrdPDSI9VtWfIsdQIHw1x569FxILN5SlJpJWUXJgZ6rep59PSSnFi8EPWt64BPXWSlQdL0DSBNUXfs2xWCDZanLbeaXooOefiTB5CgXzZ5Q/IKx9EQ3f7XFHaTUnpJyDo7YIoDow+r8lWqghIFioS8LUNsCRYT3UDYL1G+Q+ntwJhA+jjtU+No5crYxcNrAxR6HgzoEcvsOJMHmaAyJtFMpvbvcokbUk9IIRukSb/1jKQNAsjPJNP3xMr+TIFFRV2hDU4F5mXDAXwqgv1UZFOjNNDzX+VzStnTy1m3PLz84ik+hidpihAtahP7kMfkbZVtvM5qmIKf2MWB45sOTGotbDkTWizexjWOzyvY3iCUc3c62AoXFGp5djuPduOEa6eAdxbUP+/xKhTfOsxiqiAumBILpM/yP/tE/q1HwdJthbdlJy1rRbqpSXK50WDCoIQwozdUMtNsJF0vY+8d+g5sPkunnOh+/A/4UlrEa0O7leQdLEanbiS9Slzl25X5FITXtyL1SHs6fiWnXP4R4JUocPgPyRlJYxK9tmO1a6Nzb+rml1BIeHY1yrdwsvUiEdHng40h3C0Act6JP4LDcYDwlBc2W5wdn2p6LDVg7xfW/ausOZti+RIK+9uAdK0BG2R/ZhdstsMokELVDoY/WoDkQ8oHpoUGZJnCXiSn4t8qW7YeZEAzVP6sdnhUrvmaSbpGF3f4iWhcDN6apw/o1It3qxMVA+iUg4C8BHeU4lrvtibxPf/OuK02Q9PmaKNo2QQBkWL2xaITnhsKwIMvwneJm7E932/gQHYHaXY2YJsuHDNPaLr48MTIZ4Mv/U4z4MApGWvDmLuMMCCKMGqdj4KyrDB9tCv74C3mNj0VW+/3RSkBbAP8goBtZrVyJk593fY80Yem300+Fc5d530bE60Qr1GZL2NyqitlXdhydSbv01rl5FUZ+5V5Ea6YMIP1wPHNQpUHNai6vD/L+yevQSkye/E9vhg/3wVNFabdHKw8xhQVkoZZgP3qZQks8AtHEYYfpZ0hLzHaSYSN2vI3UOjceALJ1szyrjTa3vpHkHLPRLV38C2t8aQe0FonfOKPuRbNGjAXvK1SGAt/Uv98IoR43i5xmDv6DjDOlYWuUE728V/7ZjLbEgMZL1+SwwD3xGSmhzitCTqu+2reM8Z8dhAjacbR2Nzx0oSiBA9leEqINdbiYTtR1RrRmmJNV2bOI9MIJWusWvaxw+P9IfEP1DjHSPBDM3nk4WrrZAG47CQB/TPq0igoVWvZguc2nTxrasALwU5/iqvS0c8XU3ujhcqIdeLafA1XpO7yNILC7IWzg1MCiI4xb90GwNOIQGsTFuKtqbC0NbsqeCcSCBqCs+xWCvMxNMqTgfdJ+xX3RHR9Ql+8bENZWI7/WNJfGSzwJ9vVQjk/J1cQZOi01AordvBUrgmixiUxTGbAdwxfq/39A/hUxEl/fGJrd5/dXsQjsnfT5KGnmb2mGNGbEb0A8Ewr7KPxVzGWcQta3CoGF7+1avtosFQ1Nk3fmoK0p+1Cvk8Q/N6lnX+Rf1ra6+N+d2gnVs1NsHiogXrpepFPJ7RwBjvr2pnXa27ZUun9d9gSyaix29B2vW1ODwCylndDalDAPTzoGB8myQ8S0gdLMM3N4uUFOdA0z3CCF9G5+pu9ESkJaIoIxn9liTcQG9nYONMsROiMMNm4tvvZTHfwjkxiN5fwBJ5LA8YXK00/lS/BQ86mZm1IDvdCoxYIl7Ei/iBHEqJ+KPBTNlNaVOn6xkSfr9YSq+5+GVwUZmx8cI3ohy7Y0mruAnErec/lMdP6LAj5q+0O6LpgavUwx83O4kOlkmKjCD/lOc0yPNn7mk+jBigelEVD0E9ceTKgXfMxh8qZVEs/Vlrsuggh0AXZUH1sLlHzk9wkF7oUXhuLtQvJuleA2fvAaGaaaMyqYoKdRCZLQ8hwknh0K0I6nihoF1rXoWE+EbGWRe4wOM9aILMSzNRRcLO1O3dQZeD6RMJ3I3nwd1k8jHYuTVphh8NWiQnEFX8uxqdw4cfqyXa5BZzxXGl7Mas2W5NjBs6nPpU0Ry5rZQ5baCOvoJ1hoFCMC53by0yD+nuPfAMTmO33II55JPlrQ5yO5GULId/IXBUIxXEj2ka/Zcy7rtIu15Jwy+qEzosVT41tLDvlDLo9IwX3D7BfskwPIrWy+/NiDD4fQBXtsB3RBdA+Op3iTS8qDPtb9iA6ge++tj3X1EzcGWg20eFygEHHQkkkhWT88+V5O6u0cXuus8/eyuMf/xZu4eI7TX6bAlVGBWRfeHtQXhF9v3XaNuk7kLwJEYI78kKyYRvJTcQUQzOHQmWkQuVk0Prynb/o3ypQXQZPq1cB6ZfEMaaq6lhBGIiUeT+ex5wv4DvA2CEnBGPteG55o4CAD35Cy/2H1UYXWvKtEJ5V88fIoma3hr4ux6I7LE2D8D0FOWb2nAJOewXZMwJZuFNUEEn0OSY0NuJEMUKWxrqy5YH7yaJbJkq4K+U3JfBQVzbuJfmxLKyx14YvLhMh/CguCHYSQ4BUQYXDwaCrl6K8L0GyIU39FRqLSFdm2p8Kd6YYOMRpNtxY25mxoV2dt9bUxX3e3xzWpSYBhly8LDgZVNq8N09a9PVRUrBIwAp7Xcov8GpWaINLXfT9Q0ztADvHL4GvfoeBom8PexIuE3GsDS2ICTucYiuy3AX+fZdPYBNEYSobkyqGmRClXEQ2JnlvlJraK7oupmyjXBMVZQuGJJeB3vjyJjadUlz/lonzj5daAz2IlkrmyohLVwTn5s9jKj57BRfWPKjU5umxuaePIK9Z5LaOj/nBFVFvSHKErfPU8imr9V4c/BS4wq4X6fHfEo77AX59FNxMLARxkom4ZYRKBJOFyfXQI+L/qYZRSMC4hvsKSpNDvBYMy8Aom3lYFaMXbFk44qNujtJKhrMfmSKL9PT6RNiAFkPZ9vEpN5Gfc0s2b1QRUcPm5aCKAeJZ+9IadX4LgZE7V1ZwrTI5sVQCYmR+GgEpAXTLXBsiWlL5ujew5cjKgmVXZv6/FIiwIKPkVZLHXjBJFXZ2BQ/RnIHIVEP6bq5+PcB1qPITzQFnuYqYLJGpw1bXwL7dd0OvH5f2oti7P4Zdff+U9JiYNa1cgTUsLRgz2IGKT9afQrUC9u4MzQTRx4+/ralpkq7Z0Q1czZe7HXN0LxSUVETo3ruoH047hvWm+dPVwZn7QEVqbNSHaX5a7B5s+5K4CUrJJpRUWU9aVKMXjvWP9bZvJKUrJ1k56NsXFLr5yvUiZj0O5mlbZ69U0he187vjoqk1vMetKwEVWE/+N/RzvSvECYrcM+zRVh2yNZz/sMVaz5MWGiOftoi0IsNIWOOnLs4meqFp9CbscWMBWR6/oeRdXAw0EK93yE+MOq1gcpe5wJyPdHIr11SCzu77UiYZNpkiHVt3FSk1nNcztNFxIYRP/gt+JGUHuxWkPlXs9mNp3DPhhdXqfrjjNIyfHuC1sM+3eD7r65FnhucaAwKMLIbXceVXq/pDtAwNS7HdYJl464ZKqXE0cky4pFASfSC5/TjGCqiwzbCAoPup5ETelhJPI8Bz2COdwTskSkpJqtMtQvt15/Z4PTE3FPqBy1Q/T1KfaX8kutXZzWnNFYZfm85wUn2r017M6GZpywqMJQrgIiz5brv53gH6y74qDym26ugYI0bgzveAA+M1vlSNVsvMG6C3zKJ5iUdgjVmVm1CP5Y1X1lUo9ALEh8PI3cMmtCNf3J8N4/UufDdWGnHoODLTQ/wwwDdTkelwrnkAzfsy6OTbacTFfg0hzcR+ln0zDFE3lX5tkUeFlfhYGkPKANTkOL/Gdo2XEmY9PrI5vOZLY2MCIfS45rRlH4eFG0A6GegGfmrLwzXx/Iws40t3M17XlD62zJhoOsxl9wNSlr4lhcgaO5Q7wr345X6eEo1aeUYc0LYOvwnysyuPaaZSht27tNrzdTkGFHXRdHL9rqpOQX05x5GCDYQW05pW0VA36isUwcfuX+5J7sfYvmVW50c2KphJ7VGAlGpoRXC553kLVAaNFCIAHxsN1r1tO/8C12mYWfPBDPcvtRXufkPZ4Vb3UF+bAPSUHi9p1BsBpnxWJrKyVP1Hg+otuapd+7o4nxO/1LFvONfzDavZyD+G6q+R7OREP/qxWf+KA9XMRItvkqJQsSxbIovLWstSvzpQg1Pn6Mand22rJriLl/1aDOnOjsoVYewpjuw0MNGTvFn3ZUg3aTIQ+nBhkSh6LOGhXh7hSkkJXFC99q/CUhCmZfWQJUUbiTSx+xZ1yIgsR/ACiMu1VLD0F90Q8mbu7rHIchcOjX/LrERCasZ4/hcbigZW+OR2LAE7F3VS0L+CvQcuwZC17x4CVuM4u/pMRtMYyVVpBlX+1ePKbHP8BshkqH5p2+0mBoVXe2wgBKuh/oNe+iejGsB+9vvDVMqyx3zPwSvjLevTnrRAIZcN/fC56Dagl+cISQEZjdjLOjvNK7kwC864+pJtGsIzLEbXWVczwSN0BPweLFkelbwRtfdDcLbaEiGcny40M3bcFu/dGlf00WVvn6Bt1cZXo4Uz3BCYT3+q0hEP3IGO9IDXxZY4i8/mw+tgqZTgjARVNMWm/+Pk+ZsG7nvkHKE5l48nirDYkHWYzs8q6lkEwVANOUf1ehW7Gw1kwy4WhtG2eBnqEWiOQ0zsXQRQ7MjS4H9ytueaVTkpy2Gx1HMgGaI8n6I5XK0eRi/UvFiE7lPpQ5a7As41CeNC/F64Zkr2H1MffAnhjHv+/INtm45mUyXeCgrNyRhdIyvTKle/dbNzRaA+RPYYNtKk70920O4+8pjq1YTsokSGD1E5Bi++F0bKvcKDkUtGEe0tYXmOhLtZqIV54zbvOJi21pwghVThoO7TpocIVTpgrGyoP834B71QDz8ddmI30Uh7baJ2ihHyD2g3maHgLazWMLHbHk4SOPIsF6cfaI7JnhCTQAPD1sy4N1xFtv6UyaCkjSR5EGVnyxs1ki9L4tc7ueAZORsl9E3ZylUEH7yD4yi3tEvlxws07kTkMeSlkirmGA3U0LAKNfQo36PdkrB6Czbc+KonOvDpOXCjwHlY7Vezuri/kOwVpM2DzVRGjNq3st8E0EFcDgnEyC3QfI3tDSNDVBGzJX5Or3Nyw1W3xzl0G+9pSVx25o3cVYhzzahT14AbKOPeBqfhQ6jPXYGq7+egNHbH+LrzxiF2ZBqvQ64GszC85Ijze0+Ex4hXa8qf9AJdkYTu42RSx8BlLiziQJ6eT7QAUxGEiDSocNNo/sphXKCSSH5wYwEULEUaM2CftT80aUoNhhoprBbVaX47TVw7U3dbUZzD2lgCm9ugI65pNElbHM4/iGhiGgQDrgWhU8WnzQMO/lQJdoKPCKniCMfH2FjpnsbWHu2cmmIxbVxsuyJ0o3QazxQi1O0JcrXHDA9Hgv6AmpDUxAq5a3+Bt1Jq8FmZSlktvuPTK7CamTx9pNtjemyZv2VXwmd6Z75BW+Fng40NQezjRWq+y3Kf8UDQdiSVjVux//PoQtq0Y4sC0NqotNjvftxqO7dUKBBX6BgrHibQcqhMqL1MuJB0PNqOfJXTc4W2akeTv1OVvQh8KdYwu7Rei50Nc7GQADi2G+PQxfySIVsnVYdysxAeIybZ6x7DnsmEMo23fi1hw4dxpp/FceP/OF69HvrQVFBe9BY5z/Os+FH/moKPDxfQukLxWJHyg3Y9bCJCd1wtnXEVdUF7bUyRPcIsjPb3wZeT15f2eXlSf05C/wXn/eAB7hc6nI3+pkBAzei/V6GUkg9onb1n7R+2QEwWJb7Gge+zBfQlzsTZwKKcR34jwLOjWKz4xYTZWy+AfjrxCV8R1mpzYPT/G18LX+qPwyOvYa7tQltJIG1afAGHEEXAUT/6xjoYZXww/kvNnGeYe8h2153uw39BvYbDcZlo9Df9gnX2a9jgO/PwUxBFRjUQbPVg9NXeSCJ1fEQhE5G5rHkEgKpnb1Jpv0fUnFOHjsTfoa9iNW9gMsRFya0aEKKECRXNvZWZyYfHiTioawL8iKMXx8JNWkzPbzcLxEySfji3EW0aW1bK52fcp2FcxcOE9krp0HX+eykS1XHR75fEsmNL3Ucjl+bsw28cFt/bIu/G6UPQqo7i3aDLYnZEgBPrM231NvxYWneohpxZ+bZqUOLRFm3xtA0lLks36gvqO5cSS6UuIEaglwC2+kCB13Po9WzLzwIcq0nphD4liCTlp1/0unfx+eayUIP71VPA+blOflSCdvflvSriYGXgT6mmd25JrBGg+sXkYbrCQS3kv6oncZwo2TZIdgpxbUI52fNUJ88QKzeL19n1oFPEYEyi7p6/9WpCKQWnD4r1xqkTWSoUwJrios40sWYyB6iUSTxonjaebBEb9YnqHMf2y9OFEqBtcZH42oF9yLdzssQnz4s9iiA0E+v0TTpQHxhDTZ9VZE2Zq2QmFtzNCJuVoJouIrVIuX13GSmTpgySsZoBYD1Zdql1g6L+Lp/H5Hi6uG6PjtAN/MSb0fmboM8JtKtMvcrFDjCgxLHVAtmOsZhuEf6dJGDLPG3J8UWYruoWfxGsSnwFiwgqdnBw5iWcbn8MjqhoROTq6SwVCJk0SRj7s5ZWPXw+GUNB/vArc1mTqbm+fH/7A9oT5Z9kMlT9OMOW+O2TWixwDnkmFaqI7ejnQ1/UP2+6R3+Df2e4peAG5tuKiUCYFOM1zJHUfJjjaaaNaijs0wivQpEkHJWMfS2ogh/RVwY54umXhhPOaGe3qo1Byb5QPiqOddsBujfM0Rv6L7pJMjOyRUSgs3N8ZA6O5e5JPevCDoLtGDHHq424q6J4oOznwNd/qU4853hLeNn1i1jq8OfcBy+n+R7BRFDaHn5qBw8dvWPKCBUPSKB7ub2DlPpNgb3dPElC7ecIlsdvdJIHxffqostIt1+9awESFjdhcaalkvmjvskF/1McCucOxgwWbeC1SsFU3MivGKOwVQ70Meq5Mtm065hKvePbZWkPQPT8byorLzQ6UPSsk4abm1y6EAqdZfNvRKfzLS3wadNSczxME8rzqWcpT/G+4LJcqltwNP3zaWNrRhuqe+u3udWZobpJxeozw8VQfXe9FPB2RYfHJyAjNgBNOrYeYQIyMqI784cXdQWJyW4JjwP2vhCNLWAO9HoshYP9MFo32TbM4dQNN3xayCXMaIQ0yEsQ4utyDqcZnbFdwUKn22Ap7Cr4B1H25RDaLFfl8EhNmPwwVGK5dzKvsRlD6mTZNymuesFVHxpGkICrGL16P+ad1dnb4kRbVXAKbZvodknX83D516wz2U9c2qXXZbGP3QrrFkLqmWyEkV9BFGd+KdOR5ZbabD4kzEBe7sWHpKMQqd6F14a5/LiGCeVNrrzrOnPv+YhUabuFtTbkrb5paMZS84lynjgYjLsl8xgose9roE2/DOlXTE4+TqMc0FZwVjaU9n56nCfSdABmcEKfrM4m/cQfRLfKsCYXOmjJ3/0Y0QW/dI5y0AywlwqT6DktouIBJBC7ZaxLTMQjQ/FBkSVUxW6ccoHE0ksSPegXANHGibG2ZnCYjgYDyQfWj6WF2lwTG6JwQjvKEGCZEnXlthPfttS+gcFqBnBVAYUrYhXVvICBwSnnVf7MXbUbGVg6q/+n/kuCBgjfHsjNdkLh691HrxkktXOaOqYAoMhIlF15U/ucjxMfULzkJbX8NH56wQuWAv3iM9s6DRjJg4Uwvt3yhg8SjrVTobSA5mWwYG3QVuYzhF6gSTC0bM2BMBevxZCKiRtZZ/NsgNO2jaYaDi7ZnxxVKDdtpc/JaQIBAPmHUsi3Z2UDp4a+IjJm8UF8kYj4Tu3JlvxC2UlSfdBnP6JtJB6YQ7x6PBxChA4t8rHMbo6GenNW28cyvQtu7ERpFT2k8MQdGb9TZ5wfTpa92FwoFHMkpQxIFcAJfTqzr/S+cxf3Rdzqr9EF/dCSEASOWta5pihGUgb7t99df/iID+Ad6FrRPxqStinSzSX48l1XKjMthoXHQv711NJgDtJmUMoW/hnhgdbjDHtklUpLmnLsjjw6fwWMMet3dHCZ8aSBFyeB/NW18zRYF6BnfbMt0NuYhReI6wiQllMXT2kgky/EBO1qGsge0NMEK4ADN3MlWhrAflr3coefuiYiPn3Yp4BVoLWYn1LW3AH5M2Bzc04KufKQ+uvE2SkgjantrpSPvedHdZeECuca6Zo4jUcyzB0s0EOM4VIa52tkVir5kJBeyN2nLp3mWkR9tcT4RgwnAa32wrrp+O4hojhQJjlHTWUWIKhTyjAQ3/8uaPvJJqB6tdD8AUNKeVTgyZ3Kbb+lGBsFaNO/rN3m7TJyQamjVcCBOMV2z98Ti9m6MGrZIoWs7DOrcHDUe1ZZNpu01luiHYSXT7ywxvKhOm5TDfEycxeKdb7IqaBXI5ZCPgt4zacr9BT7WTeMEnLlCWUn5qTiCzLIAvzKLCZ64ITcZcOB/tZl/emJKf6iS3N+oS68xr0uNT6CydkWA76NVfyOPZTD+iPdt1KCMHwx8cnZ2ZwXtXtrlocJnCtY6HZPdGI9GCEawcL2jmhgV1ZjQocUMcAjPHp55BnWgHgxKW0FABRqxBRM3nzZeoLIiQeENn9oNRPP6OR7TMC1VPPR97Wg3RQHUK2kypH4vtFdIrYUNBHdq9FI3W4jHn7wMO/LWRz2WrtRFrU+0uTY8mSo114P7yfT7W3aBrgAMvVQmNsuksm+rr2nsMGB96V1+sa64QdKm/Gxhi/z4NJNJVvNtlYdRB2GRgnFH1RWwCbXnUgjPOeQF1KH/RDbjc2uPu4Z82IHiKUx1G9k5e8mNfDvLK+A6IwGzpR1wdaAvAAQIOEZ11PhuUgwn+nQYG2IkKyAaNVgqGEg3YWQRsFMSSHwXg4q4QWKTBXjoG6bbK6Ii6BuEYw1VAUTjAylTqct/9cw3zPp8Rnz9Aclt1W4vtPBChavArn9oAa2KzdGXN+Dpdm6Smi1hailn+ztPM5IVY2RVgPwr7S+abUUIwc6QDIiNe7MpnO5MmrjI9Ibn3AUp7cEzgXiiIhMWnfteki43+zlF+RQwjTDUUfkQI3xMdMxYT39nz41OFdccyNnqDdjR0qAVqTt8zr3JybhrxCUejcluFyuhgKNhXcP0GkAjSq7Pm6Aybp9cAAWPE2U9VjkS4Nacvx0YdhJbP5RfiWfzbmRATF/ERA1kCVQKUIpIMw1UdSKUt/lISD2BOoa+D36Yp+9j5DvG98Z5UpHdXHiqIZ9Xoja7WYgk1J7r6qiKCXmv4yl25cFd+DaILfJReURLd78bKqHLcNarJEGsWeZZBh/zL6LhcYaBjO1ajYnGlM/bCEcNRvIsqClicHzoeLdhjS58LroCBgG7UKZVwQOyjeUNySQEmdaz/g7h3EUgpd8y3MyjUxvLf2IS5+xB1qhjVEYEjJ/rCuiRW8uXNN8HZa3F6UWu0FfWwpkH58Dkh6Ki+bh2y+Wk1+ux7WMEhlBEgowPDsrzbkDLIIV7732xtqOFevLcXE8lWv/7Y4/vohomnvzHakRZPyf4mKQwVLeqssgiGVA8wo4OTBpka88muM/3ObNmHPzBBNDoh+9/j60bWxH1qULLmd2NJ4fLp1hwvaWlJUIjz8Wm1in8sKn+4LzVtWqzl/SOrf9kWMJvowGIYmgGQl/Nd8r9CrOPdlQuGeQCYu4Jm2FIkWoJ1Djkj5R1BnKPg5ORTM5/+rbBvIYC0e4mhYYTFE3UgaUooRS8NeXrXTixbaRQEy8qfHxUTMqEl50GPwkyie9wnyVwn7AM2/i4VnKDKAMG8y32agsHakt7SuGChl+aLRpPCF99GVkGa0iDH7os8iCJqYKrlociWYF91r5lYtI+5HmSNhq6X9GojiPjW+PBCsBsjLVBQ5ZmAIiFyxCk/a1tR0P0+d358KLCIhUtfyAgHfzA1/MMu6oTPgMcSeLML1PBQ5uMQeaul476IFy3L+cON82SerNFwSSubjbqH9favvs8zFziFo33CzhgfH3cPB+cVjUemE4eBvIsQSphNzj+ulWxpwgY7zNIAXIaxMyWgX3JvMkuwnptUa8zbhWkVfh0+vM8+xR44WTeolPv+rY/fkE/u1tY942hYNB9+se2vIwPPhyooCRaB+/2Jsj9RVw7MK2lgOFcaZJNUNSDCyQNRzWxOhaCz1UuxHIl/o6qkbqFdGSpuAKwDbBevjeT1aGvSYTJd8p5x6Onc6iian6chePr9JC3JFvO0RzziCZi8WgsglNvykZyOKvHzj51TmfD3zKVqir9sZyQ6lPoDINwvnahR1n9hNZFVwQMQKZOGiGDQX2wJdSALdQbFL9YeBW6jJBRE0hlkNKlfGdrOuG/MZNfUfXwsA/swE4IONLG/WBMG3VYyZoK5kVJ7JvUySdzBj1breEDb79S6oRr6Tr41rrEVuDCLlGmO0urKbV0KxleoOv+0c8QYGKWoSY5pUbqhKu5g5AEjlg9LWMSmkHjeM87G35iq0BmR0ae9FAGqXmzj7zBnamh4rwhqFM4fG5TGO72/myYH+83rO753cAMccS78cLjaCuVi32F4+IgXjnDGdjioyzVU75MSQkQkUiu+th0ugeO453O+0UUehryWCfBi7IzJBMu06oRGIqPgdYzLomLA+W/GN+sosJ80jcUnQvcQ7cYdpgOP8w0HuMGpSwqUVIfho8SK7wWdjbrwOkGTKoz9BuDURekg6tQtHfB2XDgr01/KOciTzKo70WQYjAiwzDanLgazaSl0dEuWVrgsW90jSL6lqmhI7vUr4GoG/JQd8J8B5dSP4qxoFGFBXnb7r0p394Ocrrzy0hlekM5M+9IT45SkgdENy17/6uzTO4Q6jzJBHizTA6WJJiVTD/Xx36faWIofoOgbTsOpw2CXpBjVMC7dgOOshpYtRlAuefXkpdILoP6Xu0f3GBQwV/8pmI19+fjYrAb/4PKqxRuPleEc82jRZQT0+pkhETIna1o6W0ygl56Jir4/jQokX9IxwstZkv2+KslYu+SNdFZe7LahTHK0OxZJGPjBUZz4f+MGZrguoXFLJC9ouW5mfOHrAhvD+Cw3Vfv3hggzNsushI7inwDX6vhvCBqa7XgGVkPG+oh0oF0PN++VOQ8fgDGXOCo8cewFuhRqlOCfZwCqUGx+t6OV6/B9S7HuOQzmZFxwOKX0W1KarH7gAOVezXNDSxdJhmpKpj+RGlv2qdyYzOnArQpFuv8QjH2slWiBniePj71fbua8TLXP+9OGXF2mjovri9rIpI+U8nkhhWa6lW3sWdPQICA1cpQ/3F1FzMX6x6mH5RTt8shCOFx8ZcM4xrx9bFG/ZvcACjfR40tHNsRqlJjXIeupgMtSVa6mjbbziKKJdlmVEtL6WasAbfiZqIpdEgnnSS3gel8Ec5s+GVTsaCHxxb+f7wzHZJNQ2wf9Ksr1MNi652AbTyBDaFeDcSPq5CIkXS5Zc8+Mprpg0JjddCsaztD1xcy3ZDLFymjm56KbTK9vHQlz66LBO4lQ0KrcKYygIDrIjFvDpzcQkzNoYziND/mi6ylgR021eW2W1AFvdEMP/F5reZ1lXvpyGd8NoKycD427lQ8WYmeQKYA1lqIrJHQvc9CNVCbLx7BOJbO6nhCml+DcMh4QX4hZ7y3nkoEaRGzmsbz22ww69zln1/Maiu/I27kgSaMNwBWgyfrrhuJbU/IPbvYCRvSKKQxgtK0vTa1GOI45Mj+NtkdqoUdYC6S+L8Cu5eXkYcyWTQpMxqzELt6AfF6tZ832ERT5PAAf9If+/eCftf/rU2RYVd3WEm8o5CqYKxXawv8lLaL5T7GlGVW17NSfUMQSfv8kFZGbl6DpvIa+UP+sfIQHrDkKiwFS55QUqWEGW+ciy0UnMqSXdSJ84I/r10MOkLX4y+cfKmY/IPvSbk7n8UR8vvbAPoqOH8kgJPXbEyZBv/cQfQ0ZlKnHv8RS6+VL3XPKOn9SgxiewJQ8ATH2DGeSRt/MxC6bR+MSBNl8xn2BJsvWYEsrW3BI0EYCiHSeOaBDzI1TJ0lma9LJr60rAWwp733mufq/2vl2zFX1DEu9ojVWQuKRI3pbaLhDvnQ1FYaIQHC9USqOtht/LaFz3o5wx8qlvglUshn8lo6Hvub57qcwu2f0jgxeUA4lmpYPS1uWziAW050AtQFG0nKHkXPemvZBVRKysKyGhoQWLb5KNv4V2qN3kxkOHnOTrQ4WedC4YFQo2rzdv1Zx970kaqdb1wxOGXeCWgX/V6OvyyDXnEcVrUAFuwLBp6SSjIGGxy92V5lEe36CKZm0jJpKFdPR9lvYxz9b/Ub+NC0aYm/5iAtlevN8gJ1CxGLYvQSfIAkerbY2Vy3AtvI0zwYuiAn72gJL4IXysexYDbqoE7hzvNcCvSrXrYa64r/SOjFxstvMARREJO5qIX1CeUiHN9e79Sr8Hefn96TnbhoOPVfHJTt67mhs8n8omcxipNtarxc5+IjnLkKL+99PFVq+ZfXcm1dnasQAvl0o74NTkxKECMQYOn2wHt9LyWbvtMc8esAoM7kCl2OdmvxcRhs4wn5HIpZxLKuEhn11usgwifzOe+cZ/euyNpTKwIXY5Iirio/daEneIgz8zCqhCKf05PYCazvPHCImMybW5qzjxTSeK+rOIgNEE/eDPn6LgJj0xG2DeiIOKN5kxB24oJNvWJ0tljoKOchRfUHdi05YK2lyUvRdoX6w3iLUumjEiNsYHbFjOs71RpgYVAIOOlkbnaYinN7lbKwhr3mbQC8MV4RlA3Ueb0vc+MzknI4tg2GbHbDfyo/Gf87WmOFmxB3Y7j81gSObiZ3ut5U/WTyHMV7S2Wf+ugAvtSH14wFqNjq648RbnCykgQesRDZwVrSPaRtfkX62IPj6Dr8Q89NiGBpHl1mfjKtzCZnpeav8zyu8QvcvFquvQ5PogFumnkOJcVe2wDISe4ESGFkGrxhkQOhk8XNROUwlS5eMnXJLLQ398DQ9Yv3Wq4ZENRjBGkiGTzR8QnnXlZUxS2BkyjFyT2dqVP7afaED44jp5Kw2nTS4RxyCe9Oa0F5yEupvo1D2coh0CYzYFt5gSoRDkAtdZ5ubHLdzRTaSzU73rZMdGV2BLgwR4TmJNG+Ku9zrcV0Gx6XpOtFFBxDTKuWQfJDhH6xr4GjOcxoNdxof3C2N33SWivgCf5gjqo4WUXGrHxPhmeNhBSDxDC7cwJZghGWeoYM60Iv7vsEZOa5QffadlIJYMNxFGDuzqO/OW9u9dfVfcn5bJlzrBszqf9qJzP1+Lwl7GAPU9Tui3LbdoCcD1ifi9VGgSA3REXP8su+q721b7TmDKhWQbwd/bms2tbT69FyVvjUT7u3xSOZEDGMSoz77fCSUDB79WRNp/5cG+IPJzznwKhsCjWyCiBb8q9Wp5GumjQuAr2SFWyhsUY7WESI6xCWIm9Bs8svcdK698E0FXo3mV4K0UhmHxjFGIMBKvilVjGZ083FScKT2d24khN/21iBZWnx1l7myn6OWGWsrK7/pKYnoPDf+B2XRTapMafJUwOuDGqtsL0AvrE2/4poMTrpiEqRPg+2SyzpxU17ttBCrdy2WCJBt5StE3JMu7J3nXeJ7rrD7oZJ9uzoFtW7dc35pn0cWtmw932wk41CG8G905DHOIidqm5UKAsvKu1ze6GSmx1EGE/7rJHBAd5q7sxuRacJ7YzpV9pyhlz26GffZ9sqC9h27IZLM6jhoqnr8TL2ZkAYSvPUJjAp18pmhi2Zs2Oau3FiFoUiWhuwmNyc9B5t/A7BgVgKQ+nmUoH3le6mAJn/NNhnKL+bqvNHF6G4dR4G/S2ZEvU1FV4vZIl2w7+xppEKs0NEMZUanLJHtrjAg8wD6j0tRNVMuBa9J854nXLpMY7NFr2drsKfS2u5JyuTwDDAoc2Al9B2BRX/6jlRbCmMPXpPNksDhNiPTYI6X0i21A/M30EnX7Qq0eqZkE8Jf2OKf/W97mxdq/qJu1PdjSfruzqiCRQi88ny79rdBTwk3mmryvUo32meQtgl9vUFq9rvmNN87mLcxKkQAjo9OIFzHF7rqrV4xgODwAtBrGrKnRbt+91Ofh5GKy6WHzGpfbsjtkvpRDgUT+GOHKWkEz8TyKGhWnCmg5Fg4IrdrOcTfdzd+2uK9NkGw2MvXnscaZRLMPQQKnlcoYNevMVCuuzkYSCMZpSGbGO2OQ2sZKUdj618PhltnDf3Z0SjwWTVKZpgDgcsK8yfAs8NOHcN4fcq4RxdSNoCTphUfmaqmi47Y9NwVMyxUt/dlDHby9nwJPB7ePKrfTlgznumh5NrvkSTUxPAigKJ4jLNUjw8GfNyIlukfyjewmTKywdjEhuLsdmR7FGCGK0P9g3qQLP/E64HnDhQMEWIoWII4Zx50793/6S55QlT7RdWafwr/YE3oOzhpJkksynmQUuoiMz+ciffPYTcoRAlY/UDIcCcwBYxQBl58fUYvAtzQnPxB5MiZH7bnJvP226w4dM3JQ2vik0fjndN1vyNcGvHu10e9ZgzAUezcK8CskgHccVx2wJ+HSJLCte+h11mAoLmx+1x8hNrDmFbqIlQeXpOby8A60fATrOv33XJKXODzfNwWzDZ5yp5hYzH9pDLbd18x9RrcF1xx8ooWFiH3rpL5tWJUCF90FzFT3R0/ftuNNZrxpQAJA7bcaIPsEO1G+e+xJCWZb77igd+D86GAJ5KC1r2MXXPWhb2OhFul2O6aFvFGOQQg7jeaJH6QVvoXtrz4biMbbijjTxn9g32xae+jfwIN9NfWlsK/4Dsj3tL8aiZALQsE/QHBSRza/bduiyhXifb+q1jrOUC19mYqETyaaA5uL0LVHelRzlJSz5RMl1fq4edd+LTz+yBDoK2ElK6jtj5574xbpZe77D+I2py+/SHeeUMO3E+ARgSWhaHe/tAQnHrH+mbIqWtmcYYVVrsfCM3rR2W7zccsZDvTAtR+xK+2XIPlYyuILAcQb0LIWbjrkehiYendHvkRxD72FMgIAfTWrX5L0tevIHvgLNM+qkEiKkEqOTCAfmzi01vtRgaG+3802juhXeZSj0KHoC3SPcY4G9nF2IfDd6Wub4Pdbzgke4l5OmJDlmstc3VJ5p79mf48oZjDQ1Tef4e+BzDPNUDj0ZrHr0e3SdZ9hdWhDgjUW9H7ijFlzapmIvTjs0dsi8kCeIw6bZri6vVcNPsHsCE7rNIrPgMFekEH9DiWwNU6uIideisAS7jo4s7sB5Pm/2QvWp1ur8Y/gUX0OL/YnjIp6TR0ryulUETjI6Hi280/FQky7HB4kFdNMJvUz6vcCbY/Dc1Vv1QG9YKz8FrywQ9gN7VvZMmF2jaDPZ214NdXgAYBd9eN7YDPy1YzvzDV8ntTjBhJFIE/pb2+3Xh1EJsoI9IqBOTbcsAS7yqvqVJlG36SZlV5JikVopzXngU82i+YDlrA/HK651NBbmPeB/5pLctDaH4WrRYlx1tkv1NfBHBezR0fblfTAIXLjw3Uj7W8v5POB3g7Pa/IyOgMC9D98J3x3tXs3Zaabldwh+CFYtbCTSMiMYUj7ZcUeqHAULFDwSn1dp2/2nfruZNSO3qUuyr3pMqtzrkHibvO5dSyTvi4y9Fxi7VZvPrwRuW/92d64Hh5O/zuYX5x2n1BrWclxxVghjAuPRARKAxbwGwrpL2ilvf3vGqbEeNk6XZEtEcXmy+VuMbq35KhfKWxdYmqzxTfvjl+1oGIafWVDTREWAiYHV0FQOkZ7+zmjJ3FmUy3xnRBx2nQu508dF/EYhDkSFaVyQYGu7hQJpzgEUvNl3lsQFEZsJiEdVGEv6u0Ss/MYQpr3E8yzY5X01guPkHmPDO13iBUvUewE3lLtEvdhNs8sdsJGJ8yu2VgiwUF8Y5738QAsFztjkSn+4AXPrfLqluZhcGgLV0wp7GVI8+mi1EuXqdlqmowhKHafLmUMl7SCGh67dSQl1zGVmj+Nb0QPJQg4z+3x4TNZZHHMeeN3Wat9nc+2PO1yCOq/p+ZPbSMkp3uawY/EqO1qERt46aVWAlx8tAmPlFrXkQtgYz3ukIIGpODEPb+k8H20JVib/7OYxllMWLAtxI3MJ7vMAwaTxVD9egStVAmBRN/FVWVo/DRiRmWQQqL91ltNqziwLGZiE3mGqvZm7/zK10QwdlTvCzC0H1ROBhzwd36xwichdy1FLF2siG3qIFCoEcgvqgERgICa6/THenpsLNHLG9x9Z7T9C49FHilouwalA0plGZAisWiNoh8xgjhLzHNlD2Zkty+PWiWxWGu01Smse0l/1mLhyDzB91852g1nUq2KR41cYn23IS2r1ISdIZLTIAXgn8U9nInmiE6agcNjxP6Bx1kZbzveu84q8cBardIBEnpLot6rLuYCTOcx98fidk9yj17260b6/Apgfmc5Q/T+RWAJXg/HSSZnb+QlZaHMoX1zWNzi5/ndczsz5mtAra4HIE5WZAZoL0H49tth+sO57926KxUNt5hxmj0YwmEQ2T11CAKOzs0zSDlcWkXPe75AxnXy0A+KSh4dh0gzrVE45sMCUrPYJXXnn/ri7WdY03Gudhd2+htC2IwDHM14uyzMOTfbtCVmc98w8vlmwRpg+t1P8HsXQQXra1cWiVqJpZiZv1lVqXYtq79TqYAKQUsXljmOEoF6m1dT8PQzA5/UXNysieDRgmA0rehHcoAxHFIS8cvv/s1mm55Y33OwMO8wWp8gWaZF4aAGHPJKC2iZ0jhxpZs46ujEXDWNnFePv6u/N0sAEk7lRNYrt8Fm5ue8119Wz6f7v2zdpKemZJnDrAQOw4Sek7lWBfQuXMFmMfpQlnJ0fhCsbYxzakRsYRFD4H0p0FMRtLFPbTSpDet+enpYH5PkdO1Z7y5I/+Hmxf9C4E/nqkGVfcY+MuQE/puo8Btvt39hI7WPg8UKfLvK8o0f44k6Z1FVTQX0R/clMNr608w84TchBvvr2yV2faoyDRDhMof9k678L9GK2jA8XQtVum9+kZhB/sQSzxUM69wgfqunIrXahCTSSsAuclCklgjkBt923HzwDdvXrJbxdvNO8IJf87turyTLs6Dp/nbuxtWhX03HPjNbIVKh0uGt4Zi41uJcgDc7/19YXY8sOHvW3qPxZbwgOdDJB/ss2g9T9arYjV4YAFQVKsdN+bgAByNAdi9Qfo9lHrRTw+nFcTsCE/0qOe9McpxAABobVPwJANHQmT0ocV7ApLtPXXfB4FkEbeaWiiIF+WK33c4SjcqseAZuXTjOZRrTqsNaZtiizfiU/DKEpuTSy6oPUVI+Yw2W1O1O0v86r3hRYpdiUN/G64a3tfv4phlg26xEDLk+z4g/cCnrJr0P8aaqUNk4LaOf5BApKkG06SsQAXywMkfzBxf7biLh32FRM7R45pK3erkF/1NIb0ddjQ5RT5J23wB4/ZS/kE1VjXD0eWZcswCnntJvAhb59q2FgsljD1TruUXSFmesKKxiuzt5jwjM9L5vQOl5XC8AIB18FnJx4SvvwpaG5qvl/fMliHEQ21yMoV7VqosZOUDhnIItTM5yaQmmbKodph8rn1II/h1fsP7ESvPe7cZPg2yMsaQBrths2xO116RaVinMrUOKc5wD6bnUmnoPQLx6UyAEU3I39eMotk19NDmb95x5hOzK5H8vv2qneje3Yapi36sHN9QikT7J3UJ5hO2N9p3i18RexJDsEKIzyYAWDlj+hyY+NBiwiVd1hKbgnsgLqTsb3jrsxId44vP9d3bOJDZrtZhWbr2VYmRqWwEOGT4AQfc2sqqS+HsrNwni/DDCP3SKfS4KFFTLtFXhOBRRcFy6s0ACQxhXL7BEJhFZ5mq2su0VBgYLQjIzfh8jBCCvbxXAq5SV+c2HGEqzLIopQ/MsQdPTJeLjL6ZP4EHizG58MhOu/gj3e4s1SIKtxOYexHRWZFQSH4uOycCe6fo6lImkuMQPe490CuEMGLZtdZAukx2Z8FRCsuZq7Sk2ox9Ysa+cU7plv8xgvuPog23JybmdVHAd9o9s/84HAgHwIjCXq5th5vcv8nEarEiCFwoCYLOn5lemmiryjbrC4uJ9iu1iYsefWMnFrSFmaYEY0+XFU6klMLeMkP1WOjpRvU2P3Op6tESBNxUjQOJ3k2qklWR6m98mz+duYmcXlJSp7TpQu67T8IkBaNDESuQcHMoVz6LOyKN6qyM8b5G48VuExtbqVkXQoGTrlCV89PQkBDfnN8zl5gBsdOkZfFYw7Og95hfOjs1TEcy6BanXPpXB/00d4JRYK2wxRdap5x4PS36MUa4nP91zR+QsLKGs+waNgSAaFY9l8fM9zJleLrhTBvR6vQLwObVKYeJZwCP046GFfoXPn6+I5s0l1RVgYsLmAn2Ee+l/oHlK4ahUp8VrowQksUGNfkEdxXzpSW8w8c6gcb/nwBcOAf8eTu0MbcsPHHV/xU17Xl6Eaasx3H0sGEIoJTVPNco881+BWWi0mlGmS7YocvDdzijAF1fOeNs4fv41geFSfnEqQEZCz+7omAFHHTaWepby3M6A16/pOtjxIQcsNotPYLAMdltyzeD9QNkZo0yBXCsGZFPiOJHB7bquzSNofb9eQocQjsZXy4Qm4AasENov7wQqknOLvX5Lq/HOz81h3FQUrFcLXpSNUBzqzq8UG9PPQ97HOYqeeQHCS23xyuITnSU5tanctl/WiHlFK42QGUXuAxXVXyeW87pDL2wkOsc9QZJyeuVwkMmaQ48dr/zxNFj2RRPgjSoorVfaSSXd3dzdGWsaOsNm7c55owfV3ZKbaCpvgoD80oUuvObVhDZQFfq3GSr8sidigJBfEQfPZbJi5jav9iFbvIzfujpWs++j8in7Khlav9J160KFBb3FPQF0kzNJkkw4uxHOXViaoy0p+XQRP3xYNSQ1PSpT9pvM3jCLhaLdIo+ZZYbrkvSdVfXqYM/7h+fOzMihMMc0YYJHXoAIWR/Tr+pOvzKWSVjXw2TiM6oGXPfwNy2ck7JfKlwUNQtcIvoX0xAph6mpoykALT26+78Ph0FJqf3hUPYA3ue9j/CRejGu54bcJbY0B4N9q/HgkkL/tjF37NpKLkJ1wj6HGpt328QwIRJFHsa2FcA5DZg4pVjuhk5AQIs0KW7ts/lhFP8Oyx5UGlhQ8YWj6AQ3p0i2qFoLOoaWB8VVRJ3cwrQjpj1t7+qqcqsNbC3OFZcsx2Wc8G3lOc2T8+n7LEJ5RNg7p1ED0XjX2+BsY8VsYjJFGPl8P14lvN3Wytg1E0a5VdwS2YxSADC317XaRocfociaAAVFP3/n7I44PK6RHqsIStVPq3Njdkw1+fRYYH7A4ZuYR+bGCYdzA4cKLasAwT9vVuBuSQYHb4jhs5jAEmSHw43hcMRX+PazQxRqYRVRKB7HCLizk+GKb1pdm014aCzZRFoncLWSSBNvev6K+HrOW/XIqKu8tkWhHXFVQcqrtT2jWgPCbYqAj641YVA2XBqub7oyj+VPoBG4494lMjhcNN0aXdeBHvQnsLudMoUr+/bMHKaUXhchuVPuLng9VtQSMyEgxRRLAQst+y5pvV8nPcAIGbAx/HdLze58jSyqPxLPVSFZWtSzbfXF8k8sb8+lzQ5UbBRfc5CkvjSFAtfiS4/V/EMZ0HeUMNHtU0LSalsFHSmDN9siCOloO40FxVwhI52qBbTXlmh3iOikIA6Tlf0nQ+/h1ZG+TlBBqc1WgA2en/iWygcrLadrWQHKQ5jVA4EOBO1g5CE01SeJ+8NQgAkyc+KzBuGweHS0BoJmR0KSWIpuDYcM9ZGkNrFlevEQWP5NPlo5e9L4+0nqFm8jVVQsMs/FhKGVBU+IY1d12fGCivif/FgTwaTcHLyCfqAx9vpEUVQwlCVqJl/R3K/uHO4Qz43T6qoblIyCcktw7SRa9g0CpVKoB6K5kz+LEdiWNeg165PY8mrhUTyKyUTeMDlClyVKp3kJeGaeZ8po3dtRnW28P5CqRIHtOq+In4DdlYPJJbvuJU9jAb5lZwd72erbOSox98s3kz2yVs7D9xndMii/JACXUxxlTPwwiD4eZ9/t5fuzvqK24ucNwZSaOLFaEm2QtqEBgq2f92S0xGmiNNvZ1mRPWkpLS+e98ViJ6G+t5brAKf16ceM3U26eA3b5in1SAef67hGVShcoI4JQcEp/JxiTobenqHlPGe19rMHDrqCBqI8rnLzksJUfoBe9ll8gmENsMlguSgau5k5VVeItHgfo+nZWS6SWYTLJMNXtfbFrkjtApGrcKCjjCvhUpY6s1g8DOw24PaTL/ZcXuF/oM10C348gWR6s3VseDnGqUrB/CC/kax/9Tvn81cgnWa+36BTYHVr/e8xR9sGsMrkP0/INg8RfNdWHQzY7EgthlPNwVQXIUCgm4pnfDcM+nJi7dr7CbQ354ZYtlzt6AtiwDBJZ5bDg9D/XqrSbM4UT1k/FDlnuqbFZpxqRG7L91DUUDLmfPqXjljcrVwQbdmVP9AH5CzPaPFFGNsEO4RslCeyEOD3oEwNOj+BRyh1smI91AH/bhUGp7URqpj/eFpBQOVQydygVhz8atWpUwdI1SoCsNx3GEStv1qJhQPVMgfm1WkZGbOMA13kQ+T0vAjucdoloYnR1v0Ym4iisbRdzTua1Ys1i0t0DZMe/qbFEs7EzuJvotJebcElQ/sed7eXGBcBLyN+IzL3mzL4eaE2rd4G83NbUvA2NjKbs9zIvTzNvbyMbrPly1wqFGFYHNHkUtqlj/7q62v7Bq7ciJHHPUFKlLEj2U3D8Q8/WgUrb6G1HmrilSXhOfU8kJ6bwyBoUPe92OyV6G4jA6odjHrry4GBJRimCO5MuqzwZHjkN6j9dTQL1C/pmP4Jc+8+gSmdsZKNWvykWw8/fSpppNSRM8eUKO5CkZ5w7wIfWvFs8CYmZv/Y6n+1XhixWL7VVUc1atNU3ZSqzUg4Cn+9g7AhDIlCbvYe75FtS4r813FzxfVrXCKrLpNWvoJxKTF/BedKv5KS2sFiN4nzeD7TcBr/PqAAk0cnviqOCAjnccFxz10JdXiHoHUgx47nKUfxVahlP3nBSGXxHShLY3uj2lcE6tw14qwj9tpCMkex7lx2nxQTAsyBNClt6F4ejY2xC8gpbfDSICWFKZDFImhWHvLoXyuKlg+7UdfvwkRd8w/4jM1Wf9ajlB5npisSsg9gCICcZn+7TdmuG41Euptd+7k7pTOX4NiZmyw1GJynr8x6jftUxsWUyDct6TcqwC0ykrn0lHBVbS7Ei2IhpEnEmUzqrC3l7ntyChh6lqhS2AVvbebaa/ez80e5L9AOOFsf9a+UgoWbF9QTqh+DENOaFEB4VSFrrQT5Jo8FSQuRPPFwQJ3exRYoKkdBRR5Q7mx0tK5TkJ5eo1Zuejz2RvPejn6jDwzRsKK+JwmJz5FUMDYxll5dMa90rFZr2Cs1Hqla630ika9gKBhn57msMN9kzZS+bQPN4cAFXaLzwoscbGtPWpmTs2fKPoU52XyX3ejn0M8mJ80BNlcK0Vy+Kiu7RTohOoadGjgV9hOqzYX/JMTG3Wel7rexcSGkZoP7bPm1cOAL9DPK+6v83vmY7ad/Ezg6Y2I7ktyVg4dncWhhnqlk4spQwrmNPkhiRUFzq8qT4EIiT4NkJzo6kFtVUaSvm1zErokM+kc2o8x4Pi93Tun8JaJ5m7pa9ptwAkSpuFVqvGWCTZm4hUyBBNJxEyUJtEt/8H5SczRYn7W3l/DPWHSt+pP5piXXWCmUGg+F/OVktFJSrvEzNx1JmRxKMoPJD1ZHaZuk4UpDBF4AY/B8NID3ITZwQW7Hsx8/plvk7E6dWbITvtCYTFHq33gdDltKb4E9DYMHHebHpNjKj2V56HaQyk0jz3E2dxe8GI9aZHFbpB2eKQj35MV1xSpUVZSBwmGbmtJX+z5/HXQ1OhYUb4/y8lFsikYv0Q1gNPL5/kBrpdWxqNP1zeBkP2g9SLaqJS+UK4ahtN+DZN4OaHwjbqU3RzgMcO3BSZ9y1S4iuXequWVgIa17FK97A8OafWDfYS4x1DaFdBFKK+dlsh59Bd1MHCIfF4SVgpF75a6hOQEJ2HWIf+ehoMsVOV8t/r+OQyW+cgOJdBwCTPII2mrIw2dBi1+awzYnbvDH0Tp+3YKQrfr5e6HqRch2X8yLoZg38retwPt0M4h722GAlDLmSpfj9XxvA1PPwPTHLfPL7YZrDUFgVbOAiLInG8pdvEDXMkz1/tcRCpA0WlaVCUqaOivU6bOr7y4sVXsonPHmPhfwykxdBfaYvL+8cavr9oy75RZVR8DEx7te5pz12dnz6YArDgL6gJKmcC0gNOl21m7My6JLIHijv4m6u5HelUl9Y2DucpMrwSkaJUjL9mEnYcJHzQ/YPq46N0mlg8mryXW5qssmkndxWtxEKCpSS7DhhQLCaaoaYJZQ8dIHzlVaPZjThCDReDwjShUHpJbiAFoU8YiAc8DrkoiK1s1NsiD8srfBNXv2fOk5Q/kRltwXmEn58AAQB4HsQAq5Yta1hwRLz7t0F48PRmP0091aiGCxWaulT6f8cTC46QmIi3l89JDBOoE4mrT2pOZib+UrgSdkGF7HKDUQnIba3FD+zykGFPotfukFNdVIHQtYV2qdrF4jROBv2X4WFs/ehfc9mP4vQbn0sdlcPyQycocV4bBjPVbObliZkLhdj7e6Qq5RPyn6yjExiH2/WneK6UxJDt5moprA1h+rbePuxHHcPsyUuMYU3wlk3GEAkNcfjwmKih5CoJaqM+SkLNhYISZ8v6v1kzn5PqczLcu3UUaR96ztqtLDvx35PVPX6pakkrHoE4GNAUSn3tSl0v2P1wl5Jjqya19yQaQppbKUZyGhjLNJlKGx4nYXColvAq8x4GXxqZMFIy+/mSlJsgYtC/5yWcaNvE9gOthlaaHdV3XNdearGuAhymtg50/Ap0H4KW0tK2Le6PV6f25eNhrvfDbEzGICzXW55ZwYNZGjwsXzLZJkq2hM3XrkuGsj79V9ZcOQ68Hv4YUyjV6xJcFNfmit8cQzhn1Re2YTU0Jbz9zLxGbuBSsZP8qv5bxW3LZQBEF4b3Hz6IRn88px3Iwo2qGb2FH+tKJb5Q9brY9ZLaXr4XqI8irH4UeHRPbRITiyKSKbjUCrF7qkMJJwHGiU6B/jicLefyhKUkHSWFJvw6+o7044kbxUKTfL2nZ6SCWo9unkhMKId0q7hWLBxtG62N3gxXEpLHsqdageBmPP/AD25lU8MM5sEGVOCJj3XU6ssVtpC27mmcjY7K1o/inyStb6Yhme/3rPlvr6NUlv1f8CyV1jD9reM7fMd3pkyJOBRAEcVXJ+XPSf3RzSrHAcR9eQsCzPBWlsJgUzXm3Ohv8671wR2XbP4C5VEDDrZ1lGfj9mpyOVoTKnFlzg4QP6BmhfpZCmC5vkDfplsX6KUOYPv/CT+UljmDuKbS7CsmkLbfl6spT//3ZgT59/BGRxPHOo8qNUNGfQLQqRehY/FE7Qxkdz9IjMXnlUdvXV/+FG1QH3+VNkPndNAuTjgpNbqyJepfWl4r5nLmdkuiTE2OIxEt92tyvjf90ZA/qnO+TjyIHgr6x++2Wb+m3hVD089iqrzRRUR8lPIXy1macuObuYmUnWFICVpC+tNRV0awC6b/cGsKeeJRjkB3qlsu/EUQMynjPJDIDeRmHPXxDB6n2lMf83Ps94RE6vPLhNM8KeWa5+MSA0WrBpcQ28kesXFHFxSsjRzXbEjmOIGYDtCXUTchIBeapFAKNij5vMQNjlZGo2KJgijs863KqAWq3GM5Y0d+VLuYiUAB8LVoX4X2GHC+qIfUmb+XqGrNMFEBiRBWGEIddplYGF1o82Hmi2u42yD8yOzApayX8wFlclIDx95dCmJ/SFwzbsSDai/lnmi+PlbNLtT+qNNc6DipeZwQ13r8Z9HN8TOkUKrQeu9Z2o8QsEMqA0SUq8kwlvaQp8SUZLrlgajIfUjrTb7kFMbQwiwKliQJQ+J9U/YRzRQbomJdeSt7vqdiqS3oxMRO7WeY7me6iRGtjmgU596zCVE5q4pebyS7+3VCIUdDki8favRGqGG0vlDRdDbQ5C+2WSNZnSVKS/XnIm9mXf3nLwVZW7bPb/a4vnvdM6uPafL+nZ4lbIUUF1E59YTCHYmLYpS5WVgwEEpM3bc7+fKwXUliCZUczjW+o6RZj8pVVnncek8UY7PlgdMapFb7C4l5xJ/+oir2cn4Qxe2EQ49NWr6yl1MazRusLQwFuDeYajAk2ezouO4hC16nVJRNW5mqOnE+tA6JGsyYfWRPNjasyzahwD/mvouQ9BCeDmVt/lEipVVZa1Tahn7F7+v+1+vbnIDmR031SdTUfwGJSIdj9ANPFVWsXF96CSRArJ64hzwtu3L/zyklP8PCxQWrKsw9cWvkCY4OluryMMfTaLsnPrPWkxGw9Dsk6lLRi96IcB2q2APvWivsKOG/4niLxH4rlbrSd189FltW1x4aMh1W096M153Ek9SD7czb6K6H/3/DYN1M7ZOOFdT9DiSbUXFJcqCgZ4D4FHIdYSq//Jr4SnIzxllIFeNknwSedjwQ3QV/maDX3hCwOg+3B6N7MI3IJDbYn/n4OkJsuSgXq7uYVGhgPi99qO92j+B6iKNkVCVEun4CcnRUoQ76KvDnpIu9JQFKsJMve2m+5Q9cuBDxgNvW+qeLOY8/dbJkWFNVcsDOduUWaBF/JBCIlOXRtcxHeUjZfSArYMNDu9T28ETn83C7zvcXwoAePsc1vqDKvU7eN8CtQCOLm6LFQZyiAQxTbD3ZQdNBGJp8em936IPOBL91KwqxrIZHTcj5XsmIi3t2PS4iEsjXDjUALEOgrs2mzBFIxg+BEieXXeTPHqV3pRI3wrYI5w4OWO1GdVpZKZxaoOl16DNzgahWQgmzcOaaHOIgIx36R6+ggt8A2HE8zB36BoSiZ3/hLFU/HlzNgjA4Do0A5i2pFdxZ0SbNjz2UYLCGz4eYnqiOU1GE6mJweelJa44ruTm2ASirbRZT9Hnp5mYSTjIg9JHoLmMMMv6VhyqfzZ2f9oHUvsp4+grCkoRLtSxthn5rhVBawVH//r/GukM8MfZphwOpZOUx6VyPfcP6m4s6NGSSpOiygenYWVcb3fnYq7qOwC4YzuqulZ1Xz7Ltb3N9gGKZiqXn95hibC28LH+NDXgUuIy9iavRNBHgr7t4y64SWKh8zOKNNx6VdNAsCfiPJZ9wjVf4nURmyFZb/LN5wIFFwmHPN/PzEjw38GLFofuMe9RsKI6dfPWHG4FIVD2ILv09v0QnvvkWDarb46M55EwZEA+8Vq9vOReATc/AYzV21oGdaEn2Yx+1W/c0/Gh6f9lUPXEz37agpGvSXIj1edkrYptX/bTizxFIz8ThrwxP2KFnNpPmKFN3ZF2JT7ShIWz0HeC92v24nUQ3kBPJu3eKQ4tX4ei7AiXuPvjSj5WEAtI2Si7TV47zx9/D5bG4T1w7ICXj7DhPD/rXKw1hX5F+iy3so+MdkCdWMdXHjBI5juNRd3sLRfEKzZNCuKp6Y4lanoDvZEwXxfp0lCL+5BVuqSmw9T++4vrd35JUyR+LE1WOw6q7Q5fkTZUbITzXgwz9j9gB3hKklVWrl+gQBz+J3XmgvPRMBf7zQ/h2rjwVsNakyMDdGKJumORZEP/vZHMB1ySVwJZDlB7bcZtQ19iJeXCxJusTyRzoJn7DaAFLXcAaVbKFG3gaoGrCCJj8iCpS6iNMKEjB0PJ+cWML3NTPYy8iaWXdC5/wm5tiaqJXZHse8npsBpMu1rjJe8YxboUkVqI8ENjJB+XpSaFYwKrDUfuUsKja5UMzrIok6d9wCJdIaARVQS5TNSlUEp6i03DFqZH7SL38MTJD1G1wkQQG07c1ZiPbawbkB71UynIt6eoMkuLgVhdORXGbWdIv7VPpiI2UunLp1djGT2iFL/EAjnRQUyFNEqa2TAPETMLbfgZwYXtRH0qhT4HPTKoDL1mUOa7XrTHHTUuGBE2YxCZ45ULPVylusBJknWhBXUhM4Hey6+53qmudT3iKPGAvLDkjitm5tJgFn76MyngMLJCyzoOUWvCYsS/ItKbhs1jQmKoQmdv/4TBuxNYBCF3U9z6sl0xjxhZQYSgVOXvmoft5EJXSyhR8hHfzzoVPHVxFUeCYzLL7Zu5ymozLEx+6j25FB+KOLsPUwB7eUfYkcDwNZIdM9P50/1/bJWsGPstpblJNgtn8MomKIkdLoJ+PH3caqcKqPHGvcTqyHx9HZcAykC05M3U2k4eYtXIBzkyGfqHRoHbIfqKmLf9taU5sCwnZS6g+foa6gamJY0mtTFa0NESWKpg1H7I+//0N9ckybgSfQ+MUBdUxbt9M2U1+aZk3R2HuPqOMD+IJjXDEjscFI1P+hfV4AyU/Y60XtBmlNXVZnpdpFnFVSsbnv1f5auhWmXxmsuxCg+489VFsebidmmbHq/l20PZ2fRCvSLOi19bsNYdMiXnlE8CPufKM2JgGlOyXMTPhbFGk8o3+ag0SRP2FmIfu//dW9uji35pF2kC5yP58/cg+0pwua+NmIbFAEtXkfRWXH4eWelIwsFySlggyEgvcoT/9rv1WX94VXMard4Pg9y7g+DoTmIfB2I8nsH4c0JjRQB2XbPi4B9izNORxIgw6trFyxlA0DzLPlE2OPSa8Y+SVxj8PfpyVyEMkJerqgdJjGJcFNfQmWeZK+ZoRm9vAAiC0pOkobSuWVC+vFT3+tn2sherfHhrh/7T5+Mm1JU+pTisHW4dt8+JZdqnhaYQJNM9BtH1hUNTRZBLwloeTqh0ZnjaFB8MkGdFSBLFklgKper9K+nLTIptptVEGNhmeGSQ9BZsPWh22kZ/wC4MfC3QeYkpV8yQQBiiv3l/L2Hj229rJdGgjGT+lyTUSvhgH8+uJK8JN47iNdTJjefjHOo8CTe8+yQ63G5EtSzNDEurhjsIP8mnvZxt8SVITzHNMbZ5t/24LkSrObuSjNJsoFNBW5MTLWQc/NCU2ArxWvWn4NjZDYXUbA9XK8LEU1ZPawHH8FXalpGKn9KjEJ2T6wUlfgAnDodHY6jOUu5Gx5OARV1vMZPF2v2J2g8CUVVKgqHIFkUyygZh7BT4ch7bTAcBnCr34/DDL8MKAbfjDzHhIKB6LGPff2zcFmoOapKIKOg4l1DeEU184zeUjKmL5LjcBPVLB3c9hpbU/nsWXE47r2V6AhWtQeafNdIeh+qfjXwqlp6hmYbCKskh8AFTAxXUu/b/wWdGf3h6r0tf5uWWG+53Y+MLaZRGF2k8/jdB0tYNRkWbQL9kxU9SyTcV1unKyfx+/vbPi9q6ZVeh9lZafOCQNIdBL6zLy+jpUqC2YxlGOuKuj8FceoJNeWeREp7KjiZaCogrKqAamYT0feV9dr1uUXV+6a28Sm45xkbLgyifDALt8ePKaOs245IHk4JXtz1xjZH02ItTtyksYjTFQUEwfvtttSKNwW/B/fPTs9ZEc3F4n/6F6h8yEIbwmHQSzYHwTdMerm8vSfu5KFWaPgcOzOkNO7X7Ym7Lzf3QbsOZRI4n/Mt8uPkTvyajXE6KiXaO9EvFGFlB1K/6f0+QKJPVyzWd8gypj40/SkKk+O6mjRMOyad5+n1EtvmE/KKO9b+2Me61mWGZYNMII6ZqyLgMlp0AyeCM8g82iBMaKS9taYIYP4JjEZLESJO1rXqof8etyQUZp6NoeT1MeJTU1ZlHTrfvLQtN7sJwrjiKLPi8i1KxY9B8qOBrvVv35HleRksVCNAoTOceqTaAWMUpWS2UPD8JYo0LYjuyUWBpnhFesn22rMSehG8iCuU9LSqBBzH020r+6H9hsklPfPOOS4VYgu1MEf7oDPZZfnc89ZDnd4coO3J1JZhjDOx1ih78lhxeXppWlTM3mAu/xTCb8hxUupbi+wBLhsRldYHjyOnUYfUBqmWUTH/Z3CKL3Wf8ECCvXpLrdJMAB06qjaDUezweths78LU7OV2wk1h+dLrTE3BX/ZY3W3Ia5skq1PT0sllIkxw11DkwCTtboN4i6k33NKY8A3WpHGOLP96i5r/h94weXx/ZsYGqNf+76/SRDq3I7NWIMYxsCWxY0oF4WkCZ8u+2K9hxM9Uz0Pk7EOYcOKgN+U/n9pWDpHpILt3RHRsqDqyc1Kut/9WAkgmIPI2Gez83fnY7GV2SsKVQKu/A3vu2h7tMgBxmpv5ui3aMnWyzEUJtY6ikfK5shKFn8BhcAJBbF4XKQzvfjnvbym/FnhNM2ZxGXSiseXWQTOxf4Imm4sMHjeMzYGGLlWZ7DhcNuLHzbkGU946CJELyY7JUJJz7uJYlc5A64r3Z+2HqmzNMs85N00yzjgFhhRvnQ94h+Ke3Ew++HqzY5Bv/dOuxIzcPIXC02wLib1DyjdJQ87HPtZgl9w7Kt5da77hDZZ9JDrnsC0ToxTSSImTWCVRMxfJyx+jb+v7ArH1vYmcH7tETl5gtKrYTRK3lBLIW762FagWI7tj3JM9GDEEe9k+4OtluTDe3VdoKondWEqvjDhDVKt/8jgztXs/kxTrFP27e0/iun9b6+ssuCu761437uJOzFK7z3/iar4l14rwXA6s5ZW8lKCUkidZZAN9uqOs/odbSl1jWXX7B8HaGk9QnUVedguv0phmiyv07HjHxQ0IjJdIhiIeo8ku15j26fKWZ7zFqN/Lo0WfusKjCx9Il7so5NvuacbwXDHfOn9IPnqKurj8OzbGDyFqzrQLYjo2irOctDTqJcoLk7vZxfKepYNp7t6MpVUkDZ8ihxFQKth6LJcvz7ycjALnojj9xZ+aaWjB//HJaadhjOoLSR9Y8F5zus1CI3P6vaQW/mDUNUe3kvceFMowyYXUC+m2LFL1+UJAegZ40qikD10pq1AZLSJ6e8QEqueUr+u2EChlWXjWtk8Qq6x7gKEBv2dURzJh4N+3uh8349vZGvQygotfuzJg2sdmKbeShugey6vEO48u3KMChixWDQ1pgx9kL/DQvpN2i9CYJLM/m7bV1+BY/gH7gpC+R2tj8NwRr8JrSnJinHXP0O4XOrZ3Cu9UMxVoyRMkrdc79xocf6dnzs4IavKkELRbAhKVC66/+sR55eyuwiU7BxLu7Sv9lHH2uHTxSTqlNXDQRMk/1N3Shhf8BLRCmiO/ZzWuypYGfGjpyEQxI0VoC1haVaZRhclftp9LrDrc328guAB+RemNo/OiEv2FqMqMhWQnC2QKeygVOM8wGihQgcTjM+Q0eQqdZoPLZJGoNU+Yh+B+8HY1KPldrcjuhVHVPdUH1QfqT9g5r1pC17/afPZ7xMcACGnAzzj7KewkxZBrdvnxRTl+jim07M8LO+b9btZdIoKWGXyBHfwrgBojFMHhKuT7Ib4jHtMfwbafePD+j7kfRG99YH68nLyDlYXzuFGR9tg8UYD2GGXrZ2lPrvWYO9ehSR18E/qP4kGnnVdc5x1N4frB/JFv0O4fuYmc9J4cYe02FotjlU5OKOI54Bs5hmOAp3oLhn7cs0xB29s4ueWVzun3G/UZ3qyGUnPpAVyeA5A9TNf4oBGVLpWi+CyBou/Cttr3WGQ6oGsKdcs6WPJjYjESrAp954gNPDM25vRhBCa9BSdbFZkAWIgXA631xFd4LgZ0os+GQQrCwGIodzu/U8Rmejd7s0nfxJ2pScxFrluDLfymAIqn/TiBW4cXFqG9NDtAO/si6ADDt5+sZcvL410IWlzLF+hvTDomqfScjKw/OmfoSm14e/pUCryrXFn3ar2GWAOZGAaHoCusuCDgJXYchWFsIeAIy2p57VUDv+2/o4//5sd373/2IWq6Rdt0RGywlLuvwiRlqBwcFEUhyLFtit8uVH7aRfp9YBDL47koMYuVwVvt1B7HcC+7yGmj7SfArqAeRzslyloOlbOW+LzjWjgfeCevWlnMJqLZWf3KTpUWv00BHAi7dfT9M9czfDeIlirsrkjlTNlz9HJqqSfPo3tk82L92ttkBPa3q7RpVV9R9dcTn+6Ks5flMr1Xcma4fl/W3G5x1PAh7ndQdDwFfLMPN79egeniSukmjaaSeszK2hw8412TK6ofubdyWEgsV4RgAD5TsAb727NtXIHIAvLguFFvpubj9TypRgEWCk+JWiu5YuASNYECOo54CiHqAzCQFwC7VliW1CvifeoH9RLq0RTy0P8OPPukpg8o/L+JiCWL0lJsJOF14GwEckK2wGzoemjgwI1VrLx1QvQJmZIK1rhVFWDqsV4E0S+tXp5o5hAIcqBjrf5oEJR+kg77zf7KwMTlwlsDzcV1y/rU3QZRq+iKgM2/qKvEZ9kO2xPRBMknx73hsGlcbGwfUONV3tqetf39kbGL7wkxyNcHfTkcJqSMddX3vggKYNwZVNSHqKTJTdFvw7RDyScMMZqgpowZaHJkqy7urYNqDNFHNsyVNSw42XFHWA9JSRL+t5nKPIRL/YDpcwMQ6PEdbMvtnmXSHUH9ZlfBBUiA3zoDIt3uANzT2QXbIIYC4pwiqbHJlVMVUWWplgrr6xAMggkk7+Fi+78J1CQOigDrexKPrysdFXc5yk5pMrXmiZLAexaDbMcs/Vul60oxQ//U+k9ntHze7ZXzGbxy2XF8WAC80neeKgua5E7Gb6ddUrA/gq0+W41gvOyDXWtfYcWhCBrKhDviK8m+LChm4XT0dcf4HgqeVTJaXoDQSGmjJb+4h0HQnM4tYvtmTTXP49PM6gQRAG5eZX+xQ7gpd/ar6XazeJB/izIOgZ8isjXPC7Ilrml98exrjK+lnblz+5GQgjCZtln4AT0EgfvaqiQ+PdOA1GS/Q/T4Ps72oZ9IChCIEzzyHuJZOWen0twXaNEsLGHE/pWueA93P03/yozC1fT2S9os+p57uyuTUA2C6bNlsQpirItz5sByBu6JxUjcM2ZJW+8L1zPvH/DDhldbtpNy4sZGATd6htpCKNlO/l+BngfPjKkyivMk9TmSe3Es1w/gf3U1KvXC6wHoqJhwIlmfVw+NKdY5yNiO3YJKsWuaxfrfthcLWFwJXuCOG7J86UF3Il3H36+Xu6N7CDCHlWClhlNRvXltqrlRGI+jJ1uI+c3SQCZL1oroBg5qE+mE5RneXe5iTdmmLpvJgCSDXh71wAMLqc3TCJt6exJGqy8XAx5TW0ce0GvZ6VhudAUHgz6MbZhTCIh5rwm8e8ioYRQRXKIvLJQ8RVUOIOAVM05lFMxLgPbTW4km8m2yoR2tNwVWIRAOhQE/FyD873j6oaCWHxP3S/jKw+5G9iS421qmE+8xpk3B844X/SdqdI7WHgl3lOGpFTQbBVow6hVkTSsNN7NSz5Ai6pP+yBKtHjKz6ga2gdFmJGtCtQcX9UYEkMXlzoNMeBsKt6xmEIQFuIgcnMhCRwMoLYL8gBRUvQKOwEZA3CIq+Bp+Alieza8p0X2BkS0Jmop6FaLlgFKpm8HjMcYbjXf2Q7mleCSjNailcEl0EAs34pZENqZ/XyUuCAMu1Ttdp1p6i4TD/KzSQISbumRqBXPqobxt06At3DszGEJFvLLmR2XG5ZBFC3+LQL5Cxapz7GlMLWnrQLzjmcvFL0syPaF+loK3po2npQujMUV9RsZQGDG45/cpdN2fHvFkv0w9BTA9y5JxI8u5T6yy7kbXq6GR/MWlX58pMDA3YaX8FiJMs4oIoJfDdnyIECdM+UV9Y0FVuzW03FLNtqE0zovtN3YDiAQ+q0pEzABkp3HWUlFEyRN6hUZTWIcIQXZJkC7svtXMk5WllrDD843fw3ha3S1STGCK/5MejQso+5Bzj7I2F1d2GhzHzSWLso1d1Ep/Mp6f1lpaMZsDSfa+FaDcnF4z3LMti+rWniXPRGD/lp8PBnSrhC39uIBiFRGxmMuyPUxfTT65VJbBH8YW63m39LFAuFbSNCMh2xVsS/F4ufiewgPa4cWg+4ZcumpGy6qSHAQwpl8zqvRnTXes2VOaHwDmTUpPeE6c/Yp37d9EGojpUpQoU0iRl45/DOR52RjJORlsyTlmjsp4oyItTSjLMBQ1ZNxQgfLFueE1SyXROXaDEKu0vuQ1irD2QCxzR5El1E2OJcx3JT/rN1WB5kNLAA8R4+IZqg4xFPvNcHglEE9VLIBbzq/zGmX+p3JCIjUb3PCLZcICG4dGw3TN88VR13N3wa3JlXLi3DgPUbf24VvQTppol8utQkFp8IHvyOE8eryDevwEH9oXmoYl67bwhk0gEnG24ancvXCL9Hdql2jsRFhqSCH/GVBUktLYRUK/pjzckKAF+yDDF1hbgATNAl5dPnHvy9q5iJRgJvmr5j1RZAcNOwrwjJYzrgPdQzuvc8To916AhtEhmGz81mRiDviXv31CmglrRe8fEOkXITtP33XwLMPL5utB5xEvrGW6auE4UQdFoOwPsMrwvwLONmVNlkpq8pWaH0wHO2/aFoZ9ptjFLV2YHICSAjb9yf/jLxzmt8mW163m7vO5I8EYBWpV3JtPap8aSJDmN8epVN4wlUkVC072lSLbDoVLASzCk2KDXqe3mn7zl6ynBYUDadJbtCibuCVZWK2+SDN7iJlY/1R/2UKJYvOhn9t244o/s6klWXtzTul0LWY3n9i26XD2Nt/oDp/NRZHk5Qw96nQ8Pwpfe1AkkXfGCIz35I2jMWGhMHBrzGpZnqEC7TomQgA+Qcrf3dqk4ZLR4/Gj4pfobrMnG6kSR+rJjCpREkeBirNK689O1QJJNREeM19+TaVipdpivihu1qHGmVJ5VxLHurXshKFKbQGUZaH7FxvgRgVOnEwEHSHYJT9w8Bzud79kefCgukF5GXvaW8W5ecBwc1cjIllfsxmuMnhy7ySu4C+/B9b1sQYYopOxWQdu5x78XLtPHFx+tGCKoXx9qbNgBS31DSwan3W2Jq0ObPofl5BJbeDaPmIsXjJTgQdwjqwZA7FFcWZuLE0lyuvTGnSI+6gxQiSeCBC9xKzgiTnP3yg3JECd5jq7BpqhzxODS4KLKz7+i1znWJi9PAj3dUkmMdT5wA79QpxRyFds4iVIEI9rnKe7c/fAzCwC6fY+PNRyEs018Aseqq3Hb19w9h7EU+hqw4YvAi0He3YJM2Iz59/lsQ4oOseCkRZUbFqyFcvxjlB/mTKd8ujAS9BREDBres7vg8MLZYejxeM3GazirAfmBLzYKbNR2GrE1QKOzBjAbeawmUD8qAg2eU3tv8ZBLeth+PLWljHgOxaXD7ypuhZVbki2KG1XNq4YVek85syqEH5U9mq+Hnd/o5NNg55D7dWNxbU06/mNqbY7VvO39rv9AQE4/vu4ARHjHmvoO7eF4Ss/OlzVSK9rs1RQV12M+X0LKA1gY2K/w0gkm2r3srOpzwCSNGNDvqvaAZQOsecxegVR5p0Kpqa2mNPafPiRtxvuKiaUz+uk3i3KD4Y60JwvxdmacZ4HScQA6je17vCH+a6WmxkBlxx1iYsPHDAAzcNfTpNxTj+suA1hWyiBdL5+Fh+Tb302YJ69t3EMTPNHgQQ5q8W3xNotSnKUoKftPep0Ly/MkHwxVmtMJmuCZ1SnefEN5dBd4pXwP33foGD2nj4HBqODMjsNcpkwLBC/XWTT2+Vy9tYOtxs3llX1OqPpWGHKhm87a4Idkc7FyGIEb+sxgOLIvf0YTm+qizb5FB7ppzUONE8TXvCBBHNng7/i6QUooEAeq8gWO0JR3suLFFxx/xdbXbjp62B6pBLDpYzGerElpOz9IUUBiwM+2e5BKLuDWPbPKGlkIaHNzhwVmx7dVXKCKooH+ag0CTbbZaaJ8YFsg9yNsYREOB3hpTuMdRfb6C2TkvCO+ZtCnYuCtiEnsZUrvJtGzb1XUtZdL94IAKSetHptNoAiQgPa/maaDutMKojB1TvCACN6KneJstV7ZjjT6FDQyuVwMs8ySj5zhHmNvWQATpL7fhQle/9Qfm6PzcL0Q7TDCn7SFlw/4SOSgp3TpyQysNbtEY3RZGT200eEQZqbgyY/84PFwblpQ85JbakTY7U71KDSYX6TN3nR5Hob9ZO029cpJtwhAaccsPuhz0wLwLtk42u/QIOTzuhgzdRIkDQygHp52enN0zSbGRczhHdwOtsrVpf3oUiglPkHPibrvTLklS8ZE1GkALUcKtCUKtC1yay0ZGqaw2SwIWnYi1mlwN9Jv51BaXtpxLxozQf5vfa8J8kzyWS46fh+XVUFFRE2w5E6HUT0s85eAf5DOmpCZsngns6wf4Hli/PCt+OYA3wkOMQRVfjxRD5QdoTuxSLKHHl7xTT2wy05jtx9sk5+u3oKps+v/kct/FHBUd4reyqfJTLc4S8miodL+n1GY8ajpHq+95Y8I5sNku+THN8Ks+NNz6r2PgW44WvbjdPqetHwWxxNsJd7q33a4MQIyJP0pRthbxk/C4E9EpVG0AYtKE6Q9MiHGQcu0O8AtY48D/vC9QyrEG5L6KkCkZkeKQbKeyU5lGVkWk6ctbRVPy/okb8JhyfxLAvjjvxMAcZatTmr7ADXgfh610Duj7/zD5KP2Fr6wJAEXDxfSencUWtZ1sPRqywJ8Xslpjt6/O76kIKaRr0Yji0j/p8+kxctKxCxxjgLaAyIkejfMcl/7P2s/yC7MGjlnDNoDK/NGz1OrGorSFwMR2tCLfhJntHR9Ni6VS2SybqZMse1SHSN7bDQeg0BPBeaMqkJXEda09q9GuUzxWPKIzNQg0oOD4AmI6LBRz0mZMiRAZraP9NEK7xe3y6L5ES8ewZ3CXJpZWzMz/jjygo05S3WkWVzCXaY6/owrh94HX0l/Dp0Rwo5rlZazZMlNoWp2eTp2BeVa2oMkgXR7mN4NTUcGVOAvXJatQvfgQt18hlOMYUW5J0S83d1J0btMNPjAQBl+GTgLQgexKjXeum2rA3temi9foIiOgi+eLwdl0kH9Tphs78Ewuy6+X1BEL0NgEEXqfEmnLCXy0IOudGyUYw8+F3vNTmNd9TyIAudAPzoQ4/qtLpmDnEjhQTaA8+S/MZ0TVFewA6pKfSm7MlYtMBPEOcmbD+/jloBPKqIMlFqE4UHRLP05db2u3pTi7RTKEs+VXHCVTt+xjOL9MOI/cl0nVnmvDZdenFIOfDg+MJWIQK57nDBzkPOuzkm1A/K8YWr6mMKTsx3KhVRjqkCH2+HTzruPnbELpUHUkLqkVdvqmM9hEtiQWwb1tYUETtCpNHVNFznXTtJl29reg6O52p7U3zP1srkqHLaf4m/ROjTJMSRfbOSMdD9Xm9jAbSXYZxKm7tppe7xqewxfzayoC3TTf4S73DzZj1CFlOpi5MwHD1RGA4+xVShsAtMVSrr2XMl0yn9GTvFN5zHxenI2GKu5G4ZsejfocDAFdGDb/QJ+JL0wTdLgI5HM26k4Aq56W35FgfUFyFwB1Er/RyJZsdcvLm538xRaQVzjsaAxqHZyaAtioI/JrbkXWN+5tChs8l1PIFYXic6dU7jL52CMELg3fj6d1zgULtYRo/e96SuNbKXUc9SIHA4BT2mpI/4gBxhk2xG7s8a35CzGZJrvMe8Lzth4B7kmjMI8Bi46hcbUwtx8v17k6Ue1FFtUIcymnDequ/kOXEN2+o7ci2N6yypJbLdJr+MtcVzKapF/APvCedmQcGqqP5jT3De1JaPSPIRAc3vH1DeC68xHN16r8EXtmNOtkpNxRavjF3SN1LSObAsTPWndw0+240S3LGlVq+10cqvZX8Koc41YIaCPNgX1PtgIob3XTSzJgCxcs65tAIFL9cGplPUSgU0NEuv2Y18KFf0DNJaY9LUysKkffqjG3SCrMhseuzv28Majf4MQ9L3EnbGGZPuxRfEhSdEx/YiN+F77rYlO2gAdpp8y6zo4LPIqNN4KUE2MXl3GibOoBM5HNGZdgQmx0F7qbtXAfPrwtmXYu/t8x5e5L5D/a4aE3JZRKkbJcyex9B9qDa3c8HEyZFkoN+q96QAySECNcwGPu3OH1yVtsad6P94OrUQ2ci/2RwxvnPR3drgFAWlLIuAScueBDItts6O4/fThQJGrl/TkFZDSYJ9C3TXCSyrLD7loeeD/C7H80g8BgyfzfFkvDNK2osX00wsDKl8sRSDCI4r7gyo5IJihKaJZ78oBPKhGgh/E/TlkLwkDyINmyVI+LzYKdTBTF3j2Ja5kdSqxwz4u4fsm3EptTyg7870CU6F1BHzbXHd1XQVATu9Sn4smfPREhC7VJ3A6M9rNM1DiKM4FvheSTLMe0U6GTDWIWEmu0Z076cDMgjtjmEDjtu8b1wd6ekgwoHmB2nUptqvcW+KZ/t+/m9GqOzxoFjY3SJ8MBFnUXUofCKr6PQ/7yi5U8faCXmsVb0Nr7Yd0oRsvmRMXPxoWFzBdzyOvA8OBgJ/rm/or2l9uqtJCL+d0jM2oS6dlVC5dI+9eD+ArRg/APzgpyEEhulZtwBAdAcxUNeqsxQB4Mp6wrs3BB1xSRU0U1AQoIxYDMh/Y1V74tnjskR4Lkn6mas7Y9im2b5M2+/IzKGE44gdpqBZkvBY6EMyhYHjwm2QljdAdT+Iw9dXLLp5HDLz/wzMmwI+u1yoKU5XhxlWu3rQDQgvg+AAEnRSyolfls4Wq5bEZDZMv/aD+NEwuS7LCJo+EQNPC4XGjK9B0Dzd3rYQm/5+QgFwXiyqPqKbqTTKY8zpi0dayC9FWBj8iqyEvKEeVgUQnWpFMmx+oMZFHZHSc2zr3viN8wsupPL02R8h+OrIcAd1SfEeqnJ8tHKZcGlfppC0b/hSdH1uwk+6f8+Gyqf+IweZmsvETv74EkI3T4imsQYR3T4oXfukLhbp4Zikdhq7xW+BFEISnBozR/WDBzrZ56yr3lL6/vK5VGvPG02ACWL082TpzTQhePNOEsiVUVu120cDr+Ft3gtFeL/5CpOH6v8yYlfvDrKo7m6Gb58CntSmoSqzCamjz9/3Qnx4xFkDw9ABlzoBpVm/cErYA99MVm4OBDOgvjabofUiIXnLNPGMM9WRm8jvDFtcCkYNvn1hf5ismtL0kwAnTFuuusZQ3pyEaC0PX2YKCYFfgoDzaPPu1PY2FqeUP5NscA5zY1YyjCvFCt6LLXzubLYk/lqPKhaEEj3lXtLD4F7OhNcRy5ifEQTYsQFd5XOxoTrrT2SER/wl/M9d+mywxWdPSj3WMBEkSyixwIhDijoElijhS9BrrBLLmdd89nYU8gw3RiklJyCA5YpjabrJoUvaVSOMc7N1EtX0YxrYVhNjWyqUZUV/G6x3cmVpUxaU9+rbMOQYkMTkSH1kNgMUkQK4remHAaE76/YyVA+1UqBryAsQHPRAKJMg8x356vtKshmyCuxCcw+knFUO/ZL+QEqtahfK2XftYVrOj9HMF8L/K+8/pZta3jrbV/+J9or8uPP8vHWHXm99jWS4HOHs3l7qo5gr+kcY5v8k2wFDvcm7rRqsgHlS+Lo5M5ZxTfruICPFy8lj1FW9Ae2NFzy0W9gVi5S0ypeVJrBZBw/sQiv3xL17wPEDqDnklPBFCfoP5q6S8Zh6FlrmUrsqrsyVNVZ4Y07O65H7W5G174mX7Og+mkLBkkvAmqMxvB//G9wCh7Oj6hE3ezelLNRCRln7fkZJ9jNfkfwRgigcZzjlxMjg1e/2Cbv0isrbH5F/7tMDvDuYhJDRDeN1mmhdRopp1z1r76LjVmkKbY4+yfLSZKX3lwsbFX3PH+EJlDSO7b1uAkYgvpp7Mbgf4LPc4QaKX7ihBPiFCZ4BipZNgkV2kb/2g9QY5xtvKDHv5Y3Y7sJ7WQMuo+waMOypNYj2wmtHhoUHoUobw5qAS5hwPe4LD+tPJfgmh7UV0sZaVR2YpCDhSBr5oltytsvy713GPmpMXSshmBIE0fU7AjaxfoIP2ePHKD3oPglc/my+iMDH5uo+DD2UHpUXwByzSndCaMPfalXCTIpJjJEOnG+Fc9MPsYovqiHAdyH43QZCgoV0Z9/rQ3GEJDelF5UcTh10ZVaHpz6SOaWc5us+4TEbED41z6VaQFfUMwWn5eu3Ia7Eklde01P1+PMXeY5F83FQu8aRujtGcWLqfZHkBPeSiy8eipdL/yWsARqrJnW6QzLVbEGTClyHU0bp+jShjStXhp2TLagEY0DSXGNaRg+10xtd0Xao0nTPPqx9quLU2yk0I/7kVEG7Sj41TL7FAiO5uvH/3/zghDI/YT8w4/CjR4h/XCgylXnycoBtocoK1KSp4I9aB/hirWSS4hjQPeu4fjUrWaRMzQ44V/n49kthtmY7NseKxyGYQXvw9yaffMbHY3L8FhkqlHW4yEqG156oSPqhivKpO5NUC7OIbZnMuKJuprdhj4g23TMeGvZRxuzRi1zAVf4DmKuk6djLUOBEJbMRgr1Vi4MLxIWoijp45A2+wrN4Bj3ePl7fUCayUBpYO9UDR6CDtc9dkMmO54o373EIy2VYE3HvzQ+P0fntjEWy8AvQS54S7MFtIkaHtLq482p1eNLnZlbGmZyrfDU5Usrl/8TGGJrB1gV1ISE3+saZyyj+RGGUUjoGjBWdzGnFuSOpsGZzoCGk4k5BIsoIsDDnqxiv/Vy63VjbSAspXpRFaWBPXe3t2El/VH7hZ4MwLMj+NFiPBHfPJJd0JLVDQ51g9VKRKqiyB3FFxSFKvR8I4r4UenGwKjDC7xn1wz5ZpUHD+zGwZmBzqJs91ti8ZdGacSm+behf4fSGTqSCEw7zMfTSOBDl0ESTgCnd/HXZku5REklDQuJkXD5YzVDMPzB+XN5epSz+10sg0v8paXJpaIz7E6lbqHsoUBE7YPYqqDtowLRBtmRv8buE9SUYoJoMIlfpuRya/klr8NOkU02nso5o/G4WnLHtqNwX8HQ3yo7behvZsO7xo5+iDNuveTlb6Q8WXy3jSmNdQvRHkrYJ8wjA6cWSj7lzTDicea7Bi8mJotcE62HofaDB0N+Hu0mbts4y+Oe5Q0TlOpZK6GXOYaflR6AsoHoFKXrDc+kdb62nqabAoz7tbgJ7zcfFi08xa2xeG6J2qNi+FJQpjhLTBxSgqpt1ZGVbRnyOnbv6Z1KvPN05F+ky1/e1KbwUrrIHFxdQ19g6Ioa3TvBZEPG11uOM1kP4qPUk5oSTkc0pBjwir1oE5FR2qb5mxnv+GUiccKh38aciRoN8T0x8P1/tmVI+AWV+nOZKvOkMJ2Bxnmwh89Mi1Vr7bvHgmApYI615PaMb4eR4xKvKpMUyGHGUgjeCYWnE1ECuM469z6y7noroJ9FQ4KBY82+oqp/2mrGVSvo7RoZBGWEL0UTi16xh5MIl/Dzxg/WXGRrK2GkZGwuakFk5Z3m03WFAczSxu1tE8UXb0iFSYoZVEiuYc3182oQNXlfCK9eQo1gvFEXHdMts5aX6T0dYW0Pv4QHOi2AQXBfnaDASUt7xzW+ipnv+DIFk/hM5Z24jv600zqfiji/l+knGZiVY1q+54X0InLa6Ld/bdobmYqlGfM9UQhna6tqUwi6KPb5kaH4lzlFj2Xsi4G9Dvr4EXCNx5Z9tGDdBqXpoCE3ZgpKWsMwA0ektjS5n7lqGQTD1/h0ewF3YxlBt/Nb/Ee13MPgvFxQKLza1h69oSIAvyJ2XtTatKtRUu7kZSZTxps5AqKH/KfSfjydB6PVGCju8n5Fntc2aF4xN2scks0gUSb4yc9P4IlxBzT7JOGVXnmLV6kjmZ6W2gV/bFOV+J3WnwfNuQjv92QtOCea2nBIt+6xRBAFs7AAq0BRRiG2xDTsjuJltT7hFRYQmItLo9Q8cDunGUvEpgjAjOun2RnrudWkxE0Udbjy1D8RPm67ywtksw/oh8fz8PnGH94MXtMb277icG5JdZ2hsiufaaNcFyzxCFShboOkvMS7lLafchNktSw4Gd7Xb5gZ17JYL8xfn+7ScM++d0dBwONZZ3QMZB8yllnVJ1wqDqM+r6Gd+bNBfMgebQH74ToGwe1gdZPsxfugysE+o1aput4tvW9R5Mth8BQlvOqhtR6oYQLrcORoFu+KwqXXd5XHixy/x55WGdbrUEDEuiInxg6j6whUPIlYiSffEcRoGs7TSp9E0vXvMrq1Yz3HmDQOw3lU47fDKixzgiC7fLq2sgU2aY9D3voby1UXFjm/H42crV7DgM/2iUZ9VwuBZ4Z6PTQd4P/f7qtPXuEk0TTZkBuLrHIMOl1cn6ro6b4TKP4LGiruH10RW4gZrAxHuYydJcIquBOVr7Hhz4l+kqsAEbrMKDpRRP8f4QmkRMT6yj6KEhKQmVOsiVM3OEizCahlqza3i+LzWGFdDGrLak5JGUYVmQ8DujhMI6tfpIFcj2bILAvuMbmdwUSyF4WkdQT0Cz+NdS0DBIdI+FcZCJewp8zuyWuJs+zhF0dYkTEHinEaVo5ku7FoA4M8QOAtUg9lCKqbrJ30wjRKTi84+9ZFgxRTdJ+bgK+6DK0g+eG+XXMwtfKzWH/Z4GCvL/Bnq3Xz+M/Uh/A/QtrsyqgZ5X1gURczZerPwGBRV5cy0uVEbnUbLLR27q8cy/IW7QRtuPMAOc+bXoYT7Qj8lRnvMTm4GvOSIwS93nq9AvspCFKgDVDYZrgVCBYXs/ca7+5nV3kRn59QK4QobLKPYPm5QpdBAokN2IG6x20cQbgmkywz7E3V47mieBpS7X9dgKrHVtuzkRkL6yPkeJLcbs0T3r/AaHd7m6VzAPlbgh23rdG5G64JX7nBbus7WzJ5Hi++YMDPf9o7qqSLSUIQUVq/IgmKR5Ih3LDuw7WKphl5f90UE36zv2X2WVw3xpHYHj8SX6nIjDRavvRPshTTJUIU60BNVdgV4pmWBNikBzbmx+XrqnYMI8IYfgxj0REidoinMD2jTXw+2BxpeugkvNsEuTdi26NKvnm9Uf5BuKgO4ldXlHOGjjHSq4lkzMdrhtgkjt6bb8DmQqPR6LOB+UKBW3hT88CE9Km86Qq3vh9v7/w5Qx43IboSJ5wx1ewZBSB3slgdrM70qY8STlfsPLEKzOvw+Y+kMGkA/dR0FzS5F0DN9/1ymVrlL5cDFv07MxjUrKr9fX6toy/8mWqA8cB7zibYYtaRxJtB+6WANStpiM93a3JC/d6z6wfVjRETSkMAzKaBgKYMc6NeMqQi1t3pj4WBHNe3BGkLTtr2WCrG687VKuJEWWl2CUQfQsbw7ypqAaklcpgX/GSVopG2TxHeu/7JZQnJFGSRz6CAXKeSQmyoPBJ5TniNghAqMg8q1CSJwlIr3PIvtdQJTCurr5zykLyddfqk+ZvNpkzyYjM+QvpImv3x0kZPBShB1/UWaaVIM/M87o0RszjIx98qM84vxQWrDuanCySvAFpNjiUMn50d+hVWSBizWoK0WufLQD1Thwl2JadsQ3IJekEISlrQDX7iUFNGLXsr8czYq2UDNMqMZAKnQVPqy66+bcvaNF3ZUbad0MKs1/cEi3IfzvJKUaLQ+ohCojfa72h9RHsNRyeCkh1uLTWhXLulgA8VDUV9vfh3d5zn/9VS4Tkq5ICVWOJkC4MCLUTW65B9riucuYtzit+UaqkKnXQOXevsnPIerZaxFlrht6hJ7tn9kQ9mIQiD4PGkLFn6gy8/xtalzqc+FjSV67OFeiwMSS1U8Ts3ljboTQ66OvMWd7vwjdV5amg1Xs5ZEF8VqtiAnMX50ujEkilTx6+pjZG+6MNgOcqZi8RksEqcazXndf0LOzz8QxPey4+AmWNukPLUXRdOWvijIO94gHcwsTs4X16P+3mj6oqU75C/BYtOlPw8GrEE1bD16MSlMdV10D2W7xZwkRYfugwGl5/Dp3C9FwMM3XbkbW4uBZ42EpllEWUihTnofAFlX5wRZpZwmyQTO3A+ysruD1Jjv4A+7uzI0aw1LiCdfqFaoAvnkJszaIMFcmA/MLRsXz5B3UJQszjIvYmI1l7Ls2wAlpOV69SZ7BXxC3bgr7+s79yNl2TsWB0m/uIA356ewJkyqiIcFiaVjhBOCCFYDeC1gSl/OtWERGYcB9Ec8pHXuPZg21I96XoBfZWP8ZFl2E3fwdzClnhf9KdipBdr/WHtdfTElBrFJKa7RBKs0Els4OGpuakONDW5yqBs7xsTJwHHc8JdAfxVUEW3G7eF7jNgF0Wy0eufv3IuCrDOpTH1KdyXRRxum+Hg6oR0GuWJIklsc0DMose1RpfCUJB7Nv0z4m3eaPgr57ZQEkiC/rAtmotw9rngSrFNyI37q30JBhK0/BCGU6vGSl56oVc7OqpZrrEky+C3n6CO/9NbRK+S/LO+8sN2YJyg6L6mncozwV0pTDAtfBtYxWwlP1BAypDoAB+ADmdIaKRvNgG4pVJ2w5EzSRR6DnyiBHi5PYye5XjH5jzLnE0BbcARbqSTEhjs/nj/f7Es3Uvam6qcw0zNdbLZJGHr2RZ8vfkglQEfLzZT+3+DETMbEtYrk/2qcgesjTu2EgpnTXkH+Hl95ysgAwugBdPdycdvVlxzrWnTriZacrqT/Y8gG+RjvSHn7ZiiYks/bAwpDiG7UEws8em+ptx+9mvwrkAmN1JYxcxI8I06oDW1nakosAUy9YOJ0M6eEk3+pYh8fDm9hold7TToCo+wxg5//WzrxzQhrmaNfM3i4FDh3pyRY9kvwHWGxJqvkNkLouVUOCIWC+Dk0Q+9RJ+QEs2lCH3WfRWF5jO2Ep0OEe9gq2vp2Ns0qxDOBo18rh4vh9zu/j4d3eHshZ7jX4xNHp4KhEhJq8D8lPc8WIT3S9ziHMaD48brra45kcubNa26QDMoDXkVbbDXoEhfZEi2Tj/FwgtD1vOXaXsCEFbVgoNtw+iDQU3kHpDSb/BLFMQG4tWugoyuDnAKqLK2f4qKyo+qnvNj8+SCsnBDUf9PsrdiMSQ/uwlfzEE1eYQWulu4CryVgMYgNXjMA75KoD0amtaX5DA1WcE/B7uU82+jS7jHjhCXF0+NhVudpexfQoNpuQt+r3wQbTwVbwaMgLYxIbBEEbKeFstBrs4dlCKnNlSa4h8OVWW93oN4DHd3KT9IH5yo9VC2EHfflRkjrLJuJ510HCykbw2wQ5gp1FPVVe6K9aucWA8nlU+CCzo6bK9SI6IqcGIEpFZ6qxFTImQ+glrROVROzHfQ8rMFGR9Q/qpKeh8e++GoEaPoa7dBkPP5w3dmf555EUujNBs5+NwLXDSaBpRJe9Au6S3yDKHGR5BjPd8QXwHo4ai22ERyMybO8uSYAnuz+hxrhbw4/LLZw1sw/wZa6sdQdrrOZ/7cVtmH33GggsAi1PRHf73lTDlnIvlJu0EMHf1O7fwnHNGSO5cS27tRR7TF3PiFo0bg1u0+68RQuMXWBkuUeJobm7qzzpF/MfndOMGVq1zhZ/BqzJtnl5fjXZGi5fcFAGUMai+43GHXCN2a9KJJURDdAVqdjUSDhmlg9b56IeoUdTNItCIC/8YKaSdOQEtKCu83k+ys/mHInnnK22OfXTCXr1AltPiC1b1hbthVGQNEfodNWTS6b7t8TcudP+tN6VNeGBbuqlzL6FNe0k+O3ZYHv1cvIlm8lWMUnfjftaU2jhmB4RgD8oZeVF6jr+0FgmfkB1VYsuqCWuSQmMBuKio1AeXpuPZU8oH5X5Ft3+CzThQgOM/9WHvDRDcpMHMUR2wyfoeuF40RyEr7bHvzj5G++z4c3hta00J6HLGVk/i13KPfmpH+jx4AGs/rjGe6LGwLe70+DGq7kvvinSdOB+Vunf1I9FGowC8qLRHn9XBCI0RYTdefmT2yMdNgDQ/7LXBcp5e8ptctswVNMfAGgeyBeMpv50UhQRaogSXHqT4LIKmX3jRK6iVZNr083AV9hFGL9OAekCKEn8urIf5vYWOHU9XmMskIMna38tmWWlM7rwSOVUeU2K8PiQtGfx5SzyPLhVeCFv7yz0L+M/Y9th9YCvo7Nu5t3eqUBZ35gXSOuL7ERXZvW4qf4HN+3GERh1ou2HCD9oBGoOvQSgeZWBU4edRQJiEvvtRfp24UjwYizaRkogr3LdCJwvwUMFON6J+MM9DgS8bfScsTeNLqtERIXfga8ba9ZxldiYt3/iFiXE6tBf9vsI1InPB1SmneY9WBdk4nyZiWzigzRTr8jp9goj/2U98W815fRpizjzhVL/uECGw4FQz9u5Bmo1llVqoaZTSwOrsTG1/hDL209hoVsipDnCAHoNNNtHcDjv6eXrcAPqXA8a3vgYGlEWGBwbzSW7YZdDyuO9XlBZmjRf72KCmuRn5lwLKCih+HfMWtpkg1t+e2pAeB70HwPD3/jIOthH1Pcmh3BWecDEoYZqYhSCsm5ZvREwKYDeSCfWh8wTMRPXpnLH08xnSJiunt8cNMwLHxR1X+BfLB1DLieU+gbC2rOAHRTOtDnaJ6nsGFJQd8ZHEJiGq6mZAvkvKVclFeFbvvoO9aqoEBu0O84vqMGk+JdVvGYIeKQmZCZlTKNdfPEjBl/VPA8pPlCdYlwaKgSEhdxgZ1WkjEFxsJYQjKQ9zUGFRGI3GAGdqx9cZRVU5o4TAC+VDIvDf8sp/m2OEXftFNo24lq0nvvaUkuOs/HuYfusHyM1fxhuMAFuPhPxYqeeaDga6K9dOkucPNAay3FMucQxe8O0tdB4xhMCCWrzjFG5nDh3U4EEK5o4eHh9vPXLBHcQ7t0B6X7fUr3juCp817kMMnjGgl+QFHE4RLqjMWCc05Q0r8AtV0m889sknkIx3IN9OGqP9VI6reMlT05SCOKA3/1VLElV8u1pRKbL2lZ9Y9j3rblCbL7WzElNUGtvSaaYQ65/FhPmPyl02pnky89tN6Fha1ZDZkLGE1dcXCBFvJe9MKs9wBWsziRaSOWqi/81wW/NJ1rz0UGx9/cBKG0skiiYKqu6+U73kHUyekxP1lRgv06J+7FO3smgAX8PGoKJFO4MhN4M0bzJvBLcO9z4cw4FRcQ7tia3Vkw1t69nEHF2m5DlA1Ui7WfZp8qfpSX+9Npm8RKEVZQsZQP+WlF17qC6A8OiVZgGzOcCkjUWJTzDiFKI3kaDiFMCOCKRYuesAr91ohyqSyzhVLE/LVS9rSXigshUUlz9pSRCExqOSJazSF5NdvtogeUjBdop9G/JmniQ45TqqAYDiiFCBuUY5051hyUeKxQMynbixqp9tTGQ0UHw49CMT7Cz9HxsclQzaY0+PEPL3eu2Jl4T25qJjlS8VmPWMwuNiIaxZPCJsdkWM0cNs3fp/0a2Ztdze+mzAf4k+s0YvWNACz+biGr47nfN5UdaTRP1Zkib879XbrqXdK/Xm4u8k1FtIAFsAwTtyfkav2/bPulqHwhFw4XvmuELdLybGgsTNjLTVM9JoE6QRlwrGSpQZTPoAUHqfHpbPTDe9BFXATxPGlaQD9v0cBX1sKrx90IGVm/8orN659+q7OKPFjgIR6uL2eVDQpsUoTrEfXpy47Wx7/9+C9m/k8DxElSg+itj7fly0PGFVOhc8qgWSxyMkWhv/GNZQnz/2yriZSXUopEj4xCSjbsHEJshpg4I+RQlLcma2+BqB5H36f4mePVjtpb+F/YtE/aoWDhMJXvNUFGe+TRRdCf2zBIeRYZ+ziPxiElCUf6+E7+qeO0+FClSwUEBJhhOrt5QjwEIjDO3P/30oFldta6zC1SoVdGUk740ZWgI0zA4kRYCav2aOOV39FAvlozy/adcS1wDhRxW9HNZNRF+kqbzBinW+xhQ9aacYQ52U2EsJ8yzIN6+56Go+ur/Xlf+xO0xCE/0PXVGenegeIYbyCt9FqYOub0iPwD3qIbcyo7gr4W+95/u83CKiTBKmBMDiAm4Qd4jKLEVyrJmkdLKv4JAgne2kJCMDzMO7O90l+DBGLFVc7pAu3RYyhkHJHbvbeqhOuNspZQW5xqDhjQw1JM1ZnFF6vyd38g16pOjXmKPAJubDhIJTXxOMM4MbnyLmqs7a8VRGK0Y0ZjNl593v9rTA7sYTOO0y0noxBoZM4DNgTxS1piSD1pA0A4MclGpgvCmBLOSs8s6ciq8EOzdRrbtF9fCzltr3nCvCYKD1XsFeoWgNEXDeIl4dqg1hUMEGmv2yG1UzbWma1YcqkIFCPgevXz/E2A50hRleDT27QPxBgwplrbn8f8bJcIFta2mkz8VFzMCLefzEa25ihawLVqeP1OyxD5UOGr+yQFIAa+ow1Py9I8NXWHRKN/ZqKN9L7SW+CWGNGD9m27VBw5yXW27mzfp9M5qn/+F6LryDH4h9EWr/LfUbsT2yuH8N2QAVQ1GRFexRdIidV83cCqfePYb8O9L0T/g/iolgEgSQEc4zz0515Ga6zZQ/f9ehX8u2YvQD6UyWPLObL4HkhnDG4RaepDTo+XcO1ywn9+2NMmV6Z5tohcTLMflBf663iGYF1KC8jwre8tW95K4ANXu1bac+EL2AMh874vjTqGvJLtfPGqJ8mvZXMvR3+3GGK6fFdKOBS2P401ovvdjRP1S7RWdPIfBZNPztOgfdaSBo2YGw6xvZKN3+J4dym6rAgiomMWVHBYJGboGDAxc6C8pUEaAW1qck9HMXhWN/a7bpuDyJlI1YfkDW6ZYR7ii3GJzQIuNsoCcraozc1NJIuF5trSN0JDFcoLccRE2HsNZw+c+RyZw2vvYHiUqCh7aVqbRRdB96rLbk75SJq7OqNAyMXdFdDZ2zd1go8ujLkxnUaGPl83nqRe+ALQxQyVVhUaUI0SrJCFjpu1GFnPyoy1Oxra2mgPEmDnBJI4CECxbOotkousO5nRavz/SvTeV5O0lBHRgAsswYsqQZXKqZ5lISRYiHkeMAN0LAgLABPghChpxxZYUdYAkbr9DWySTfvnSEk0xwBgHczT6kDMmFsYdoiSgxpfjqAu3ZdWprORRRSaf5RLq9pnApRABN+o7lu/B4lZ4c/rWcqXvMZ7umsB0wIzpiRVMlxvVyk4/L/NGNVLBQqBaNKWMPudSO8tsRzFy4McKrdHXGZIrrQ8pL58iSnl7T3oXSPeXRT8+f8sXXL1o5UB6UYfnxrn/HSmuT6W49Dz9qKFHYlsMr5qLyxWFI1RemaWAdJhc8zjPdhvYAWG+GrfGOtPDWbXtu/nfM7VH3PIcFZ4+TNHVT3otc3+wQGI6k4bIhYhVBurlhLMos7JuKvhRdtLRXvO+ponVxcpJF72rYJuMxsEu/iguFgZApwK0Xoh+/ZIyI2sWrCAEg0vthCY/1mphtnSm2IinhZ10+yohE31GSVgrUn9nekbRpAyCC1WUHPutBGffqtiGf8GnTY1De6HkRaXTXdHLhQu8530Qw9xLn7neld9+WxakwvVsuejIW6QVlQesa36hOhb/5jFiR7J3AYJukOaOQbI8H59Kkr4WqbQKTnVvb1eAm9okZ8KCxqPiA4ENEn7ekMMD0dz6y/XWQ5oKKTI1jGGURY7aIY2GKswKf9+bpwsZmichncTq1zFOgPbn3iyL4vMV+2W6/wk3myw8OqF9ZS5yiG46pTmaptekw9F1mFxDJIIsc78h5ltVHIZkFDjZjlsV8yihU+ZkJOw25AF7gqQltYYVdAEi7OBIYT+x6sdQhXP9d2OEVn0L6CvieutUElAxFZWIZ/k0ntWrTlL8KN5dCFMY9qzFdLJN2p4if/+yryhOQIZLR6H44gklLgCHyMOHcR3EV3pyVf+Q6kXwvCcwN3KOjKNWmikYGhJ0ekm4baH4Jhwn0IoU3nypECpA/vFAkz6OnJ7MKggmY8lpdTYAVFXyLLcBOQnPFRHdl+aIo/vwc/TiTisdZmnZFTM4OLdtONncWdGcBCQr27uo6cnnxVaAEbgKtEKmBKYNiqjax/J91DjNiX8yorhjA2NRlzE2NYzCcYAaav6DRItal8ck8aNbzxqInaZLIaLzwQ1kuE1KPoTJHivCehbjq421rSSDyi90Xvye6yS3EzEc15rXkTl+FoIo/uLpKb0qhyezObIWCUrFLzAFiXDo7U2RdTJCB5s9AMG/Cna43BQVVxNvIdMR1qX9fOsT0udzQqsSD+OjHe+r7wM+TgloTCzBgp3FayPwHAhK/eK5RwFxHgIkngTVhmpbkLJih9g81Ki9nBB/FC3QUiWlcMQ02kMDiym+Ee52v4GSeiLsR6QzepXm0XE6vFIVpE6v9Vk22VNxsd/2/n7b4zjtLQ0n2PPqUOQFTY0CKYdKQAMkxj+jsA6D+7oY7ne8T7Hi+T4qsMIUslfu1FEwb5QEfIerripXk72DofuHSqx24Pdv/PfM5e1BHfYDbldVjLBqEETCoQmqDBwrSf+0wPv/sm8462ob478EcFvLMXvItcYmF3jHpoI2lkaATpT6iYbf3U+TsI8UjD3zcpbg8j4MLUghIY5WaW8OCcFDAvyAocObr8B1BrrkRr7k0bg+v7tEz/2bSp3MBtQlgocgbAmdaaf47Hh1G7AC+Xl8hnn0JznM6yLEJdmd38I5rVG1Aw+++/Cqv1zfuwmPx7oPFtZJtSQdeSgfODKVeMxFyGC8uPmmqdg6iytW2WgDu+FyXnwIFDD1vyo+Kq52GHSd8WWmAPZMI8ItasoCQ+jE58LhqCFwYaWgwFfV76YX+9/A9vdWZNJjUg05xBN47gHfurZi67McUMidyOlLcrFblwHy5dCia/znL8v1SdCsAn2XYSaurLn6jRM5BIqvLf+Qoc6SPE4CuHg3WkFKW0eFe13W0GDmvxbVXw4Jjmo8m4MZCB1mhe/iR5ffwZWcuks0jpQiGqbl8Pp8TieQY5zAk5bxouZ7J4GXJuKiI64Dc/KsIYCFowHjXADwPiFY9oqvgnw5SNtp/+amPazncW60+xdvi2eZ7Jm6rUPLTJdt1vpKelD3XRBosiI1jAnD+/rLyBEe8HE5EAT8WI1FxUeMXfFv8HWOpFX26pICfT7KdSKfenQXodLnxKhiKQlXcw6cjb/Ox4lcAj7coyrv0IVzze/KVC+1giIpp49sf9gSsLDLM8hr4wtBqXvtrojRe6Va5NIuTsaCqLD55h85LMnoD3VXWkThxaVhr7YvjdnjnLDq+MHtEQ4j1K2aethPpVpe93QmNOglFwV+tULfRwqWEgnvBq0rrL6J99McY7Cu1pNursneGvmN53ToVz8m2raQJAOnHvWNQ+5tDeiV7/i5uoSAnuZg9ZBQ+LoTv1UxLy1kFkBz5f8Ts0ZsOwWDNwWgQVs/HDygJYIXHzK2KZzygBugReHUxo1C5kYy8ZJgZYazyDONw804o+ZxocTIr++s2B+lda7wPgdtW7DKuirV48Dn2BQyuulhzFTgZjgNI3Yw0t57oQDzwX59xLda922ZbFp0X0ZTQ85UAC1tRbdqq9ZHnvrS+8qT9zH9m+cZCsxg1wbeWCPoU+559zCiuZlnzb522LHtcnruoEyZj8c/4p5NQwVIROY87N6WcUYCC85gcELCOOW086BmMroyTdlj32vCBn2ke4ugscl4jabMBkeMgQdhzzJTuafplFPLQE6bH+M/ydtBMC2ws4y+rL7q2bQPi0PJcCSWQnLaPG95m/bvTTw1D2Dj+uOKa51B8KzC0pSMedNlYvnerwh5bUEgO/aI3lAHdVxnyNApFhdZPgmzS/va34ZPPi4bmTLFZYe0zkTCh3ckkMgZchNTPcfVKbHedmHdPTNxNNAMPlZbSOxqFSjaWrQn3+CPiMABA2PBlgecamx+pd1g652YxA1yWL1d2b8LY7coRS7QxQZp09oIsbzm9duxUSKdolLp5q6JRBV7tJxXthcB7VflmKGgSWPPf1BfP71nb8xKj5C6bCm02bcTtdkg8VPbxg4kAUO8RO4aShHUgxv7gzLN3Aezfa6g0g8QHkFHNHeWL5GnPWdgoq/W6PAMOKxq6kLQ2WmQP4sm+VH5suhs4Evs8Wn9yIiEBph3G6U9YANjjjqVDtPxDcdyvSdXvREMu1GsBLtci/tUgWi/x43Xq9gI0JguWRi6b8xVDLZn/n3x4dXrf4cFYqJFWqU/jO9BY0riltD/WOMvmd4LzZVXS96p2+87PiiKfW0vOyBkErHVZNTAGnstbM89NejvHHW4BfDn8EKyWzgeUDcIkYkbxVjQfhZpZUyEYAVvZZ7IIAOwaRjbXgpOEtQfs/kK8XvnW+yMs2To7Oe90YoXxtRK5HslmlGUU02jo6MGZxT4uEm1fz9gafeSt3u+qsS4G3/FmCXwz+JbiyXSplAtQwLNRebdQ9CZjCyspE+xBRr3VmAtMrvdVH/EEm8IoX7jo+0EkldEN2uYqDCsAObHDui/mwV833qpi1WGRlgkALAcLsoIgQqIUk7wm995LY/Jx2e2CLpmExAuqRSG/7CYUaytimxs/4CSgHEt+ZD9LUbvRAOsJ/cHSac/XCdtonKbKDeCKVJ1RMALFngYz4UNGF9LHHkBKVxLVD6dN63D7ONpN2EEKDLjy2JHislXix8z/bBOfgTLqpqiJld35zG8+roOnG8xo0nvYJ3+LFZl5hwX6hyOoskxUiJWv7nDI+B9Q/Lq2CbnX+tsCvSwnCUfthYETbbf/+AVtuGLNFKgtSq3m68EzsoKA+POJgnzzdbYlTgGCgtECjnVzL6T0VcOV4qMkLdumSuyqFfJS1B8DPC2qKuKsxCN8pt24TcjasBMqgnS7Cx6dCy7zhulj/dzA0qaT23BxyuAeopQa5pUsREaueeUifgGRFwVuFhwjrrO4nA32W1z5KEVWq5JBJWyrlsmfkDhjIuwDbSK1GPxZVJ3YnIqE9rEk7zBJ7TvjJ9FmolPblXc5wI2Mge923Wth0x62ShsYDah9KwqXu+hNjVivi3+jB/UaKqeBeghszf57cCoVsxsJ8OpyYAcZ4MvJkX5etTmdaR6geBThvvd0z87mj2aXg8nzo0u2hdavi93QCnsFPkEZTFH46cpTJjHA5IeH8QbvcPhja1w+tM7JT4KH97NPMINKgkUFRjpeObZ5PyDQaAa/5nk/EfG96zvtoTj0N098+Knv+ZQ6wSKrQQe9nrWTBMjV0uU1/muoVHrLXizRfP5Rp8fs9+YMw+4BKrjj9bOgMrANiGcDIrFV5eJxeudC7+JLk6d8c1lyTSGbTkVA2KvjUYrYW1wEELtP/CzcPl0U2coOE30o4A/SGQqKsQPwJdtgDs41H7UKG72TD3IUVKiUi+NpOs1FeIUl2Ymf7V02W2FuebXEvGxS+5MfWuSosUhHQ/H/vjd7b8fHIxBP8tybIxKft1wMhygzzVTU6cmL882ro1JdP5hBYZbcIKQFSdjQ06rLsp6eewHEgQqEukYoUrIxRhAzUHoPgYI23aafzMXs15O+sExpfsO2DqUZ7wxwLqaD8sySTPmGJa2OSroY10/U7nWBE6gmI6bWoou3p+N0X7YQx27+5/5oMlCIU4Vw0QIvMBGU11jMo/dKkm61NOzxyNGiugoGDHPflWNTYBkwWtb8BzSApRLfVN/bZM7dzApqZ3+m91vs3v4KE3F8HqG6SqTyMM+bXjCbLS22vqUmcA2v3oFje667Uhwg2SYW3e+tbolNzPUW7yJtsTyxesHzowEUTIS+FYVC62Zy4fksvwtJRPhuIheqtpGnGMqtjfXcc+uo3jmXCfDrKezTopc9vg7Y/3JfWYy7zDPV3UYarrHlkTv5ksQlr3yJnkM97WX/omiGNelgZwMChMaGH4s5aiBAlND7tZYpQgjNnjgSOYjhhg3QL8B1ZYc3avgLxICK/gTPHl+qL2Y+HEyu3sXVq1P3aimG3yPg+0HSzEl7EnEwFmEv+eNhPw21cZVrLhPPnAHfkjZv8LoLl/3b8QQl/s9wwU64+n6g7llHGGAMr4kiB8/YWcx28oKFqbIKMLo/V+oXHWgvjgR5zKONNa/iX4GHwNsefDcPay8YARrv9T7B/91t0+GvstkygD2yFLFcbZeaZ9mRD3FLNgAjRtN/eKFrbH8rYKCfSpvxEDdS2SyCBKetEc7oc+3ZNK66oaO0OiOixSgOjDYRidoeMRSOEAvSI4QciMj6pChazusnK01Iz+ZHPdHpLfsR2ZrTt4Tr0bi4jdF0IS4KN6fyFmLnR1Q5vtZtxxHmBSrvXtnNvIDHmSVQczxPz6kyBxzBTEsZMhVajtEo/BbuwoS1rZoxBZdctIU4s7vYtvwpDKAONODWcif2SF04rAI1yeDJyh+4zAjSju6onIfhIYU1TQPdFxd3GsZozMk8xKQSY+SHH7Q3NDtNTw4mxhMDl3RTRxsLq69yMxK/2UqS+6hERGhnIqRKVh8Eqvrk/5a36260MkHTAxi5MAkBRPjJv9KQv+to1ngFvmyTad9WLKNfYo1BpzX3a3ExRql09Fd9nuY0pvhZhVK4nbcRfWbbjnP0ltc3LFJ7P+HCi/oWVs4rIniI1oFFpxx4UUj7fJFgtmX4kVdb5LYCHykrJAuV08Qd9K1H25riTG10faQzFXIeXIdYhAhk/8GF3kOGL3kWhXQjeJqSp6lO3C/Wrcp39h7/P+RSC2spl3s1yUcqb+mojsNXphSzMQpSo5jzPmc1Y9elIjEpTMmR01i667UgUiXPiy+7fevh1Mhdc3K9fMKIjbVC7tLCP7raRaTLIknNSJsIFAbhU7A17kKGdUHiVjVKOZA5zwPb4L2Ac+7muFXnW++ZpFagzGvlvwiv1tSheyBvKoRkg8hzdL9xiPG+/jMFKFcK65Gq3KWMWYkJbskRZgk96I3hy+8RgF96+YiY6Rkipui7mpDc/fy0jYf1uq5FxP8msCbuGa+XdWhrSjkq3bMQi9cMUbQvuOrEdjMe0Uw5yt7A+VWzCBzdn4hu/aNdP/kyWk2adrMSESvWusIgVrPO3pD08K5OYFVxUH96FHJqg/10QWZfrthDKQ3dvSz8eQ77BlJJ7XTmja251xWB0RpDug1+ssIUMn7/QXbM3f05x7cR7I7Vfw9nBO3tH5heF/6H4x8IIVBaxtxR2qvvm6KERY2KxQyOeAHYaeP49vgBFYa14VMMPrD0LrS+18MgU0ybFBvDak9MZo6tvjzWJ5c/V6lROwJeuu9iTPGhkN6EdRm4MNzPtSBIuhLlt+m3AnZyogO6CR+EhTowMRlBHpX24LxLklf4UjsCNbaHRfR00YEw5f7qZ3eRL+na/eMDiQdxnP/QH0759JZkk7LoN0ggiihwsQ0sotR2xDmTP4kEtTyZgLPoTBC4NbjvaxKVaRn3jZFHH84ochzX1lkxQ4qpoPrBlpr8Lld9AlEk0zQjOwAom2eSVpCW/nL5bEXbS4ehvfDW/vygwqNosg6xk1Puyxtz0dkd4XbJO7WduKsFPZRyLodx241EtqW3ZpK+QfPoW6PZ/bjTEz/aIi0Ps6a8CKJdyouJCzzbvfpyCCETddCdq6Hg+Fuz9barsz4/RmMQmXo2qIcyl0fUV2ZqtpCNsfGprulKNoscTgjlLziY9zKjiE4rapnEBPyZ03CuqnsA4f9Vmufq2FzlxvUcIf7FG3X2LOpSPb9gQsVRu9qiSy1/lwLyi6KxqVzU2R01M1dCQ/lxOr4RlRatXhmrdgzbkpAqawexJ6KOcxNYXMHfN8+Kb1u2ULtyANOjPw8VHEbHozKpU7FeNnCl/MrXy4uCFI7O/ZSBceMcGIVKyIjf2zGrWeTEXkWo12RAaI8mOfwsehkuLYzzHsZP8k5K/Ao1xiAlZM0/yordzK20sAEG4b5Q60CgKlFCcQMagA80PPXcwtbDEykCxyunPkK33xs6Hsypjg4QHjn0BNXyhFywYidwAf+WtsUUoNpXm8jCNQnefvlqeP1Tm/KLbAyXW3KEvaqr5iai/tA302CvZb/ZTg9r+tMgI7F0ZpWxCei1YkLFDWP16LIZLic+oEBSV0ToUpFuMWBKNj2dmpF2AqNV7b2eAI9IkQHa/elqCWBylqPYEJxvA4p4Y1ipWRD3cI78zkTUW6TVO99IgvYWN2OuBBhsZSiBfCsCmNZLyvbWZRSoiT28SuYGXvQiKvUZBAACuxmeBGsMOxV+cDN/fXUUVvcXLe8YJB/vUDaqbXaQtQv54jei2D0r2FBsjVBfMphRccBsvPRXT3CAIWAYkrtPNu9u0xEmV0DbIijZhza3N18jCtdbZIR7MU1Cf4CMWmmg4tymnrS0kV/K09xWluiIEXf5HhjCuhB6+AtG/MXR0iyJVeTrNLFNHjkwRKainWgLDHgIVMqyMr6+mjmIvyY3+eFDcGw+5zy9m6pX3nANcASVuyAKD1S6wMHwwgHjXBJRBYM34eljyeUfVVwo+OVKOPxAyoV3vZdXLcmt5ua9ygz7E9VkIgECtFeBueVbqrU5FJFukzwhzOos2xzkiiniS0AP53GKLLq2EEEjDnLXvsqqwQE4RKVW/3v2EY0Uw93tbQ2EnOvBRRjTBINAkzzp8cuyeTysPlJjBNanWMDL6vA/baDEPsOlfcgrr7G7CLnCFzSX5WtMufd1z9c8YNLE72k3flOQ3w03C1rokcl1wb8aOCpPrcnnOSXpaaIHKMo7mVATrX/hQT2t+uA3TsE/9PVoSxg1TNjSrLqyaJjCtIFG51G+VmSg46zTG0oLeA+1AzMFem1V+OhgMsj0evW9AVzgVHNgs8t8oxlbrjIKPYTvtzCbl9OihVQ0RIT8hL4ywEx5AZ9LP4o2BwatSj2BsFVM/lWsxCWum4zehIFcD/NR/8aXM3s0udXYhLeox4Rd17VDJ13GT+6aLdTEb4Asmu0oqhiivzvpMNYb+P83G+caymrk3ADA5t12zSRTNLgSJwfTvhxEu6969YAxoTbiK1rR74NL3HrbE05Is2BaY1o5P4q6u8YlpqyypyhOG9w/FhvoXGZx2er7FbxuteYy1/5G5lNHyJIuBWaZI4zNhfRG1jJoa60TWP0/5S7T6VdB2R2aMCWNb4B6MuMydAOT/BsUZXpvH5Tmb0RjssBV0nJArnDg/5OpATf4Bt9abaMbxsg/fqjKkjLbz0rNZvbLsTgE1/x03x7C2ZJLmzZ/J3GnwFMyaQCyv+I9JV0nSIbl+EqaJHcNG7vZPVNO89DI+873Z8+tnKZFsC5F06Ivg8squfaeBU64dbxb2+aB0V79mn8ZsrOM2riaUus/FS131vsmnM/CoIQoVemlEpvHQx+gX/GPvV2YZ2Z5V262RvJ7/jgbWWoXjb1O+BlXHKXI0wquLkZbJzBkyBrf7+iOOf2Cr41TJMTnvb60oUWwAwjcrAw+yc/GX9NsklTpw2UZpfFhu43OBpEjJxxF8JJCiwWqpbAYE82DzrYUXyIuOvGzaRaHfSwIUTUB23jQ7OK3SZkx8rhGvYmFe348zsM1LK6Y9p94Bm2Llkop4xxbNxnCXEoKq2Y0uFYD/FgpuaXOuro0FjnhUvZaRdEARTc2kuBk2eT3SYiqL3mQ0vN1yGdy8tOnwtS3twFWtrWUsjS8YNSg2a0xBt/heIHhFQspZEmfCfMZtKS5VcaJhiVta47jlwTsGKImrrPY1sq4XUOS9wxuW9iQv8VSH4x2ivl4AIgegv6qpQ/d7nF78bPJOqPKaFsQTSBbZrmukzc6WORdGuDJWD6y2+6P1NsowR1CqbH0/o/zhu4RTzteZVJ0/zL/s/dU3qE8Ytdl77FN8iIjfPs/2HrJvrOMeNx4L99swQEZjlljwuxBO3H09W6+AsFMIo9yLGEiMRBfRRi4B5WpghtAd0I1TjUkTBfeah9duBOUvhsM3qRTtdfwbYjn8RDPG8uU5yvZ/x0F3PoSmI/H1BT87pjsE93MljFNw9zIaiYd+aIdxleIcVya3crT2bde3l+DtXZgFqZQhdb1Xe7kGwdDKz+9wMHkCYVLVDCjwSPK3BM1ix6c5ENKgoCxUT1OMOVyMJENsTR+Dy3Qv3YF4HTQzqOQJAEKa1LH68csP2QumJz7yPpqlA6gY3qzTxrV+d414VQYzOGATqr7KpPuGFVMuwsj0FPExvoozmDJxurSkqbilsL4Ta8QskTohy1ZleQV3Ub6LhAzBErImqpGUx/CERGoxmbRZ8LUbBg/vSPd/EFrOOCtB8MRQDlGEXX55ZfJZ4Sj6bZ2DOb1ZpYC9L1hlRNT0kEOG8ZPv3Q47Vuz5A+uJNNkHGD/4tInN94BQN0D+EL43spc0plT0NQIxz4N3MGzhKNYoLHqpNl0Fe93ZQ74wBrQCvJzCNw6lD43o5gxuISn/ndhiT01FlsfzmfgUICeDywh2tjCm7WVSeUe0JMBXBpl5D6M54GpYfWXGYbO1idgtQyxwaNo1m4w5jr//OcEkltLJywIIEwzf6t4GkJ5BET1ZdCPcYLfY+0KYvXByDtWCovbpzbPPmYfkH32yLthoqGuwn0qkCnQLTKiQbHrxiDtV4NSVFcsGw9iuc1Jgl3Tf9FF7ssznZyDWKIzcdGrFo+BEjHJuurOKsMggci5x7P0/AsSC4GC6SFDCz9v79ZUbO2w9OIscGh6VuVjWUdomJs4sbfS/3Ewu7UIAtpGcMVArSCNJflorQOGuc+sPR7wAnuBelqFF+iqEjgGpWWCl3XkN5Z0DR9RVCCBx52LDcg4eMyLeXHpEmJqpMEtrtBhcyx1hGk2wXWYPZyLnmjCwCpRWl8C9S1SsuwNrJ0PJR1e5sJaR1ufzY+DTlk5pyr/vVx7sjbAMF/wjve88mJydaoIsBYFG4TbKqTo3nhUJK5P7bCkHw4M5STZMcPcgMOLN54llXB+O/xvpCqBzHRH4+F/lVAOrSjP4wewm2V5meDXsCLmkyWt4Xxb1m1fO6RWGTZXw0TCpcDMdFN74RWjm2Z1QZ3FV/KUkcKmXBq0GpIcCrciqVKPgQMD3ffBT9KByDQ59rCQWGhuu8xmlsfUOWsueUwm4fdLMPSAvCm5npM57hR6SCtC57cK7gw/efTdHceteMn6PIlgajclZHR7KEAMK3Gixk+VGXcct8haaeuOYgF4KKXmbEOd6ubn2G2SnAO0TcaQYNJJpOBHUzOZMkXqe0VRwLDFEkwcoF8mX2/cXj6ShBd92g0xNN2fiPuUiadRhWdFn4/br3d1x1WWV6g6USGBEvDjniH7w5XlLd0ce8PmNW+qcLHuP0osO4FjxYXLRqUmlUhYV04jU8PezMkv5EBp7m3YHxLBMtx8x7U5eeRTPHj+T+eKAn/dBmACtGL2yVE6uNfGPi4O4UWLDiL4C+3mkBzEewg2eNSkqv7/wlJXShtcMCuSo3jC2TmrT/4hB8b8kbo+RAXJjTmpfw71pmdLjrVv7cAtlK4LP9yfy655eqFWjwGD9nA1I32NOaibh7W6UzhDYmT9rLOdJ2s437fWraPPWopmz90gBGj83gRuXSnhpJgFovKjoKiit33eEeeGhY3RiVhJlLUIL/ToD2Mpv3JqPsKHKqSbUFTNQEtaYByAE7dKtdiffV/DrEHFcEMjDxJQVYUq+Cqbf6BwzubmgldzeGliXzMYH22GDS0G2rXdWi1AmfVFJif7bkSVSRO+wcdyz+nkeuSUdvNQwj6cGifU5nobWelBNw0HQHcX7ePrOANqXafHvYrgdWMAurFMcd2Ions5/Xt99PQIFT4vSEFePfha5rulzzCAp8r3fxgEptG6eXJ2gYIqbIHmpg9HA7bvw04dKMsmQRmdt1ODehRwgbN3/QAT+c05OzCiw/MYYB+yNmBolufp51uhhTEX0SqYYTXqxGkZoYOHdRfKr6qh+JmcPp6n/bEt3sSwUXn/kAXPOvxiRqg5WF/a/75qIJzlLHFzsxEIa5NPslghzfTGEUcuI4eVAewZiLAgVOOtSpIKh/+ZewzXLTnPBjAwz+5hkJzYqHocCmp7XygcK943RMPZJRfupTr7F2Nu46lOBe3Brmq/I7PId5ElpuLeyR37cBzPznILSNCfgAzQShVBOfgg/1dfTyO7rEw2RGT6vmFjWBQ7osKXfzBNdJp4i6TNtVriYvJFCtA1NB78j9v+CNfWMi+jd/Ff1KKR9IoqQR+i9TzlMyflca3M/vND93z6A1zNmf96D8PmunNrbGr/gLvBv8q8k6F6rxeFTYw/8so4fDsWQhL8bhcd6G62nuvVRjjb0GaCpnO7NAw+219ecxSVRca8d+Buz3AgrgSvi28Vo5xDC5f0xtx6MS70jQL15G3v/9WFb0QPM7a+/7haGHndm0Pg04tPNP+GJ8NeqEVZofNyheVzA7ixjGFfBK3lx07P7A3F4wD+1HI/KdDLV0+YJgjNg7n4r9S7rw7avWlWEoPEzPHxDbf77ETm1QaoMLjbAL5xvgJpensK01emIXcveD3M8Iwuu+eYE1LpEypu1TTElqltpgSFFhNps/nKWPvQ2mNMojvKlq9bqyqzqeI27+ZSJSatfN2oc2wWe39Wa4/XQT5Bm9d5yMyh5gyKxpM7xGnY0rm05tb2drPbnNfHJV5CkfrSWnhnTDbJd5es6szD7XD4hvslNJx5MU4IOQnseXnc/CQ+3GXLPGvUUuazdEFw9yUdoXZPRoNW76SVCSNoZ2SOXN5CaBRXG3XRP/4k3SeAb4S+9wGNLw/4SSwUOuG0kfsHezvs7Wd/gRT+7LEeAu0FBYkTpdEFDxsuh/mL2TMIqZ4ttjiKHiLK7IPR8lLZsreDwq05ndSPxapQrMykw0hN0w8kfOk9kZsxNFPuriL9FMslW5skzIPuaZWBrg47NTT+igOOZbk/GLXIbewlDsNSGMpKDNZRey3ZQHOkdvmlPDBHMB+WNhAzr1R7wibWFr08UUTCnFRF4OKT0LGNjU2fjW+GOoT5YW+Y71DEeOGtgkRBWu8dgM76l4ip1hjJXzPS7h6EilF2dB0sgaTFlrZpjOdAmH7xjmzvBqiBAcvJa4DcCjaQR4Bz3Lqm8nYaIv8jnzAgJDWJbjB4ZEJtxrtniJMf+5fTIhd73pqNYJsPOdY1cC+lrfh51vxrEHKlCDFV1kwhGZdbXVitlti6oPPJ9oE5qhEsju5W54KJMwIhMMJ3p6k2AogZ36gMDKt9WnFsQ7v1wFI+cA3aElhCzzioaaM2zky1vXb0vPXt6Z24tGFU6slB1nYnJubFZm5RYxa92DgBQLxC6om3+b6AqAC2Kp83PxvH0PVcEdL6e6Z4nJg/tmWmCieVYE6GCtsJOoMmXY0wRRCR+4OzNX/QiRBpwVioogIFsklD9PAu4jOPXT/ZXGyGV5AF+WgyvH8F683Ist5L/H+O7j3GShUWaO6n09S7lguKcpgnLtykEvHv3HISGSevQgoO62dIkY/E9IDEPAPRcYkIIvlrWjNzEuaiR+Xe/WpY3U4+LmgNPsJvai3BUVbKJPmj9c+IFfhAobPIh7YU1uPxtQas+4pS7vpSVHiegmSxo2jdUyl02jB/cnnP5u5xInJl0P89BWy2wAoBzZd9tuby4lThO+Uv67ArOsZiM2gMGpGrWcWQF33+NHdRAIyIwVJipF9r4eKmq2mdaKQFtPDX3utiSQ9fPOWgS1fuGT+5id45ttbHqVGPUI62aFHA2nkfxm+Nzsx4aXUP323gk/vV28I7DAFaNPBfWJB5Ujppk7OaD5AJ+I1itg4CcasxcoTBmCtxb8i1WnJtEBqhU+LNW0Gv6aOdrMnHKT+MZwV+M7yR0b2L9AbbPzX+xImKtsnYAz0PRg7lywPNLUw4qzBtoBgAMgFgBVZizm9FDyJ/caVM7N3FCE78GNHPcjCEwxclrzgTeHMwefYU5Cp3Q5iMUdvNbEuCBq8pPOwMmhwvcMWGw4jx/86uVSlis2nour7EgibyQU7EJMaLGH8AKMrgssukMYNFAIloPiBJ5RZ8va3vjqFOglD+9ETXma8JAnWBPIMN4OeDWkU6jPHGslgIoyr9Lh7pdXMZpcXPnqXWoIZb4V1DRnVZvwlLsHFv3uNHW3ieBoxKUsCfWmmZmrGh1uHwINx3rrVa/b53ib99xSIvE+aC7JdWpH8P9wlh8APsx7c6kfvWSr2AtE9emq0dEdhc7f9G8ZNCw57zuJ7pPDlNXm3ZnnFmqGMoZ+CImLTuQqSTi/UH5qbYCt4/23TLxwl+w+OkGfJxZti97vgjuLg9IkszabUnl7e0SSfA0J7HaTLo8kvOmO+phsjWnVm8jpaCedfBN2cZJb6Ag9PQbqheCNd6oueWI7mXJL9oW+oH5g/rJXRIa+mneQmeQKPdzRWHWFlFMeH5upA65Du6UJ8yj/7+wAKbsT3L/En5y4bu2+3oA5BDrBx0UtojFDgz5jFS5M3oT4Wvup0smLr5Kc7jh95kekXmPAyu/pCsOdgCyBsE9aRj/nvpneyNX4qToSbzNZFE7Kyq6J1U7fcEZ5BGVvKRtFoohdYTFmgwMvkQ1svEQSwg7lZ+9o9jTHn1lVh6iuys0RuJ2o6IH/4wEIhLABhwwjet4tbYxGcAyJI00ZZy9N+HGiRj3evLkm7H1iOHY0HPY9WNZjvDzeLEKFv7IGcAFfgnRbotoCYM0OLgkGdM3Fjyw2REvQRuJX4ujz5p0kQ3XnW+5D7Dd9jh1mMGx74mgJT1QgOuux2deiqWr2L5IkuRZbYxmoqqHC0i8Ld5JIZ9voJ41xUgI9sstTTFb0ciUZY/n2MBl+8Bv9PrDzKGF1BcmCi1eUlXJKgUNYFWctVuN4+jgMkkW4GLyix43g54lIf0YAz6Rl/6Zp+dKXkn+Y7Q74DhUW97EjtO6t9xY6+kpjznqMm+xKsQ8OI4ZnoV20r9texnzlRsaHxm3KQgoKrPkOxWYNmkb3Qt/WGo46Lh24uGcOqT0mFrE1wOrxgShEe7TbZZZweVhdC/Up8yYWPwGNMGPMCH9tWE4pb9cWhtouTHlZkBNMwoxH5j6XK1YA7NfG/RhiaxpdGv0TPXaLxdtNfUTojMNTmP9FogyCw24+/vjR6+flYnporR2mstVZH+P5qdUZkOWTSs5oDM1ypfRv+vNvIdBopWGQRm98EThwcwYTdhb27YxSG4etQZ0cvUiTr1NcvWKUsKF+SamZPxHWhjV6E5hkHQgjO26dnYU5uNZ0aZADhwvgNo6cbfplRebIeP+vL750o1K919cdlKKAUR6E4xyjmD8hvfR19ZU5vnTP6Dndononpu9+SIfp/zG74oX2u8LSs0wiGOcGkNzllPuESE9WWdsDnDSmfs5dizuZGbZR7tL2efnGQ5iy3kPfNljayiIQfT46r7bn5uvRkusss5jwjDR+P46tdcWkcONCRQdBkU5LpjGDuG/Fz8oStrzQOiCA8Ccvp2UWdK+zDoxmfnySTQTpechah6JEJTo0/vA2mMu2lGBWvJ5/9cMoBlHqF3enwchGJ5bw3DOh7/MrWfYOZ8J2nVE6zbyRWVqpqdyUl4Jm7E2R62TudR5cUOByEC9gAaw03ssR7mGa7yKAfstQTUOX4ilKw1mXAJSJ+P0nbNHvZziZ2d+2olipi8QWysAxcrD1dALhYWycdtgNqondZQqTu3hLU1vFaPiwfkVuKObk+PpIU6kNWcl4lnf937PtOazvfOwjbtv3qnNyKep3ZvJvz4rqIE1g2gmhqYapeq1AVPyCQDcSF2m/wCxL4igJjNfYjYpJ4K5iDxVUn6zbhqy9trVlPo13T0Qv1j44vwfJswmHIxKS3u/Cj0Kj7I3eIwTgPD3c+mvz8XNLUypE6q4y/nt2rnefrKO+Ka5REBdGIXH/oT/OACMjub7kCJzEbKvi/2M1yGZlpN5ee+lMaUlY4NlhrPLDqHtZ6BL3nDOr9DXX4vFuWtD9J6cB9vrJSK3WrQNxSpGElvKD9zdfJ8D7O3UH6ypukKtDW+pGkDYdWO+Rf/9FJbl8LOqGD7BBdB1oKyNhdg7Oz/DBCcwkXUedRgQk86xwq6yhc2IsntzLjjA66stHwzfwchTPg6qdLE6LUbmah2W+DrB+i/LdsI7l8qOvyBRst8gnLaUN4PSHZmnrJYweUZ1Wyb0MWNjUTCNFza3Lf7evzb0ECozz3QAIMsLy4cL6+SVXkNzyOfjg7cYtmFOd6R0UKW0szO4lyWBCsEUpyw8hd50bU2tlhoRYflGbLdgmU6ekBX5HWDNkxcUBwJ9cjWWGj0R9+ty235lrHtp3LE51DMnaijJ0uJE6GWmdIscHhK/JPQoMOMKqUHQGAXMFaPipGdO7pvlqN0gJA//1xgEPByTkOPeed1HUp3grG/TSvb5LYS2+XWm6lK+p7xq8jzXO0Ci48tNt/IX+xOp2mHBG4Z3kla/H7eqcygUCLmJET+VbU3VobkQQ3LbkgnNMRuxW+uHShfTLNOJYswPbeI136aIMTfFLvJkZ6fS9dJJgAT5L81Q2R9b/rwf6uN6ui62uj6x53ZO9upnxs8aFufF+icDuH4qaTetzBU+QNd24SZm74bz2E5T/qAAUZPblSxNiIthmBBD69JfwElz5E/5EZy4IjOC9dLCFOwaHNAnn6CtrDDs1jXIHTAUW/OYk59tDlZeuiFSc7CEdxOHIW1FdBQJ77tGvrKt+7ckDnhdpSG10RsioQFQZxL5PAiybkeTBpctl6mTHTZZD7wKSdyk2Wef35IiJ3lDzbK49LGZ7Nck4006WqhlV1s1wnz+QdF0CLfWyqBUrjqWItOwjfKv2/29xcm726YZmEj1fc0psAE6R80fyS1UwfuThOIqXFfQ9w/D+O14M327iimyyaB0/dx5roCb6heOdaN8YO3JDh1aE3RF4e1dC4v+UjgsdJCoNdwNVWbdJXci8L4hxAqc15pHK/VgDbOdNfCseZm4R2qiEUZKfRroeRsHQBdxUjuhkPkCbMB+v7Gx5Eno0gW3zxFoYX218CFrxTqXR7/RREqWZjVDy/ClB41ykXojYOWstV6FoMHJacxDZuJENsF28nFbkUg57QDWkPVoguqcY2B6evg6uZm7ZycIxEU5kjCg5gpqEMFQuViQrN1gSoedaPke9d9sjDzszqQuThWDSrCfY4p3kySloAByfN6mbx3iADez34cmhD5HgLHt4nSgpoEE2xrAZK2UO4sUvwL7Bw3Uo4V0htVsA5ArKeTJSnf2fq8dx6jd85Aqhsej7VZW+U8LUNNRApI5+gQHMMZz4nPq5itY3dIhRwg2owf0OcV3uJctGfv3+OSAtD2IdYFDvKkuEXFQv748NdSja9dhJxRuEvjppXn3cLR0fTDdKLNiFRwVez1t5FXEBLpydQm8SwY6J7pKaR4UAndJyiR9usQXnD0zNOD7o0rCg8tGhLRI6h4zFkLXkBtg6Edh685XAnA5gnGweKKqpiWRpsRv7H/Eg0DEwSMJF5WxQSn1w6xhJi9uLsSFGRtSkLzC6ghosaZxR+u+xPeB4WuLGVL6D+dvwkUkXPrS5GCTsL4QRwrzocauY75fOWSWOhmyBGxdumhJQ2HFUutUg+zNXPvG0om8+r+DLUVZOzx2CfzPXyPb1MMY4z/0UNGoZmO9zZX6TEwSYLGH9rUR48RRlsANH55ORvuA0BJQuPVcCCoKhAdS3LSyqhGa8wWetkKAX+Amh7RcZWAfQybf2vqoIZ3YQ0ruE8BRHBFeZ++6NsTt3EanxEOKGEvExW6wqHMkAbhQY3glNZOmyXiFftx1kbWGQqFaZd52Eej3mlbkJd98J2iO1DPdNSuIeaXnPYJ/tAcJmta2LBQhmuvxw9bKHKQeShboKaG36jRhWul5RC/dUOhiv55QkhT2S+1xUlEsWRnlNksGs3bwUyjO001ttUQVsdNUlnKE8+jP8ymqd+TrVyfsfrYZyssj2sY2jubnyyZfruu1yY5Arb9+doQZ5BmMJ9VbEKD9CQ18zQMX6Ko/jL/8uvaue4bsgPIrdONuzCjlIew52L45FTCMaI5Aw8B/BzGBYBLpY0GSoVDk6xN7+F6Hhgq30koEx4YEYCmzy5Bdj6E/MkfcijR+KKvJSyAb4YJBDhlaoBUQb8OBS6cNUdUF27wTlbFGRubOlNC5IuK0KcbK63CNERBsRQA61lOlv2znU9Jb/Tjy1kE1OtMzbHq0nm/Mn0hwE2iw1JTmu8XGbNtq1RiBcTWuNpjY545sqTc/cbUzZMdMdEuTy2z8L9JF6vscCkuYCoymb5mInmOcg5ImbawQCayO9vSrxwHICAHAx3TMLg2t1X+HcjHE9hQoJzpY1d4vbcXp+zecTkYN4phQlK5pK4ODHRQGh7hwbQmkpH6LpBg1Mvrp3fEtnDz7tZzDjt0HlqgGrua09JU2Hu23Dtll8Sl5GSW2AVXVDE54i+lAlq8JIPRGbKcnr0iQtO9SXilos2svDHmOYGBxLu1PmU0msuWRIIxyDYtEYvI/EFFrzbJ2eHZVn7XYeirG9Mg0UhRY3CtdAb+TBG+TLNRotOJBSe9TcRxR0lyEJCeNnQQjkeXDp2WpZyx/7h7czfCUxCex47xruN3qpFQD+djtWawU2vL5p9g7znbfc8H+Fu2mkafVumht5xPIid5ID7lZDq6WXOmjmoLQvsq5ShUkMdPbXl9E0fQBdbPO08YFdSoCLClb5YBIm535KobFU5M3p0f9AXT6X+8A61NFQsLBf6WNiyxli6jJo3c9EBkNjon6Y/hjEuh3lOUEFFw4wFFMYCLCVt2jANjW2eeFY/lowMy7JLqtmKsJrZHDn5c2z7j4seAiMQo6e54Bdb7AFxk3IlvWwdlBXjvsX5NL/x5UstbkMryLWT4ZZWuqgKP/WqUT8anHfiQm4LqzTNH83M2YCJn+vxkM3mDVS9GiWak5lZVtKlDkKda3U6f1zHF71WUUVtTNJJLpdIJ5CyJAytXqKmp/xm48WdLcG9VBVNTjr3cQKcYP5CHapYAkzHyxFXTQmYslMz/FmC716P6fO23ehQnUX1kqVhhyUZT7cO1m+L7ZepwSYR3SIctHBovtPvwgv5H/43Za3uqODA7faxcq3Ao3E7XElxIKrpPPqZr2X/P5/zYdh30f2LQiTBGJxmNfmZDnTv1UPqc5/ij+1ChZ/YakpOVT8706RrqSpRitWB238bsz70/H5gc6FEn3qEBwY4hbePy4LPkjMhMMhQ9SQcq1nHvEbhVOgoZDag68Kake9YA9Hy9ZRS8bH0xD2eoxU3VKp5meegzabSH76Dinr1UHbGzXKcJrCQypaWJ2cSsHuOTXi4Uq7AOwEaqcBUgmt24m3g9ljfsxme2V2rsNi8StUHTUWU7sr/JixWVey+rpVwZLUNaQ/OM/n3zits+3FTOdQ9k+mhfjcb2rBSgPAqEh77AY0jBKPJxGOOMbN+KpdXfQOQYGCegCH60MTuKQa/b/9RmoA29HBI3FeI5/PHbwL6DgYgNWZWTRVusLA1gkNvun4A2F4jFtMND35dwJOJ+At9Rf8kyXj94YujiBvI4kn6tLmGA5IIAKAzwCJBcCI+ZXHDlyaQMh8SWjyAurb5Ps+1nIZKLE8DQQH6M0KOzkBh2nkvgkrkVUEmyml75RxSPOWbrDSpJ1EgcXqdge++u6lptFlc8z7TmefPKsQ8qxuq36Ky8bKH1rewhvNt8JZdsVTcssg89K6NnR7Try/GxeMlv3RXNoV27mEBnY13sgchzsMoCr9jJtgRnyp1pdyjB5AipuAtO6Kq7A000PPBuRFyEzPhiI1xtJtagjpRqYyFqwmWXiU3w0f81lDEclnUW2E/cVJW2ktvFmkg6EFmbovWCUhyZxpdEskEovqsPy3peTFZiifv/2K2cAXv9HNKugyZ2O4kVKHMH/twRaSVqWx7KvBY2bIiTP5dZ4jKZyRMS+j+9Egfuf3fe12ud1GqTRTftegMZQ/qLi8ftDiUzlRQgWoHENgD7dqqSI2ohekIET49JVPWxQJqTFTw2U/3i0jubx90mBZ6IYr3djMtrjaai83lXmjMVGu8TA8RQ6Yk5JhckIhSC4CcftP/x3WbvXZ2pf29npe3s6WCtN4CTHdV2DWrt9B6Hq2Hv2ZF8Cyn1ayldbvLXoBtSJpcHFV6lYXTFN4f2R68uXvYsBEk24u+sPJzC9Xt+QlKqT6E5yYPDE7JwO+tujnAvW/l94sz1iOemXMg1m1BL8rXxRQIxmLEWdHmI1oN422SiUr9CJMbu4gwAJ/Ko/wjQXPczi9UZR+6zhlBFQqK4oRNtltdXrSsqQEJqQTFrZeSJNGhnAfzolLczpqFm5mUnqhk2vwbEAvS7agDUch0pNWBZV+NtCFWCGUxgZ66g6EowZtO8DqRwMelM4ILxggP2+/nbZTICNzKjr/XzOyZthqtKzVjyQ30zZn9t72wZuBtXvm+heYWodabpXJA5Ws/SOHgAfrcWxJ24/j16KMIgYkj6D3JyQCbYUzjwQWv+RQ21kBE7dm1fhtMl9xkPk4/s5/VxtmE7WlWIi7XmN4XrLxMFXVfbuFmDz/DQ2XGFvX9XYOk3OII4XO0TtGilBomiEScq5PxZ+DkjxrMmgLX3wNO+1kDVpPajV3Es5IQH7GJiWaRQKSy4wu5y8CR8YXoed42qPLZAZ/lif7j4omV0nU0ptxabtZC5nrzLs5AFDPge62jmRSgHTSrGzNWlmAshe09rsTpzWY9lO6KY7zrQkQydmtiMGzfFIN/knrvkwUSqK8txPf7JvlA++3G9Jmb9k5GYZhCRLxeUmJbAn41kjAOhBAG8wIGGzMqJF1itwnOTiJ+teh6X4orwEHmAeGLVO/I/lbuZfVEyZ6w2BC5OKHAIn4aayLcEmpXxfTNbNU7AhUc+gTbAnTZ7JqDJiBOhycQec6r4bwrywEgW1JwJpTOh0KGgXpjoChllOoIOGCzq3w1qP7W6kGVtH2/yvtMxDP3syAVXIDO0BOn9Ot+VXE4uKahs+/jNmClsq56TlAx3NkQQUcGBuDRMrYTRqXJP1FltVxYNt4PiPCpyTrlcLBzC4dGW97StutpzWOoxeXOZrLmY0N44fPWJTDIN099bUFiwE+O3pcoADoGFIBAU1Zgkauk7LxgcucuEuXu7hm4B+/yMXGZYW84qKsFl8Wms6W6bWX/HTXLUwDOvOHIKoFRlcOr+7uifDxTMLrDEw1a3UeaK4vxx9txphkm7h8I5jvHKpGjju1ACh2tqNTf2EjlebY+PuCYFhqmR5wvIZHOaf2JsE10SPQ00kJ/Gqk7aJCpIsOkzBYSeBgUE5BzTe1N121zmx8mQx/RkBSJhkBpMcZw9k2duPVEEDTIRCKfF6xSUhdfUfykrsTzoKejZ6M4BIc4bzThFwoapmVmkp2sfqqRfKj/s0Ph76PCfgzHzOmiBOUR6QR8yH96cF6etU+/eSjPEpfRxN5ptReA1kOiRmJZtC9FP58MKm1dD1lNXqDOAOCDWM4lceYU/1aXDQ4ChcB0rSBKRFciCgJ7430Ov+W7Gfqt8DBGKyRbSuZtrvo3kCuKhUn2+TqEQlP/zvJj0AfuyaXDMrEDAiIUccVQ9jIJD/wSWkDdXzX3Q4dwGR2FA+DG7dQamXA4ye2iVKQepjlzcF5fNQ6pMDyGq7zxEqpUjOLFCpwXONCj1WUZfX6aVJ8KAQaJCvwFlptRVdFc24pHZDgTug9OsLxPoe0aqkcd/rqbLmWqAA+UBDI/huMeE3gRSeNvg9lIUMQiIk1NCJrXRWtOt7yuU7PQjagi8UuaFAzzL7CIcjL0AHv4StGkC3O1kicrFi8WgTr+dPx3R4Nz1nQ03PVkdCUVHuTHP32Elmv7fSmuQP7zxaHjzpiAu9y3QlsyayBuNzantyKyomGOlPAmePkNRf3HlYLtGbT3kTKhhkUwJVhUerWDh26GVEO35Jb/cHIGFVlG24eLiUQUF8T2KN3pqd/lTtOrkhfOiEk6jZFMRXMfjW+21V81i9FuF+XxvCseHWbvmLLsZxsN6RZE5xUrPta5fNvjIe/e04Nq3ntCf/YlagiAp7wbB1wbR31rsdsY3JrqwVIRepo3V80mm/lkpPfuJQ86J9ncJUEr2/t7DFXIUaEj8FEujPjxTTDnJ5qK99ui56whkHrQJHCBU02xv6Xg8ipqJBrdw0yQFcs5MQWDf1dOgHfQQfoGYRGjrmr4pA/MgXnP/Pqu4fWCGQa/e04qZtr5IbpGC3OobKPqCPnPC5To0cSdVbcygIPtCewsVkPQ+H621/+r53P7JLfyuE+AndNy2NaFX3qDOC+M0tnfJjL9gaHxCJDjwm6NCwkhz1IqmA1dfcCVUAvzgTYLXdA20TgY7DHAEGwB7v3aBPG0RduSblAO0jQ1ZRRM37QLvbuLHngxZ3yEqu/bWsOCOJwjXBIszuuiNAzwSCorlU4nDbWvO2ex+S9YmMebeSI4N8V7YJd3GYUWC5dwNNe7LM6bM+PsUY6xcFKXpOeQETZAgg3je+lhMh+UK02rcukaVccDg9N0wUs5IgTVjQYuFCvL1pddY5DQ41EQ4vmXBfnfkKmVmBLw9wG8VFo1GXcgEjtq9XB2eC/HBhYDXMrYjxyQAr+L0ZrW6P5ZSpvo/5VlFKf52kJ6GjzPJhkAS+IwIyWhYvn3oAtFcogMuanu4QmCcd8uhaqiclC0eldyAJkO6UhADiz6GhNDx/DQj5amc1zXpalhn3ShktoIFc1K7zXlDNznp/iciOTl4+F2bBTT3t4QPlQ1RVRyxCYvr7UNP5e6Fu9oDoT/fXjL00lTgegZDVlvKX23cyiTChzJCSJFxg03cQgVVkFDJPVkqAUq1lpDtP12WSB4y+9JdOsMllh6zs0Hf8IH04IuABe0Amflo4hmju8zRwXhrqAmHXxfeYaOM1awhHQCbXUoWXhGGFzEellrUcmq2oz5P4YNNbI5ZJPdU+HMeREImKdDxSZlwD0bkx4lkedlnCvzwl1UcYvTdnnL1QAtDaUJMuvT4HybPOrVWGFCBMAlFmzjrT0OaI8EW2kmWGbj5Hf8Ib7ulTHmwhiXX+rHx2mIAMvEWqTejdBbVTYd91USnOZmGdY0ik6fizhPiuW1VESwJh+eaAOF+zQQ+J0Op+bnAUkg45xjjU+Aj0RT//H7Pk87EKNTMJO6cXD/69Rd0WHyjPjkfud+p+k0KNYAZ6xKr52JLX1HAK4gXlBUIxS4EoH+C3uz0bsfUnhhHSQ7XP9wLCLMKaAgIBIasm/vRWZOwk+A2soSiIDQgm0ldpdF2KIqoXJzJXrdmRTVt36Kn2i1RnydCBT3G0wY54LFVZQKFkWZg0DD5HueSNCnoaHeBx1MqQTnkIUGY3dmcWErRkq0UIoodvegKOIeM9pI5TIXy4kA3QKuLHWMU/RwviML0FFUMgQBsPDD5stuyCak5csgEvr699d8WdqN7oFeOQ/PnJmGxkju0uk9NOoNuXcK0ViPSGImQRC8072arUqyyoUZyCWo5REM6Ffgp7BhnkvaOEOjC69VVNxCF+U5TNhWoiboKDqoTjqggAL5B06R7nLF4gGhqkJIf9VkiyrC4bCbQQQ2vltkOSmxPcUMOOrC1t2CY2yFbC0awvVucEwSzMDuJg1Nqc5ECP6qokdZp9jjNEnQA2nqSjstcI7lhSi+WgIAu2hIu5ZcZJ+j/6aolG0khvWo2zfycqvp8Hxb3PHrecg0pZjwQfl1lo8bv4xTy/1frQjuAmOg4dvd8bGA8afSaID9AYRMU7FiFG7Yd7ybP1fRl1GhbSHZDOOd65DTPRn20yWJx92cyjtsDkXhAO3xCzxKvFZdf0BxudKlcQ/nch3C2034CNDCFe9u4/NXoZnv9HlYJhBPCg1EFl6zDx6Lza5B7aIWlbQN9tXq0UAz426ArQNn6bQeFlZbmHwJJH40tgpAUnrf9JhV+cjE5uVWo/ylUzzU3UDugFSw5sVba6XPU4Mbzue8wgsS4Baknwb9nxJUKxxhH52nJYom0oIFQ6W8g5n9UQhWjt5TbxIAskytdvdMiPUhCR3cfbs9GVmW0lIznT+porEWadiP5G8HXHIVbSAbYYn+CaKF72J3X7czCXJm8fKhX75wv1z1oKCKts/LMKr8oZww/dJCswjF5EKGuhQRitP6AVLd59LmZC5dQjL12czDRSmyI3X7hSopUMw+Hd8+ce/vdBv1lYGo9uJv/Wg/1dqK6lMmUiaoD7MduMAsmbRCoHgi9kRoFbKyqzJ4cDtXAIP/VqRzqlv9jG/Qw3CkQuzFRybZfq1SUYjvuGPiSxZXrtrZljNj5CEysKUVfomuUP1EcxJ6WD0yW1bBm+OLkM9r/PG/ACkoR5o56bOL+vJdM0sDs43AOWt1nSBY2MEOZHbED/RFVvoL5007SXlruZlJOOHEsUz529e3jii6U5VpoHwqARy1/IhCGmOZXSR1LaCzjaY1BR2Bl833D+BD7La6OQOxu8VmjvjRhc3pi9ufNZkMpvLUYa6U0bYsyTqa1AE88Mkv+I2dGYksql9CYTsJG/5A3EYxDMA9GSbYd583ZrIlm6YFF67TkWn7fTBdKq68/h94D9e7uPntUQOD4Fgnm14ZSIL2fkKSva4J66JqaT3aeb6Kw1rGfo93SY6kYrB+8Vx434pJckW1aPVFDvZ+9qK9iB3fvxIH0p4+k+SPONMa13TVBy99R7aEyIwBkgG1LWX/yailmjBU45b+T3lyXPUP9DFzSAxyjMkJjpVJFmA0dVSe5yliE3qahyOWxd4W24HcBOs41koWSfazfp4RkjGXuCvGu8s3fdzaSr6W3eMz2nZKVLd7V6JHwsxsSmqz0fxP1KPLnU9FBq6aSUxlBx79Z/1dqV+sFic7HsLihJJAJOyZujqZKK3rhcKrT2c6ofqRgdboEfj2/aTIrmT+rYEn07ZF9w3S6OgnYlgeJu5Z+mx0BT0KEZ/zSUPzxPPs6myzoPoYiSwAdzlks4vNqWKXkP0N5aMxCLS/r8LS5aZvy0LjsKUdKOyflZUgrFocBvnQW3ZYiZOFAIjuv5rRlX/yCh3mQjlfReeDqY4QXmoFJgpJHfQmj9jpyiEg3F2rGVYR2tuS00aDqXP2RSWl234KZO/oASigNPiuFg8xcETMvIhgw7nJEqXMgXhaU1uX5B1s6XW1NmYcbBc/jHhhA5eWYi/2PhlvRNichzwo5JMkLeGV1hnBbOmXpdLZYka9q2JLNBZH9WaePPgv4Nnin8+SVVNLfEuqCMfnYf6GPqWlDlCOCGkT+1ubbnb8AN5YTIXeGwc3PeY4BybbgyUSHgAI5KcM+m2Ctsrspzgimw7hvSOZ6Uya7PpE9tc69wK1/0ZAkfQ7fG2BK4t6vKrVlwkRpcxIw2arNFxlJXAJy6k/TO9YSVM9TFvCWz6PlQ4/OHNkf3ph9xOc0aBc38LjQq+zha7QRUFsAoF7cjToCaZOMrgtmuTcyV81mV0GiNnJ6J/bjIm1L8IBidPgd3M+PBDfjvUEwhAcWe2y0EaYitN4SSKpuuDa0hbBQmR205DzMCbklIOGDdh4HSXvD1rVKol2KyhYjhsfk9rhX3a+n0Kp/xp/ymDpztw18ftuGRUosecMDUoE9rofetIPVYYyolGPqaRtUG2D09/CiQxoU69MI/M6GNa6FjpykX8ZM5XV6I0TLBl/oCajLAaGdiIPd2wiXpCC4baCGtVur07qTcSArmveQR7Zq2a777o7qbWVmfRJixO5w3VWcK861CVaqWX2NtwZmORNzUOLdYjS8U44sK0uMOxki1jCs3i+8RUtvggbvWV+yc/F9mE7vBiLQAQ4DZGVZHVGRy5vz8SXwERTATd8839iLgZRZ/8LAmzfUhJChOwsgVK0jOwh8haaF2uKQPiHuuH0mJew5ZPYLI/wtGT6ypXHq2TO5+5t3dmRZFlc9YozD8uWwZ9KeXowOhe6OwJ2NX8bOsXbeWKV03yuj6fuefYC+eeg9wbzuL3UuGfR0D7OocI7bDWhi7B1yks30zGv418CFkJ5X4fq3tHxiTrmg/wY7iUVtud7fZAcBjyRDPXDmYyiprB++a0+tyFI5KcSbWdo+Muyf+F6kU14UW0xtMPSyrMivsZTzFIBLx1oV1vuZM8WE9QlnH0zBYGa7eFMooTk4ngEzF7kmBsnNnmgRg7aLZgXZenYiLPaK6DxWykbJMtPHpQb5tPw+zsnst4K4XsOzcpESovE9SLVi97vy+anz/5buWmQLROj2k4hiD7QzxlZ0iH2SYgy2tYfFfFiFrVZEdiiupIYtfaC3T8d4ppmgxLYcPvYadXfV7q7uWxrToZWTQIkuR5AkwbA0e+14cN0/JtT+OwUEX31cybNKPChW/cX3t7wR92SVNIvDid18hmH7sxa2cUoyXLmD173xcODdU4n18YBedKhNm3NsksCzxN/kNOg96jeB2ll8Fn8TsPJiL6bw0EmnitLAX4OevjYUNfO9fPaM3aq7ruTyP0/D161ADNO3npr64SKoo9x8M8hMERF8JeN9019cgdpCdfZ/1AYoMgrNoV0zaCcnk+tlJEO2vC01N9QQw8YIAyCtZATueHSTT4kwVQNnZS64EmtHAvDAkAN/dBZolwSIkkBmO1dVIbdZx9GZCDtpqr0lmRYvVZbHjIe9SRH2Z5S4q6OD1LYttICCcvVAshVPjGymm83kbMIsID3ZDxnAGjgLU+jFD/hZwYc3pzQD4UFW1LgjvXyFS0NKgNFObCjkZeYVwbIQF6PuHl9tes+O1gh/pCHZYIYAIcWQaVDYkDxwWN3ZGN8ngWnRB/pnbmoJ0djU8J6yo/FxMb2btbHGogy+LCCenUxewTMz+rhemcClvHXvPjQ7aoks51i02qQHmNsmOoUIi9S7p71xn2vfLrKuXz0igp/OOHU+SbmUKJuybMmD12bcBUebmE2zaIFQ5CYW/Wt7ReRcHCPPhblqGnxv5IxrqQ86bAXaGC65bXdlUpkdLnAUhIB8h49jIA18Pvpop6TLqNinIw7WZwOYWS/vQkjeHi4CRA25Y8v/Z+s2JcWR0M8WHG2Rg1qr6ZhgWLn7+qpnEgL9AH/C4lOt8Wdl/LS0z5Q4dyAh1ljDzk6Rk+mMma+GiTi1Eeeic8xvKKdGe1089BxKtNvxP9THmYtqydEF3jn4zNpQ07RtCMVaXs8ySGO7SySdH3MBPXoZ/BZwuF1JfB7yqdnDyPkb2TBIkzUIkPHBOu+cnoEGH4S0Y0MmDEOa8p9yoNc1gz6iF/uFbKAxTG4kPiebZo86385kM7TNp8/B69KKHW82+P2JcuZ46fvoqN/ATC1CqOUW4wjT2Dbeek+ksMhkbXgFWzhaLeCDGvok3RGpwxZEWFybj3iZDvQ5Ld9vJLYqiCJE+xCgki5UsfNckFdA8ede99TeePUJGmYesnu9ttLLyQmCaCHL+t2nN2N+EVLo7z3i+PV5RVwTVEoUBPYmIAHDKq4LB3QPzXQTNEv3V1JuIm0mvrcV/1RG+6qNnxzRV4DUloxKwtk3yiWejzylDKOc/9njr+BurPVfvtJBKBNCMIueMGTr10sO3zGUHA+K8DS9iCD7esaDJBTgSS+yWIojsy9Vy4P3dM24k2rmdrSkhZgqHVPp4oaABHhhMbhV9gwqpOKpRNOUrt9hfwne2PVCHuInf2rdxsHExVbjr6Y3kue2tOF/SpWFe9U4KXPBAZVM0G6w1kv0Vs4lhdOTp/dYkqOMsZBKGXxs8Rr3wGmXXzhOOcZ3HF99vf6FH4ELurAmZQ6g3R7z4X3h4MEQrTSjdVUc57JRh4F7tYcS4fIq/1LMvi+cuF17CyI99kHhG3u2iIpiWPIZDGeSFdcRir38Ovg4fM8NWaAyVwGTkOYWBp6ncX1JMqHgwquuZbaXGmop7UZ3KBLg978ZxGhfT1pKOoobZlZqr2at7p4dfR9erRwwvz2foZDpvAljHpJjkHrLTGnhA/7wDW486XsKigjIXuSD+nLfcAZ5GOhJv9ybHpNfmFs+3xSmUiSmnN1c0byL4e20bTm2jIKXWamSEL8CikmzDEUIbWjscZf5jrBZPQPnuwzaomSP+Tt4gPPn4WpfJxGkpEayLVioqoh7OhJAuM2m1YOZ6uyxH0GW+V9naW8NZgD0qVTXm7CDtznHUpjdbPY8OlS1YJ9hCzSA0/YvmEA4qKE5p/pafzl3B64UFZTkkepl26KM2/BdXJYfHrseRIk6v1MA40JI1qFr3N0MqWbl4ZsniVegEhrAmhVcS7RX8h7qYjqSXZq3SkvZMn8JjGy01lxGg6javTw/uLzzX6ufWFDN34n1TQ7yM1Na9lAyaYx4wVE2POefL3Z3W+HDFmQy+DdDgodEqBvh3j7BgRYmGZ4ZrnNpCtHl5hNrKz2WmmfiBw0pQSMTLrFKIxUQCN9h1+4ERT8RNrFx1UmQp8NB2kBF1ZYtkasam/EAwvs2rOr3Ia9+/ohs+VmUcbyNCq1dDxWCOxR+9TC+PctZOoaFCqroSGGJnLvPFQOPJ10i18DsPtqQqgdmAxURmRPt5jsh4pCpIo2FxEybuW2Qk7CIxBAccPBbyFGQ258a7S+MdqA9VY8HZn+7cojlpGxEmIhrxciQX5WDmYq1sZpBwDOgShKzsrqsNzqFkStzbHNHS8/7v0DQscow+L4/SJ1GM/RDATuqfhamYGjoYUpkRKCc5DjAYhhxrL/0+pcj+oAZu/R/a0BeJGKCNsPMxDI1amOmMAJlAZZBMr2mLxU98aBzFaiN/MSJJd7mathZ1+xxSj94Tex+YfjIV/iG4ITB4ts/6Nj76guhXcxyfomMyuU2IKIGUqN6F4DeJBpOEmVvVelISf8WBK6nk4wbdqnO2ckgucP9em45q6j524iNwGk30qu338+kcqL6vVKPeEv4hrc0UgQ3VdeWEQAkZhwnobBltg3t6gnBBgrI7x1uTXB/BZ4mEhuCFNSj/8040lM2pw/xVhbzMkBpTg95YADMjiu9A1KBMGPt2HZKwEyGFw2eQxYYkfns2HSQpNb4rLiN70upsdheEcR+VQ9Xfu6gCgaqPHyLSAjv62hHsr4hHvp6Xk1AW5sqnG1iOngbQvgNh699V7c8/JnPfEwbevxIbqQL+2ijuE0eJc283lye8KvqnbN1GEmP92+JHmt2xDHpHoe+usIjPK4ee22WQ2iOtF6xwEPlE/SXLYSSyAUBAXvo6HXJ+l07CKs+kmEEAJ6Wwn6iTMOyJU3n6LKsozIFAoYHhF/nI8broU2BRq8ryhVUfS6D5VpkIiT8pxENSzXKcjjQ7EYB8u3mzVgFkcXHVtYV3L69DWFi5nh/+cOej+KOZ20Z1DcUJyDdACC3hBpVDM2lJ6ALmy21GAjNAFD8XYfIZW2mqtjjyoz3Pygdv8wChXlZjHolznZvzdWa/zTmn65QxAnsN4mBe6iXs59ZyCPe+twKqSUFL20932TIfL7K96c5YlTZtn2T8k/UmGavHgS1Jg+5/mfaXCC7IhUDpx1KbxY3VxNfmKBJsXJ1HXmdU+iGMxqIwayF8cemU6BrIbuhGnIJ745YBuCHfiRPVpksq/RS0JPL2TE7XajZnkwf4qcDvNc0xFECKm7ILN7DkzFWXubJ66alrWxexPBpCmQTQZFDYgCv9VyA2kt3/gVxR0S8LQyzGEU0uV+O/hfNoGdfaosugMWCpnigs/Xammon5qIwXxF2OXq0dFAL4KFdWQ0+mL4aSQm0QPWR993VudexFpj4OWQSoVGPdRH1x5OeDOsyg/46kMvvgGFTOdC5GobWs4/hLYCik3pwSIyFpy6sVlOcPFgscbwY3YO4odqnjE+Y7TC1FdcOS/TlFdihxd/ZCqBGmbk6yD8Gj1cbj7Uivha5FXMSqpJ5uzRf8ScvSVEMDV9MJe5UPjDzQN3uDx0SQNgokUtMsmPjxCPMMh8HOvqSemoI5nfzMpGhqCAxR/geUFa7ixXRReZNJG8PWfJZs1il11kbIELnUdLX6igEawgWHULPmGT/8sAyjqoeuVDeemmPxH+9Jj2YQPesRm3DFwREXQMpc0afvamP9lF1YOLa2/zwZ1WlgYtx8zBLPkLS2jxRDR7Zm37IZb/b/N98+0Vvium6pWzNsuUOm6x2cibEy1L+WVxdQkR+yPK3Heta8eLu7i8u5JVgYBiKcaZSof6wG1MDc7i61ufPbgMNsdDGoZ1tpCXV6Wgdl4SvK2VdyPa5NM83BlwES2fTwUhrmvusuJjE+8ble63LSyCS8qGOri0XvpgqrKnAs1BWd5vxpwsouMK4YXQW+KR8QoeN/ejwK2bqc/rdmO7hCHaohNj+/FbzGmK/cQ6DLPOdXJ1lLATrYa/bf1frKYQPD7iX5ZO5AHkruwpWTrVxuS9m3ebnTAfgFNt/RSA8ItLa60e4+H5vDRtNbvW7Rmu7A0+hmrt5AXLz7yIDFyKykh49ap00my3Qhsklub3cLZIth4H1NK4pNMAsdQDMl0+kbyeDvLUvkYLEvMWBna2AUB/Q/YxMYWdVjfzuTzSxR1a6vBwMILciQU8O/sYvd0WJNY0muWtZQmdwY8z4DNEz8vBhOo2nMypkLGv8Mcah7abbtEO8A/iYuKQeavUoEFKkK0u7Lguz+meCuACswZ40RkC/D5xR3BjqqWOAnN+NYgPexSYXrp7iLgtYJh7SJ8EaYmbCoyoc1fF9w5Yt2cl8N0MX3VNpNr/LVO6pOtoX+8e6ZBJwuxQ9WzRI2eov52zKvwAndMxz/KfOYmxaBvGboqgZwB89GBbKNs9sn44L6DhAJ2RD3wEXKEgm+8wsAknQVfTkhkVrYrG6UO1eKnmZu2Ql6jRlMHZ2Uvrc0erLLKkCSuB0rLBxp/v70LQhiLouIb2oIX1sSKi0cDGhJy1aRR1ty8h/zjaUI9d+kYetakkTpNsgqbO5CgxLwXGrElL2ZhjmQLPHzHbUUhUQiB5AfDKNsOH48UHr+Ol7+F18sqLdMAp+sGLWXIQKyST4OQATKJfX5RtKU1blVEgnq8Fqeh7XshF33sns987o2piEUQ+vw2JTgVQYKvAaSb6hNq48ZAN2RSxm6zhwkoEP9yEDyz8x1raT/3rpgnSbgLi5gbBMWR60D1Gprz8/RWSCRqzLrjfSpaJ6O814toc1/+CRozIP6fCDiyvKRt/mBZrnK/0FGkPJfm1mJWL/a3BSuzXBNMzJATYLeCmORYz597kpAeN+ojddqJJTTZcTLROO7TTuNXfhtTa1oZ7I9jv7G0uIgx2JNM32KCDetZmfRmZuiKr8cOVTvhj6r6fKYsn7n6wnPOf0ngkbg5yxz7xj6WG+6MoWjzSl5yxgFLDWA/KhdDp4vYnZmYDc0+julfIDd7nL/+qz7ndeHgBTXT0X3j+nk1bON7O32ewEGECQ4kbfGOHv+2YDe5cBEMqFIQxjjmA3wp/UMR3w6cwvowrv7Nh92SqLBSN0c13p4xKtP/gUe3HTMBbdcDaSGxtJU7Lyv+nlTBASu4/tcnZZSfEPKOd+x4KIJA6Eos99EpR1shSQs6Ph/rUfEkDYsK19R254wRQHbAY6fqoWHJnHpLoFEeQoIEMqiImA+E85/LiVdHdPcX587NaE0UlZhmvCradMlTy1IssWO8WS2ADxMVe2y/2SclTNqvabtbBUdTuxogWFL5ZM7HSwiXMJ8zpsJEvDx1JJCJTN3B8QqZgcyPUytzso/FJvo55lKzM7qrkpmUJXT/7+s/PYu17JaWw5L8F1mWuiJaTb+hrwccjGo077CjYzmXkcT0iPFS7N26TQJhFrmq/PNyJLGtAyK8jyjxGtG/BbvN/+iWlkzRAVoECFmsdUMt1vZOhqtzRvIKhoECcjUIuH3ge2+vCsKVay5TQwSsszAyE0XkOyRp6l0u8PxMUKitBLpZvyrOIQY40C0B+mbJvvKASmJb4R4p8UEi+BuZKdKdYh9x+vzAlUdDLRUc9H03R2SUzxAFO1PKIahFEmd6P30PR0HTORLPi0+ts1vkWbYbX3FPDNJfFBACPhD+8oBC4CjTTXokkQrcDARLlOIFVckCbn9tSO2wLRLIyirYoISMvqwCASIFLQpiWKXnRGdvuLeqWBFocG4MwC4+Bs1qlaYGj+Oku9rNRRt0hF5KJ/DAqy4p2beMmJDOYOfQNyhJhuPQZNvAywrDbhFEG+rKr4qlsxii1K7nfe9tYbTTUPb6qd/6LQjvpycKHCieZwNisXAs0ye1bEcV/pLf9Q4oFt6vJMjF3DhsyeBdFW+wn7MCe5MZGgINguv5bE3G9LhHp2RZU3q7w2MMzj+9z/jmdTzsogH3qg/SqMIA3TQNXKO2kjFiKbUU3AoniIk94SHGRH74t2q7L66PyFGaB0zvnAt9ZlM4Qxht+Wn4YBCev2ljoX5GtB7cmJd9uubuOb4JssZImQ8llu1b+anoqabEg6qagaSWYjQfQscoWTP/VDwH+Mp+UYOWjSmGDtH5/F+QYZNeAb+4hKhV0ReCpDVcKDOhgTFwrxycFpRopfSlYvc8otVZtR4zdx3N4CZXXezZ3peQFEqrG8zHokIPDiFwKOI6k6Ivw6p1kaBKqWwrEq0wTW73mYmIDUG+HVMtP2tOkh9CEuI08iQzPhx3zyzwZ9jKgqrR4lNf1+BwYxKD/+4Ko/YP2peSpvH91IwIIgI1EGqB7ImzwQACZtWFh6PfHihpg44RT2lIGFwEOCjbVUPzp+oAujklOZthmSY+flZ/AWho7wqCWkJQkGI+44qEhRWIqLEIw1/WdXiQ+ZnC4AtCWPi9Oz1U9CO09lhkV2OloSXU8mSe13WuO8hBJGceTCexBKkOYNYC9ywUXEFuZHymDbd+lCa9/ArlWSaHKgWnru+YfCdNfy/o1WyiifKl7c5SN8vQ49S7oypDgl4TmBZnuLmINIPo3oe1ITpnveOndpuZcVx3REcL7KPxa+3XkEHJfYtBa2/z6gorWz8IsEYyMES2PVJuEvUuegCzUrrFfijg3FuGrXVX127Wc/jNEzvfjsS0z+Uq32RmC/Pd0tWeGvcQGnZZntcC6etOkbDxhX3YnWatHZw0I5cYga3sKUFfLcQ/x5aH1deq0XFW4nfWlxJkPOL/UOHRgHnZWrkVJpmKNJzdqAQTo+FNvj04/CF/IJ9FAltE7JkMbmfy03hUlJWi2PNlO08FXg4RGAlhGWiIdrlgMKhAYSqcv28LRlH63MDkLiIZT7GMe8wbO7DjUya2A+fpziIxkf2OEJISGUeLXCT4AdPF/ZmrBuwkwBDGuz+ZurioLzip8ZTJlxp3B6ksp2gTE375RG9pDFTFtav5EE+k5QO2bRXnavNIo58ZRRIQvOjEx84ymd4y9suShOj3ahW807ViMXApqHer6AcVu33G+D/UEeJR0XiYQ5IDlvjRMoceqKA+aLACXmePjGIDOH8TEOe8fxHOQSJWwdExGE8IADI8pXLpdxr9QYRecE7Dfdyw8/Az5yoO0Ai9F9gy7jJA7kfjZ4wzbr0H7IquFcKIwNSIoV2rRteaTZwk/G6JnZYH2P9M0tGTgJ92LQtjy6OvT3HCdeE5aHEx4TIu2qW3e9NUoSgE//fjBMNlTBVooO9ZIByZBFHfp0yOB2tB4g5dTw+IKMdXrLE6M13F3JOnbzIobedCDTLr2701dR6l4aH+anGe8JyhgzwAol3k4jH/qnT7VnhWAxAl5wbZ9+daQjtCS4vH6PaKCRrPxBx84uVl3MehTd3Y845QAZUg2NC8i9sLEtjJ2omcHCQA52Z+aKxVfS3JH4hXYlsqrb0hZice/1lccgW3NlboBd8CazHtW/XwF3rkWUgzZDbvqjMpvMJQnTi5zmBYEOOS2x5Unbm8+O2iUVHDBZYIvX7rs+o/NczNVcwMVY4oAmLPm0gE1+THd4DF1WSz72iCh3k8IUzrAJTf2eZkJ0kmjjeleUQkRsmcxlztVPIKEKwXJE/8w2O5kmiWLreH38yH4ym6PfM6wxA1WhNmkKh5OeokcnWDyomEC4jZCxgYo10LYxfV5BbTu9vOa427ToQjBofML3gAtOysY2wl88d9t0K+Nqu9zurXrrZz6vuUuEwtcWWqlzI3D3v/QpI2tWuerOkzKW3lH5PZVIyQiY4cl8nAOVBs+8YD+UAgURUv7cvixQ5c+UGFTDv7tslm8QJy8+im4nCb+QMEQBVYLt8dfpOtDeQXAk9kr1F4yhs1h/UfTWy3nF3PvlQ6lO66XtDz1FJR/m+w0Xm4CeDiSdlmMED7nejFIPg+1Uc0Kw6JKZZ1jqQVnIaDO0kqWDS1CgqhBhlQwnDu4DvlhSUAHeyjRswddid187JZVT23qmOYn5AwLxhheS6iCuiO/OQ7STcOvBMOrWOC28uEASFuPteMkVyGI3/MHcYHXHwoHiDGlVDdxYBKA2zOsVYUvcpwRHCmIKGQF3fQvPPBQcYxfojRRQ7EMRJHF6Gle0jY/wXxoyl+XagYGuwfpUmffW4EvfXPw+FQZsryJILNKuh1VQgg5oUHYxEGsZqpT5RnF48c8isKHs1HoFdgQn/lOLr/azL0PJNyIeJp1FFx1cKi17NljMDAqh4ernW3HIOWfHp7oNutnDIugkSTYmXf+7fYjIzwIKu0WvwlaL5p/taPullS7tt94aLoXcTGy7ruOt3CJ2l20xqxdhIXKuBom7cZh8xBWG7bnT5cu6Wrs73bScFOeltxt94+MNHGh5vm+L/vrLEnH+fUSy1Q3+aah4u5qtJ67BXWAfKA0g58CXgyblcX/WmQFbma6RqKdwJPtm5MeVwgaNs+IS3NTyqrFQnowA3ZbdRb2Y+7dHEhEzAUnaTHHIDNRUMF2CZlgt/gPf1Z7yZvOq9R/wCSblh3NZ8dmzBPuNJfBIv6vWS/vyk+xUWDfB8Koyf4ZgGyz1ZA3JCNE7rPnMVC7Y3M6ewkb3HOq5tV15gwLjRpmE+jftJicONATa9SZ33YpNXDKqWFRcMJwF7WEm8fcRblb3qhiUrikeIDRdmjZAlmj/j6JLxDv1CMuc6Qtg7/4TZLk+2KQgACIKWtfBlM+9mJQrfgAg2/ZLlZYCc/+ZzQHR2z0H8ulpinFThE9aGJQfWOp+BeGOh1xSnZAce8nr7jKV4mvqdHTPOwnuxSOqwxcGHjlQK4m7RPfht8hKnbYU+iUnP8JpfoZZBUCsJu+jIBvtExy413R2yeKzMrVV+0eol6IlrSCUKAl4JNkhOdPho/4sxjlFxlQVfA8EbKEVakFjDVCIMuOBl5DKskMnNqHRw44c1jHecyuh2Yjmc5m4bwujzC+EEEw1fcwM7OY9/Z+t81KOZmqVpkBfIEKXPKrfTKinKclB8yFdLO333wCed1WI8lMh1CKhcdvIWu3kS/EiXyLc+ObL5v2U7XufRkUA3aCMb1KAmNqZDWmTfbvX5IH45LSBAwWYKTAAP70Nn5X7DbNrLrq3ryAOrShpBH0OynzTGwbdHJM326Pw+m8groG8VQ3aMUORv5YSz22djT9FZ3vOcBZSTUX9eEY4tItacOJd1WL5PjAWp4eJXmVZvIFUDNu+yTQd+EFJgZ8nlxP8iSyTqJxRdPDHoahLPAlDPOBJQLJatSMq30RhQiygU0yjd0BSnj80S4l+676y1sfcpIxy0+FstVXTy7Vc3Zykcvzjorqwdp4pEp4fnmoSMZvyZPPaKaRR/BP038dhZVD6kPs6CfIENnq4yvaq/Z0KTkHGqyEVBVdqz+CnbiXv4rmukqRWkZxOHeFf2oQ7xY+9fXRIsQC7LdRdCV+ln0NUVpcwny0KpUkuslaMY+Zd7oOA1BuJSl3oeSD7VZ88kpxN8T3dvXuiyT1WfWcpuGlSeEPSyye34ExMBjH8pzmegwi133bO810kcht7mok5HnI2yFIVkcKKpxm2r8m74SVY3bHPN0cb1vRicz1UVYUIzE7qO9/4DMbmCgYvkVynpOFSV/gpB+yxXPu6MxduV4zsG9mRHf3g0uCwgEhkRksT4xiYVTwuWYXQgfXKRI+wBOT2uxKknKKj0motEdjulhal2dX3JGtWy+X3YoFKfni1tVB1j7tmqVzakkrf2ZGdf92wvAWFHtTJzx9ghO85BG/gpD5WiqAS7v8kxYB+JOBqCl5vHgUkA95vX2AY3aCOjh0LNUS9sVFc4BQNY5E97xYWIBScvZlcKyT93b0JxhTs+SeyXgKY3cflPNBSf8e7uF5gLoVhP+Jf9woBqKxvaMfElSXj/WhP+BWx5kape0Oj7cELWXo4vHEjPbhBsXBmkBytB5yDWNwWrPUMrCXvp/8yI3augEvpR/miRFdlmxghmOuszoN3xeb6V/QWFmYgQkgi8nNf+fs1atHDNKcTYbonEz1jmKr2p9kYryiOibyWdI/kz59/WKz8uRUY8oHwclsUTLjinSsYn84IfUPBsbmqYGSllnWtkAQthwE/i2BNe5IJTIoylFvoAIfaLSLEcCGpAOGvL8ACwLEaUtr62dX/KTMw2qbv9VN+oHzDPlXPt23MzgjbbtwMpaqLqM05OsROuFmDxVTnZNE8ovZbgIPDRq0oqcus1bf3M34pwTnNjd2Lt97BAGCqYAiQiuMfv/X/79v+vV6k05ujrjUWfUAG6yq4p6/3P65BJYFL1qs/Wx9OqPrtXCdtrkCu9JdSKqe45eD522b+daaOKrHJma/cVJuW646Bc+A46CNqkiAv1hqQdjsIoL1G76dcX/+ObWB7aBrz7mqDpytSU5o/bWacPAr1zNuil7/vbxEQM9sYywztVc7KkBMx1tul5GIIR4f7e73z7QmpiJTZWir7JTO4FbXpwsmI0IpJCyERoukTVbe+Y4TdMC+uUPt8loN0zLpY5xYRhnZ/fHrZClJcyG7U0PZLCcZVCvx+B2dgQ6G1m/kA9OaI8Pq9l+0/sNOY6xr/SLBZ0P/BaJKHSJTlfgKGEXFakrXgpEqlO/mPt/dQUG+fBYI+AS6JGMZqMR04gMvrF2XIDftVpjlX8A+jW7WkPvAu9SaxNez+Bh9Ka/KKzywTvNmMQi037ahUUTgWEpDgGjtM/zzK7lq5A9DVuVJgTlexsxC5APkVG9LC8ZO5LYRm0LnUACja9LReKTjwzJ/ozKkLo0L0SmX2uCimaosasR077Fj7Z2S1/19ay/ZIU5K4D9V/ybGX1CijrNCXqfKlRx2TVJ9qkAfDGpUHczvTYtMT/vtPZC+w0BxpXdRyuWthDhWd7PSYnI/5HYbZ6dmqwjRx/7XxTbS6e3ZQDBPPbKUDK3gFqIJ9lYs6cu/oC6fOoSkhPP03zKf7CO6Wwn06gQnxifrCqE6kqPoBIHQHx1+3Jya3GYCx3Pk2cKxUBE/QgJV1BadplNAVgoVHyx0CWitEZ9wfEk7xuWV7f1pYoQDJOko9fSlcxiE+ZwhRnS/hIeoch4Ipu5E/kTHXHusDTZiivDjZnXxcFxvuOCLB199xfcJXVn6AgdOq+iVUXGLAdfu50B6nio94o9h30iM9awSESXOR/KUpb8jNNGCQmp2e3f6BPDTgoucE4n5DVnsS0rKXYBbu5zOdPHjMpQobaiWMjPgRGga2vlHCPSmYo8+3lkjE3g24uYGEGR3u6rAO9JcjRbi2CGpxm0r3fQ2O7MLzzgk1/yGRVdCrvM/1wF3kZY1LlERVsjAYm2bbQ2+LN3fqkuNp0Zhrk9Km3k0pRWlfElwP2ep1VzRHiNv3/UyczD7VEIB8pWD+Z0oVI2ajjyKe21sSY24NI6KnVfnGEXCY4PWc1q2tb6DgCv9xUbU+jtRc5vAcjmAZrIi6udOLHQdyKjxQORH/3nUcV9y6LH3Lump86orFIUCyEUkIQtpqHC/u0Gx+a2bJ4DjaYoftVJRsdU0/JRCNluJy92Mc2lt62nqQaetigl8WyTIUoqzDNWvOJSLhrioxrNFwYLe5llWHfJxGzDi/ulBTnv6ar5LIK9KpLuWMyFT5PatYkUDIqEGW7PidHr87cQpHtnV4GYda/m+JR9VyqF2mDXAKkL/cf9/5dE0Q7fcLfgldDWCpbEQqjIbv4ZR7HsBTL4t1TFSdQeL2NlcP7Ws3nkudsiKT4yD247Y3j7/WqzSh9In4a7IwlvSHeXUZhw1Zsfej3P0d3/9tZeF9KtsBLZEBQnsW3kCCRH7oZpa3NH+CKCxlkvf0OjjdceqAuQn4Pq4wZr/q/YXfQQRnNNdDBwbRC0JOtXUtCraHqMiAoFjUUqL30WNJJRYQWCc/t6rFFac514m+UYwdXuYpeXHuCP75G1/zzJlEdzYvj1oP3Ti3aBwro2EjbzAB+73JcJ491cmNOW+ZLjBxtV/luhCv3w6ZI5Fb29eWj+DlY+s2WMfxVOD2rIPTw0BYy2LrGjvuZiOKWhkcYq9z/8KGkt6h2ZyD5NJS7NhZ+1UMoM8O6V7daZFt0YyJVjnzTpde3H7AvuJtzyxBJyEdh95te/Woo/fQ3/7Ju9B1a0engC1LDn3wCS3CQTzWaPTkjSWg9/GZSxgEDQZwa3DrUqxrdaZLUa39wLn3sY1HsnLUxVlc2Su93P2W57fo/vPvbwpjGk96vAw1ehIQvsPaR6nC2zn3/Djdzku5b/6oHeyPf7+Lz9TDwFY0QgyBTXzx9BPAw8tvZ/Jxlcua3AvaN3/h6mZP+BZBuQ07H2FBR3/m9C6jK0VymY7YoVdwpWKS3jvQHgZzdJ95UZGH8WXdOu5AM3OqcJ1bM2MqZKdkT/az+z359KQnh53F5yt1Ih2zUlwHw32YaXQxPigbhNKiAvCgFoPyYj4lidD8zvtunpWa3ZZO51UPkpBcUBP1qWN9kOuQutGPHXmtokfhu1Ub2gGTpoz81U8COsUB0j7dz0RkcQNJt/SwptegKrmJtnGHFVsv9/YbPycE6zVUOQD53ojeGO9Gn9z2lkyW05S2/SsPXlEdKO1eQrQBfquGQSK+EKl0ME5BiEPyyG+MLt9QWNfIVeB/JAPlbofUvrWJoPmntRPuCPPlSJZWklh58zwARFZlTJFUY014+Z7kdjQinmTfd6BHwU+PUhwpdb9s44hKuHBqDuq+ObanMbVTN6BbO9+IXi5JcLNs6rALf0iyLQR4JnjmOaEKTmas9uDGgkD9PE0JfNqsVixNrW3Hkxu5eNtE5mnXVisFk137TwYI9nTizadNsxifvHw1DEKrQKnH73JnhLeCrn6Z4KI2v5t/3hiC6/my+Ni6PhMskmC/80bCsZuHA1+7JGojOHaNPQqrshbaUOUE3cp9koiT54ghgA1dV1IFivZj+ZA8WuZAK66gjLH3kEQRo/RLOqCP5+n6JFOm4Cuef8L3ACW7YdnYBqf1jTYcbt9LZzlU8z4JoWVAw2wSBvGj34r1MIGZ+J2lhNYQbSM38Sp5UZ25BfNFPmaLXugjrHHpLf5b4/bUUZYxmJI1LpGGvTV8pvx5OfJIMBPGPkV0WP7umgUXhWYjAA+7ioWLpG4ALnPNtPbi5I6ROtxenVOMb/uQsCjjmrIEAXVOVDi4aNaCQy8Z4VSzKvm9dqWuIWmyeEj8+H+N+lak5miAU8+HvDCcRdxwIecG0a26i8q9cDYzEqqjWPGs0vt7OqM7pr50gdjJioKLWHZ3oaNWmVmGPfW8Jfh6TrCmQ1XxlaAhDlIESoxM0OoVH14E6/qkIfkHBfa58Gujago87/doN3WhYUgJOmRojAHw/1bCnNJ2Gk4l8uKw/R47TZgTy9cj44P9ELBiVEukLnW/Z/z97f012NtvX7oqQnpZsFr17UDoXWohNibNVfWDVsyreMSc0wI6dDJdrwbYNMvPRgzocMg4kd+HBewqPEissXF2IYvkaFFPkXIOS5cjdGTR0qUkTJgVdwu7lXbbfTWQdOWyrSBx4ssC56iqdH88LYGgGQZGOJR3F/K/IOWl9A+HLH66iUER0O3N0k9LYs5Fvvi2YtMk6XZL1XozN30K3HTGgeqBd6D9MZhMzyPnndMZbDYuWvQTDSz4NnIIu6+LI0uLQCzqgDx2FdOO+gDjfx2suD7BYjHGRZB4Wk71h1UHA3aM2nF1dS3acv5yLtg3KcAV7OVVo9s4Mk6lGP6hbukdfZ+qi3yq/jqSYdx5z+DxM4ISFM3D0P0TWIZ4mMrfYS+LdJfdFg6na+j5HL5i1ggvhZGOVc2ckipxNi7lyMSpz6NdJjIz3CUJ/WUvciy0WhefSpgCVWdeRYvgmoEySjfRSQcCwMa9+P6niy+lFEZD0WCJcD1Cc2Bg51XXvHB726SnALkZVPDfjhyROEsd1eU1k2I/vg1/6S/ai0NSlN80TWZv/sDIvu6ZUSk0AIf4PCsdrj7xxEgfEo9PVLBaha00RcOBr269vy73/dG7s1DspMDY2rbk0PqpiG12GYiPI2WUWCa4KAWG2A6vXN4ir9RPHMU/FtuRh0ba+L3N4R1nVrJE8khgHq/o897dyNqJP1b1i9/1UVIqX17fHjOknbF5yErwPpagGk75zxFYsn0jyziSp6K0DYTtI0w1gZooHvmaEX6hS9pG99hg02Q+4cOro8Yl/8YHWHZ0m/VJ4z/HRFysGYF0duYlF9RqQS9IqyVdg08Yx/ou6UKqYxdcdLsV5Zma225FK+Jehf5C3SZxh492g/prFdhx37ETq/7k9MHlLicjkkBt+iQt1PfZXMIZ9BSxvxUyikTnNXFFxv1czrJm6dAYJkN8lW6c3CJw1aiX26QP8zmteCchAa8ieEbrYzNZz3ULkraGyzNF//VI9WvrdHfpnjWMUtoj+Je2DFxAQJGlhGXbJOdIPf4yzz1aAD3C85exLbvnBCeSl4UjIzblm1sBv/aOCwV7/ZfBm4CWvrsdOXTen6/BlLeZqCuuI8M6VSLqc+7OBwtcYWSTx0qbD/bupHlCj+KkycemTDEflJayMWZdBWnXQDAezG3AUjRfaFaQPZWopg2EaGfOoImO6i62FKTFVzZw5yj6EPRpx9tE58XQ8t4W7/geigNMaMj7U9krkiqQRS7YVACqcQYgd5DZtPz+3nQ1sVkIFnCGgvWoTx54SOLZEAMTsFvf1KsB6Bqwszg/ZPCbayZeykdQq3B4kL/7/MLGPe+KKxEsGpzaEW2nXTuQNgBJ7wr3QVL1kjKL2rVod0z6xF1K7/qai0XE6CxPt4drcwkhKhcVdIPLNXOPssWwdbB2b0S6hZ9vrKEp3Oajz/so+5mj4PEgkcQdxTDSoqW13F6ATF9UsGebJMf/BPJm07gbj7hJhj9ZdyMW35PdIE5LThLkZiNJe/DUjgEn5Ukbiu6ARxIHqbm4CyLcwTNy9wvIuZi0o0bRD8JUdprQTDGlkrbqwV6XxWo156fWS7qzVVC1M8LRk1hpltSFUPyBeg5RUNPBRJog9sR0vU/sPIK0URzLeEeJzHYFshdmbXFfl1P8S+7ERKUg21BI+34SoXHxZQoabDqyBvPQ2E7KsaVin/guUGxT0gaZqwLyn7gJl4cl7h8zik51hbVgoO4RSv/vTgdhJnyxZcLfGlTg+SuqDTD1M63jdMB9HllqG32cQ3DekzNQ8aSr/0rWOpHf1Ridkn5eQf8BD9/Kice5G/VxDWZk/LcErZSptVv6qUj1V6C7Xl8+uhSX8moyEs/UXcOecyuhB2bnJzYcTq2a5iaqJu/93nrEhm5pn88geht6cNrP1WhaMDWGS90g5WkLy9qbXIF5Pod2IbTIQe17Zoe+2AC8SjnPpW5qCsNdZPYYcJi5xofbuXmmc8MS7WRrptTyIkOfBM4lJaBKmltgH4DzynASPUbBAMf2qw7aPgg2B4RRvLaMsvtYYFIK/YUNsM/mhB4e6mQUxS45Ph4b0nm+gjufsQYn2Z3RZwpMZm7V8RwShVldU/oHFcdUSJbkq/lQuuChJihelWVnBR4d67Pl4uyuCxGwpGsT8JbhATff08X1fWKQud3GUo/4vTz4NpvlMQJZlxcZffqa4qw1deyi+/C67+YciuV9sr2Sa8H1uzkpPNmSOoS9clcXOBbQ+vEgC3dbEjviRvpXZHLiAizn1F8wAA82x4sZcHh4riHHP+r3UccjbRqnIaXB2rfEwM0iPmcJl2su/6bX7QLAqTwfI40LRqZzt8DCFRPKNtZ6Jd0P861aiDBLboxKxHX2QfNmioqKMvroP+R2oeRwWqe7RqpolhuP6JVEWE9J+6DsqAqyD3nOL7QLdmnm28wodPepA3EWHKoolXSPwaNe7KaNH5TIou0K9pJM/SxF3GJnDTOgSda95zPm/AiD9oqgExXEgkmhd6+zR8Qpt9UPYcTUUzMIPD0xsK4iz96/gacPGN4T9rRyis/C0knOwHGfGRhIVuFoIHHKbdUV6jtTYAp2lByJnJTjN02Lxhy5o3eJKwVOf22DpoM5VP0BdUQLz/YMs/voqhJQE4BaSO4vkFJyIW9M6elyEZPavNwQvN4QWr84E3KFcv70fiVXF9eVmHydpFSbUKp7mPbfXZGZpMnA0HnNZrSqDL8+gd3uebmImcyj6fu3FSHSoR3FpTUu73gXkRZPPKYJpg3ge1vRQUfrDYyb2AqktKr7n6QalOxaEFozTqKWdujjsh6VwVka2ZYPD+48sYgzfC0L9onBAMEmkQvamLBVpIyKPo+6ZqPtdLB3xliI3mdWAeV9pofiCkIgV/bdEzBZ89jnx9DkSKIsn0kJjRbwtc1hqdGr5y/6FCGqZx1+2x91Vr6SXwsMCzO3nRHYjNttJIbYZQz8qpQf09f9B1M4W251XY5cZLRO3xUqpUekpT49IXuVkWtiKnFYc1EMq8iHpSe6wLOv6mCVQQ0RfNGL/8Uw5/RIPAuygLawyFhmft/hk+ql+xnGP1OGSHMGM62dkZbc5G08exbjhJywcb8tth7lz4C0ZvNhthw5+1LCoKQ/NmU4IvL6rE/x66G/kY/Y2ejlFzJmkRabkIp3ckufxeRnJfd0/6Yv7FlJCJhyiiPDCnaefeYSiVRaTm6PTvnr+CFYlHrFoW11UlNtL2LHhyzPIxlNmXJL7avZet4tC62Wkyan/2bW91+nA5oMqgyE/bf5HA/SWjOQ5ucP4yqNOUzZKaIuRMLgiFHP+/Ef01kYYyIzcgpDzZOgZazeGOoc503eVQHkgEZh0f5p3RvlufpjHQ9gjhCnqyLlqh/Y1IgjBrPxZJRirB8t5O6Hz2Irp/A2FUPnvgPmsGKyDU0G1wYyzDrQ+G7/pz7hf1jGjD2Ch0crwCGlc6BA5veb4sk36jyDDLxbqkvA8JO8RJAN/KrMTSkDpuVEg3KwlNowXzJaOM5xC+BHuIMCLLMws8+NzpZ94OPt7MLHeRTg5NucS1Ej5X3oKElZuPqx8KEF5FHL0qVGIBNKwx44sLjWrtZUNEQHvgAAZGZqC7g8emgIDbncCK/XAsY9KYhMJqazyV6A1hWS+VsMX3p1mvsv7xJ6pLhMrtpwbEi7bYSLCCQg4I/lG/3GXrJkQdxzB5KgbQ5C+LNotCow6tz6xwEhG7d/1u8oNz8sCJxreYHje9J6zTkDFPNk6dmXFPDIQZ1bgWHKviuNlTHjc9AidmPkSiilZOfl35vTDsXTBpW3/UJ+aGLh65Vdu8cV5BqaPM1EdAzAJmMRxvopMjv546QRBOZcKJU4oLqjC0T4MpC5I9aYEBmzs1RsWvJ+1HtH2F3gKy/pAQceEdBtyubnxBUtI9IsCKxyMgQCe5/iZ5OBr+UP3+m4XRDjUG1xsqnbYB0zL+335gisIIB3NQTTpon9jFBO5SQQ36jF8qkHKtBtSOAZ8TYCTO6ew9dUgc57JDkL1UQtY/BacNTnouWBPl7OHWZLRbgxgTD96fvx5/gpvLr+1H/xo26P1vSxi76UZ+FmdjQe7cunzhe1KaYXsRlVzWj2mAR1JYG2IRjLLM+8AWWjBrmoYYM8n5eKQkP9s3xgW0EIueaVYie5cdHhdyw6J3/99+pYbFKvCMQleeHDmLfY6kwZFoE7Q4RSapMAdsQ0gawBBmI7ISivunASDSIXRDXsphmi4vL7bZ8E7puVvhlQvJ1FOdDw7g+pUgVRg2eHO68HSYTI022DiNEpEsE/sLm3fEUzDmBHPIJ0HERUNV5homNpJ5kUu4jM1SmvLCgLjCc+fI4CUNdaKByKj4IyGSA+W6UHvAjzfJGqZJ56tby1dmPJLWBT8FnSj7YhDiT18T4AOepTjXu9+sDp1vqGYhRtlNdq5qhgWtnRr9DZNxNoBlbqYAiAoavyxOmjP4K3gJagO8tVJ6Q+2hjcYBQzv/TaiDRw+GsHjex2mL0YxSL2J9fPnffRPD38YWUdDujQuhdlKUce2dY8CZnuNKTaFIKzUt031tGYgBDJOucgUZbWraas/s81DAqwAUQHR+qW5E3ha0obSqSIG7ojY95WygiRw3j9JiU8TmqjzzA0Xzn47agT6lu4fm6hA0OMkz3fFHr+UZbuHgTyQuAfH5qgjsjAIE2nVzR8hWFMOwVr8CbkjegTjCoAWG5rBt5iaLSO5bTz4Xp43N8T3wc+fj01PUQGsIHJ6ezTUZg4vCunSjUvRUlVw28bqBRdqmFnX82fisDQzxLrW2+6EIDj1O1REGCVNV3CQ4CcnndumM30BKE/ZQELdoLk0bL2OCZsreiGj74TrF1p2jMsHpgxxNOiPha7lkkxiQ7rQzQvD7zN2mPB0bazXD8o+csVixHHYqKq6ZDVV1LM3Msq3TgHpd2FlLa/MpwHUL9o7q3NWWjSVft7AIVtHL5Z0rtWvRah42mV+4C5WcT//EKWeGrM+XmFqKnNoh5iLghnClgdhVrswctqtPTvxfBlow8QGkObe5W91+xmZ2YjxdPSri8LK24rXaVlVOvrwusyY7b7aNgwu59SJv8b2QGB1B5NxX25VbrJ3S6M0kJkQTUXRrdkPq+PpwMCSePFAIxPRq/AhiZt8sIMD3On47WUEQfcmMX6n+bDYOsx7UQGZ52HyL0mi8EojpgutJm9gjzqyFmdWR3lU2R8jr/8pVSE+kn3IIBXIoPvk0242y/4qKtlZYVBQKmqz75NPyGIVOUCWq1XR89yOH508V9vGFJHIZdemRojo8NuzfwPc9idqggbcSsiKC0oEAZ9CitMvdGqEcPGgnPDi7b41cxR5v2jGYFk033QxIHCEhYXcT797hhPXmnz4XEFI7CPcY/rETz22yVWeieU8g8m+JlJLwicfEHAI6qljUkr/WEtwa4M0dt7kyEqqgDWLWFXFP+6Tfai6tWawzBgaMhcWgEHxt5Ive6klCacPHxYrsGj3uM2nI8C4wd/sIxiQYTf8q4mctcRiJoQ9GM8+PtMrqkIaZBhCArIw+Xe+fV0hwFrP+TxemxfKeGTCw09PBGlYX8g56CnDAzsYrmISx1QO371E1+4ys9vJ1sZXXuKhckDOzJjRtX+M4Aapu/Q5l8xM2Nd0VnG7LoSOsCmzuk4hgKdaLEmqB3eeIuUcF1Q6vjTds6D5hucbg3XJOLP/4oSuTEynnHt2SHgTpexfAQxy3WlhNneTCXTy78HiAhfsBWvu11YSewJzKpLyygaEHGIuec+R3yF1ojH9vy17/fUejXB2qnZy5mTvK4ACpoaJZV/bcjpgw6SfCr1Vsq4eDmBMc7EBTyJAZcQkUHhPa6gnEYyGSHSK1LCQE8OJchPqOpulmm5nQDhYPie3Ee779vXHGGFko2Zb36pvxlKXeoUH0mE+oM+AtVu7appXmQYVRjrpBZmz15OlHsvZjvpQcqkuG8VWqlfqqF2mbYNyxWoCvkbcW4FN2dHGn1Hy89gbgzYCIk8erZ+6xHIGXR9gFY12Dz3+V2TJwtN0EHbCYE5ekkAHXLdF4sqqVe1+NQcevJGcHHzSrAXVND4oBbRb3E4aGuRB43bEEoVWhSEoXbyXDPt5Cbu1Wg/hsTyfIa5Vx8I6Iiw2vvWk8gpAVLdlxDs99JFCm9GBpaS2zEz985RQDqPRHJTv+eoRkj4jkqFF2fXOCH1DJp/CAkbvo6Yxut35UzHkLQf4pucHP1tILuen/GGwE+qGC/C/S6OYkLsIQQ4z7Qf58g5xf2xFmXCSqLQS+Biu438TbPuUb32YS2ypffIICeeTWrZILlUfvn3SYmkqdn+CusodU9K7P4ykUAJd83TUc7Oxz6U4LWHBZYkm1uw1ZdKni6fTIuq5flfb7LIJM5ee2ZYxCMLC4vkYX68Oy3zdYXAY2qckpvcwL+D1qERbGbpj4wVIbOXMckLXCskLtjbHIyh5Mcb9wkVpaoZ3SiF3kONVOceb2HynXmn5ZLbHqMpJcwhvbJR7C94iYD8aLihjljlsbjKYvlLKvCSrQ+J7f6LDnayHvJjL9jDIdpGWyAsuxC5l7fEGm6EhC63hOsxEnRZijH8TAPPHvUqt8Lrs4sC+Etq/pOwO6xsErNbY/IRh0/Mh8AGvoyfXxJFfIehCMzblfzXWEiyN9OYav0QmqX0xIgdwSp+OJIO78Pq7OOe0BZ/++EvcHYQi+yOs9Uupd4sSj4f1pIf/Qxqoos2ks5zGOzuLoD2r/FbSbjDrmXLmuQD1f4znGWywiSgmzrzvz9nU7O1NvNOX4wCq1CYqGEoA8IgIC7tcfJb/Rz5zAvRB3JO9nOe8utOfB9R83k9pMBluLe7gT1OYhGtUB78alg6UCFr0fC9DQF+QexEpFNIbyqRPrbMuPStR7HONc7DUlc0QKTqJiO/P6We2SkF/4d7/GrDngr5I5KM1RCb4I/XnfiwZBoGdp+AHBccsfnXa3ER8EYdGHNkcqQ/muMPEdlb6ifEwLIYL6QhL7ilCVPrHP01gqYvE895GiORXtsEhNBB5IEoo9JbQJnHHWiAAHXI4CDjz9FF+xbhhSAes3f7jaBB327lBCVy80DcktXDC467gLoHLQos9Wyy+MlqSve8DRW1LnP1zn+ur2Jd1d6LD/4emaq/1OJ0fw5fEbbydGSqp+Kx/HZgP7g5Afvk7CN8khtEdVMQM28t6wd1vJc8Tkg+GYSWo5cs5TaHc4WUqdGLpiJk0O/PfF9CU6zdvKV61tv+7w0v0oYWB6vG6U7xzI/BQjbJkJJ5k29OYWQJ0GrA/XMKK6nS+5iiQI4bSZB+LiMPTCG4wQmET12XjIrgXYRW0RADZ5S1fj6ZsKSpoMtnZK9S9AKzDP5btTv8x9F3+9JFJrewP8id3jhw2yKiuqxY2nPgby44LWZbdYaqQX4c5uffyNWnZ4TRH+7LKQ8PDHj8nUdlmb37bR1+B0dlF56O5WYmRYAmne8OTbTboiSCsNyDkh2fpu1IX4Qm5NN0Z60LMjrn+TeUim5C6r7mZgM/uIh56cKG3vDiPts0Ho48FHeVzOcBVRK5tacsycopdE49ijOvh/UMDf9af6yzJCatXsTAjJOJCgp40rAsDjmLsHERO2tK/hCOmUHwFIs2it3635V0FGDn2h7pawG+tENN8+YDvdfarzFUaRj8TwKRcoQSznnbcdcuuBs5LK3OI6P4VX41gGas0FUgy5KwsMjQdioLzyn79Av4Y4tOryyvC1zdRHCwQ1hJ8V300rza1ta8vkXGAJqICdVA7smjcVieq0BoHEou/spQhWr4lrIZv9joDKPyd4YhOoe5a3dmOpvjVhPJooCA3pfO+SmIRTUspnW/9RU7ICSAgOHF7CxyDLdddgszNg7oCS2CM8jgBj1JXTiwA4JtMF0RgEubLsUHY5KrID/09tZJu8KrGhr7HzwNytgznBKMQMtqV03hyot0wUFn6DBySPOzAHdNQUPDE9HaK1BfYgkvf++ChuHhsrSHQsy4V9AoKSLjVf1e7vrtG4ccovsGvaxJScv4q/M4gGb+aOt8acehvMZ860DXSAJB160wkeYJZ6xZAmagzcRJ7kvAJlgo8fXInioN1hteMZrInzq9nVSp3cYSIfhcpFEGp/1QztcaAK2qVx7G4MmgDH/wexHjeOCqzY3F6tbH5TSfqtKrUAfb5TMsRhPSx8gancSVkvLu8m98aZrLy8qkI7zs99gO5BxYjFZdbFZ/TJEq9jALq5G1PzsW5c+4kHFe1uzBdrK5zgfIRqOlasrl8AvKRnFX4mh4VzOo9wjcqZQYUyQghqubvwGA+rxKPvkQljrpCPeKp57s6YtE2ZFZ6Z76BpNccVnkeTHCd5F8k+Fuu2CBoyi73X4m6tkYJhOZACnjgrPw6jcbI9A09my1sVj/tl/ug8PY82O/g5X2zQf9RXOhnqrogaGhBd50kH814OcLUyzfz+8r2WRah9pNidP2O9gmQBy1tZL63sTqC8CyU9oywQecGgapVV+fCfyRyENTQzD4xSd+iqSx4VpsBKj+rIhgaTYgACCST/kaBJGQZDd8nCglP9GhVs0L8Ar0o9sjjRqec6Wv7IoAS6eU6S48f44uJ0khLMEyzvfosqoyj9S1wTgPH21966Esfb5k5GBTP/t0deFo/in0uG4z/aJ3D3I32D+8QY14eCtOL69+8WjwJeJowYJa8/jdmLvFUfa4Z5udGnb8w7rHDbjilvmlv8Rs62TPPsq3jrpKceCLkdImmqY4fWeTCQXeH3dlvH8+uxpRz57HlHZ01EaT4JRMVj+dOeh412dDc/+B1TaSdYiKTGY8o+C6dm+GrejDSiZVxkjTCtgZ05K8OJHaYJ/M8DS8GSmTCgE2bIugMMHh1aVPNK6qL7YVahtDFFuUyUuGrQMLejGRuVNkYDfrPFnTagAeVspF4hOtY4i+TyQMJoG9fRc+IADQDQutYnHFVeHlYL/TjtPcdl1t2jsMof5F56WQ3r/BP9tIEPXREbiwDgfXAeK1mls299l6iO81rKhDnXqImzqJjZ+qrzcH9EGgPGogbAKipQbP635foMIvADPppVhatn7mOVGTdra3VLqC6sPFrBLhkHhT3eaJwYlbjVzJrV1gKAleTD2WkHFKoD3oP8V/Uvuxzx3he+fB8GebRWIL9khalXBcN3Sl5HIOim/GcNT2K6mFl0qHONbhb01RFed4sSLaTg4tblLSdkTuSKIkTaRR9WuyE//QWKWXJG7SJngck3+la6U3XmCexhttfJhjuMRg1FRm56kqBXn+88ghyBzZjPzjOkzGxUxXRnAXd7rOO2OVyX31g+WtOKFmVNEcGvXiQ6Dd3Dyon95l9a+Dcgi+iaUMGjoZ/oTBKhR6DNA0/UEgM8NdWx+OBBYTbcBXf8ZhlnBLoQmPgBMw801oZa81VGed4ewbU+K24zsqXfJEbk8sGfCTXY1qqsbOQS2SxB4ZMYw7lA56qrlyX0VwbABER9fY9UOdFZN9L7JRBZEYE0ZZ9fVlBv1EGivGz7QXWUQM3haMAgNNlxEz1vx+1XaBZ0q7fiuQypwGwZRAepwfHP4l/Fb0Z0g4YGSuEb6kreDSyZwXaapGcngerfilrwoxBRKuDwHBYqEpGgWQEl5gkETUPr/Npq499W0JV7SJydz1UcoV8jQ+beHrgtsj3SA61iz39ItRGNhlOJjsy88yu4XjUCr2vTM2vjf/H8n56HNqg6sZigOyjQgV8Qn68twIcrskdYdcSeovsHWZzbPY8o/pA4tJ31EpjY1S12R0LTTd+oL1kLELsTZ76uWVryBtmSq41aRQ/ko8652DjV32CI6EC+PCPoTcUTAN5V83eTPB3iPVCkDqX/FCktcUVFqLnATH1XhD3pdyTHstTNK9WwExuQniP6Eb2wzStEKicmssjLCQ6KB/ys0gFvkd6dWAS9VdCdK4Zw8jhYUfs7ZijQiVc9QPGskSYOHzt56ltjxdvMQylvLB7PrJ6RTh47nk4tIrIJmu53OELwxRWFJxNdopJjQ4NhPOFBgten3QkrAphJlUH44cZFYo2wDXl49zCmbcOgzbIoo+1S/7AIbLtWlE5heQeEKNzSJxvsNJ1nEZBnIF27BiEXTbKuk3J+yquMnlailb/aGWFlbNRFadi2O/imuSIOd1BnoY40YPr69/tat4TkOsbcdtFG2Wu05owhuOB4IgSwZUJtDQGH7uX/YHXjaxuNCznq3jN23mZZdfNnBf2+/6hGMmfc8CsaNjnQl5aK4p1pySyQ+/2gbJ5KUlgVAUHSReWHGzFT1RSDkyN9VHBTuNyulGpI3I2fKSH823aFcyktxbIWARb8jOc7wkoA19hMSu8mwMnqe3hh16bTDouOLzDv8RmWMDm7rLbb+rJS5zR99nidFCFQ637bo3JQvVibxPzY8Ux4+jE0m3CFdjj3dYOS6hvPZdMquuUOvdsKYNf0Sk7+yxkCDy3atF8cD3rhNIiaT7mpI4F+VYNItE59CmXMq2d1xrvuGcU504/S5KQffFAm+4/cb2wF7SR0oLNU9kr5M2amewgqNXiy6t0uhbBT8dBCdOuDuHg6lm7YBrcVHVJdQjxZZ5aqIXU64zie8WkA+ymXFZVcZ7E12vl/txiOGV2C3C2pCfEUCMm/mRpN1niKZixN+ekgd6YGWWNzfy2r5tKiV+0VDfD6x3/drRqoDU1BQQKYeGNIHtNi2NOKvncJBXy0ickvrMpHOJL1OuQStlhV/aQe8JDx48wujcQ9vvx63+zXW6xFpWGEqCV8g2CnI+SBPG9et7AQoDKWjsCFHQA/LudQf8/xqew5sAExAJ16lgrjcDxqK9A6Hg7IvZENUyfqVMQ9NYaePAJE7jQLSFMvQaR+fNSVkm/v9dCyQ/6Yr4uc8xfz/wYfJSx+1RqvhYGHmdOOMnEj78E9hr/nnYquODESV6u25KTq0CT39NS9EwmP8wMkVVbJcozCmfhpRUJchK/sxkA8c8b6CyAplqRyDd/uwLrr9272ZKY8dBDFBhe6OSO2VYEENFLHqJ1HiYUBr+9tAwdemFiHl0FSOlOfovryj4I7oOBjbTzr+epHfPDDciNdultuTv6+8hrsL9Ujs3c1ylLLc4aXc1+6MjuDWOPyu9l1djD07tcxUdfKZKFlC3pIxA4mFV5rpI2sMicV78AAY0pfXkuxTY+Q6bo53h7eyv2z+Q8jLOJ0XkOqeKtRCGw8xdlbz+2kYRldyGd1OrPRRZwlXPOjBHqlBZmHs0o9N17v22oreXvIcyhNWsk7ZjTULYU8CUAa4CsOBuR7NUB7fQKmiFOiRh1FeU0pHom9nsLBzZ7zKYuJkeVPKjfwQIioBYxj1fttuPkBxEOGxG8OQCXw19PeM1UTb9alfWpDtlo3TpNLLR9BCOMNREVW2q9DP6GV9J1EGLBT+Db1bzA/9zeOTgA3GRa4CSEHVhg15JFeVQrIjUXAZOl+qIVIi+lzp6uXxQoA/0G/jJUvcRJZ3g7c8DbE5IZGDATtX7anZdw9g6j4RaRVkoMcpGEYV1XriB2cODA/dZBHj7wZsZEuVxbWqRyGVugxDMX29AWbCbYOVeCy8n+Xgj9VGtzpzLR8cHJYa663H66u24V5ZH9LvAOivTcyTJmox5EB+j0mtPTq9ANBY/Un52l2ygKO3KGfe1wd6+PjL6jOy99at+eREiwY2l0ahCRDJ/46+TVqPHlU9GE4zmCGOxuGxflB+yAXHn3H2EA3Zc/WdNsEeLujvOyCUfqOYahADJT/G1CMrfxABwMLfeYFGz3NoFYtLXzZ6pW91BhBR/npY3iC0rcdv8nJ7YwribPJaubZ8vb2PP3E4ojslpj3FRVrixn5m+LiZl7TnefooHs0Lilh66HDb4uoFLshov7EsNK9fCLCzmyyjnsztG4jUjFRFl++UAPoIAL7M0FqFTngcYnXRFzbgyNrpyp8HO3dFCfiuLcmpRSW9/zH3wjTm6zi8rdv1c937MVMXCJveLlTEkjdTy7o6PV631WXmkYmDNSavNjXFy2ey8RkCdsyQ4PuUiuNfzX8II58U4LgHc6k7dDftEy8/FAt2E9HhpNt4vg0LHKnEGSz3oSv9IQUO1sgUfxD8xdgYPg62Nm+9cmMCQfYCAaEWUPJme/nR1rPPJtiqRjxafjEUxk2SPLvHzMbi+u4zHNSSN+15rHVLGS1gv+YJJamVHHhCYdW0erLxEfjvsB81333qqIQijipik/bl4kkSSoepukmyp8U6ci7Doxpco/7E4JN2Y9MS3hS5YyJrYFx0ziMbXmMrwD55K5Wf9G1J49rqZYvGAm/W5d3kXcQ+TPmYg0PAh6gTWQOiBo5j0lg0ICzBDZcAeluROM7Xr+eq51qBGhjPoJrFDJz0bq2bDxOjPuvExjbLSkY3mMx+pHI98N1KNRxuZxhQVXUInUVhWJUeEN5owjJU/FNOIf4X7TMGxbzVstdHcjdGpbOxhThgixld8OA/41wca86X4+GRrWy4i/vR1/7EJsa+RsZhZOAyofNKy/1zTgcOap+rOD6oK6Ii49y2YZ+mhPWiq+itMRZRWfB1iATDchcQ9bakCEPfaStnCy51Ys25zeWecT84pCXfaPawAe5/irv79i4dh4PC7Jp4Gj0oE/lzAM8BTMX5Sm/DFTK0stylJLupadHJdE6kEOZydRB9uWn8F9xu02VNYJ18iMAQo/Ro84bspx/KdMQt13stEJ9w1KYghparhRbBcJpm9gSqtD4EKECqv1n2sZVC4fnoRvHTBl7PriA9aIjsYmdRWyPBb7/djnZHDHeu9qYZj5Fq/NUxzh/dTU1IlC0mi8qwUxpS/46BXb/o1Af2Mc3B9H/guugFuGzem8JOX1UeeSN5X2KhZoMrEPZaf0vgozHO6Tkars5UsT+rAL2rLcVXo9BtKFU0yakjJ2femuCZXUl1kBauo5PSw7lB1691iB9Ksj/xgT0uV3cSCxEliqLBum/2Su4jaaV4YEFWriPmXC+X9Dah5NvXRvuRjDjwhvx+VA45lT3UEXyKjF43Q3UNBQBlRSEYVSNPb+X7+TIbSFt+gYxAeeJYfumJEMhUiJfB8gQP1II3PfEYxIPxM3k5CGDOCjZWwN/iC8fLs1lFL3IX8ZtrQ0wnKWf68pISQGjT9rnsjtPcFmkbIzU8NI9K4gaAXqTEJlaL8CUAT718vRJuc7utxabXljMILd0wpzcUyBLLV/YJOq3MCcBBKMBcbSc1ElBCIUiVDOfwWfjhwCpYGQePeLgxOTU/yqwQPwMCApBUlTT4q8IqgglIOKhM0wgTBdI4eoGgxKDC7udaD8RwFKkqZ7ZC/uiEhGrOTwxbZGz4EtGc3ge2aniNNBP9V4G1QpTvy8HJTWGnyD1ys2EqvtT7211Dl7qo4wV7ADc8NayOCkcPNg6+Wqigpijg7CvrGKBpRXTTBXSrLbpnHEV7rO2peSYOBXPG/r9ZHiTM+hk9sL0Y1WSavlm8QZ+rT7qDdb32soM7AMykuYM8moo7DT18vMyTP1oXludqf9MkPbtWQSy7spo+zU9PbFLPSdwPt7ZIcmFEih0DGpGw/eFQSdLElzUTzt/LSFGB6e47Q2GHQO8pyto74iGoq2k1CF4k3K+7Mmia0R206pDeYMYZBD/2PNWDqp2/OqVa5vvRCpbKsG/huUBiO/6PHh2nSbcfjaAFT252dui8aSJn6RbwuK6xnvF8cVXB5vI7xs7p7hyAWdByJvCgBETBqrAr3MDsYEdnfj9oZxK7qHnR6kI6yP6KFcRKRK3K1YiYhiOSNvk/7G6bH+VxwTvTwAlpo5JnbM1OwJSU3bIUcX3LDQHK9umT1xZq07ckozxAJah4YGs54orHQaXq2xyo8OSeIfsoOmuc5X5MUNtXNR6y/CS0v179XXqZNncnhNyCewuq2YG3RGPs89ZFZH5NZsyaXpM1zj7so39tniDbfQ5Dgv8pC/Dx0G0fMyvmqOwwxBtzPCavSu5PSGnyt56dlBCegMz0jsUyMhmUa2I5WFKTuihwonD4quZwzdQOlSO06q0iBzerWzHB2+6/4FmYxB0g1um7J0Z/MDsGnVHpMPg1Mh/QXC1BdL01SZOiG6DO30yGYIPw+v/288yfEwvfeqK/NhXCSsPORbTs+gA6lcXJkbgQbX5jITome7aiLG9o5vF89P8t0/3BJVTYee5Jp2Xsi9dqxlTU1FTpzl0ePgem3bXqCeqUhnAP/uFe3dwzcyCKLhDwH+KsPqqXxfXVMPgJ8cMNSpj6N9e4XTpYK/0+Gf5WEcYr+e6vZ2/bKDTir+ukUBDMIK6I1edqnk+tZs1acWMHs5qBbEL7lBHzFybP3bE9TVvN6BLmS5GcP7DwSGM33M9zuTv37HXrgG5yVUnhEc2MQ820fyIYOXbpCMHpShurf3SbEOE+YAYwwjWssf3UYhTEjXl/EYc8GNd6qu1zPF1H5Kjo3oTIzkDVWZSkWH5kKtqMxptehaCc+hRsRpndOUKMhul/40gm/8wvuUfApXlJmPV4gs6rn0xDabVhknYVOD1hYphS4kEq1Ub6TRWZTJn9NCSriA0+6pNYOV0XKKPgFULXO0uoK7PJv2Trb+UBCyW6hUBIFq/EtGN5usp4mtbSzBwicjD/O1I2Z5HD9XpwbXdJgi2xZOl63fh37iqKdhvssjOSfMoHle7DUSRk5c3JYq/bPOGl6gMDtRb7XXx6slYFR094AW53zWc4ZM8iYPI16VAQWYYUXsDmcB0yuG0AVyiudoByGnS98W7TqXGmnCm+IfP3uAu4phzCq75cTbRE1rnxyjPeJ9+n53NJ6OaKjkJhYZW7nlH6bYOkcB8oSPQ5Isbp9VBvkH3g5o68XlbpiwOxxGGdOIugOqv/2gn0IRyrn4CP+JFfjRgDsk1iuBGpKvc0soW7E7KC48YSiKq2ysdXupNA5xhLEyghV/Zyz23Y6LvSEoAX5160uyrGR3jG2qSnlO2xR++zXFrThHZjntBG4RtMF1b+3gOsA5Vy7y4EqScIbEVeR/20iG6ejgQVtR7htCOPtbY6ds0NxxORgM/7s2PuxhNeLxmkrV2h1zdb9C6i9nx5qQ74qPUXBQrpHHp6HGedCpg/bzLIspZ3d9bVEt5OeUpfFMlrwavlwQve29NeAyAJmvaw1zpcdWu6ZdDNS//6WKj9qZbgLQUB8BlbfrM51v1clCul6tKYk1LXaN7nq36PsW0dQrvh8QPfcYRPrah2l2R59id5T6/Rho5XmoHSkb0GqEpWBgdVCopUMtHQk1J2NQNN75R6UwBNxQBJd+lIESzirnsxDZa1cbEyPVMMtYkm5/HMBCGfI/FLrG7vyXv1llkNl4y9TfuMfDpWwtDn51SKSuxYzT+F3nWNrLs63wcrIDO1BDW9A4O+5MG1LUyjWga0TA/IxABX+uBdvz4oBDO4LjfhgPoNHRIL8NAvGYtM2rA3lOxZ82kcurFJfoVZ9x3s4cncAd7PAj03Zs6+VXL9ItbbLgZslukiq03yIKdJiNjD0y6wRY7sj53y//BjQwy0BRQ5O+JCNRF46gYZBA+L0Q9JV0y/niYd+fERylFxnKuEoL7P14SLWBNR2loSgAxbaCxxvRHHBXNKRNmNWF3+KJYG44dyqv09w4qB3RQH/IGCShCBAE4IpPwc53tbqQsqm2XuxQCxuUUe4w+x+ZZQy6taX7tkghFQEnhP7tZkmNBZ0JmzQ+Lb3fdoadosH5AoX8gZ/CjvFEdfVXwW5CUNEW8yK9wKkDwQcvksGmNN3tktElwWsOywvZVYD/jmjKvb6gETNqW55yjyzoVHHlWbY6I3ECtBoWi8p3MuE4+gFC+6my3vQETLop0A1BNwkqqnMn9RE1qpJoA3YEIW0WMHzRDp/1lVeaOtlSzswb2b7lAD0LdNPHwmCudZaSqhzCATbXDcvEBN+7dr57XJ2I/P8MV3Uyza6lu2Bn1mroqIqdUAHRGGa8Xhc1fUsaYW5qcoTzMJVtuuAgTrg5Zb6+t7mEpsM64qSHScb3NjXKo9a1MysiBzJIjkLIjDgR2ZEDEz0X+dH2Ku/ccWeImBbJ7ZNlTg7wMGxHXaS2jJ8e1ItanOqy/uV1gmdvhqiULSKdrX6CopKZy7xiksdbKkwnI3RWa4cT1kWaipcBdIjIUZ+UxWCJLP1qZa7/iPxPN+dh4gQvV+jhBGjo12/owaI1Kx6ksJEIfnGHlmKJRVq21ISZA12qAi0JyZOdWx01EO/O6a3idO4nJzOENu82S+TwnB9EtyEJLZlVjFcCuuR4u8g2Z5ZnLcFqp/fzGF0CsuQBknaz1aYag1Ok1QGebfBoxdaZj2aeB0XJehLgCJL5GUl28HZHFWHjhtuths8hg90Q03rPNDgpuiHG30huLV05nDRUv3tAi0XF4s7iBLjCJuPLRtbjP4YRI7pOCwGBCr1D4aQpVkxBsD3t1UFxntLWiT40kYVVfSoHGqvVUslWIeHEw6p4CCX+o6UWilel/Iil2Z2GjFSQlOe5H2Gk4u6IraF6C4vu64EFPH26w099TBTaH1Hn9U44Y2OoTBO9Fu9ruLkRcs80yzsJFap0C2dBn7T5/z6riLoOVjuQPiU0b0vqAofPDJyt611AmrnuDZGOl1d8vl13GLi4c43APRzVGKumQtYvdLB8xZuXtVWpatxdoZMOtUdg3fTuSD0ezOQd8tffcYD9yau1knlmeGYsfczRkERVQvRFqLF9ka6oZbdjIsCW/UsEmcJdpas8wQlac4AdZmnzE1iWpDrEbuvu605FK3zOUjl+jIS0FvrUkXCyCMmizPnQExjps67F5U/vc5YHz29goYMk/7/hlWT+161jdTG5S676goQt7428ys7TaXLfBmfgwHVFdCf5o5bYpcyP46Fhd3mo0O55HJzBIiuzR959vUuwtFLvpCC4L9Q4dZapuVZlJd6yoTvprNaNcjBQk1AC1WbxFmi2XVU43S510LFuYnK+oNJ3Uq/OoyL9TS/fTtylyqAsvcaVm1+Cp7GvBuGBwDhlKyuO3v4g+1I0EpP0oGr/6dACvmeZ8Pw06RVC1Rqzl7lW81+rOXiuhsIVdoJBIblbB1apRlJHpmkvLEKY5p0QluYzcAsypr1jj5iYCJ8QJ960wl3BxNZRvSn22r+xHBnhbNpAtmr+JJYOnp4JRbCf6bZ3hmEk7je7pJ+w3DyHdjWP1pgT+M5XfnxT8B42Th8lrTyTgt8aCxzKwhuoe2qMN0Tc6kjmdhbhTgDkf6tJvL0XLQW4m/oVPPNsG87RbfUlHTYC/gIlGNDx4HNqzNzHDZSlqw2U7RTENcElQo/BAe4rMu93apB4o6L6SmOwwjbD0FU1/PZejnN0LRcAwPN40wSN2mjkvoe8YFFUqZI4E0kn64biOuuNAyto6I44VRGbvr7mhQkwJqQOLtkmNJZelKdgqOGh712LWVtqR5n3sEObuvKVds6+AcnhIRgwlkR4PQB8dtRsAzu5yvix3KR/s4iES6Pr/1RSuIn4poVcM3QfXv3eL3qmyhxZKKOGc8/khFeD7GBB3mESmKzhmg1JO/ejf5mgLcybflzAAx9+D5TCwp+tEMNDMUUeEblg7gY7Ydld9heUSmMfClIGMzJuYN13uG55VCfLk7KIbQaCKyEe+K9ibXRs1aZ2DNi11TDBaAcl/unO2Je3z6KZEJoDfrRVOpL6UTtP4vPh0h8blipyYSucS9SnEwoZXk1zglffxyfUmbUfMKbHc56qCdAdyqhhFbLepzwyRbg1iny9WJWtiSFoaSPtkrIXTKcFlsBA53xcFLZDkDghUkFm913RFS2wPxEms+aTFf4MbaIs8tFaSuJEiKsOZotOaYnnohwEDkpIeGRkP/Dv6nr5ov7cP6sk4zNhZXJOjNxuUQVgfcQamdhgK7GrYoFgUDWTWcuTm0j52LPgegToKie4tRA+9sBgIgIobHQ3cLqKFH+3INWe6AyodG8/LE6KW7TG57uu0kQzwOb9qmbB3sJ53q2Nnx7Rc2PWhGL8NhmD4NNr5/NOMrgOr74iuqEpOohV6/pcXJzBhVsQNvjgydtIgg8ttJAApIjtde0Yfovil8pxNhUGykTw2lrsosW2nDr07tQQpWkra1Lk1GN6MGatj5vgWlt55vJJ7+Xlpb22Y+oaKA1lyCr7fXhS2CvtRpFLhijoz9yw4npb8MwGCKbejkRAyvIYepaITyQnb9gy69g0HjJm3LthNX/Y5WGzzYrMDAAec5qV0uFVNmZ6ae+EB37v4xzYP6UqkGEV4xl2+tynDRWGmzHrUqAzBXed0uwY8XXyLPKQZQm4ZXNbAYRvj+sPm1pxvAQ5W+JiEVSLovv1TTytIjRgQ0UfAzl02+D3xt6icKokkZdglR6q4IeECKv/sw+PyceLV2/X1m3qFsqx1s8MLPTK2s9yUELYn8bh0mwaRNIMDNszUEaLGEsxJt8ykZaIPiWhVZ/72qNMh5udXFGDQcI3kr6uE6qzevz+BDl7i48cE7ApLN0OzM2CF9ErPWYCfU4CmowJORXrnBkTSwY4/MENtnrVqIiHsnq6OqIA8mqKol682Q2zfWxMvsn7hH2Cw5fED5A5AQPli17nXs6xmVDLhstVnZWcjDf5BdWMiXmFuPY8B3F8DDnGAL11gLMtDOMSOvvy78vn7addrPtENcOdOD9jeg4D7Cg8M1iO2IDZfg5IV4tvIrVKI6NEkd6j1a7DHCTqiUO8f2/CSWAgyM/hvxMjs/MFbxItZsuDErHVbsxPiAQzGzmNmyjLA+fKIv1RvUe7krcfMKMJxBPNqC2QArKSivj09YhR2NdORlooc6zTnrCvUplgHxSQ9i3lpRX30Hiiszfh1tAa7nm8aHIVYk+9MUPE6pAyiyV72DkoDvC2K9MBl1u/EXnv05z4zhDdh8As/r2Ft0+R2GjlGdjwQNYP8yiuqv6r+gihlT8AeRa6sACT2WleeL+BeJEQydR+YOasCIG6ZqQknWpCPhGGCmgLwwR6wZ3bK+wo5VutIpw2x5sBLdCV+ipRTOcriqWp9tpm7BbO/5hzoskJY9RHtfJyjl0IPOacLdyUHv8BG+2QfZCsFrBhJ/cX2jRgNF1hzasPaKxmvWmsO3C25MI1PFHOf3sjl2yCVht27mejJklhXq/uuut4B4x7Mhomm4vXpKFhVR1Q4yvh0BbQzpxHgjVUCz4WLKGUJxa/2qkI7FWRIc/hHJCrgsGqdBcwoP5YQ1ehUcM1ze3Ncf90MC5UhG8v9A100sMdj1eICuLD8w+kwtl8IrjcuxzzxxtviLOqipMyGTpDd252qqBrxz6gJgUGAqsqqwiRFt46Mf8bYFjzQ/++Wy5zpSNBexBh4jaG4pS7M8KsRutE+ZqShdwC5eIpcTS2Z97Cptecanzfyc8Y+j+vY1DYHSBcXgEVL1SAOYbiMhJR5YDzAYct/7Hj4oHytLGgk8CKs4DBDtt8w1kTyAeOvfQXjp5acYhDdpxdKbg1HbympK2sIfO46YujYI+DHhcanBO5N4nHPk04S6Rah3CJu5f2gVhRLqfVhV44nZO/cNWK/R59Vd/oh4C2AhujLtIdNAnGQJHW0UmKi5C2JMKOctr6kn2R9SQxsIGrY/ZjeWmYoycUs480uFve/pvlVpc9ngp2LxqA2VuodYUjfkk1KadHnnnZRzOqMvLf+mfklQVnlwJk4PLY3/gimSC+w8sMCw25OkV3kDIx2wzEAaj37JB3gDKI+Dx0bK0q710XoSvtDfe4HJZ9oBATk2wDTvTgxCnuURSIWp3170tNnylUTg1fdGMZDVtMWmgTrgXvdmkrdPOXPdmx+owRNJfJZiuxLbdchOkye4eLBj9tbSvyFegaIYahP9W+nItHq0adpv+QFYWBZsCzdrFJPuWn/fpMb0V8r9uYePaEmDwJisq1G+lqEsVIahYyiGjlY9ZKfHJfyAuGCFtnJ/lthAqQ2kVX5VYuPGdn2jDX7n0QKHRaoPmxw4qicBqqzZSmcm8CQ2YBlr9OOWXtdi2jkrlQBbX2zXtSkvmfzk/bewVCho6RCkfGYgLFHIGvvRqQJ6EzI+/MYnJicZA7Skm3fd5u75o81V87M+Xd1cqfBNvtCnuRrt+mZB+81Xb+vK7n8cuo1ROXzKgrnauWT+Im4MscyeCAQazJtLnB4lnAzroBX1iXaK8uJDqoX+48c0WXAEecoc9bu+8Ig1waAZlOAc9p7MnWEMhpHiHqYOVujg6JznCaiZaoxce4vkQmvbDToMsx3sG85HOfb4MnsJ6uAzft6geULcp+apwhPnEGNA4FjnS/mkE6vdNUnQsGEDKVKCQMAFSQM4Xd0wI/GlPdSvxctcpYyk8lQ72nzZyColY+zfycqKkPaJW0b6hcpJ4+bJUBs/pbRId44q6WciyVTsZUPKgQYfR3RvDwZa3ATUrIAu9rd0yMxWFKLWYEhzER2Ku4c8GKx8AC1arUIA3w0zryQQyx3t2tWWWZP1UcH2U1HBsuMBfclDJ/vQVvSpxHQfzKv5MnZViwGSq2yUqtC7T8jISS/4btZysx1nAza6gk2TY4uhrWBJi2rTj0dAP4jWZyloiqEvaKhVD2MfUkPeAJB8CSfK47MBYRN+Dur5IwutbDxng3Eu/lrKA0mTbRrI9d8A0SdRxX4YqftdZr6+dO4dkRn72EvIWYz1mvgdIwitc5f1CNO9DTGY1pODFovIYMUKJmImwhLapkk7CGto9vVMRxFhZ8ZBkTljJoQTQ5TTibZpwMoilq4HpRndRo7r/kvMRLI+9lmosp/38gAG4XcHLFIWzSc0b5q6wlvcV9dFYVrWHVLofqnc1wcHRxvKnboqZfOC2eDe2S3euCJxZZocxYghXqLMCwy3MKqRoEnWRFXeCORwg3D5hF8WlgL8EapnFdChya0spsks4aPvBgOAU2X2XAErhC7bf4KIKoXbeEawonSBZcwzID/H60nHy/mrGyFg2TVrq9lFeTBqkdYVUCgncLEvwnUlmz9jI2LpqQ+n9JD1Lgz5CjRkNFg25uPxsjmRJbPPR3Lu4FcL09FgrU+IYNNXr1LD7WZAJ+jER6OigQzv+/6femW6rtSWkgzMN0xqr95Stuqz3aSFfRBvyMXVUdUqqOMYZ0gZnue6Q47vaHHxNz9wYeB5KaJKSn+mO7heiHEIC+8DddrzyQUG5WePO+AsWnCZkrbU9WvrFFLWF6RwCUNwWU86oNpDGUWH6HuKtP7/6Avj7xfGQjYtfPUQ5MMyEnD2ShjEM52b+UIa2xg1OQvaew9kARtQ1rSBkRd2wgIPD1U8oIoQAk3SPGHnCb8Qw66a1hnmdFte/CnlAbxi2HuoMFjMZETmlJ/aGThywNIdbIb+luSVhXa08fP3lGTNKccRruJCYlBibUHE9KasXNW4C/D0UQHuIrMoJEs1na0mfoXlX+sz+ZvuAdNxMNB4fpP/RtU+uPB9s0qYE5z2jYRZOtVootWTqbEC9uLTPr0Mr3fsHDhTvTpV/WKQeCSkBmfbzZucGdCr5kWIFbgn+xH+fZdSuXBN1NsHJeEIahCCtGsl3YjypG0nL0JB7SFNXLae+wCSaoKKCokSMItjd1FQPnEPZy6w1/PtmFyhp65e5RDUNX0WWJwEbwCjTrVQD6RVXkyOFPL0DxIvkpuULVLCP6fPJZJ2jQnh+X8Qr9T2y0+wIdQzh2n+bVSbvyuGaMYx6HU++byJLNiNFHE9Mbxxfh9Zz46qRJW09xs0mRJXzrwc7CeTwi5sSNQAvQGCuUyNr+zrUox1gvgYsZgokTQc/pB+6ivx90TWJZMNLQDRMRL0xJN/4EseoFAExPVHrzDsZl8BXCMbiSh1IGz3DgsOXFmH/lH5tC3Nhm0Z98KsO3/ALWCDsf3RY5MRbs9TEZ3ln2cBF4UFHLferpcveUNrgB4KT4cuhHtPoW4cbp9RA4U58MR0g810Ldp2FUjiB8XPUdApNY+ORBdnfLRdNE7xi3NIFzzOJfh34wtp97pqP9yHCtTzs9H6VNgUu+Cozs9Pw4GigVTxA2mvhGEaMl5KVe41Drjm3QuTegHzTd8rS+8q8p8AHfy27TLpvUzmKhHmGn7f3hktZAPQEg0rZZGdORCwlnG9vNZl8wmZqSMfjYN5OCfdy0n+oFWxDsCXHjKKiD3IywQSz8ZXRHpZugj+7cFLSE5pmQ1GsDQVETF77kYlXTelBR3MCNcZyewTPzD/ItJDMVafhaieu0/dySmPuVrOWZbxyVUtc0Ob3U4yHvpAQobwsZzThY0QF92gD0LQ5EY4GGkywudrC0lvx6X+M3a87FETDEX5x0pcoi5JCNxnqg/kv3gai4BSD9r0v+Ga+ad4amPypGPZfmcbGyLSd/LKtkbvkG3E0ceZSb7zbCwb4pLsMQuDHMoWrABlteF/DufSXDZE5KfrYvbrWjjWCuCYYzY4HbiAIRENVGR1dNUbzCvDlPSg9dTVMhnB909gFrwlN2su9yU3htc8HbYVxKmlRRS20O3kx9W9Di80qongJb6buIwR3CGK89vuWTM0fRuaIWlAi2wYFVEHXtMb4ySa/wMpW46mB97C+ROEzQGCB89mZGZvdLszWNzjr23cMjkqql7YN1BOlFTzW2Z877cG8QGKXPxPg3hBmxa3bAuS1I9rcXZNGnsejIZBVm3XDekHSL9iif4CK4w0M+ryAvzfhDWnFwwhOuAZjhoVlskiY29/IM/AIzSx8/7y0PgWj4rsQmuUCWtbBbQVojcxAzmmpPebPaLcA97RUB2JY0uUOJhU90ZFIgbLV5sRbDZ0We1V3kc8X/0+tapIjRxIJFGePxCDIStME6c06d30Z6DQtnAKYwkfFjgSkSjB7Wnymv1yc2rd21tQfdwYVtwO8fpaE9+LvqdD/MDJHXEwXl9gIPQsGoqmqjDywG3329aNxjULEGWF4HhW/evWllODXb3YCfRMowAs7zeJoysV1AANqdGUjmH/x72/2SBnl77hFmSQJZ0Ll9V25KV4FoJ261L0PlUI1/mtifCnIkWih9a/0haURPr2iYzniUTMJ2j1dcOT2DrGMdZ5qcIWzGrK0xvnOAScWW0jGheGMONcTR4PydaS99mNo8J3buwixpyMOb6VH1ge+L2goUVsXVL5Q9DGovr+kD2YghUetIOxOkzhdQUowvPs/GrUf7YV/jUp9FBBP3v7xMySVI9cfKuPz2xL/2YeaMciNmoIhjWAJhYAA88D3+uMsEt0XRxTubPbq7EFMta28ZEZ+r7+yJU7GKyX4ZcPEiqDqQlWTecQpcrZGRkIlNnpnnQ9967veBNk5HVTYpRorhgkacznDRQQxMw0JLndy3Gd/tNwxf7kj6co/k4ZTMhP0BJY1AgII9/+bzDM8tIiEh8fgd5jFJUs5u0x01hAeAgG6qNJsAq5C2DDqU4mPt6IVZZquPms9BmhLhedOZV3U/Viw4gQHYD9ohd9qMW9l8GOgXsC8uIxkINhDIHngqIzrdPCQAIWB19QcB1Msa26DZ9G4tBj4qeOgxpx5DK66PFrGCQYV3Mg8vChvYueyHAjUCSBw6Dl8ZWPoXsRpBftxAiArdPXIpMpxUcoSRh5G5wq66QUPd07k9+zzHwczCfCLRFCM7NleZvStRL2pM2WWt5vKhHefYMX6MhzBfl9+tDyJeb8Lk6M3AtJS1oGJFeHcMKyVhg209V9+Nxm386RQyHBIHFsz4BRwTEtgNHy844HwNE/DR9lYY+MUgCzYjsANWU6NIvhrDoIZcx2e7pG6AzyfdA+3p8xY2lF+oympUvUAZBndDs/nfhowQTWits7nDA+22soFhOuzvgTab+yIylUeKD7sc/gt7FK7+uT0Iuhy94npm+frCCtiJEIGg/hE2QFQ5oRL7YPc9hK8Fcn1ODuxThZK4YFFutMR8E6qsUXEmVcK1VbQDD6Ad/iX44Es/KJXlinkDmW7lRBH1IIH1UlNx8Sn0gZw0BMr49paggc2far+vBKrlt+CoyLjnCuOiP4JJ5f8+x5KFxl2Ss2+b3soRw8ytLO5YiAOK1NqQYO2QJX4HcP7FQ0vS9YI+km6CHz5cCuJywgKItolR6TWPc/iClGMLCMc0c3DdD9TulujiY2N7+W3zRuL0zTC3et7svkQ+vC/E2KQTtqE7qB/+EwuBZTz0VQXdk+dsP4gqVSKSPKpNdbriBZV0/28TzLYOUBOuq9CqUlDLM6lXBKxhmkt8ua04n4xS9ZrCBdcfZxMc8GtPiwAdM0SZF5dd06Rcya5vOnzXFq96ftIpIgck3CQqDtviBUhxmg9WowB+T0Qt7ashWTk1BIVJmwVx80ehE/CEfoYadul0RbspdWJHEjh22Ox1XdgKX5b2M2/p4rEYgKqErSfEfHkf6ALlCZ3CsYkbfIopBtZ4iOVDoFxz26Oeahwpq8dq1ImNrVQrBv7a2Ru0PR5BMl8J631Z8BkWzV6gZWAFclYpW/cvl/3ggPBqEuAn2pjrFeWrvRVPxNsgcavQYIuhiBCjcMIgY1jpLJj2/c5M77BXOeCpbPpk7Ny8W11EzXju6AkKtOSqnK5DDkAdM9cypb24qiOdx+8G/90L7qXNpckOdecDMhdcJHu2llIrFKXmW8hNMJ1Jhm1b5E3KH27pm/H0CFS19VrO/pI3L89s9fQNeCWTJ1k+23MT6WPymT8CdZ46Qrp6KYc02Onl9EYzqIyOZc0Mm+Bgy9dDSTsgBYDW3YSZZeUnZTwj+ttsb6Ao2IqRcPAGkpBCqMLnmwHmFc4EeddaH5fKtROgA+bkpGec+jors9wi/dx7gGWzAIKVQeOCz6xgSRaQuN8HcB6WoIIrZ/OAtVeqOeh+cP1g5q+VQ6ol9j3rfEyacRMI1vA4Hp+8thrT3PzExhVQekoL6XBje5OxRkj+bXkrRNQwTM2t5S5hvPiuwjM/tS6PPD1Q0EzhEQPsVIG2TRkjYOs1mTMN00H8sAGicuvzZdWIx0n4zS8PveK9NH8XNhr/2MCA5+qJS8kow50VehOIXW990QI6mXBOOYogqyCL/fD4pbZ4PIf6NKHmpP6Zuq1SXV8PPtv6iVsS8YfMmo60tXurns6kB64TY2hbZGS6FzR0DllNHZnFR2mGn48sdUprvWQ+1hQd//5EeVZCPy4BWV8BY4aWI7PdNchQdA/6W3mTiMwYWc5bSlictm+DlXIMtbgB4qbNeiIGqsbEs9H3DErhSBHugsmZsG3pEHnIaGgtqwzV651ZNI1xMDHtcy8wqhCQc/VKqTasSNodAUKhK8czXjJKN7FCEIhc3Dy1AHCuziLYKpzF/BBg48Vqs72rzTQaCX2BHZFARVt+QmjOx1gB13ddRjVhCUj5A477d9UuOKmlEBM2mBj7LqdNmZOD5eYQOVhhMkSyinmNhpEcWPuzOfT8Le60Z0l/DsT9FLfXyoWlhACl4Ze1PkGhG/fa7geOs3sDlXjKm8xfl9MLhecPEqNclYPozYmgTqNbwE1sH2wUz3S9hmYbIO2Ek2m7ljVerzyU7Ykk3lACODEuGJgRnmwSdq+E2xPmPk9xQnPPQvm5fu3P0i1l/5334W7o2SoPJ9KwPU9um3ehliVzSEmrPJr5lp7S/XHA8dtNVAT7ufgqbu7SEWXlTIQKSFHuNE2V9y9ZYA4ftEJIQshaXeg4a47XqKmMMJMxI0tQJm8VwOTZCRVnIpE+3YCCr6PiNO82cqWMmNlZdPxDq0H4CZN+jbNpRdqT6STYp/moXE7GBCQVvxdx23P1YrjREI5k8XCzc8d5BT26fLvqQQzUmiquOYBBvCT11/bjXHKbhtm5/nMfI/hetH1UbbHJZwIuHmU6/03jdECim2PE2y3agIoJCfBgL/gCw+YjHTPLjP2voMCBwsI5HC5uAAHeqLRFIMaMsjyLDOBX4QFmPUtLuRwMslVQ0tSm7dCViLcRtTPO3GYS6EDMRF7PrhSAFkOJ4yZ9Em6UG+l1OhOXsDggcBWSTIdaKEhZauT6KwhmS8nDBrITuclQ6cqVyvO5LTziAFsb9T1j/nUEIHVJVQ5/C4IJKZnnbzXRBdrx+lk8JuV+/D6IEHunnDgY6oFXDYK2jDa0urF+VwoEdbtQcvy7RWzV27YIXkMaXlMFHdM5ymXHh7IdkB9IhdbGa91zivJKeri23bC9mc6KtxEs5DurxMSikowJarIEA//CrFncaMwYCOFLqREqAx6j2ihNK6lniM/imJWp8GDHQMDnNdXqRIJEWecDiTy9TJ1SxfGQUBPbu2UgxKhVmP30X6k5Jibo3kdGRhc4v93uvCYoZRI2w9WN4uPdtC0Jh3kUhxmJj++N8H9aZf8HiHFTJb9uLcTd1PqKA2oIe/tIX+Gjdkb5ZdbfciR4J2+ZTElgAJ6hpYFT40X+PCtTA1HZ3Jna39RGHpT7MWl9Fbc5dB8xxWt8qX5VqhaaM45OydiAeonjpzqSAYrN0FwZbisnKbXLapguHYCebIRaoA0prhod8Qx7zsNZ3a0wLXFfy8eyIu2Q2WVVtBNujQCjaE5Jm/ULMzIWS/3WG+JQS614qFY76ZJIq8luestoLKbzGTRLexZXozJEM4aUSXCUrRnH0s1EYDjDSfbgEaL+kwVT4dLUq/V5HWLyoycB8J5A8L3rRxqfvyvp+l7ngmIKgFgeQQR1gimlNgk3c3AKDo24z6oCwmkzb8Km62hg4Nwbs5D9ZxSXQ9dUxsl4Q++jOhc0E2JPWYPuvVG1bTNCJUXbdvzGkFSzGOwcbJcGpC+Fw7kOzy1bTQt8c8L62Qr7qbodMWXasBjg07dpm7n9Sk2Mb0bw/CgH3UdrlpG4Gv/q2ij4PnbPya5ctuzMSZE8jvm5CUu9ZHxaAQhMzF/AsqnJ5cyI0r3T1XiyrE83+uIX/lHKPDw0XN+89OPPKnW/D4GEF926cUA4QjifzfZ23aLSTD7NHiCbFJ94zXbORwtnlHHBV62imfWXT2jF2ib0S/G5TMbDbMpss+N9i8NfiD1ejG+OkE/7b9j7Vlp9SuPwTDksGuojAsOYVj7jh/Ff+wHqrBCui1QfxNHjD6FnMhcqBTH38YQJrG6SjhuyFUaQgXIidZh1hCWEgu1c5D5LrSj956liCDzUuyWTrDP2YWJi8UjMH0ffhP5F5T+Ak1zUw86VJEMMquDiPaoJRkHDm7iGkzYQYMMX7wqjRA7UWYQ9hxcAwF2g/0ZoK125SLYreixQYnmgJAWPWJOUU/L2WtZ40atAXVm6w3n6nPy4dPeuL3/ms164VEuwNBgS/lBB+HCGjBKbDxxvfAZTMAlzXFgW5Rc/7JLb1qXseqAxmi61zpB2O2iiZLDytcuCS6yF7EWUH2GRX7kJuJCZotA5aYa+2MwCUD0RGPJbas4iXt66ISVIGV4V7FH0Ol/GLbx0JycmOCybR5euvMDmalj4kYgy78gUUe3OjV1lWt0KoBBBjs6qhurKRUX+FYkKUPFOKxC/iHZojsYZPHWpYu10wnSMuYQ7OCWJnhV045FZWzuH7SmnC34p5daVMmvGfTy+XGj2WxKa3NcJ7wnR6IwI9aYXkJP+2lDGiPRgVjpq+rCt5xk6l/yPRdGS9aWOsAEaHnYdNFnx3ugZ/shCrrnZlgJZJnQQZn6mGva4qmzTe+iAdwNGdN3Apq6LXBtXgouPDzkKLAEmVygS64LQg3oMTGS7eOB6GF5CLmdJEV2jIeM9wbTUmDzAh+RIMLI4C+bnowdsqfMd+fq5mVVKzgcxZ6lnyQU9u8y23qEHKKWzotwOicKY0LfwDpze53i3HPLLQDJ91Dspau15X8U/qBNuzutKe1WYdSj0rceeeZqvblYu/pP2GBcmsDZgKO+/gfAzouHDHvTQKEs7CBIBLHoOkf4RbWZ5MZUe/+ozz7Pqbe6mvYDspRH8bn1bXSeuUB4iK1pJSRfIsNhnq/XWdvlnZdFpUSaJ0kxfqSWx7TMi5uQGtAdGocbhcXwG/67BiACBlgfUcHeJdKYu91dwGSM4YjuJn0vV9dTZEqtK9yfFgwWKkv9ZMWIsg8YtE9Rzq5C6raYiXiLePxy4uYf51Vel8uU+STV202UzFvYRBsX97YfvcKc7enOk0Y+CQNsekNxxXXKiXZa06Og1U8JTbg7Tzflz3JC41FxTDZZhHHiWSt38vwtSrFjSygCAf9NI9BY4/TKJXAn5vIGCjSAwHXsfEWfkljCvA4IUAubIlGvY9LQEb2l00oY4MiCU77ONwWVmiLVTGNRo9xyBEX8jetyPj3xXzNmB/a0z3DDSqy6yfgcrevG/nczS771V3267iEVWAVXkt8ypiW0BiyfZ5gk4yWUaLMy8O/hi1XyKTCN5iJmOakogO3MQSNV8vwYVKfaB1iKMA8m2ATVHxTkfGFoQapv3XfsddCdZxVJn6TS57tixAyCO/PdU4W+uGestOl1wTvXTujbdvf0nkw596ZwR53pG6G0f4a69eu/bhOBCVNA+hGyCx2vNlTGFbZy6mywN/Dly6Mma4OeUNoB7J6IQxH0V/6t1znCvJUMn+szmds9BQilPKX0hYN0Z5nkMAfoWlrcmvLgLG5Sbk+rApvlni5MeH3A6VxOTYobxmomP45YR01uhrf/91xrgCcaSs0wbu8d5YiyfUTkd8B7oqh0j7cSBl8EGHSHR7t9Ae5H9D36pfcI7E4yqRTL2qD9rckXW0Qef58oi8W4TdrMJeBl/UA/LFL9Jft54v3lfNs98v+KMKvQTz2UHv3AiFG5HisMxwrme46v9NsF6tpnC7td5t0lNCnSNF9XaxYsPQNYyR0+8L3OYj0Hltw3tWeqWRX3DSSyt1Vhv/sWenTu3KYTb2K6UeEw2yepx45aJgiA4iaIh90aEzx7Mbt6cLewYqn/MllBLZGn8GKW8Uw6m+CJFwP0ecQq5Q6SdlHMbBGBTNSkBL18do1I/B/f8YPpIFzrRkRotrT5nP3AmgoTB7YWC9S4ISFitULbiSJpDe23Eu9SI8WYofGjIEAAQ+91PiJdfcoeGO1l8Ce+LGe4r6AIqU1deE8udv2R5FMebc2kVP3lMCsKegcUuIETl48eZAHuKzMoy8AJiUDXBkuzkxtX7Jko2puPn2bbpmCBLDUQ1REiri7LW5fRRGSTvoXJl1bP1Y4Kt24nCEHxlRkab9lGVww/Bxyz7DGjTBYMiTYlcqUI6Sh/Hu8bu/mVRvZz1FhcfGX2O4WlCjd+mZoqFGjOWeYz0gSkrcQy5Rf6vrgXsHIOAN090mE7tEcQfS8avVtM7cGi0lJK3bAyu83mYODKoyXo8waa8aSO30zwfM9S3QIJ5RKNv7Q2ny/El5r+eQky0Q6Jhlzkf00rjVHmXJWNUZYzSKC01nhgZFEjo5YmWHd9aSQZ+oSp4d+ZYU5d1hRwttkFwP1cwd0uEUAjTAHbRRfZp1gqYkD1U/CQswn06t76f5hf4Bi7Uwp2SNpWdN8JtMrVglByL4tzQWf3vtb3MjKakKLCmtXCFrY4T/r6kK5vF8aeAyESOjboK3pxS78Z0FdBmRMu8ll1zBPImPAujg1zOepbQ/UrHBpfWSRZkzZTN7AYkSm00WqR9k59679P+JnM1d6YhgDEasjIprUUCIQASXrYcm7HkGDa2jko8vEFGTZy30y4w0OenR4JX5Wnsay+vF9nEOdsf9ZHhpnKi004/V/SQK08StWBLoZ+/48TetmIkirR246+urg16fHMV8JRN100tdB5h74vJ5qRaeZr1X9xX276fSDBy9rD2VQVj2FgKTif2mmTdLkKctlucunAZh32NvXgVV5ujpHSUM8gBNvG/yga9/SuWvS87YwJrzyeYhW7BkDrWM0E0OYUuZdWnKyrmwyUlXXoqgRsZp4AmE0WqD2tNuJcygEEnghWJkWI6NyEtByGlVxrydtw3DzmJGxD40lDf4+sgmM2Ma9P9HYda7BCXTIKAVxWfNHSdQU1tfx9xCFB5ICbtskZ7LLEXb3PYHdTAeTe1Fk2d95YwmEfFZGZtMChQEiTUerHau1xG0ltQmhoiZq5SCZKqy2+Ydj5hy6OXKERzMNynzlhsqOEVsqNozLArkYIgIyaloJ/0v2P1BhucbO7DHEVCBCmx4uTy7aahRrb40ad5ync2A2BD8WiB0Qoun1kw7cifairZLxf0HO7tl7tSziYr/0JTOe1qEp2BU68jcVFFx82BRc36zSAerwuMI7y7DNNohIEJPiZqth7faRalAvAbewVuoCn/yAON61GQibKiKEXG/OchK7XVOVGKtZW1oIyl5TAgwFj0O3vaDmzuPVO9kDFyVhGjspN0fP8Sz6VFpHd5RVHDjlAA2rg+vZirTysDL/lmdAWg9SLs45PYPOTBKEgDcot+kkbhzqBIk0giVBaF2WENxGsCprwwKDm7IcY3JD0w0SI7fqoiWIDh5fQEpgy1uQQhLzF3QkwbLfw+npzUChBK6D2+7D7nI2OhwN6wgsS0Wge2nFBwIIRMctcGTS3X5wnurn3bRdVnO6NvxXvg7PRJ2gwCCL5N0DWL+yQq6+5Zu7HLybCBbJ1D4DDEhMWk2N6ADSvrBgM7fr6qDLnfcz3OZRnPN9FE/U0KplJFQHMKzkxc06eNXeofynG995mdOhbUSNhl7z/kvMYaAEMjRULvIUisSjbBKmu6S88OIcDwtmD5FtZC00BLAqqjLwI11+QUMhYyxcbPvg49aBYxyrLQiqe/Q2AjsLsDpL7btxqyXZGAAsiYvVeYGXfmwwPUw4sh73ttd001C3rLC9aZkCZ0hNJhcuATSOY0syUHS7TGgIcOrkXSG0qpnVq2B66I2pe5ZpND0EcHYMN9r6iSk62z0hINHKIZOecP3iVmVl3xq5wScaHWYGwV2B4EeTKxpVoHcdySL8c3ZYXjxabUqBZ6giqHt4wLeBcX0RmOFqLGjlLBduyMprqCob9SFcT33gjZEM6LyRZmOX00VJDoUwukjz51FhdENl6yJWFi0xvUpIGLbHRFyKGq0eSsxXEnHp8hedsnmeAzIY30pn7RriUfHg4nA1dXIQjXSBJQR//aVF0inay3j3TUB0xC8ONDsOnmqyRn1pc0HC4CFyMWXq3KZa8x4askoqLEOzFxEfRpvWZP04cviESbxCAHurVgKk/Etita0j2q6NwdykcIbGU4X4JAZ/W/WXltAxnvMTZPFFLXC6yemSsg5rJjTbGi6w4F6lJjIQ4G323XMTFBwDvjbXCkNl140WYr2qFAhJY5j12IRdHWl63rZX1YyjBZgK5mdRX80l82j/WwQeC/clvsVHkZT5GWUHrK/GiSVrJ5bWtpxZOWHuqv0XVEPQG6B91McCl3cQ1j4h4m9sXoz+5ybs889pO+o06BwF1G54lJzA4X/PIOGo2cLe3f/e+bzg5aHZ4v6uMU2t0UHqMuZ3mB7BTYvySTGoYItm5ALSoVa1oJ5DTxEyKB6++7CiLUhiIkrN2/9jLoc1st9lIr85FZIFGuM7NLD8VfQBdhPQlx30Bq0Pse/JhHDzusp/BSeZsybteqwYM85/+MaRYdhEFy8zt17rLKnfSL3Np5PwV56osBDnjUASGO+yMUf9i1fUUlxzSV8ielAFcgs3u8ES+pPu+vnT52EBHHelh8cBCSYWyAAHs+xOyiShCOGp+3LNnHU8iL8MHU+mX0P0DBDpSfSEQeYiNGH3f+wnntOAud9JETJFvMAzQs10xvC4FArjig57zldCMu05OfgcyU/vUUaPqphRh9eOsJs9g4DQHGHF2gC7fNgJiwK7JTZkxSO7jhniTwTVd079P+J9ceXWCtkKXDA9g/eLB86xH9aPC4ApUXeyo/t9Qbgy/bsoLLd6gkPAFWHg5Kno5ynljKjup9HAScyUZWHaZcCKcWoWz5uH9VZn8GniKu4oG1JX0iFRMsrWvAX98EQ4oCeaIq7qFhQIJm9w/Mx6uhgVWrRQJnpmOcBjM7KWvAL5xtvCcMmvJtSCnrpaQGif0uAZrfi3QRtTrDWUbK/2DnC7/LixpzU0N/vGTYCPx7K5VHyElrrGOwfNvDElpg8hF9KEY1gA27y5nzIbM5Yux477hR1MWnNMIESApaW5VwIjljqI+eqqFRvapNPrirTQJ3klEHVS9h7ihxS7+1xBLtSP70WhyupRx1vaVs67RICk4PfEhxyTKAJjT7iVNI9mRYj9PlPeR/RRJv23OPn3SOQeciNFQmT44bxBjyxDkDJnKxQBcUbAIZNleQn+XIRNxQb5I8WLjt0UhvmmQnEaK3eJ9okC+nqOd9c4ZvHH5zuvDHWPEGpVdjoHf9wT2vkPSRhwuA6q1pG9iIMoxGUBm58Zcq6skNjc1pHRVPFY1fIgYAgp0XbRKh50xzhhGrGE0qoWRLkrcm8vtBbWD2t13UyK20bNRMIF1VL7RLN9MR12abI4cBrMzj3qBoHuQurGTrqZ3GrzOPZxTqUDVVDzYLPW0Ri/DG3zQeaJcOsvpfNOEJbT2JYjVtq/+XRUkkekRLBadcD1OPoVKPsZc9SAyd0sJazvpTatnEY3DIg1RQBblJpELkXL8lCYTSpHHiyrlpy4Z1uo9wzcw+CvxFspLdsKmBkgFvGdwW9e8tIrzFQQFtjUzGJ3VJOnuAweMWnbwndEj0oM8h54R5jCJfd84PvFYxQ2OeAkjZE7o59KHm00XW4aNR/iqB2UK3riBVTsDlncpmhcRlRrXeOMocu/R2REcPpYTVcb8FbcR8y1DTwpHxYlzQAZpjHzMY2GN7Umv0tlQf92GeNmdF9sAJYvAvRpnM7uHiM1V6zrodSQRQa/rec11QnbG5+nhJAz1GsHHHwCjfR91zFTKjSfzxUWfCGEkZunRcLutfIuLr54jyRd9Bskzhuma2/n/nmJTtY0j9OvjPKxlAL820GTjyaQfyj45zaZ/VbPSa/GXsPHsb7+NcAxwdGIlGZaCGAG0XzZi46YCdVrJ1Pvupw8h6AwRDe2aIDC1M42CXbk4+VFxBmbTDTLZM67FNlB7YNFsp4CPyBGnqIL6fd6cIV1aYABN4FbjnWtLgHacBrj6F/ZHSBRvtp5tNmdlNkbzQqGkMh9Wo2+CTMFUGDrNjCUfTwyRe/j+O4jrO+YJC2e8R+Naihn0edWPd6XFeR01TCNp1ZB1w76kjJh4CpEdQt8T6DYVqNwS4xkwP4fPtJHuqY4twzjz1da8l61ci+0x2NxIMwXSIjBbt56n5D4CgTx5RVBTLtHjtzC0Xa3OEjkjZFK/4FcYsfpOfZCLM37CYzUh2eaOPQapKg01dG5SsdaQc/3baoe3BFM5BwG5o2syWvj7fF5VQ9RqB+/7C7Yn8Ntsv1wXEdiBc9YAmgAAFMaIA8S1Bl2dAIv28hptfNgTBs1ho/FEgg5qKHZRQocW9g6CeFOQ+ocglLA8QRIkRyV17bGbwLVwWEyPfiM/SMUFkXqMBBBtX02KX2EON29L2jTOfQ6AhYpHirAFdWAKVy9h5CnaIqA7MAWMiux7gYI2zO8JSiiICK+Hz4dsv9kYiMS4ZB4l+je+Mya5EXCx/b2Nb17nuIJibIlZOOlCU97UIgbuDiHQtMdVveDbD+k7L1CjpcDqMmwUMKl7reOGQJHmny7x7f7QKOn8aCJ0F+7nqVFDUvWyOOqNN2lNPrv1svK1pgsXMk5sbO3s4hO8E4i5Eq7Y2QOE6MDd+9lLX0dlgVMRBM3rdAnmDqWZiEydJHHk5n1vEH1w9TOX3fkzIr0hSo2RMi2OXrY6O0R881qoifcpBp8dqNT2xOd+F6JZvHg3xLcBAW4r7NPIA79lek+N81VfH3fttLHeterdAzXJ+HnXh3+a50V+FLBzjYJHqFg2ItYwfkKzY2viXjCSZkXaYKADjzZZ3og7Pi3ymZ1CURJvYPFVKiqLjS7SaMvLGJ15XZqHTPf385smxCaDqqiGwir/tzeRJO37L7f3/RkLwyyfyZyVn3ADUgahxy8dqC/+aXA+2q9lvH9JA7XWq3miJoOEGlg606bVkIYEO7dsSzKz06d3JIAVg1D6zUzk47iehAt+RStjXfC2ida59Z9ZbdiyPj6vLJIhx4sYXvwq4kS0tW6rkIeAkI3/Fq0Hgv+wBKJ+Ht5rt0cHGe5aAfU6V7Xz0xamvP0IsW7dxFWnBoKXy4g0nyJELnVaHXR6aRAeNjyCbB7sf9SJ1UOicMTQabTFz0nasgSlSi5XJ7oFd1rt19PYzk+uS+YCfo99BPqycO6ArOiKd8trQQnQvCVd5dksGQbwCEbECNsdEGoy0/EQl/mqZ0ghv6rANVGVt77V/d1XXEpi1TskMu0lFy8kh/Sfhsp1DpvQhfDwGOayUp9fVCslBhtK5SwwGgoFC7urCoIt5y6w9R5tN2zb9rlxdV+68RakK6F7ctHNjemIPt6RTqAoDrBCreaowdjMvHUmNeq/MqoSnTGWQIliISLgRQmLt/xkXOUEbBuiMMHgOm/whcM/kA1m8lgN26JmIdKje4Qqb/keGttsCAgRNPAQDsvTzr8Awe2//LyeyKxZ+9PKuqkfXFYvy0gcs+06PCxP2LMRvTpUHWh+mE6r8/nn8u48ZxnTIfIJGxn5tMNyE0RXnrkF2IvmZJy1+CwYAznwqs/oAyVHY+EDMSLumwaCtqWocTyKEij+URPa3XTxDDOjnRWCveZ+BF14aFRv/jLZmpgXOAkvoDyoV6nMd0hFBPFdG3Eqw+R81O+DxZm2T/fPL1BxzM+n3jbppVF/6frP9OmIfb+QQWScy/43efsUglgjmOYcy7ikc8P++1qiZKowWQcdCEAG8UzggBd4iFjz7v8xXweq51+uHtVh7yvnbl6MchMm1Eht1xd2r3VNAysB6Je794JwPCknCXWp5LPGI89WZFBTme7MVkK37YDLo84bI+bpzC4dogAqINyBf+Wvu6y+SyFWbZgTHyP8+0SVOj6zSK87xuTPH9oPJfepBMzS6O2gOuk6Es8qZTuHSr3g5UcThK5J8R0mOMyLcRDjPdhYU6bzlf6vHUCmxeBri0tBseu7pxiaAfWJLhJpUty/kdLvQaet865eBP7abEJa7w1xsHuPRxFs1LYLU94ep4X7XPPJA+DXIiVhW/9F2w2rV+6Y277sEG0YAoRvRoZAzPI0c6nzrarGr0DYQ1GzRunNdZQe9mnHnFIztR/m8ENzWpi9WlsRukKvvl9K621950/U801tV9XMvHGlBcdhIVS96+tVHwho8CyektD/x1jipfiPSLxeitgsVaiAgMQjgFOzmn5Wcc1t8jgNzatVdBlHE0cCBXXTE2U89bbSDKBn/gbS/ObfH5EhyyxJPGRr3fiVfs+dTGurRi3V3AXM9hZf7W+KWiQ/SAL3V2mBZ7Fa9MZKiozJmv8c6p3vZXIK+aRLuuoP9oSg2cIuIMZS48WVU9emrBsNnmNkOlzN8KeIqBxqelocBcHo8iHDpLtKDlUFs4TvLy5Zo15QQ4kx2iHNcwt+QQXP1LkDJA2dOOyn7hcWrvXwggM4+kuDUuaSKBM6qz1waGIL+xpBTJGCJGVdFUq3Hcg6Z4jkCAkar5YlvZGmNR4jzksp78MFZ30afvgqDMzricqAarr88qVMgOuqRLV4USV5maI7eppV3t/i5g36qgvVtAoKrHCaB1q0xfo6LIuaaJ9p3aTxQLobdEUiS7jPLa4abz/SXkVoCSKJLENKx/GyoU5svS6KAxQJtMT6FblOq2uAgO2lJbTNePb+80BICTEkvfnlU83Qb2kkeqnJfBnWXffhptptmZhySn7h7w1aa0auVLYD2sES4DIc9uAIHHBQ/uD8yxIvQfTl1uHqxeFc62JMBgb2tVXMQosroHNxo0gJlIJgjgagYsfLQQMugYMeMXzXetFX5PnYp40KiImJ4P3ynPoIp2ArnxzHWEp+K1X03L8JcrbT0AeKYP5mGX1Uv+GYUMeaM2MeeigK57+lWm55w4c90702NmFRZqIKFSzQELODeHjNL1k13YzccQ0ARCVovvyiWBYt7UrgCnpi4fVtpKbMY+npcyoEJd7zeUoc68OB3g+wGEbr8nUFvPqT+VsdNF1I4V/3PFxpFBpwUgPoPp7nk5LB12dLvVbwNHM2SfbDsUGn0QzbyBu7j7Gow95Uo8NksHTD9bxElmOyPw8XNGrb0ysgw0vjlZxBW+HrTSEcJpW8ghJ2iB6s72he9RuINXTxWTRYUo0SCz8IA3jI98lnFGo5/hpOuUJhhyfvsPH6P+91R1h6L9LraiJwc3JzZZT0lghwOk8PKjJ4D5urOcfpUiNqKfG+pVpm+fCh3nP8nM4ywWgv+YLBNBvn69DjgkA6dLAdtBR86AI5BmRVZZLrNh2SmY88mqeoMRNavOwxj6mUdPG8U6VrpTOzsQAhnvMGYGumr2PXkZmw6R74R0QhSK0ykLHbU9nowq6LGl3tBf6DPP35EfkYOtUel74cQZnc3F8HQQDyM/eK1iDiM52cEKBeoyx7FUcRPoa2v/PPdAEwmAEOYKAeWBlAcJThTxZrt56ZUp0WAOd4AHZmIi+TuOQknF033OPgr8uXJ8NDNZ+P539loxA3d1rOgJjceCHTl2V2K1bymC4XEcR/CmLZGDI81xskvHde08DECmkaT/yK/v61f2/e7tQfrl1XSGujsc5YEFpTJrutyA3C2FuHAQphlmQoxrc5r1GFRr7AuixfqD16eWdpv3sqBy2RVOOrhpi6WYk7/ykoHlMTwvCg7CZ5+/IK/K92HT+gcVodRPCkSvDjhFhULcJjIwkI4OX2GWAywjgC+PNx/Vh/QcYIB6MAYL/vcff/kE0kWSr2mU0XwDJKlbeIhRTtkvVKGx/BEkXCz319mDLgG7VC9TaIHlIW42tQxU625uuGHXC+3af/tqUBnK1WJhq5Dci8vBjpqiSpsmVuD0fIzk59FyzL+mQd7F+z+/uY+bh0pvoaO1oayXhCWCwDTJ/FAFBmIZUapqs28tE7vHvECRn5wQWaJpbKpUu11uFVkq9v/owpUQ7qlJdSsK+bzFkU0RS+lRdZyW/zxnqaJ2Tp+NRBD8BF+EwcWofWbIgljnPfHjZmZR6kE3k1rSLp8/ZBMgM3uunnoJHWt9p5kpTOerjaeLBrw4o1nhWwLngC8CBqXPmCILxv3RrRifFtx8/ZB6gFanCxd5cxmGKqFNZ0U2OtUHxL+0h8NqRYXFcu6iyyZms6mcTHl6nsb0nxYXZ0hxtVxpBMuYPv32kRjUeruygxCDxS30C5ibLtCiAYEhpcPk6DqncVQ5++K6O96uQVR5ufXRS0nahKfQGgWQ0pYZ4DfoAtBR1XuIEPH2GOKvPqpozwwNiPVgo4iPnwxZRm8ygcVjQqWBp/hrOn0aXqchemY0B7CoXh+vQQLUbkW+O2PJV16rC1YwEKsfOHX9bYiCW1aOIgrAvsBnHh0JkEDPtMGaVczWB4hPLIiYkhX9YPqQAdSK6rX35AAgjWFfyi01egqLdrGaMxmw0z0drM8lgb9saK+3M089xnmcdb0qVchLEr36ayEW7pp+Jp8wXEV+54Hnb12MYVpfknWCyq6d/7Je1Y7ylMFFtLaog2ucDJrWLFuYbDY94xgmUUK4FXE+EfwLeudK3q3j1K628aZhyGP/kEbjRMvJHYrE0t/WHrNMf+CWS1W5MboWSTXaJcdCKDt+1uF47vrsnFqIaNIV7BQD+gcrGL3VE+rV1U4aH+IrCpWV7wH5oUfBBypJ2r1E1m9XU2930jiZW5kMP/0gPa3+s4HKU+GIrlbGMsfEByByzXL35TBWHcUhkIhFBTKF39qxa3DsdrLj/pL3vkdCw1w68SO1hpolrexxUtKmRIfDl+wQOQC5iLrHAYhQCpmBq8RbAe/MnNFNCXGhHBioFYsEc+saQ7n400zgz6RQj70HYxlUQExh3QJX4nnWBPfUkKT6fhQ4W29JMIrPm92Z+aDOaDJU2yRQ/d3km/bfNI5rc24i2F3t0lwhAIUKrwTWeQyysMCZwwleRnAQe/1B2ySOPMR6JsJEolEmQ3XfEkSzLvfScxccWHdy9Y3TkzRDyegZS7VitElKQljpqlsbxCMyHIYWm5LxXdok8stSgf5dRLo/brnclippuA7Tzg/OoPU/9dKHzh2YiOsoXzVb3oKeZhfujDH/RKg48LBhFZe3YJcMaurmULkPpk5YR/PDle5IkfA2Y+0QAS628SR3YLwvUB98sTfzBOQXg/dapv6g/mDpQ5y0s3yu+TyboV2x8T/KK66SclOx/j+zbEbUzxc6dDMhgP2ATnQtJdnWCjySjgimrbGDPS79EEuRRnC+ZAodFa3MsU7ShQxBQgAbtKBwOVCnc32A5hXKUG6yrCCIJi8WySymFwXTJzuKvJCGVDV6xiW+Q1XUt1Xmkyx93x2f5Oj2vryy8jmRhp9IM0WZfKAlW0q06oYLcF+Jde3INpPbLsdcE9yBCWJj4P3tULGzA+bU2hTyu32WFx7GK5Y0MQCpN+AUvtmMyJ1uE//Ep3NoaKp22NFi4ZIIbvZEIw0oOFwv3QQoJO8mWZoqRYb6u++6myWavp2YZ+Aeo7enNyWNcK1VKDzvj7GO+RuBSTjJ7VhXrZQ19vSjfXt9y2jTjeRHFgGpqflqU0iVhSGwK0kJuhRk6H6NEVyHgFbLqNaJ+od0P2RtWd3nMnhGi6IfULV4yQ28yHPFkakPmV6ek9SkMyw1O/8e4LHDEG8eEbUneXZsf6v+cFIDiOtBNP7he/tHfxtnTrsaiyN2o+drasfShfWQaBCM92B5AGj3uxM6PbYykjljqsGa4tpOjTA+xwpq16YdJv+UyhODdMBT0t6R7Pg5CCMPE+07NEVn+lTEoP8nUW2MqSTzbeMCG8J8nydsD5CnbFpVx3cS39rv09jSsoZoEJ/AFlwKBgq2/YuDaajx8071OLvzeZtzXcwri/y24nS1d77+Np46mmcWoMY0/n1HThSFgjUzH7eAo5XFL6BrZ04AoI9xB0TKqB9EZS9emIQKv/d6GhOKkqM3WLhR5qu5plISzVUEGTMLaoMoZap2f6x0rleOBJZi/8lootJ0bIDkfwmJUen7PExn/XOeEGp16x0Tn+bxoEHour/1jrm/e18MwzLXPTrBv3bX6hJuJkXFgodSkEHEVDl33wijArDjub//uvFIsuf0MkPECsEStQoemAJAWS+88MVzN4A5Tc05iXUFbho24xeZSvR2HW0BseJ9bFgb6g9LzeF0gWBOIA5m3Zq335f4qnrJbnyMYiWmqY7HTf0I6grdsR3AFfsD7g3x7u7C8LgftrI3W9bhH1tPbjK0U+kNEcra0IDPNavd6+maTnmFlFw44U9IFgVlHqZb0XcebIVvmzqDaZ/pTYdg52lC+GI229owWQIwdCNteD9yWLdjgcDp3qYEBlwov8ug0yRcAikrLn/UMn802+CrGZMG/HxC3ExcwKBGzt+f50XqZ1XI/JT+MZVDg6KMOTWI4VICIexWJ8WZnllafJxndZtpE3AWlt+2eClqfPw2CkaLh4VRr4IVYV7HCNlJ/CvqTOOAwZvfC6BHr4MCn2h4i4IBF0hRWsbuCrQ+5KNYziBauZ4AfFUA8IKPaQnP7YTFGdUWbhR8AqLI3hwhFcVTMl98Ulsjddb3/X5X8FXV8ukCgOkhnm0tvZuacr1JWic1eebTNLzXdfadmK3TzZhRJ2IPgVR5riYVlGWqYYXGKDFlyNp3293YFoh7TsbwoSrhJ7IVeEhbcxBMN2z+p3vca1sfCYP5eFkOLXILRfQCI6++nSkZVrML0OeGk9zsQLPhbMuWWjFjH4YDUinJfNk1Ny3RMMYMl1lt0AB/0xOWirN9JtM+zU/BARYp/3k12FfXc+lXITuJT1fm50VNQSKqmbhE4pR6SjZVXhfDaNbe8rodvAZ6DZ6fGoLwoRa1UeXWOVOOp0GDWrcFvaJsZGAnlsxpwXWhHbJCQoUbsN5RxxH814mzKRZ6gd/8shsVMHssf5g6VfcBojHmlHdPBTmkp41ewQt0xfzJNxB73IG+pZs5BUWDtSKo6IcbgUeI9AZxPL5ujmFNRqtdGgzKCfD6xn48OCYFDrES6US8T4nfIY9ef3ym7qlANymqaJ/nFW27m6+DB448BQoSNBoFcrJ7l4aDfSYDyqTSMdxAfs/MdTijGmGlz/+83bIKc5IfmOE2oBJAemnyTnuXtSMgV3weWdxD6EYMC/qCGZgmPdt7gqmGSzRBfL7bmL7NTnQPhRxB79zjng9xKEeEojQaB9DASeFBT20VY2GrpTg7YsRheYZH7tq0wSvEAMm20xUhTbZY/S4DOZFKpaRlFuho8jxCGy33ewAIYudt4eqng7hlmkWYkvZOuxs7W8q+8yGEKWzT/qOfaTq9VoFTCWKuGIHAG9lA5FVxFm2ewzbWly8VvC+00S7nqemmUBMEzws/zCjm07TP8EYiEI7kBDIHbb9MFHo7SiPnAMnMkaXReGfVptveuyuPgSsQFgyZX5jyrHRqatw+APDQa7GLKCiqQKgb6017gzL545ipNMpUkaGIrtdz8Zp0ch4Lp5ngb3qVYS2pHxtj1tlgcN/1dQuBkkBFYzTYghH3lwk/4JPB/RDWOHBcomb98KsW2s1KGSE3YP+tJIs3DXpPgvZx+M3UbgXFoJHFdi6FkRTMpk1kNC+unPBsLW+PRlYwhWr85HAw2RNP6caKBb17z1gEFNg6L3d7vdgXC4935lT9HHSjHPai6hQC/3NXJkx3Hg5kH6UGMS2AGOGH/L/CHJs5GU1QcUoOYxzIdvrYIDQu8oCsN6b4Ndj7trXKiwsLyvOZswTcQ/4WygbYUya6NaFE7Dk2Fgh+MC+JmjdtrQoWmuDEOiQ2nTycfLQ1jhRiqE3dP108QXX+58CB/I1hS10VcVLluR8fe0XZq7QebQqXwiQ/JvKJf2+JA2skske9+RnOHwgTTljGyEyReF9IRSWLIIApErC47uTvi9mC23eghgGCNHO5w/QNYQeTomqL9HUXeeDZi/FbSGGN5x9xvad/RAN7eaiYlUE0J+KCbkOqyvXFEf9ZuZ6y9gyhBXaaVmSxUMM0LAJcsvUDp1bQ2Zyf8qg82wwWWv6I0kwVu/yiG+d9zex2awnJKV9WP51q6Sv2oz8raJ8lqHZEYyKaaTp2OaA1HTr4gg9XMFKk4BkpCuNAk/zuQYNyfuz4GN+NqBydIQSGPPin1O0eb+toi7TkgZbz502K/kzxeBUbjWtcEPm1A2NVk4Amw4upXFWAyjD65d8efbyUuGkxS5fcd3ezUwQbXpIAIkmsfxURTrr0dApre9Nvp3w+Y/w+ib9eZXOYHSJGTrMcx6mBdFbwK9xr8BrH5yiVFkLcE335iXENMhZIACA0ookb3vCGSEjxtCQE3Twz+spJUbk20SN3NYWl3xobPqLSTJw8ARQvdOj1eSrzDd6DNosjP7hXA9bIHbU0HkJA6QzWRuD5PXI3TfS+Le+MXcUZVPRK7l8KOiqxNhpVTB10optklvVWPtGDIVRjHYBWwnDe4JgpBFx233tanjvX9yPJgJPc3TCfpPL3s9zBTICFMIVluIV5U2vOngItbH42+oDTiE8MY75Z+U1cF6mNxKq77w0EJoVw0oHD3qssqdj6/9iRn7axfZUrueMPWKbJnVZGn8W6bCMISLl5l0gGJQUvWDtYyUlPA8CfzwFG162Ag+gN3DrWP51RtC7WThjhDNmadXkJ4mhqlZcd4iVQ6covkR6NaoovvnN5Gac/U7UIQ7U7gICBNBn64rT0sQZR3J0jpIR8/kmpHM/kC3KWMyKYxWSteF697T7PL1qYS3cLPfjENWH8SRotKYiDFctqoYF8rg8G2XkaeRt13kAS7HMiBA/0vqgGBOTGCkJOSjwv2X9fwRyOr+TiJ08+aHykWDIKan7aQta0BBkHash5w7VIDvleNLC8TOnMG2tkuF15dDknBGlJ8p1rrRS/hAQcwQKAHmJC+rEvwv2Xs09Nw/Yf4h8XMGMZvDhkFC9aqGDheQ7x64tGvdGvIJK7b1XqJWFGdqewxP+Z6l9iOo/GRYGVqiN/7opdZppjz59LW2Xb2q71fL6GH22yNnpK3Xy82ZGl6scNhGl+DgkYI7cjEn8vYnypRIocIWpisN77Ovu4xkvXcRMWeCh+J/h04ImAc3oS5oszNNQP5jymwL3kobazTcYO7l5JC1iFVOVSHtDzelmQp1jz88Vn0drSsAXBIWm05mz/vw0+j4W6ckitVB/wtOde8OgeKE9qTgKV1a9WJ+kQO3v+sRScSEQ7LEbWiqoM+CEQoIy0UFVNKyf/KNjiesHsXQ5TE1lIuEJ6oEmkfsj0lRWuQxQIjongpw5Cd45K9fNub7IeIdHCwXOAGKv0yehjeG6Onizbf2Dxpl17XLZyJIYl/KeNTa2TiQpUL9Ojk0Vf5kqx8UpuLS2hw/BnZUl+Rs7pIDrS0egBuE2efL03RY3zCQkhMljhll49aaxdyStE5BH1ai2PCovbF81ZaOGmDxiT0ENHO5Dh0HiV7hyEn84bg88BoYTjF6zly/IRjukdjosxM83ReoGLnlpMNm8KbyAdGpUYu5ys0zYhgqD7aUNtYo3EaI3Nr409YdpC24AQPp4k8QDZ2onAqHa9lSnfSRxuUnEe0559x1k7p40e9nu8ilvbIZxFafQFtzck6ATroPEus+ZTnQTAeacnZkD7g7yGxVFs53LXLIxvtbsTQORQxqyGeh4sYsABelFB/3LXMUSIUndIyYaIbyt4X+OHgnMYp4bu/L5QOvXVmLcZu/2OQo6+JBh7E0arDkk+KERm2wVBc55xJ9BK5PW2A6p7QZ/cZErTbtjcDKUm6QOdu7WmK74tYFnlljTwFIIuBX3k/SRrgLNgqZ4NnmHq6cffJ+wAuUxf5EKQy6P7hiFhwQapeqB+xbC74YlVNlAKkxgekCBO/nHcAPGOIpjdEeGHsAshR2JRSRycvGGCcZPtD0yTIS7wNkIIL61NcLmE0gwfXY3IxDO6iE7xW4Ohk9rSVYAG8p31CnZyGiT7wjpDMiTjNRDFNHes9tIP+qMk6+jbfPbVY1cfpUsU9N2EOqZR/6e5vFEopqT5tQp/97IjxyBA8rk89thgveqFjY+73aYyRPPFW0ihoTdeBSEEiC2Y38jhHiBkfvzmHPTbyqa0kO/4dVbeHbPcH4fnRG2CmLvhG7uPW6Y7yS9XvjtDFBGb/0e3eE//quRFKaQp8+rPODYdYHS2z614i+N5yENkgCCaKevaii8Yfy97yn+UDQd1x2arXTCDBylIEK2GlIRe8AaUvxGF866bK3ziIuOEOjDGVrytOQzbvUUy7wb2NpXYi0uf7CMmN1YZ9ULvQjOVY83SbjUDICVRKjHwX1kgLc+EdMFhhrc/7yp9zn+MXbSn4a61xa/YsaZhSirSR29I3VQWJDOa8c/uHNj4ACT8Bz4O2Cxkj3yaSWNhuKBMkJA6xh0rvXR5tpZFm/eWl9jgY3cAaUkkaCkWpt4/zAClUaxuiiyJQniIGHRYRgtmAbd+u1re+IP1E+0A8N2uJPdcfjGbL4xYdRUTLnLYECBrc5OA+/qAQOQF9x4BxlrpEnu4X1sgeJ5Sw8lTdUd1k8rVzfDRfu/vBTIyW84prXWrzJuL95DpUjUZ/yrO3FezKXO6KeNX21S3py4Nm4TQsaOucDeKo/BLMJpL42wpNGeBAhotWWEC6sfC1NRGaCp1cU9Qfi6lRfKOZINSlfMWuoytdJRoJ1bQUF5MGgGpd0pBFx9Ec8oBio3S4sJTRNKlKf14W9WyFuripdzvDMqW0gYMz+4WukjMeJcenTMKjB7O6A+f+TTBI+vp8HIYthvrj6ra2UcruEuPqODw3Np82UQnFCzLloWJTwSbc5QxENOM3vWuOXUnz0AxT+3RAfEo8+Ns5aC5yfPW7/o0nfMTD4LVhW71JeeS+/Fy2Sm04tLjyBsIOl0dBwPxBLWsSawOiTNqM8CfE8B8I/LATjNasFIGcW3YdGT1yEmGXwkjYp02XIugknGr73jaUim347gyJj/YIalAu6WP9zdL2RbNou/mROyCDUG7noXBgAR8EO3MSlGyGmw1SQKvwiA2zIco2vDYT2XvDj3RZ3tYIP3cCgV6HhHH7jwDLEwC4WTTFClawfixZRC7HHM2t0//ZRpEiIJQ7T1FwLuxd/lIa7mhMGh6yZuqxZNKkt/Sp6IhlrZYstVJ3RDSAFwPCPsu2gW+1xU5b3RfvIegsvUoWKDtTweKcxv3weGg8qGDubM3fZLtpDjoHArUzdKHb7OQBbXHqwZdIwcOUuYzDxZBDYNk8AtaOI+Fgv24i3VPanYThGgBZTvk8lxaI61xeAmZDL6Q61/kHGmDbTyrsCigjSXoFD7JTbtLXJ/9GTk3fZqOl7zUO8kTpHxrAXEdOWwp+DRMssA1Lhgt9VQ0MJ3bc93PqzbtaDeNMTP38BO+l9vK+dvGXWbLOCmMz4n7uqqd/VqruVjh8W9jA6IoaX3dnitmcSS8/Yp2LC5YM1f54smhwuetmOgFcnsECT/1DYQtW43l2of3LQCsUQfsaaUMsH3zMIclgobjP6xzuFViz0BXzt8YGMKv/9GvEXhE3/WYmHoCw5C9UiMQ7Tl8vZ0Emw/u2sS78HyM0WqNG5yjCs/OAVt0k2T6Hze7fmHvdi8Vym4IArHbp30yn91Qh8oyG0f2sTMb8XDjTsnf14cPZmPOezTYYpbKY+hxya3dXWRmZKNsP1w8/pKMIB0MGelZ1xcBQbtAy0u5JrUpD1zzRG+pN/nWA1pM7bzHLvlEVVpxk5eHci7IGu/xiJv8XQR9rffVJVv7Zqv7Nus6oUFGm0vvTnw+KCG0vrBfe2hq0kKcsJFGG0I4fWVQHk5k8n1etzulyvs4ZWW6IU0Rne6rQc/fy9ocq/rUJfW8VTx485guQGCSvdnotuN+qwoc46A+DlgaUqXvKEdP0KzJ4N+RwCDY0oM/r1qWhrlpoZiq4X/dyUyrXAPD/binIaeS1HZuwZCpvD2qu8N7hxDcMCB9Ns+BVC18ogltAFUGvtAtExU92mrjCpQ5X6TBHuZv/j1uI+87G74AhYY/FX+ZNKovI2CNuqO/QknoHKR8dn3K2qW5YEuN8gkuGh7JCTbbCWcUzoqIU2MtYoOzCSrSb5/fmTOKmsyWggpAZtAJM0ov46DVXyUqI6/tZMc1e6z4md/149I38cfpmO4qGBOdpoqfaJ58SQo15hFa/cUhaMn3RAP3ijeW31nNg3p5j1o9j+raq6zZPDsWDmL6Hpt5516OmYTCp7rj+/XWzr4DGJxFYU8tGJAsQGrfbA/icoBEjWpYts8NKqc9zpvIuvRbB9TlWY4qRRog0z+qmRY1LQuVO+VWn3gldMa9LHP3dfXIX3riwFRnlwbdDGLKGnJZQpWghOFwJA2G4JCtSqoRJ2W/lsTYDEz4zKof48WvUI1XDxybAJGfj+oxmJm3j6E71Uu60RjF58oQUL6ON2I6Ylpf5+guoS4MpQcM60Z2ibXfuKV8e4p0kANCLI0jjqnLW7r5XzB2aIXCLtl3eXGN5mYL0SSU0K9teYvKnSAzKU1o4wrONmxmSwJjuB+bHbyHZ09n3cq+iSKaYY4EnWr1BTCfm5cAuvQ5x4kV5JmU/X6T5eu8AwUUQPxwsDJ77dX62MbLZQStQhg4HPDckIWRXAeVjptY/ADmWrCks5rBW+v8V8wbGnNvKfdsmGcMpfze9HqfSbg/MFSHrPVWuT7qt41J0tr0zUlgBb0pmfMurM6KK3Fko47ZBYAqyr+Dz7JPZDEVvInDywXcksNhj+2WL5Tl3cs+HSG/O2u5vqKeDb0JG96xUGJ4BjavLMTeqXW0CDqodmJ4cwFZKJ04n2jNXPOhiPjn8+XWqpwv5IfYG5lJ1/N0eO/nmUeuwMeHkq6HwQv2CpDGC005CfJV8oUks5WZUfadm/oYyfZMvCaF7L1Bzw8HiImBJa1iN9gAGtYu8Gpy+ZhgqfmJjCDXAACzK0eQLKHyXUkg2+JRynoAuINbB8ZAX4/yzOaarB6490KfzLwTZoSwgASKwX4JOGOesh3eV3DW1N6zFK2UhMGNxPO8zgrDc2wD1bLAQKSyyAEPaT9fVEVhICj66Av2tYEAAAA=;" parent="1" vertex="1">
                    <mxGeometry x="420" y="90" width="170.48" height="190.64" as="geometry"/>
                </mxCell>
                <mxCell id="29" value="Length:" style="text;html=1;align=center;verticalAlign=middle;resizable=0;points=[];autosize=1;strokeColor=none;fillColor=none;fontSize=14;fontColor=#000000;" parent="1" vertex="1">
                    <mxGeometry x="40" y="310" width="70" height="30" as="geometry"/>
                </mxCell>
                <mxCell id="30" value="Prices:" style="text;html=1;align=center;verticalAlign=middle;resizable=0;points=[];autosize=1;strokeColor=none;fillColor=none;fontSize=14;fontColor=#000000;" parent="1" vertex="1">
                    <mxGeometry x="40" y="120" width="70" height="30" as="geometry"/>
                </mxCell>
                <mxCell id="32" value="Length" style="text;html=1;align=center;verticalAlign=middle;resizable=0;points=[];autosize=1;strokeColor=none;fillColor=none;fontSize=14;fontColor=#000000;" parent="1" vertex="1">
                    <mxGeometry x="40" y="140" width="70" height="30" as="geometry"/>
                </mxCell>
                <mxCell id="34" value="5 inches&lt;br&gt;6 inches&lt;br&gt;7 inches" style="text;html=1;align=center;verticalAlign=middle;resizable=0;points=[];autosize=1;strokeColor=none;fillColor=none;fontSize=14;fontColor=#000000;" parent="1" vertex="1">
                    <mxGeometry x="40" y="160" width="80" height="60" as="geometry"/>
                </mxCell>
                <mxCell id="35" value="$4.00&lt;br&gt;$4.50&lt;br&gt;$5.00" style="text;html=1;align=center;verticalAlign=middle;resizable=0;points=[];autosize=1;strokeColor=none;fillColor=none;fontSize=14;fontColor=#000000;" parent="1" vertex="1">
                    <mxGeometry x="110" y="160" width="60" height="60" as="geometry"/>
                </mxCell>
                <mxCell id="38" value="" style="rounded=0;whiteSpace=wrap;html=1;fontSize=14;labelBackgroundColor=none;fillColor=none;strokeColor=#000000;" parent="1" vertex="1">
                    <mxGeometry x="50" y="160" width="120" height="60" as="geometry"/>
                </mxCell>
                <mxCell id="39" value="" style="endArrow=none;html=1;strokeColor=#000000;fontSize=14;fontColor=#000000;entryX=0.5;entryY=0;entryDx=0;entryDy=0;" parent="1" target="38" edge="1">
                    <mxGeometry width="50" height="50" relative="1" as="geometry">
                        <mxPoint x="110" y="220" as="sourcePoint"/>
                        <mxPoint x="160" y="180" as="targetPoint"/>
                    </mxGeometry>
                </mxCell>
                <mxCell id="40" value="Colours" style="text;html=1;align=center;verticalAlign=middle;resizable=0;points=[];autosize=1;strokeColor=none;fillColor=none;fontSize=14;fontColor=#000000;" parent="1" vertex="1">
                    <mxGeometry x="40" y="220" width="70" height="30" as="geometry"/>
                </mxCell>
                <mxCell id="41" value="1 colour&lt;br&gt;2 colours&lt;br&gt;3 colours" style="text;html=1;align=left;verticalAlign=middle;resizable=0;points=[];autosize=1;strokeColor=none;fillColor=none;fontSize=14;fontColor=#000000;" parent="1" vertex="1">
                    <mxGeometry x="50" y="240" width="80" height="60" as="geometry"/>
                </mxCell>
                <mxCell id="42" value="+$0.50&lt;br&gt;+$1.00&lt;br&gt;+$2.00" style="text;html=1;align=center;verticalAlign=middle;resizable=0;points=[];autosize=1;strokeColor=none;fillColor=none;fontSize=14;fontColor=#000000;" parent="1" vertex="1">
                    <mxGeometry x="110" y="240" width="70" height="60" as="geometry"/>
                </mxCell>
                <mxCell id="44" value="" style="rounded=0;whiteSpace=wrap;html=1;labelBackgroundColor=none;fontSize=14;fillColor=none;strokeColor=#000000;" parent="1" vertex="1">
                    <mxGeometry x="50" y="240" width="130" height="60" as="geometry"/>
                </mxCell>
                <mxCell id="45" value="" style="endArrow=none;html=1;strokeColor=#000000;fontSize=14;fontColor=#000000;entryX=0.5;entryY=0;entryDx=0;entryDy=0;exitX=0.5;exitY=1;exitDx=0;exitDy=0;" parent="1" target="44" edge="1" source="44">
                    <mxGeometry width="50" height="50" relative="1" as="geometry">
                        <mxPoint x="115" y="310" as="sourcePoint"/>
                        <mxPoint x="165" y="260" as="targetPoint"/>
                    </mxGeometry>
                </mxCell>
                <mxCell id="46" value="" style="rounded=1;whiteSpace=wrap;html=1;labelBackgroundColor=none;strokeColor=#36393d;fontSize=14;fillColor=#eeeeee;" parent="1" vertex="1">
                    <mxGeometry x="110" y="315" width="120" height="20" as="geometry"/>
                </mxCell>
                <mxCell id="49" value="Number of Colours:" style="text;html=1;align=center;verticalAlign=middle;resizable=0;points=[];autosize=1;strokeColor=none;fillColor=none;fontSize=14;fontColor=#000000;" parent="1" vertex="1">
                    <mxGeometry x="35" y="335" width="150" height="30" as="geometry"/>
                </mxCell>
                <mxCell id="50" value="" style="rounded=1;whiteSpace=wrap;html=1;labelBackgroundColor=none;strokeColor=#36393d;fontSize=14;fillColor=#eeeeee;" parent="1" vertex="1">
                    <mxGeometry x="185" y="340" width="120" height="20" as="geometry"/>
                </mxCell>
                <mxCell id="51" value="" style="triangle;whiteSpace=wrap;html=1;labelBackgroundColor=none;strokeColor=#000000;fontSize=14;fontColor=#000000;rotation=90;fillColor=#CCCCCC;" parent="1" vertex="1">
                    <mxGeometry x="210" y="320" width="10" height="10" as="geometry"/>
                </mxCell>
                <mxCell id="53" value="" style="triangle;whiteSpace=wrap;html=1;labelBackgroundColor=none;strokeColor=#000000;fontSize=14;fontColor=#000000;rotation=90;fillColor=#CCCCCC;" parent="1" vertex="1">
                    <mxGeometry x="290" y="345" width="10" height="10" as="geometry"/>
                </mxCell>
                <mxCell id="54" value="&lt;div style=&quot;text-align: left;&quot;&gt;&lt;span style=&quot;background-color: initial;&quot;&gt;Subtotal: $5.00&lt;/span&gt;&lt;/div&gt;&lt;div style=&quot;text-align: left;&quot;&gt;&lt;span style=&quot;background-color: initial;&quot;&gt;Taxes: $0.65&lt;/span&gt;&lt;/div&gt;&lt;div style=&quot;text-align: left;&quot;&gt;&lt;span style=&quot;background-color: initial;&quot;&gt;Total: $5.65&lt;/span&gt;&lt;/div&gt;" style="text;html=1;align=center;verticalAlign=middle;resizable=0;points=[];autosize=1;strokeColor=none;fillColor=none;fontSize=14;fontColor=#000000;" parent="1" vertex="1">
                    <mxGeometry x="40" y="410" width="120" height="60" as="geometry"/>
                </mxCell>
                <mxCell id="56" value="&lt;font color=&quot;#000000&quot;&gt;Spend $6 or more and get $0.50 off!&lt;/font&gt;" style="text;html=1;align=center;verticalAlign=middle;resizable=0;points=[];autosize=1;strokeColor=none;fillColor=none;" vertex="1" parent="1">
                    <mxGeometry x="35" y="360" width="220" height="30" as="geometry"/>
                </mxCell>
                <mxCell id="57" value="Calculate" style="rounded=1;whiteSpace=wrap;html=1;fillColor=#eeeeee;strokeColor=#36393d;fontColor=#000000;" vertex="1" parent="1">
                    <mxGeometry x="50" y="390" width="70" height="20" as="geometry"/>
                </mxCell>
            </root>
        </mxGraphModel>
    </diagram>
</mxfile>